G04 #@! TF.FileFunction,Copper,L2,Bot,Signal*
%FSLAX46Y46*%
G04 Gerber Fmt 4.6, Leading zero omitted, Abs format (unit mm)*
G04 Created by KiCad (PCBNEW 4.0.5) date 03/05/17 20:07:58*
%MOMM*%
%LPD*%
G01*
G04 APERTURE LIST*
%ADD10C,0.100000*%
%ADD11R,1.000000X0.700000*%
%ADD12R,0.700000X1.000000*%
%ADD13R,1.600000X1.600000*%
%ADD14C,1.600000*%
%ADD15R,2.000000X2.000000*%
%ADD16C,2.000000*%
%ADD17R,1.700000X1.300000*%
%ADD18C,3.000000*%
%ADD19R,0.800000X0.800000*%
%ADD20C,0.800000*%
%ADD21R,2.540000X2.540000*%
%ADD22C,2.540000*%
%ADD23C,2.400000*%
%ADD24R,2.400000X2.400000*%
%ADD25R,1.450000X0.450000*%
%ADD26O,2.540000X2.032000*%
%ADD27C,5.400000*%
%ADD28C,0.600000*%
%ADD29C,1.000000*%
%ADD30R,0.650000X1.700000*%
%ADD31R,1.650000X3.810000*%
%ADD32R,1.700000X0.650000*%
%ADD33R,3.810000X1.650000*%
%ADD34C,1.300000*%
%ADD35C,0.250000*%
%ADD36C,0.500000*%
%ADD37C,3.000000*%
%ADD38C,2.000000*%
%ADD39C,1.500000*%
%ADD40C,1.000000*%
G04 APERTURE END LIST*
D10*
D11*
X179324000Y-125160000D03*
X179324000Y-123760000D03*
D12*
X172921000Y-93188000D03*
X174321000Y-93188000D03*
D11*
X173228000Y-125160000D03*
X173228000Y-123760000D03*
X176149000Y-90930500D03*
X176149000Y-92330500D03*
D12*
X169226000Y-118364000D03*
X170626000Y-118364000D03*
D13*
X192000000Y-95500000D03*
D14*
X195500000Y-95500000D03*
D13*
X176288000Y-103983000D03*
D14*
X172788000Y-103983000D03*
D11*
X169164000Y-127316000D03*
X169164000Y-128716000D03*
D12*
X172857500Y-89314500D03*
X174257500Y-89314500D03*
D11*
X169164000Y-130110000D03*
X169164000Y-131510000D03*
X176149000Y-88136500D03*
X176149000Y-89536500D03*
D15*
X167132000Y-142240000D03*
D16*
X174632000Y-142240000D03*
D13*
X193500000Y-88250000D03*
D14*
X193500000Y-84750000D03*
D13*
X183896000Y-128524000D03*
D14*
X183896000Y-132024000D03*
D17*
X183896000Y-106962000D03*
X183896000Y-110462000D03*
D18*
X160196000Y-117730000D03*
X156796000Y-117730000D03*
X160196000Y-131200000D03*
X156796000Y-131130000D03*
X156796000Y-110870000D03*
X160196000Y-110870000D03*
X156796000Y-97400000D03*
X160196000Y-97470000D03*
D19*
X166116000Y-83820000D03*
D20*
X167366000Y-83820000D03*
X168616000Y-83820000D03*
X169866000Y-83820000D03*
X171116000Y-83820000D03*
X172366000Y-83820000D03*
X173616000Y-83820000D03*
X174866000Y-83820000D03*
D21*
X159488000Y-140030060D03*
D22*
X159488000Y-136529940D03*
D21*
X159488000Y-92030060D03*
D22*
X159488000Y-88529940D03*
D23*
X202408000Y-99962000D03*
X202408000Y-106962000D03*
D24*
X191008000Y-108712000D03*
D23*
X191008000Y-105212000D03*
X202408000Y-103462000D03*
X191008000Y-101712000D03*
X202408000Y-124458000D03*
X191008000Y-126208000D03*
X202408000Y-127958000D03*
X191008000Y-129708000D03*
X202408000Y-131458000D03*
X202408000Y-138458000D03*
D24*
X191008000Y-140208000D03*
D23*
X191008000Y-136708000D03*
X202408000Y-134958000D03*
X191008000Y-133208000D03*
D21*
X201500000Y-89249940D03*
D22*
X201500000Y-92750060D03*
D23*
X202408000Y-112154000D03*
X202408000Y-119154000D03*
D24*
X191008000Y-120904000D03*
D23*
X191008000Y-117404000D03*
X202408000Y-115654000D03*
X191008000Y-113904000D03*
D12*
X169226000Y-116586000D03*
X170626000Y-116586000D03*
X169226000Y-120142000D03*
X170626000Y-120142000D03*
X172921000Y-91219500D03*
X174321000Y-91219500D03*
D11*
X178181000Y-90930500D03*
X178181000Y-92330500D03*
X182118000Y-119188000D03*
X182118000Y-120588000D03*
X182118000Y-117540000D03*
X182118000Y-116140000D03*
X183896000Y-119188000D03*
X183896000Y-120588000D03*
X183896000Y-117540000D03*
X183896000Y-116140000D03*
X171196000Y-127316000D03*
X171196000Y-128716000D03*
D12*
X172857500Y-87346000D03*
X174257500Y-87346000D03*
D11*
X171196000Y-130110000D03*
X171196000Y-131510000D03*
X178181000Y-88136500D03*
X178181000Y-89536500D03*
D25*
X179226000Y-116455000D03*
X179226000Y-117105000D03*
X179226000Y-117755000D03*
X179226000Y-118405000D03*
X179226000Y-119055000D03*
X179226000Y-119705000D03*
X179226000Y-120355000D03*
X179226000Y-121005000D03*
X179226000Y-121655000D03*
X179226000Y-122305000D03*
X173326000Y-122305000D03*
X173326000Y-121655000D03*
X173326000Y-121005000D03*
X173326000Y-120355000D03*
X173326000Y-119705000D03*
X173326000Y-119055000D03*
X173326000Y-118405000D03*
X173326000Y-117755000D03*
X173326000Y-117105000D03*
X173326000Y-116455000D03*
D26*
X187452000Y-98044000D03*
X187452000Y-100584000D03*
X187452000Y-95504000D03*
X187452000Y-103124000D03*
X187452000Y-105664000D03*
X187452000Y-108204000D03*
X187452000Y-110744000D03*
X187452000Y-113284000D03*
X187452000Y-115824000D03*
X187452000Y-118364000D03*
X187452000Y-120904000D03*
X187452000Y-123444000D03*
D27*
X203000000Y-83750000D03*
D28*
X205025000Y-83750000D03*
X204431891Y-85181891D03*
X203000000Y-85775000D03*
X201568109Y-85181891D03*
X200975000Y-83750000D03*
X201568109Y-82318109D03*
X203000000Y-81725000D03*
X204431891Y-82318109D03*
D27*
X157988000Y-144780000D03*
D28*
X160013000Y-144780000D03*
X159419891Y-146211891D03*
X157988000Y-146805000D03*
X156556109Y-146211891D03*
X155963000Y-144780000D03*
X156556109Y-143348109D03*
X157988000Y-142755000D03*
X159419891Y-143348109D03*
D27*
X203000000Y-144750000D03*
D28*
X205025000Y-144750000D03*
X204431891Y-146181891D03*
X203000000Y-146775000D03*
X201568109Y-146181891D03*
X200975000Y-144750000D03*
X201568109Y-143318109D03*
X203000000Y-142725000D03*
X204431891Y-143318109D03*
D27*
X158000000Y-83750000D03*
D28*
X160025000Y-83750000D03*
X159431891Y-85181891D03*
X158000000Y-85775000D03*
X156568109Y-85181891D03*
X155975000Y-83750000D03*
X156568109Y-82318109D03*
X158000000Y-81725000D03*
X159431891Y-82318109D03*
D29*
X197104000Y-145288000D03*
X162560000Y-83820000D03*
D30*
X167005000Y-121757000D03*
X165735000Y-121757000D03*
X164465000Y-121757000D03*
X163195000Y-121757000D03*
X163195000Y-115987000D03*
X164465000Y-115987000D03*
X165735000Y-115987000D03*
X167005000Y-115987000D03*
D31*
X166230000Y-118192000D03*
X163960000Y-118192000D03*
D30*
X163195000Y-106843000D03*
X164465000Y-106843000D03*
X165735000Y-106843000D03*
X167005000Y-106843000D03*
X167005000Y-112613000D03*
X165735000Y-112613000D03*
X164465000Y-112613000D03*
X163195000Y-112613000D03*
D31*
X163970000Y-110408000D03*
X166240000Y-110408000D03*
D30*
X175133000Y-131481000D03*
X176403000Y-131481000D03*
X177673000Y-131481000D03*
X178943000Y-131481000D03*
X178943000Y-137251000D03*
X177673000Y-137251000D03*
X176403000Y-137251000D03*
X175133000Y-137251000D03*
D31*
X175908000Y-135046000D03*
X178178000Y-135046000D03*
D32*
X182535000Y-92329000D03*
X182535000Y-91059000D03*
X182535000Y-89789000D03*
X182535000Y-88519000D03*
X188305000Y-88519000D03*
X188305000Y-89789000D03*
X188305000Y-91059000D03*
X188305000Y-92329000D03*
D33*
X186100000Y-91554000D03*
X186100000Y-89284000D03*
D14*
X169988000Y-89780000D03*
X169988000Y-97380000D03*
D28*
X182130000Y-121382000D03*
D34*
X180500000Y-95750000D03*
X180288500Y-92743500D03*
X180500000Y-97950500D03*
X180288500Y-89568500D03*
X176250000Y-114250000D03*
X174750000Y-114250000D03*
D28*
X174764000Y-118461000D03*
X177750000Y-130000000D03*
X175000000Y-130000000D03*
X174891000Y-110015500D03*
X180415500Y-121636000D03*
X168250000Y-118500000D03*
X170192000Y-124430000D03*
X170573000Y-111412500D03*
X168400000Y-120150000D03*
X164500000Y-114250000D03*
X168250000Y-116750000D03*
X180415500Y-120366000D03*
X176478500Y-109698000D03*
X163207000Y-123033000D03*
X171716000Y-119985000D03*
X165747000Y-123033000D03*
X167000000Y-105500000D03*
X164500000Y-105500000D03*
X171750000Y-116500000D03*
D35*
X182118000Y-120588000D02*
X182118000Y-121370000D01*
X182118000Y-121370000D02*
X182130000Y-121382000D01*
D36*
X182118000Y-116140000D02*
X182118000Y-114321500D01*
X182118000Y-114321500D02*
X179148250Y-111351750D01*
X169164000Y-131510000D02*
X168128000Y-131510000D01*
X168128500Y-128716000D02*
X169164000Y-128716000D01*
X167715500Y-129129000D02*
X168128500Y-128716000D01*
X167715500Y-131097500D02*
X167715500Y-129129000D01*
X168128000Y-131510000D02*
X167715500Y-131097500D01*
X169164000Y-131510000D02*
X171196000Y-131510000D01*
X171196000Y-131510000D02*
X171225000Y-131481000D01*
X171225000Y-131481000D02*
X175133000Y-131481000D01*
X174257500Y-89314500D02*
X175018000Y-89314500D01*
X175240000Y-89536500D02*
X176149000Y-89536500D01*
X175018000Y-89314500D02*
X175240000Y-89536500D01*
X176149000Y-89536500D02*
X178181000Y-89536500D01*
X178181000Y-89536500D02*
X180256500Y-89536500D01*
X180256500Y-89536500D02*
X180288500Y-89568500D01*
X174321000Y-93188000D02*
X175291500Y-93188000D01*
X175291500Y-93188000D02*
X176149000Y-92330500D01*
X176149000Y-92330500D02*
X178181000Y-92330500D01*
X178181000Y-92330500D02*
X179875500Y-92330500D01*
X179875500Y-92330500D02*
X180288500Y-92743500D01*
D35*
X179875500Y-92330500D02*
X180288500Y-92743500D01*
X180256500Y-89536500D02*
X180288500Y-89568500D01*
D37*
X180500000Y-97950500D02*
X180500000Y-95750000D01*
D36*
X181147500Y-92329000D02*
X182535000Y-92329000D01*
X180923500Y-92553000D02*
X181147500Y-92329000D01*
D38*
X180479000Y-92553000D02*
X180923500Y-92553000D01*
X180288500Y-92743500D02*
X180479000Y-92553000D01*
D36*
X182535000Y-89789000D02*
X180890000Y-89789000D01*
X180796500Y-89695500D02*
X180890000Y-89789000D01*
D38*
X180415500Y-89695500D02*
X180796500Y-89695500D01*
X180288500Y-89568500D02*
X180415500Y-89695500D01*
D37*
X176288000Y-103983000D02*
X180500000Y-103983000D01*
X180500000Y-103983000D02*
X180352000Y-103983000D01*
X180352000Y-103983000D02*
X180500000Y-103983000D01*
D35*
X173326000Y-118405000D02*
X174708000Y-118405000D01*
X174708000Y-118405000D02*
X174764000Y-118461000D01*
X173326000Y-118405000D02*
X170667000Y-118405000D01*
X170667000Y-118405000D02*
X170626000Y-118364000D01*
D36*
X177673000Y-130077000D02*
X177750000Y-130000000D01*
X177673000Y-130077000D02*
X177673000Y-131481000D01*
X175133000Y-130133000D02*
X175000000Y-130000000D01*
X175133000Y-131481000D02*
X175133000Y-130133000D01*
D37*
X168500000Y-114250000D02*
X174750000Y-114250000D01*
X174750000Y-114250000D02*
X176250000Y-114250000D01*
D39*
X166250000Y-114250000D02*
X168500000Y-114250000D01*
D37*
X180500000Y-110000000D02*
X180500000Y-103983000D01*
X180500000Y-103983000D02*
X180500000Y-97950500D01*
X176250000Y-114250000D02*
X179148250Y-111351750D01*
X179148250Y-111351750D02*
X180500000Y-110000000D01*
D36*
X167005000Y-112613000D02*
X167005000Y-115987000D01*
X165735000Y-112613000D02*
X165735000Y-115987000D01*
D35*
X179226000Y-121655000D02*
X180396500Y-121655000D01*
X169988000Y-105112500D02*
X169988000Y-97380000D01*
X174891000Y-110015500D02*
X169988000Y-105112500D01*
X180396500Y-121655000D02*
X180415500Y-121636000D01*
X179226000Y-118405000D02*
X180509600Y-118405000D01*
X180509600Y-118405000D02*
X180517100Y-118397500D01*
X173326000Y-121655000D02*
X172154100Y-121655000D01*
X172160400Y-121648700D02*
X172160500Y-121648700D01*
X172154100Y-121655000D02*
X172160400Y-121648700D01*
X169226000Y-118364000D02*
X168386000Y-118364000D01*
X168386000Y-118364000D02*
X168250000Y-118500000D01*
X179226000Y-122305000D02*
X179226000Y-123662000D01*
X179226000Y-123662000D02*
X179324000Y-123760000D01*
X172921000Y-91219500D02*
X172224000Y-91219500D01*
X171116000Y-85793500D02*
X171116000Y-83820000D01*
X171589000Y-86266500D02*
X171116000Y-85793500D01*
X171589000Y-90584500D02*
X171589000Y-86266500D01*
X172224000Y-91219500D02*
X171589000Y-90584500D01*
X172921000Y-93188000D02*
X172921000Y-91219500D01*
X173326000Y-122305000D02*
X173326000Y-123662000D01*
X173326000Y-123662000D02*
X173228000Y-123760000D01*
X176149000Y-90930500D02*
X175370500Y-90930500D01*
X175081500Y-91219500D02*
X174321000Y-91219500D01*
X175370500Y-90930500D02*
X175081500Y-91219500D01*
X178181000Y-90930500D02*
X176149000Y-90930500D01*
X182535000Y-91059000D02*
X178309500Y-91059000D01*
X178309500Y-91059000D02*
X178181000Y-90930500D01*
D40*
X183896000Y-106962000D02*
X183896000Y-104354000D01*
X185126000Y-103124000D02*
X187452000Y-103124000D01*
X183896000Y-104354000D02*
X185126000Y-103124000D01*
D38*
X191008000Y-99008000D02*
X191008000Y-96492000D01*
X191008000Y-96492000D02*
X192000000Y-95500000D01*
X192000000Y-95500000D02*
X192000000Y-96088000D01*
X192000000Y-96088000D02*
X190044000Y-98044000D01*
X190250000Y-92750000D02*
X190250000Y-93750000D01*
X190250000Y-93750000D02*
X192000000Y-95500000D01*
D36*
X188305000Y-92329000D02*
X189829000Y-92329000D01*
X189829000Y-92329000D02*
X190250000Y-92750000D01*
X188305000Y-91059000D02*
X189809000Y-91059000D01*
D38*
X190250000Y-92750000D02*
X190250000Y-91500000D01*
D36*
X189809000Y-91059000D02*
X190250000Y-91500000D01*
D38*
X187452000Y-100584000D02*
X191008000Y-100584000D01*
X191008000Y-100584000D02*
X191000000Y-100576000D01*
X191000000Y-100576000D02*
X191000000Y-100250000D01*
X191000000Y-100250000D02*
X191008000Y-100250000D01*
X187452000Y-103124000D02*
X191008000Y-103124000D01*
X191000000Y-103000000D02*
X191008000Y-103000000D01*
X191000000Y-103116000D02*
X191000000Y-103000000D01*
X191008000Y-103124000D02*
X191000000Y-103116000D01*
X191008000Y-105212000D02*
X191008000Y-108712000D01*
X191008000Y-101712000D02*
X191008000Y-103000000D01*
X191008000Y-103000000D02*
X191008000Y-105212000D01*
X187452000Y-98044000D02*
X190044000Y-98044000D01*
X191008000Y-99008000D02*
X191008000Y-100250000D01*
X191008000Y-100250000D02*
X191008000Y-101712000D01*
X190044000Y-98044000D02*
X191008000Y-99008000D01*
D35*
X166116000Y-83820000D02*
X166116000Y-98891000D01*
X170192000Y-124430000D02*
X170192000Y-127316000D01*
X168541000Y-109380500D02*
X170573000Y-111412500D01*
X168541000Y-101316000D02*
X168541000Y-109380500D01*
X166116000Y-98891000D02*
X168541000Y-101316000D01*
X170192000Y-127316000D02*
X170192000Y-127287500D01*
X170192000Y-127287500D02*
X170192000Y-127316000D01*
X169164000Y-127316000D02*
X170192000Y-127316000D01*
X170192000Y-127316000D02*
X171196000Y-127316000D01*
X172857500Y-87346000D02*
X172857500Y-86204500D01*
X173616000Y-85446000D02*
X173616000Y-83820000D01*
X172857500Y-86204500D02*
X173616000Y-85446000D01*
X172857500Y-89314500D02*
X172857500Y-87346000D01*
X176403000Y-131481000D02*
X176403000Y-129002000D01*
X176403000Y-129002000D02*
X176415000Y-129002000D01*
X171196000Y-130110000D02*
X172767000Y-130110000D01*
X178943000Y-129561500D02*
X178943000Y-131481000D01*
X178383500Y-129002000D02*
X178943000Y-129561500D01*
X173875000Y-129002000D02*
X176415000Y-129002000D01*
X176415000Y-129002000D02*
X178383500Y-129002000D01*
X172767000Y-130110000D02*
X173875000Y-129002000D01*
X171196000Y-128716000D02*
X171196000Y-130110000D01*
X171196000Y-130110000D02*
X169164000Y-130110000D01*
X176149000Y-88136500D02*
X175300500Y-88136500D01*
X174954500Y-87346000D02*
X174257500Y-87346000D01*
X175145000Y-87536500D02*
X174954500Y-87346000D01*
X175145000Y-87981000D02*
X175145000Y-87536500D01*
X175300500Y-88136500D02*
X175145000Y-87981000D01*
X178181000Y-88136500D02*
X176149000Y-88136500D01*
X182535000Y-88519000D02*
X181969500Y-88519000D01*
X181969500Y-88519000D02*
X181587000Y-88136500D01*
X181587000Y-88136500D02*
X178181000Y-88136500D01*
D38*
X174500000Y-139250000D02*
X181750000Y-139250000D01*
X181750000Y-139250000D02*
X181807000Y-139193000D01*
X175250000Y-139250000D02*
X174500000Y-139250000D01*
X174500000Y-139250000D02*
X170122000Y-139250000D01*
X170122000Y-139250000D02*
X167132000Y-142240000D01*
X191008000Y-136708000D02*
X184292000Y-136708000D01*
X184292000Y-136708000D02*
X181807000Y-139193000D01*
X175307000Y-139193000D02*
X175250000Y-139250000D01*
X181807000Y-139193000D02*
X175307000Y-139193000D01*
D36*
X178943000Y-137251000D02*
X178943000Y-139193000D01*
X178886000Y-139250000D02*
X177250000Y-139250000D01*
X178943000Y-139193000D02*
X178886000Y-139250000D01*
X177673000Y-137251000D02*
X177673000Y-139173000D01*
X177596000Y-139250000D02*
X177250000Y-139250000D01*
X177250000Y-139250000D02*
X176500000Y-139250000D01*
X177673000Y-139173000D02*
X177596000Y-139250000D01*
X175133000Y-137251000D02*
X175133000Y-139133000D01*
X175133000Y-139133000D02*
X175250000Y-139250000D01*
X176403000Y-139153000D02*
X176403000Y-137251000D01*
X176500000Y-139250000D02*
X176403000Y-139153000D01*
X175250000Y-139250000D02*
X176500000Y-139250000D01*
D38*
X191008000Y-136708000D02*
X191008000Y-140208000D01*
X191008000Y-133208000D02*
X191008000Y-136708000D01*
X191008000Y-129708000D02*
X191008000Y-133208000D01*
X191008000Y-126208000D02*
X191008000Y-129708000D01*
D37*
X193500000Y-88250000D02*
X200500060Y-88250000D01*
X200500060Y-88250000D02*
X201500000Y-89249940D01*
D36*
X188305000Y-89789000D02*
X189711000Y-89789000D01*
D38*
X190250000Y-88750000D02*
X190750000Y-88250000D01*
X190250000Y-88750000D02*
X190250000Y-89250000D01*
D36*
X189711000Y-89789000D02*
X190250000Y-89250000D01*
X188305000Y-88519000D02*
X190019000Y-88519000D01*
X190288000Y-88250000D02*
X190750000Y-88250000D01*
X190019000Y-88519000D02*
X190288000Y-88250000D01*
D38*
X193500000Y-88250000D02*
X190750000Y-88250000D01*
D40*
X187452000Y-115824000D02*
X186324000Y-115824000D01*
X186324000Y-115824000D02*
X183896000Y-113396000D01*
X183896000Y-113396000D02*
X183896000Y-110462000D01*
D38*
X187452000Y-120904000D02*
X187452000Y-118364000D01*
X187452000Y-118364000D02*
X190048000Y-118364000D01*
X190048000Y-118364000D02*
X191008000Y-117404000D01*
X183896000Y-128524000D02*
X183896000Y-123354000D01*
X183896000Y-123354000D02*
X186346000Y-120904000D01*
X186346000Y-120904000D02*
X187452000Y-120904000D01*
X191008000Y-117404000D02*
X191008000Y-113904000D01*
X191008000Y-117404000D02*
X191008000Y-120904000D01*
X191008000Y-120904000D02*
X187452000Y-120904000D01*
X187452000Y-118364000D02*
X187452000Y-115824000D01*
X187452000Y-115824000D02*
X190926000Y-115824000D01*
X190926000Y-115824000D02*
X191008000Y-115742000D01*
X191008000Y-113904000D02*
X191008000Y-115742000D01*
X191008000Y-115742000D02*
X191000000Y-115750000D01*
D35*
X169226000Y-120142000D02*
X168408000Y-120142000D01*
X168408000Y-120142000D02*
X168400000Y-120150000D01*
D38*
X163000000Y-117730000D02*
X160196000Y-117730000D01*
D39*
X163000000Y-117730000D02*
X163498000Y-117730000D01*
D36*
X164465000Y-115987000D02*
X164465000Y-117687000D01*
X164465000Y-117687000D02*
X163960000Y-118192000D01*
X163195000Y-115987000D02*
X163195000Y-117427000D01*
X163195000Y-117427000D02*
X163960000Y-118192000D01*
D39*
X163498000Y-117730000D02*
X163960000Y-118192000D01*
D37*
X156796000Y-117730000D02*
X160196000Y-117730000D01*
X159488000Y-136529940D02*
X159488000Y-133822000D01*
X159488000Y-133822000D02*
X156796000Y-131130000D01*
X160196000Y-131200000D02*
X156866000Y-131200000D01*
X156866000Y-131200000D02*
X156796000Y-131130000D01*
X159488000Y-136529940D02*
X159488000Y-131908000D01*
X159488000Y-131908000D02*
X160196000Y-131200000D01*
D35*
X169226000Y-116586000D02*
X168414000Y-116586000D01*
X164465000Y-114215000D02*
X164465000Y-112613000D01*
X164500000Y-114250000D02*
X164465000Y-114215000D01*
X168414000Y-116586000D02*
X168250000Y-116750000D01*
D38*
X163000000Y-110870000D02*
X160196000Y-110870000D01*
D39*
X163000000Y-110870000D02*
X163508000Y-110870000D01*
X163508000Y-110870000D02*
X163970000Y-110408000D01*
D37*
X156796000Y-110870000D02*
X160196000Y-110870000D01*
D35*
X163195000Y-112613000D02*
X163195000Y-111183000D01*
X163195000Y-111183000D02*
X163970000Y-110408000D01*
X160196000Y-110870000D02*
X160658000Y-110408000D01*
X160658000Y-110408000D02*
X163970000Y-110408000D01*
X163970000Y-110408000D02*
X164465000Y-110903000D01*
X164465000Y-110903000D02*
X164465000Y-112613000D01*
D37*
X159488000Y-92030060D02*
X159488000Y-94708000D01*
X159488000Y-94708000D02*
X156796000Y-97400000D01*
X160196000Y-97470000D02*
X156866000Y-97470000D01*
X156866000Y-97470000D02*
X156796000Y-97400000D01*
X159488000Y-92030060D02*
X159488000Y-96762000D01*
X159488000Y-96762000D02*
X160196000Y-97470000D01*
D35*
X168616000Y-83820000D02*
X168616000Y-87461500D01*
X180404500Y-120355000D02*
X179226000Y-120355000D01*
X180415500Y-120366000D02*
X180404500Y-120355000D01*
X171081000Y-104300500D02*
X176478500Y-109698000D01*
X171081000Y-101951000D02*
X171081000Y-104300500D01*
X171652500Y-101379500D02*
X171081000Y-101951000D01*
X171652500Y-95537500D02*
X171652500Y-101379500D01*
X168287000Y-92172000D02*
X171652500Y-95537500D01*
X168287000Y-87790500D02*
X168287000Y-92172000D01*
X168616000Y-87461500D02*
X168287000Y-87790500D01*
D36*
X164477000Y-121769000D02*
X164477000Y-123287000D01*
D39*
X167005000Y-123275000D02*
X167017000Y-123287000D01*
X167017000Y-123287000D02*
X167017000Y-124303000D01*
X167017000Y-124303000D02*
X164477000Y-124303000D01*
X164477000Y-124303000D02*
X164477000Y-123287000D01*
D36*
X167005000Y-123275000D02*
X167005000Y-121757000D01*
X164477000Y-121769000D02*
X164465000Y-121757000D01*
D35*
X163195000Y-123021000D02*
X163195000Y-121757000D01*
X163207000Y-123033000D02*
X163195000Y-123021000D01*
X165735000Y-121757000D02*
X165735000Y-123021000D01*
X171996000Y-119705000D02*
X173326000Y-119705000D01*
X171716000Y-119985000D02*
X171996000Y-119705000D01*
X165735000Y-123021000D02*
X165747000Y-123033000D01*
D36*
X163195000Y-106843000D02*
X163195000Y-105266400D01*
X165735000Y-105366600D02*
X165735000Y-106843000D01*
X165747000Y-105354600D02*
X165735000Y-105366600D01*
D39*
X165747000Y-104224300D02*
X165747000Y-105354600D01*
X165772400Y-104198900D02*
X165747000Y-104224300D01*
X163207000Y-104198900D02*
X165772400Y-104198900D01*
X163194300Y-104186200D02*
X163207000Y-104198900D01*
X163194300Y-105267100D02*
X163194300Y-104186200D01*
X163195000Y-105266400D02*
X163194300Y-105267100D01*
D35*
X167005000Y-106843000D02*
X167005000Y-105505000D01*
X167005000Y-105505000D02*
X167000000Y-105500000D01*
X173326000Y-117105000D02*
X172355000Y-117105000D01*
X164465000Y-105535000D02*
X164465000Y-106843000D01*
X164500000Y-105500000D02*
X164465000Y-105535000D01*
X172355000Y-117105000D02*
X171750000Y-116500000D01*
X173326000Y-117755000D02*
X171795000Y-117755000D01*
X171795000Y-117755000D02*
X170626000Y-116586000D01*
X173326000Y-119055000D02*
X171713000Y-119055000D01*
X171713000Y-119055000D02*
X170626000Y-120142000D01*
X182118000Y-119188000D02*
X183896000Y-119188000D01*
X179226000Y-119055000D02*
X181985000Y-119055000D01*
X181985000Y-119055000D02*
X182118000Y-119188000D01*
X182118000Y-117540000D02*
X183896000Y-117540000D01*
X179226000Y-117755000D02*
X180677000Y-117755000D01*
X180892000Y-117540000D02*
X182118000Y-117540000D01*
X180677000Y-117755000D02*
X180892000Y-117540000D01*
X179226000Y-116455000D02*
X180441500Y-116455000D01*
X180479000Y-117000500D02*
X180374500Y-117105000D01*
X180479000Y-116492500D02*
X180479000Y-117000500D01*
X180441500Y-116455000D02*
X180479000Y-116492500D01*
X179226000Y-117105000D02*
X180374500Y-117105000D01*
G36*
X200912314Y-81485537D02*
X201143922Y-81717145D01*
X200966990Y-81893767D01*
X200735537Y-81662314D01*
X200350804Y-81979755D01*
X199875019Y-83128310D01*
X199874983Y-84371512D01*
X200350702Y-85520094D01*
X200350804Y-85520245D01*
X200735537Y-85837686D01*
X200967145Y-85606078D01*
X201143767Y-85783010D01*
X200912314Y-86014463D01*
X201229755Y-86399196D01*
X202378310Y-86874981D01*
X203621512Y-86875017D01*
X204770094Y-86399298D01*
X204770245Y-86399196D01*
X205087686Y-86014463D01*
X204856078Y-85782855D01*
X205033010Y-85606233D01*
X205264463Y-85837686D01*
X205500000Y-85643346D01*
X205500000Y-142856654D01*
X205264463Y-142662314D01*
X205032855Y-142893922D01*
X204856233Y-142716990D01*
X205087686Y-142485537D01*
X204770245Y-142100804D01*
X203621690Y-141625019D01*
X202378488Y-141624983D01*
X201229906Y-142100702D01*
X201229755Y-142100804D01*
X200912314Y-142485537D01*
X201143922Y-142717145D01*
X200966990Y-142893767D01*
X200735537Y-142662314D01*
X200350804Y-142979755D01*
X199875019Y-144128310D01*
X199874983Y-145371512D01*
X200350702Y-146520094D01*
X200350804Y-146520245D01*
X200735537Y-146837686D01*
X200967145Y-146606078D01*
X201143767Y-146783010D01*
X200912314Y-147014463D01*
X201106654Y-147250000D01*
X159906099Y-147250000D01*
X160075686Y-147044463D01*
X159844078Y-146812855D01*
X160021010Y-146636233D01*
X160252463Y-146867686D01*
X160637196Y-146550245D01*
X161045634Y-145564265D01*
X195708758Y-145564265D01*
X195920687Y-146077172D01*
X196312764Y-146469934D01*
X196825300Y-146682758D01*
X197380265Y-146683242D01*
X197893172Y-146471313D01*
X198285934Y-146079236D01*
X198498758Y-145566700D01*
X198499242Y-145011735D01*
X198287313Y-144498828D01*
X197895236Y-144106066D01*
X197382700Y-143893242D01*
X196827735Y-143892758D01*
X196314828Y-144104687D01*
X195922066Y-144496764D01*
X195709242Y-145009300D01*
X195708758Y-145564265D01*
X161045634Y-145564265D01*
X161112981Y-145401690D01*
X161113017Y-144158488D01*
X160637298Y-143009906D01*
X160637196Y-143009755D01*
X160252463Y-142692314D01*
X160020855Y-142923922D01*
X159844233Y-142746990D01*
X160075686Y-142515537D01*
X159758245Y-142130804D01*
X158778770Y-141725060D01*
X159256750Y-141725060D01*
X159363000Y-141618810D01*
X159363000Y-140155060D01*
X159613000Y-140155060D01*
X159613000Y-141618810D01*
X159719250Y-141725060D01*
X160842538Y-141725060D01*
X160998743Y-141660358D01*
X161118298Y-141540803D01*
X161183000Y-141384598D01*
X161183000Y-141240000D01*
X165698674Y-141240000D01*
X165698674Y-143240000D01*
X165728309Y-143397496D01*
X165821389Y-143542146D01*
X165963412Y-143639186D01*
X166132000Y-143673326D01*
X168132000Y-143673326D01*
X168289496Y-143643691D01*
X168434146Y-143550611D01*
X168531186Y-143408588D01*
X168557931Y-143276515D01*
X173772262Y-143276515D01*
X173882291Y-143484550D01*
X174415627Y-143676716D01*
X174981905Y-143650155D01*
X175381709Y-143484550D01*
X175491738Y-143276515D01*
X174632000Y-142416777D01*
X173772262Y-143276515D01*
X168557931Y-143276515D01*
X168565326Y-143240000D01*
X168565326Y-142821928D01*
X169363627Y-142023627D01*
X173195284Y-142023627D01*
X173221845Y-142589905D01*
X173387450Y-142989709D01*
X173595485Y-143099738D01*
X174455223Y-142240000D01*
X174808777Y-142240000D01*
X175668515Y-143099738D01*
X175876550Y-142989709D01*
X176068716Y-142456373D01*
X176042155Y-141890095D01*
X175876550Y-141490291D01*
X175668515Y-141380262D01*
X174808777Y-142240000D01*
X174455223Y-142240000D01*
X173595485Y-141380262D01*
X173387450Y-141490291D01*
X173195284Y-142023627D01*
X169363627Y-142023627D01*
X170183769Y-141203485D01*
X173772262Y-141203485D01*
X174632000Y-142063223D01*
X175491738Y-141203485D01*
X175381709Y-140995450D01*
X174848373Y-140803284D01*
X174282095Y-140829845D01*
X173882291Y-140995450D01*
X173772262Y-141203485D01*
X170183769Y-141203485D01*
X170712254Y-140675000D01*
X181750000Y-140675000D01*
X182295324Y-140566528D01*
X182757627Y-140257627D01*
X184882254Y-138133000D01*
X189583000Y-138133000D01*
X189583000Y-138647747D01*
X189505854Y-138697389D01*
X189408814Y-138839412D01*
X189374674Y-139008000D01*
X189374674Y-141408000D01*
X189404309Y-141565496D01*
X189497389Y-141710146D01*
X189639412Y-141807186D01*
X189808000Y-141841326D01*
X192208000Y-141841326D01*
X192365496Y-141811691D01*
X192510146Y-141718611D01*
X192607186Y-141576588D01*
X192641326Y-141408000D01*
X192641326Y-139639249D01*
X201403527Y-139639249D01*
X201538039Y-139868061D01*
X202143868Y-140093646D01*
X202789908Y-140070219D01*
X203277961Y-139868061D01*
X203412473Y-139639249D01*
X202408000Y-138634777D01*
X201403527Y-139639249D01*
X192641326Y-139639249D01*
X192641326Y-139008000D01*
X192611691Y-138850504D01*
X192518611Y-138705854D01*
X192433000Y-138647359D01*
X192433000Y-138193868D01*
X200772354Y-138193868D01*
X200795781Y-138839908D01*
X200997939Y-139327961D01*
X201226751Y-139462473D01*
X202231223Y-138458000D01*
X202584777Y-138458000D01*
X203589249Y-139462473D01*
X203818061Y-139327961D01*
X204043646Y-138722132D01*
X204020219Y-138076092D01*
X203818061Y-137588039D01*
X203589249Y-137453527D01*
X202584777Y-138458000D01*
X202231223Y-138458000D01*
X201226751Y-137453527D01*
X200997939Y-137588039D01*
X200772354Y-138193868D01*
X192433000Y-138193868D01*
X192433000Y-137513625D01*
X192531358Y-137276751D01*
X201403527Y-137276751D01*
X202408000Y-138281223D01*
X203412473Y-137276751D01*
X203277961Y-137047939D01*
X202672132Y-136822354D01*
X202026092Y-136845781D01*
X201538039Y-137047939D01*
X201403527Y-137276751D01*
X192531358Y-137276751D01*
X192632718Y-137032651D01*
X192633282Y-136386186D01*
X192531250Y-136139249D01*
X201403527Y-136139249D01*
X201538039Y-136368061D01*
X202143868Y-136593646D01*
X202789908Y-136570219D01*
X203277961Y-136368061D01*
X203412473Y-136139249D01*
X202408000Y-135134777D01*
X201403527Y-136139249D01*
X192531250Y-136139249D01*
X192433000Y-135901466D01*
X192433000Y-134693868D01*
X200772354Y-134693868D01*
X200795781Y-135339908D01*
X200997939Y-135827961D01*
X201226751Y-135962473D01*
X202231223Y-134958000D01*
X202584777Y-134958000D01*
X203589249Y-135962473D01*
X203818061Y-135827961D01*
X204043646Y-135222132D01*
X204020219Y-134576092D01*
X203818061Y-134088039D01*
X203589249Y-133953527D01*
X202584777Y-134958000D01*
X202231223Y-134958000D01*
X201226751Y-133953527D01*
X200997939Y-134088039D01*
X200772354Y-134693868D01*
X192433000Y-134693868D01*
X192433000Y-134013625D01*
X192531358Y-133776751D01*
X201403527Y-133776751D01*
X202408000Y-134781223D01*
X203412473Y-133776751D01*
X203277961Y-133547939D01*
X202672132Y-133322354D01*
X202026092Y-133345781D01*
X201538039Y-133547939D01*
X201403527Y-133776751D01*
X192531358Y-133776751D01*
X192632718Y-133532651D01*
X192633282Y-132886186D01*
X192531250Y-132639249D01*
X201403527Y-132639249D01*
X201538039Y-132868061D01*
X202143868Y-133093646D01*
X202789908Y-133070219D01*
X203277961Y-132868061D01*
X203412473Y-132639249D01*
X202408000Y-131634777D01*
X201403527Y-132639249D01*
X192531250Y-132639249D01*
X192433000Y-132401466D01*
X192433000Y-131193868D01*
X200772354Y-131193868D01*
X200795781Y-131839908D01*
X200997939Y-132327961D01*
X201226751Y-132462473D01*
X202231223Y-131458000D01*
X202584777Y-131458000D01*
X203589249Y-132462473D01*
X203818061Y-132327961D01*
X204043646Y-131722132D01*
X204020219Y-131076092D01*
X203818061Y-130588039D01*
X203589249Y-130453527D01*
X202584777Y-131458000D01*
X202231223Y-131458000D01*
X201226751Y-130453527D01*
X200997939Y-130588039D01*
X200772354Y-131193868D01*
X192433000Y-131193868D01*
X192433000Y-130513625D01*
X192531358Y-130276751D01*
X201403527Y-130276751D01*
X202408000Y-131281223D01*
X203412473Y-130276751D01*
X203277961Y-130047939D01*
X202672132Y-129822354D01*
X202026092Y-129845781D01*
X201538039Y-130047939D01*
X201403527Y-130276751D01*
X192531358Y-130276751D01*
X192632718Y-130032651D01*
X192633282Y-129386186D01*
X192531250Y-129139249D01*
X201403527Y-129139249D01*
X201538039Y-129368061D01*
X202143868Y-129593646D01*
X202789908Y-129570219D01*
X203277961Y-129368061D01*
X203412473Y-129139249D01*
X202408000Y-128134777D01*
X201403527Y-129139249D01*
X192531250Y-129139249D01*
X192433000Y-128901466D01*
X192433000Y-127693868D01*
X200772354Y-127693868D01*
X200795781Y-128339908D01*
X200997939Y-128827961D01*
X201226751Y-128962473D01*
X202231223Y-127958000D01*
X202584777Y-127958000D01*
X203589249Y-128962473D01*
X203818061Y-128827961D01*
X204043646Y-128222132D01*
X204020219Y-127576092D01*
X203818061Y-127088039D01*
X203589249Y-126953527D01*
X202584777Y-127958000D01*
X202231223Y-127958000D01*
X201226751Y-126953527D01*
X200997939Y-127088039D01*
X200772354Y-127693868D01*
X192433000Y-127693868D01*
X192433000Y-127013625D01*
X192531358Y-126776751D01*
X201403527Y-126776751D01*
X202408000Y-127781223D01*
X203412473Y-126776751D01*
X203277961Y-126547939D01*
X202672132Y-126322354D01*
X202026092Y-126345781D01*
X201538039Y-126547939D01*
X201403527Y-126776751D01*
X192531358Y-126776751D01*
X192632718Y-126532651D01*
X192633282Y-125886186D01*
X192531250Y-125639249D01*
X201403527Y-125639249D01*
X201538039Y-125868061D01*
X202143868Y-126093646D01*
X202789908Y-126070219D01*
X203277961Y-125868061D01*
X203412473Y-125639249D01*
X202408000Y-124634777D01*
X201403527Y-125639249D01*
X192531250Y-125639249D01*
X192386412Y-125288714D01*
X191929691Y-124831195D01*
X191332651Y-124583282D01*
X190686186Y-124582718D01*
X190088714Y-124829588D01*
X189631195Y-125286309D01*
X189383282Y-125883349D01*
X189382718Y-126529814D01*
X189583000Y-127014534D01*
X189583000Y-128902375D01*
X189383282Y-129383349D01*
X189382718Y-130029814D01*
X189583000Y-130514534D01*
X189583000Y-132402375D01*
X189383282Y-132883349D01*
X189382718Y-133529814D01*
X189583000Y-134014534D01*
X189583000Y-135283000D01*
X184292000Y-135283000D01*
X183746676Y-135391472D01*
X183284373Y-135700373D01*
X181216746Y-137768000D01*
X179701326Y-137768000D01*
X179701326Y-136401000D01*
X179671691Y-136243504D01*
X179578611Y-136098854D01*
X179436588Y-136001814D01*
X179436326Y-136001761D01*
X179436326Y-133141000D01*
X179406691Y-132983504D01*
X179362987Y-132915585D01*
X183181191Y-132915585D01*
X183266670Y-133102862D01*
X183727437Y-133261573D01*
X184213867Y-133231874D01*
X184525330Y-133102862D01*
X184610809Y-132915585D01*
X183896000Y-132200777D01*
X183181191Y-132915585D01*
X179362987Y-132915585D01*
X179313611Y-132838854D01*
X179204535Y-132764326D01*
X179268000Y-132764326D01*
X179425496Y-132734691D01*
X179570146Y-132641611D01*
X179667186Y-132499588D01*
X179701326Y-132331000D01*
X179701326Y-131855437D01*
X182658427Y-131855437D01*
X182688126Y-132341867D01*
X182817138Y-132653330D01*
X183004415Y-132738809D01*
X183719223Y-132024000D01*
X184072777Y-132024000D01*
X184787585Y-132738809D01*
X184974862Y-132653330D01*
X185133573Y-132192563D01*
X185103874Y-131706133D01*
X184974862Y-131394670D01*
X184787585Y-131309191D01*
X184072777Y-132024000D01*
X183719223Y-132024000D01*
X183004415Y-131309191D01*
X182817138Y-131394670D01*
X182658427Y-131855437D01*
X179701326Y-131855437D01*
X179701326Y-131132415D01*
X183181191Y-131132415D01*
X183896000Y-131847223D01*
X184610809Y-131132415D01*
X184525330Y-130945138D01*
X184064563Y-130786427D01*
X183578133Y-130816126D01*
X183266670Y-130945138D01*
X183181191Y-131132415D01*
X179701326Y-131132415D01*
X179701326Y-130631000D01*
X179671691Y-130473504D01*
X179578611Y-130328854D01*
X179493000Y-130270359D01*
X179493000Y-129561500D01*
X179451134Y-129351024D01*
X179331909Y-129172591D01*
X179331906Y-129172589D01*
X178772409Y-128613091D01*
X178593976Y-128493866D01*
X178383500Y-128452000D01*
X173875005Y-128452000D01*
X173875000Y-128451999D01*
X173664524Y-128493866D01*
X173486091Y-128613091D01*
X173486089Y-128613094D01*
X172539182Y-129560000D01*
X172072340Y-129560000D01*
X172006611Y-129457854D01*
X171941271Y-129413209D01*
X171998146Y-129376611D01*
X172095186Y-129234588D01*
X172129326Y-129066000D01*
X172129326Y-128366000D01*
X172099691Y-128208504D01*
X172006611Y-128063854D01*
X171936749Y-128016119D01*
X171998146Y-127976611D01*
X172095186Y-127834588D01*
X172129326Y-127666000D01*
X172129326Y-126966000D01*
X172099691Y-126808504D01*
X172006611Y-126663854D01*
X171864588Y-126566814D01*
X171696000Y-126532674D01*
X170742000Y-126532674D01*
X170742000Y-125391250D01*
X172303000Y-125391250D01*
X172303000Y-125594538D01*
X172367702Y-125750743D01*
X172487257Y-125870298D01*
X172643462Y-125935000D01*
X172996750Y-125935000D01*
X173103000Y-125828750D01*
X173103000Y-125285000D01*
X173353000Y-125285000D01*
X173353000Y-125828750D01*
X173459250Y-125935000D01*
X173812538Y-125935000D01*
X173968743Y-125870298D01*
X174088298Y-125750743D01*
X174153000Y-125594538D01*
X174153000Y-125391250D01*
X178399000Y-125391250D01*
X178399000Y-125594538D01*
X178463702Y-125750743D01*
X178583257Y-125870298D01*
X178739462Y-125935000D01*
X179092750Y-125935000D01*
X179199000Y-125828750D01*
X179199000Y-125285000D01*
X179449000Y-125285000D01*
X179449000Y-125828750D01*
X179555250Y-125935000D01*
X179908538Y-125935000D01*
X180064743Y-125870298D01*
X180184298Y-125750743D01*
X180249000Y-125594538D01*
X180249000Y-125391250D01*
X180142750Y-125285000D01*
X179449000Y-125285000D01*
X179199000Y-125285000D01*
X178505250Y-125285000D01*
X178399000Y-125391250D01*
X174153000Y-125391250D01*
X174046750Y-125285000D01*
X173353000Y-125285000D01*
X173103000Y-125285000D01*
X172409250Y-125285000D01*
X172303000Y-125391250D01*
X170742000Y-125391250D01*
X170742000Y-124905371D01*
X170806267Y-124841216D01*
X170916874Y-124574844D01*
X170917126Y-124286421D01*
X170806984Y-124019857D01*
X170603216Y-123815733D01*
X170336844Y-123705126D01*
X170048421Y-123704874D01*
X169781857Y-123815016D01*
X169577733Y-124018784D01*
X169467126Y-124285156D01*
X169466874Y-124573579D01*
X169577016Y-124840143D01*
X169642000Y-124905241D01*
X169642000Y-126532674D01*
X168664000Y-126532674D01*
X168506504Y-126562309D01*
X168361854Y-126655389D01*
X168264814Y-126797412D01*
X168230674Y-126966000D01*
X168230674Y-127666000D01*
X168260309Y-127823496D01*
X168353389Y-127968146D01*
X168423251Y-128015881D01*
X168384215Y-128041000D01*
X168128500Y-128041000D01*
X167870188Y-128092381D01*
X167651203Y-128238703D01*
X167238203Y-128651703D01*
X167091881Y-128870688D01*
X167091881Y-128870689D01*
X167040500Y-129129000D01*
X167040500Y-131097500D01*
X167091881Y-131355812D01*
X167238203Y-131574797D01*
X167650703Y-131987297D01*
X167869688Y-132133619D01*
X168128000Y-132185000D01*
X168386837Y-132185000D01*
X168495412Y-132259186D01*
X168664000Y-132293326D01*
X169664000Y-132293326D01*
X169821496Y-132263691D01*
X169943785Y-132185000D01*
X170418837Y-132185000D01*
X170527412Y-132259186D01*
X170696000Y-132293326D01*
X171696000Y-132293326D01*
X171853496Y-132263691D01*
X171998146Y-132170611D01*
X172008129Y-132156000D01*
X174374674Y-132156000D01*
X174374674Y-132331000D01*
X174404309Y-132488496D01*
X174497389Y-132633146D01*
X174639412Y-132730186D01*
X174808000Y-132764326D01*
X174883519Y-132764326D01*
X174780854Y-132830389D01*
X174683814Y-132972412D01*
X174649674Y-133141000D01*
X174649674Y-135997843D01*
X174505854Y-136090389D01*
X174408814Y-136232412D01*
X174374674Y-136401000D01*
X174374674Y-137825000D01*
X170122000Y-137825000D01*
X169576676Y-137933472D01*
X169199680Y-138185373D01*
X169114373Y-138242373D01*
X166550072Y-140806674D01*
X166132000Y-140806674D01*
X165974504Y-140836309D01*
X165829854Y-140929389D01*
X165732814Y-141071412D01*
X165698674Y-141240000D01*
X161183000Y-141240000D01*
X161183000Y-140261310D01*
X161076750Y-140155060D01*
X159613000Y-140155060D01*
X159363000Y-140155060D01*
X157899250Y-140155060D01*
X157793000Y-140261310D01*
X157793000Y-141384598D01*
X157857702Y-141540803D01*
X157971900Y-141655001D01*
X157366488Y-141654983D01*
X156217906Y-142130702D01*
X156217755Y-142130804D01*
X155900314Y-142515537D01*
X156131922Y-142747145D01*
X155954990Y-142923767D01*
X155723537Y-142692314D01*
X155500000Y-142876753D01*
X155500000Y-132556476D01*
X155704151Y-132760984D01*
X155704957Y-132761319D01*
X157563000Y-134619361D01*
X157563000Y-136529940D01*
X157709532Y-137266606D01*
X158126819Y-137891121D01*
X158751334Y-138308408D01*
X158885323Y-138335060D01*
X158133462Y-138335060D01*
X157977257Y-138399762D01*
X157857702Y-138519317D01*
X157793000Y-138675522D01*
X157793000Y-139798810D01*
X157899250Y-139905060D01*
X159363000Y-139905060D01*
X159363000Y-139885060D01*
X159613000Y-139885060D01*
X159613000Y-139905060D01*
X161076750Y-139905060D01*
X161183000Y-139798810D01*
X161183000Y-138675522D01*
X161118298Y-138519317D01*
X160998743Y-138399762D01*
X160842538Y-138335060D01*
X160090677Y-138335060D01*
X160224666Y-138308408D01*
X160849181Y-137891121D01*
X161266468Y-137266606D01*
X161413000Y-136529940D01*
X161413000Y-133822005D01*
X161413001Y-133822000D01*
X161413000Y-133821995D01*
X161413000Y-132705361D01*
X161556565Y-132561796D01*
X161826984Y-132291849D01*
X162120665Y-131584586D01*
X162121333Y-130818774D01*
X161828887Y-130111000D01*
X161287849Y-129569016D01*
X160580586Y-129275335D01*
X159814774Y-129274667D01*
X159813968Y-129275000D01*
X157348358Y-129275000D01*
X157180586Y-129205335D01*
X156796003Y-129205000D01*
X156796000Y-129204999D01*
X156795997Y-129205000D01*
X156414774Y-129204667D01*
X155707000Y-129497113D01*
X155500000Y-129703752D01*
X155500000Y-119156476D01*
X155704151Y-119360984D01*
X156411414Y-119654665D01*
X157177226Y-119655333D01*
X157178032Y-119655000D01*
X160195466Y-119655000D01*
X160577226Y-119655333D01*
X161285000Y-119362887D01*
X161493250Y-119155000D01*
X162701674Y-119155000D01*
X162701674Y-120097000D01*
X162731309Y-120254496D01*
X162824389Y-120399146D01*
X162933465Y-120473674D01*
X162870000Y-120473674D01*
X162712504Y-120503309D01*
X162567854Y-120596389D01*
X162470814Y-120738412D01*
X162436674Y-120907000D01*
X162436674Y-122607000D01*
X162466309Y-122764496D01*
X162507132Y-122827936D01*
X162482126Y-122888156D01*
X162481874Y-123176579D01*
X162592016Y-123443143D01*
X162795784Y-123647267D01*
X163062156Y-123757874D01*
X163302000Y-123758084D01*
X163302000Y-124303000D01*
X163391442Y-124752653D01*
X163646150Y-125133850D01*
X164027347Y-125388558D01*
X164477000Y-125478000D01*
X167017000Y-125478000D01*
X167466653Y-125388558D01*
X167847850Y-125133850D01*
X168102558Y-124752653D01*
X168192000Y-124303000D01*
X168192000Y-123287000D01*
X168102558Y-122837347D01*
X167959240Y-122622857D01*
X167847851Y-122456150D01*
X167835850Y-122444150D01*
X167763326Y-122395691D01*
X167763326Y-120907000D01*
X167733691Y-120749504D01*
X167640611Y-120604854D01*
X167498588Y-120507814D01*
X167330000Y-120473674D01*
X167254481Y-120473674D01*
X167357146Y-120407611D01*
X167454186Y-120265588D01*
X167488326Y-120097000D01*
X167488326Y-117240157D01*
X167630323Y-117148784D01*
X167635016Y-117160143D01*
X167838784Y-117364267D01*
X168105156Y-117474874D01*
X168393579Y-117475126D01*
X168579972Y-117398110D01*
X168697051Y-117478106D01*
X168635257Y-117503702D01*
X168515702Y-117623257D01*
X168451000Y-117779462D01*
X168451000Y-118132750D01*
X168557250Y-118239000D01*
X169101000Y-118239000D01*
X169101000Y-118219000D01*
X169351000Y-118219000D01*
X169351000Y-118239000D01*
X169371000Y-118239000D01*
X169371000Y-118489000D01*
X169351000Y-118489000D01*
X169351000Y-118509000D01*
X169101000Y-118509000D01*
X169101000Y-118489000D01*
X168557250Y-118489000D01*
X168451000Y-118595250D01*
X168451000Y-118948538D01*
X168515702Y-119104743D01*
X168635257Y-119224298D01*
X168699150Y-119250763D01*
X168573854Y-119331389D01*
X168509827Y-119425095D01*
X168256421Y-119424874D01*
X167989857Y-119535016D01*
X167785733Y-119738784D01*
X167675126Y-120005156D01*
X167674874Y-120293579D01*
X167785016Y-120560143D01*
X167988784Y-120764267D01*
X168255156Y-120874874D01*
X168520963Y-120875106D01*
X168565389Y-120944146D01*
X168707412Y-121041186D01*
X168876000Y-121075326D01*
X169576000Y-121075326D01*
X169733496Y-121045691D01*
X169878146Y-120952611D01*
X169925881Y-120882749D01*
X169965389Y-120944146D01*
X170107412Y-121041186D01*
X170276000Y-121075326D01*
X170976000Y-121075326D01*
X171133496Y-121045691D01*
X171278146Y-120952611D01*
X171375186Y-120810588D01*
X171409200Y-120642624D01*
X171571156Y-120709874D01*
X171859579Y-120710126D01*
X172126143Y-120599984D01*
X172167674Y-120558525D01*
X172167674Y-120580000D01*
X172187181Y-120683671D01*
X172167674Y-120780000D01*
X172167674Y-121230000D01*
X172185214Y-121323217D01*
X172176000Y-121345462D01*
X172176000Y-121436250D01*
X172282250Y-121542500D01*
X172305543Y-121542500D01*
X172432412Y-121629186D01*
X172558376Y-121654694D01*
X172443504Y-121676309D01*
X172301790Y-121767500D01*
X172282250Y-121767500D01*
X172176000Y-121873750D01*
X172176000Y-121964538D01*
X172186112Y-121988951D01*
X172167674Y-122080000D01*
X172167674Y-122530000D01*
X172197309Y-122687496D01*
X172290389Y-122832146D01*
X172432412Y-122929186D01*
X172601000Y-122963326D01*
X172776000Y-122963326D01*
X172776000Y-122976674D01*
X172728000Y-122976674D01*
X172570504Y-123006309D01*
X172425854Y-123099389D01*
X172328814Y-123241412D01*
X172294674Y-123410000D01*
X172294674Y-124110000D01*
X172324309Y-124267496D01*
X172417389Y-124412146D01*
X172481208Y-124455751D01*
X172367702Y-124569257D01*
X172303000Y-124725462D01*
X172303000Y-124928750D01*
X172409250Y-125035000D01*
X173103000Y-125035000D01*
X173103000Y-125015000D01*
X173353000Y-125015000D01*
X173353000Y-125035000D01*
X174046750Y-125035000D01*
X174153000Y-124928750D01*
X174153000Y-124725462D01*
X174088298Y-124569257D01*
X173975084Y-124456043D01*
X174030146Y-124420611D01*
X174127186Y-124278588D01*
X174161326Y-124110000D01*
X174161326Y-123410000D01*
X174131691Y-123252504D01*
X174038611Y-123107854D01*
X173896588Y-123010814D01*
X173876000Y-123006645D01*
X173876000Y-122963326D01*
X174051000Y-122963326D01*
X174208496Y-122933691D01*
X174353146Y-122840611D01*
X174450186Y-122698588D01*
X174484326Y-122530000D01*
X174484326Y-122080000D01*
X174466786Y-121986783D01*
X174476000Y-121964538D01*
X174476000Y-121873750D01*
X174369750Y-121767500D01*
X174346457Y-121767500D01*
X174219588Y-121680814D01*
X174093624Y-121655306D01*
X174208496Y-121633691D01*
X174350210Y-121542500D01*
X174369750Y-121542500D01*
X174476000Y-121436250D01*
X174476000Y-121345462D01*
X174465888Y-121321049D01*
X174484326Y-121230000D01*
X174484326Y-120780000D01*
X174464819Y-120676329D01*
X174484326Y-120580000D01*
X174484326Y-120130000D01*
X174464819Y-120026329D01*
X174484326Y-119930000D01*
X174484326Y-119480000D01*
X174464819Y-119376329D01*
X174484326Y-119280000D01*
X174484326Y-119129888D01*
X174619156Y-119185874D01*
X174907579Y-119186126D01*
X175174143Y-119075984D01*
X175378267Y-118872216D01*
X175488874Y-118605844D01*
X175489126Y-118317421D01*
X175378984Y-118050857D01*
X175175216Y-117846733D01*
X174908844Y-117736126D01*
X174620421Y-117735874D01*
X174484326Y-117792107D01*
X174484326Y-117530000D01*
X174464819Y-117426329D01*
X174484326Y-117330000D01*
X174484326Y-116880000D01*
X174464819Y-116776329D01*
X174484326Y-116680000D01*
X174484326Y-116230000D01*
X174473977Y-116175000D01*
X176249995Y-116175000D01*
X176250000Y-116175001D01*
X176864444Y-116052779D01*
X176986666Y-116028468D01*
X177611181Y-115611181D01*
X180032134Y-113190228D01*
X181443000Y-114601094D01*
X181443000Y-115397573D01*
X181315854Y-115479389D01*
X181218814Y-115621412D01*
X181184674Y-115790000D01*
X181184674Y-116490000D01*
X181214309Y-116647496D01*
X181307389Y-116792146D01*
X181377251Y-116839881D01*
X181315854Y-116879389D01*
X181240277Y-116990000D01*
X181029000Y-116990000D01*
X181029000Y-116492500D01*
X180987134Y-116282024D01*
X180867909Y-116103591D01*
X180830409Y-116066091D01*
X180651976Y-115946866D01*
X180441500Y-115905000D01*
X180228163Y-115905000D01*
X180119588Y-115830814D01*
X179951000Y-115796674D01*
X178501000Y-115796674D01*
X178343504Y-115826309D01*
X178198854Y-115919389D01*
X178101814Y-116061412D01*
X178067674Y-116230000D01*
X178067674Y-116680000D01*
X178087181Y-116783671D01*
X178067674Y-116880000D01*
X178067674Y-117330000D01*
X178087181Y-117433671D01*
X178067674Y-117530000D01*
X178067674Y-117980000D01*
X178085214Y-118073217D01*
X178076000Y-118095462D01*
X178076000Y-118186250D01*
X178182250Y-118292500D01*
X178205543Y-118292500D01*
X178332412Y-118379186D01*
X178458376Y-118404694D01*
X178343504Y-118426309D01*
X178201790Y-118517500D01*
X178182250Y-118517500D01*
X178076000Y-118623750D01*
X178076000Y-118714538D01*
X178086112Y-118738951D01*
X178067674Y-118830000D01*
X178067674Y-119280000D01*
X178087181Y-119383671D01*
X178067674Y-119480000D01*
X178067674Y-119930000D01*
X178087181Y-120033671D01*
X178067674Y-120130000D01*
X178067674Y-120580000D01*
X178087181Y-120683671D01*
X178067674Y-120780000D01*
X178067674Y-121230000D01*
X178087181Y-121333671D01*
X178067674Y-121430000D01*
X178067674Y-121880000D01*
X178087181Y-121983671D01*
X178067674Y-122080000D01*
X178067674Y-122530000D01*
X178097309Y-122687496D01*
X178190389Y-122832146D01*
X178332412Y-122929186D01*
X178501000Y-122963326D01*
X178676000Y-122963326D01*
X178676000Y-123004522D01*
X178666504Y-123006309D01*
X178521854Y-123099389D01*
X178424814Y-123241412D01*
X178390674Y-123410000D01*
X178390674Y-124110000D01*
X178420309Y-124267496D01*
X178513389Y-124412146D01*
X178577208Y-124455751D01*
X178463702Y-124569257D01*
X178399000Y-124725462D01*
X178399000Y-124928750D01*
X178505250Y-125035000D01*
X179199000Y-125035000D01*
X179199000Y-125015000D01*
X179449000Y-125015000D01*
X179449000Y-125035000D01*
X180142750Y-125035000D01*
X180249000Y-124928750D01*
X180249000Y-124725462D01*
X180184298Y-124569257D01*
X180071084Y-124456043D01*
X180126146Y-124420611D01*
X180223186Y-124278588D01*
X180257326Y-124110000D01*
X180257326Y-123410000D01*
X180227691Y-123252504D01*
X180134611Y-123107854D01*
X179992588Y-123010814D01*
X179824000Y-122976674D01*
X179776000Y-122976674D01*
X179776000Y-122963326D01*
X179951000Y-122963326D01*
X180108496Y-122933691D01*
X180253146Y-122840611D01*
X180350186Y-122698588D01*
X180384326Y-122530000D01*
X180384326Y-122360973D01*
X180559079Y-122361126D01*
X180825643Y-122250984D01*
X181029767Y-122047216D01*
X181140374Y-121780844D01*
X181140626Y-121492421D01*
X181030484Y-121225857D01*
X180826716Y-121021733D01*
X180776992Y-121001086D01*
X180825643Y-120980984D01*
X181029767Y-120777216D01*
X181140374Y-120510844D01*
X181140626Y-120222421D01*
X181030484Y-119955857D01*
X180826716Y-119751733D01*
X180560344Y-119641126D01*
X180384326Y-119640972D01*
X180384326Y-119605000D01*
X181197281Y-119605000D01*
X181214309Y-119695496D01*
X181307389Y-119840146D01*
X181377251Y-119887881D01*
X181315854Y-119927389D01*
X181218814Y-120069412D01*
X181184674Y-120238000D01*
X181184674Y-120938000D01*
X181214309Y-121095496D01*
X181307389Y-121240146D01*
X181405065Y-121306885D01*
X181404874Y-121525579D01*
X181515016Y-121792143D01*
X181718784Y-121996267D01*
X181985156Y-122106874D01*
X182273579Y-122107126D01*
X182540143Y-121996984D01*
X182744267Y-121793216D01*
X182854874Y-121526844D01*
X182855081Y-121290480D01*
X182920146Y-121248611D01*
X183010106Y-121116949D01*
X183035702Y-121178743D01*
X183155257Y-121298298D01*
X183311462Y-121363000D01*
X183664750Y-121363000D01*
X183770998Y-121256752D01*
X183770998Y-121363000D01*
X183871746Y-121363000D01*
X182888373Y-122346373D01*
X182579472Y-122808676D01*
X182471000Y-123354000D01*
X182471000Y-128524000D01*
X182579472Y-129069324D01*
X182662674Y-129193845D01*
X182662674Y-129324000D01*
X182692309Y-129481496D01*
X182785389Y-129626146D01*
X182927412Y-129723186D01*
X183096000Y-129757326D01*
X183226155Y-129757326D01*
X183350676Y-129840528D01*
X183896000Y-129949000D01*
X184441324Y-129840528D01*
X184565845Y-129757326D01*
X184696000Y-129757326D01*
X184853496Y-129727691D01*
X184998146Y-129634611D01*
X185095186Y-129492588D01*
X185129326Y-129324000D01*
X185129326Y-129193845D01*
X185212528Y-129069324D01*
X185321000Y-128524000D01*
X185321000Y-123944254D01*
X185739963Y-123525291D01*
X185833483Y-123995447D01*
X186145852Y-124462941D01*
X186613346Y-124775310D01*
X187164793Y-124885000D01*
X187739207Y-124885000D01*
X188290654Y-124775310D01*
X188758148Y-124462941D01*
X188937936Y-124193868D01*
X200772354Y-124193868D01*
X200795781Y-124839908D01*
X200997939Y-125327961D01*
X201226751Y-125462473D01*
X202231223Y-124458000D01*
X202584777Y-124458000D01*
X203589249Y-125462473D01*
X203818061Y-125327961D01*
X204043646Y-124722132D01*
X204020219Y-124076092D01*
X203818061Y-123588039D01*
X203589249Y-123453527D01*
X202584777Y-124458000D01*
X202231223Y-124458000D01*
X201226751Y-123453527D01*
X200997939Y-123588039D01*
X200772354Y-124193868D01*
X188937936Y-124193868D01*
X189070517Y-123995447D01*
X189180207Y-123444000D01*
X189146939Y-123276751D01*
X201403527Y-123276751D01*
X202408000Y-124281223D01*
X203412473Y-123276751D01*
X203277961Y-123047939D01*
X202672132Y-122822354D01*
X202026092Y-122845781D01*
X201538039Y-123047939D01*
X201403527Y-123276751D01*
X189146939Y-123276751D01*
X189070517Y-122892553D01*
X188758148Y-122425059D01*
X188614385Y-122329000D01*
X189447747Y-122329000D01*
X189497389Y-122406146D01*
X189639412Y-122503186D01*
X189808000Y-122537326D01*
X192208000Y-122537326D01*
X192365496Y-122507691D01*
X192510146Y-122414611D01*
X192607186Y-122272588D01*
X192641326Y-122104000D01*
X192641326Y-120335249D01*
X201403527Y-120335249D01*
X201538039Y-120564061D01*
X202143868Y-120789646D01*
X202789908Y-120766219D01*
X203277961Y-120564061D01*
X203412473Y-120335249D01*
X202408000Y-119330777D01*
X201403527Y-120335249D01*
X192641326Y-120335249D01*
X192641326Y-119704000D01*
X192611691Y-119546504D01*
X192518611Y-119401854D01*
X192433000Y-119343359D01*
X192433000Y-118889868D01*
X200772354Y-118889868D01*
X200795781Y-119535908D01*
X200997939Y-120023961D01*
X201226751Y-120158473D01*
X202231223Y-119154000D01*
X202584777Y-119154000D01*
X203589249Y-120158473D01*
X203818061Y-120023961D01*
X204043646Y-119418132D01*
X204020219Y-118772092D01*
X203818061Y-118284039D01*
X203589249Y-118149527D01*
X202584777Y-119154000D01*
X202231223Y-119154000D01*
X201226751Y-118149527D01*
X200997939Y-118284039D01*
X200772354Y-118889868D01*
X192433000Y-118889868D01*
X192433000Y-118209625D01*
X192531358Y-117972751D01*
X201403527Y-117972751D01*
X202408000Y-118977223D01*
X203412473Y-117972751D01*
X203277961Y-117743939D01*
X202672132Y-117518354D01*
X202026092Y-117541781D01*
X201538039Y-117743939D01*
X201403527Y-117972751D01*
X192531358Y-117972751D01*
X192632718Y-117728651D01*
X192633282Y-117082186D01*
X192531250Y-116835249D01*
X201403527Y-116835249D01*
X201538039Y-117064061D01*
X202143868Y-117289646D01*
X202789908Y-117266219D01*
X203277961Y-117064061D01*
X203412473Y-116835249D01*
X202408000Y-115830777D01*
X201403527Y-116835249D01*
X192531250Y-116835249D01*
X192433000Y-116597466D01*
X192433000Y-115389868D01*
X200772354Y-115389868D01*
X200795781Y-116035908D01*
X200997939Y-116523961D01*
X201226751Y-116658473D01*
X202231223Y-115654000D01*
X202584777Y-115654000D01*
X203589249Y-116658473D01*
X203818061Y-116523961D01*
X204043646Y-115918132D01*
X204020219Y-115272092D01*
X203818061Y-114784039D01*
X203589249Y-114649527D01*
X202584777Y-115654000D01*
X202231223Y-115654000D01*
X201226751Y-114649527D01*
X200997939Y-114784039D01*
X200772354Y-115389868D01*
X192433000Y-115389868D01*
X192433000Y-114709625D01*
X192531358Y-114472751D01*
X201403527Y-114472751D01*
X202408000Y-115477223D01*
X203412473Y-114472751D01*
X203277961Y-114243939D01*
X202672132Y-114018354D01*
X202026092Y-114041781D01*
X201538039Y-114243939D01*
X201403527Y-114472751D01*
X192531358Y-114472751D01*
X192632718Y-114228651D01*
X192633282Y-113582186D01*
X192531250Y-113335249D01*
X201403527Y-113335249D01*
X201538039Y-113564061D01*
X202143868Y-113789646D01*
X202789908Y-113766219D01*
X203277961Y-113564061D01*
X203412473Y-113335249D01*
X202408000Y-112330777D01*
X201403527Y-113335249D01*
X192531250Y-113335249D01*
X192386412Y-112984714D01*
X191929691Y-112527195D01*
X191332651Y-112279282D01*
X190686186Y-112278718D01*
X190088714Y-112525588D01*
X189631195Y-112982309D01*
X189383282Y-113579349D01*
X189382718Y-114225814D01*
X189454277Y-114399000D01*
X188583164Y-114399000D01*
X188813329Y-114214552D01*
X189085145Y-113719961D01*
X189104339Y-113632033D01*
X189034884Y-113409000D01*
X187577000Y-113409000D01*
X187577000Y-113429000D01*
X187327000Y-113429000D01*
X187327000Y-113409000D01*
X185869116Y-113409000D01*
X185799661Y-113632033D01*
X185818855Y-113719961D01*
X186090671Y-114214552D01*
X186517589Y-114556673D01*
X186426011Y-114617863D01*
X184821000Y-113012852D01*
X184821000Y-111531214D01*
X184903496Y-111515691D01*
X185048146Y-111422611D01*
X185145186Y-111280588D01*
X185179326Y-111112000D01*
X185179326Y-111092033D01*
X185799661Y-111092033D01*
X185818855Y-111179961D01*
X186090671Y-111674552D01*
X186514253Y-112014000D01*
X186090671Y-112353448D01*
X185818855Y-112848039D01*
X185799661Y-112935967D01*
X185869116Y-113159000D01*
X187327000Y-113159000D01*
X187327000Y-110869000D01*
X187577000Y-110869000D01*
X187577000Y-113159000D01*
X189034884Y-113159000D01*
X189104339Y-112935967D01*
X189085145Y-112848039D01*
X188813329Y-112353448D01*
X188389747Y-112014000D01*
X188544645Y-111889868D01*
X200772354Y-111889868D01*
X200795781Y-112535908D01*
X200997939Y-113023961D01*
X201226751Y-113158473D01*
X202231223Y-112154000D01*
X202584777Y-112154000D01*
X203589249Y-113158473D01*
X203818061Y-113023961D01*
X204043646Y-112418132D01*
X204020219Y-111772092D01*
X203818061Y-111284039D01*
X203589249Y-111149527D01*
X202584777Y-112154000D01*
X202231223Y-112154000D01*
X201226751Y-111149527D01*
X200997939Y-111284039D01*
X200772354Y-111889868D01*
X188544645Y-111889868D01*
X188813329Y-111674552D01*
X189085145Y-111179961D01*
X189104339Y-111092033D01*
X189067194Y-110972751D01*
X201403527Y-110972751D01*
X202408000Y-111977223D01*
X203412473Y-110972751D01*
X203277961Y-110743939D01*
X202672132Y-110518354D01*
X202026092Y-110541781D01*
X201538039Y-110743939D01*
X201403527Y-110972751D01*
X189067194Y-110972751D01*
X189034884Y-110869000D01*
X187577000Y-110869000D01*
X187327000Y-110869000D01*
X185869116Y-110869000D01*
X185799661Y-111092033D01*
X185179326Y-111092033D01*
X185179326Y-109812000D01*
X185149691Y-109654504D01*
X185056611Y-109509854D01*
X184914588Y-109412814D01*
X184746000Y-109378674D01*
X183046000Y-109378674D01*
X182888504Y-109408309D01*
X182743854Y-109501389D01*
X182646814Y-109643412D01*
X182612674Y-109812000D01*
X182612674Y-111112000D01*
X182642309Y-111269496D01*
X182735389Y-111414146D01*
X182877412Y-111511186D01*
X182971000Y-111530138D01*
X182971000Y-113396000D01*
X183041411Y-113749983D01*
X183241926Y-114050074D01*
X184610815Y-115418962D01*
X184480538Y-115365000D01*
X184127250Y-115365000D01*
X184021000Y-115471250D01*
X184021000Y-116015000D01*
X184714750Y-116015000D01*
X184821000Y-115908750D01*
X184821000Y-115705462D01*
X184767038Y-115575185D01*
X185669924Y-116478071D01*
X185669926Y-116478074D01*
X185919515Y-116644844D01*
X185970018Y-116678589D01*
X186027000Y-116689924D01*
X186027000Y-117522934D01*
X185833483Y-117812553D01*
X185723793Y-118364000D01*
X185833483Y-118915447D01*
X186027000Y-119205066D01*
X186027000Y-119542453D01*
X185800676Y-119587472D01*
X185338373Y-119896373D01*
X184771748Y-120462998D01*
X184714752Y-120462998D01*
X184821000Y-120356750D01*
X184821000Y-120153462D01*
X184756298Y-119997257D01*
X184643084Y-119884043D01*
X184698146Y-119848611D01*
X184795186Y-119706588D01*
X184829326Y-119538000D01*
X184829326Y-118838000D01*
X184799691Y-118680504D01*
X184706611Y-118535854D01*
X184564588Y-118438814D01*
X184396000Y-118404674D01*
X183396000Y-118404674D01*
X183238504Y-118434309D01*
X183093854Y-118527389D01*
X183018277Y-118638000D01*
X182994340Y-118638000D01*
X182928611Y-118535854D01*
X182786588Y-118438814D01*
X182618000Y-118404674D01*
X181618000Y-118404674D01*
X181460504Y-118434309D01*
X181350647Y-118505000D01*
X180228163Y-118505000D01*
X180119588Y-118430814D01*
X179993624Y-118405306D01*
X180108496Y-118383691D01*
X180230785Y-118305000D01*
X180677000Y-118305000D01*
X180887476Y-118263134D01*
X181065909Y-118143909D01*
X181119818Y-118090000D01*
X181241660Y-118090000D01*
X181307389Y-118192146D01*
X181449412Y-118289186D01*
X181618000Y-118323326D01*
X182618000Y-118323326D01*
X182775496Y-118293691D01*
X182920146Y-118200611D01*
X182995723Y-118090000D01*
X183019660Y-118090000D01*
X183085389Y-118192146D01*
X183227412Y-118289186D01*
X183396000Y-118323326D01*
X184396000Y-118323326D01*
X184553496Y-118293691D01*
X184698146Y-118200611D01*
X184795186Y-118058588D01*
X184829326Y-117890000D01*
X184829326Y-117190000D01*
X184799691Y-117032504D01*
X184706611Y-116887854D01*
X184642792Y-116844249D01*
X184756298Y-116730743D01*
X184821000Y-116574538D01*
X184821000Y-116371250D01*
X184714750Y-116265000D01*
X184021000Y-116265000D01*
X184021000Y-116285000D01*
X183771000Y-116285000D01*
X183771000Y-116265000D01*
X183751000Y-116265000D01*
X183751000Y-116015000D01*
X183771000Y-116015000D01*
X183771000Y-115471250D01*
X183664750Y-115365000D01*
X183311462Y-115365000D01*
X183155257Y-115429702D01*
X183035702Y-115549257D01*
X183009237Y-115613150D01*
X182928611Y-115487854D01*
X182793000Y-115395195D01*
X182793000Y-114321500D01*
X182771727Y-114214552D01*
X182741619Y-114063188D01*
X182595297Y-113844203D01*
X180986728Y-112235634D01*
X181861178Y-111361183D01*
X181861181Y-111361181D01*
X182278468Y-110736666D01*
X182329305Y-110481091D01*
X182425001Y-110000000D01*
X182425000Y-109999995D01*
X182425000Y-108552033D01*
X185799661Y-108552033D01*
X185818855Y-108639961D01*
X186090671Y-109134552D01*
X186514253Y-109474000D01*
X186090671Y-109813448D01*
X185818855Y-110308039D01*
X185799661Y-110395967D01*
X185869116Y-110619000D01*
X187327000Y-110619000D01*
X187327000Y-108329000D01*
X187577000Y-108329000D01*
X187577000Y-110619000D01*
X189034884Y-110619000D01*
X189104339Y-110395967D01*
X189085145Y-110308039D01*
X188813329Y-109813448D01*
X188389747Y-109474000D01*
X188813329Y-109134552D01*
X189085145Y-108639961D01*
X189104339Y-108552033D01*
X189034884Y-108329000D01*
X187577000Y-108329000D01*
X187327000Y-108329000D01*
X185869116Y-108329000D01*
X185799661Y-108552033D01*
X182425000Y-108552033D01*
X182425000Y-95750000D01*
X182278468Y-95013334D01*
X181861181Y-94388819D01*
X181236666Y-93971532D01*
X181096341Y-93943620D01*
X181468824Y-93869528D01*
X181931127Y-93560627D01*
X182240028Y-93098324D01*
X182242216Y-93087326D01*
X183385000Y-93087326D01*
X183542496Y-93057691D01*
X183687146Y-92964611D01*
X183784186Y-92822588D01*
X183818326Y-92654000D01*
X183818326Y-92578481D01*
X183884389Y-92681146D01*
X184026412Y-92778186D01*
X184195000Y-92812326D01*
X187051843Y-92812326D01*
X187144389Y-92956146D01*
X187286412Y-93053186D01*
X187455000Y-93087326D01*
X188825000Y-93087326D01*
X188825000Y-93750000D01*
X188933472Y-94295324D01*
X189242373Y-94757627D01*
X189987854Y-95503108D01*
X189691472Y-95946676D01*
X189583560Y-96489186D01*
X189453746Y-96619000D01*
X188614385Y-96619000D01*
X188758148Y-96522941D01*
X189070517Y-96055447D01*
X189180207Y-95504000D01*
X189070517Y-94952553D01*
X188758148Y-94485059D01*
X188290654Y-94172690D01*
X187739207Y-94063000D01*
X187164793Y-94063000D01*
X186613346Y-94172690D01*
X186145852Y-94485059D01*
X185833483Y-94952553D01*
X185723793Y-95504000D01*
X185833483Y-96055447D01*
X186145852Y-96522941D01*
X186521589Y-96774000D01*
X186145852Y-97025059D01*
X185833483Y-97492553D01*
X185723793Y-98044000D01*
X185833483Y-98595447D01*
X186145852Y-99062941D01*
X186521589Y-99314000D01*
X186145852Y-99565059D01*
X185833483Y-100032553D01*
X185723793Y-100584000D01*
X185833483Y-101135447D01*
X186145852Y-101602941D01*
X186521589Y-101854000D01*
X186145852Y-102105059D01*
X186083083Y-102199000D01*
X185126005Y-102199000D01*
X185126000Y-102198999D01*
X184772018Y-102269411D01*
X184471926Y-102469926D01*
X183241926Y-103699926D01*
X183041411Y-104000017D01*
X183041411Y-104000018D01*
X182971000Y-104354000D01*
X182971000Y-105892786D01*
X182888504Y-105908309D01*
X182743854Y-106001389D01*
X182646814Y-106143412D01*
X182612674Y-106312000D01*
X182612674Y-107612000D01*
X182642309Y-107769496D01*
X182735389Y-107914146D01*
X182877412Y-108011186D01*
X183046000Y-108045326D01*
X184746000Y-108045326D01*
X184903496Y-108015691D01*
X185048146Y-107922611D01*
X185145186Y-107780588D01*
X185179326Y-107612000D01*
X185179326Y-106312000D01*
X185149691Y-106154504D01*
X185058014Y-106012033D01*
X185799661Y-106012033D01*
X185818855Y-106099961D01*
X186090671Y-106594552D01*
X186514253Y-106934000D01*
X186090671Y-107273448D01*
X185818855Y-107768039D01*
X185799661Y-107855967D01*
X185869116Y-108079000D01*
X187327000Y-108079000D01*
X187327000Y-105789000D01*
X187577000Y-105789000D01*
X187577000Y-108079000D01*
X189034884Y-108079000D01*
X189104339Y-107855967D01*
X189085145Y-107768039D01*
X188813329Y-107273448D01*
X188389747Y-106934000D01*
X188813329Y-106594552D01*
X189085145Y-106099961D01*
X189104339Y-106012033D01*
X189034884Y-105789000D01*
X187577000Y-105789000D01*
X187327000Y-105789000D01*
X185869116Y-105789000D01*
X185799661Y-106012033D01*
X185058014Y-106012033D01*
X185056611Y-106009854D01*
X184914588Y-105912814D01*
X184821000Y-105893862D01*
X184821000Y-104737148D01*
X185509148Y-104049000D01*
X186083083Y-104049000D01*
X186145852Y-104142941D01*
X186517589Y-104391327D01*
X186090671Y-104733448D01*
X185818855Y-105228039D01*
X185799661Y-105315967D01*
X185869116Y-105539000D01*
X187327000Y-105539000D01*
X187327000Y-105519000D01*
X187577000Y-105519000D01*
X187577000Y-105539000D01*
X189034884Y-105539000D01*
X189104339Y-105315967D01*
X189085145Y-105228039D01*
X188813329Y-104733448D01*
X188583164Y-104549000D01*
X189523777Y-104549000D01*
X189383282Y-104887349D01*
X189382718Y-105533814D01*
X189583000Y-106018534D01*
X189583000Y-107151747D01*
X189505854Y-107201389D01*
X189408814Y-107343412D01*
X189374674Y-107512000D01*
X189374674Y-109912000D01*
X189404309Y-110069496D01*
X189497389Y-110214146D01*
X189639412Y-110311186D01*
X189808000Y-110345326D01*
X192208000Y-110345326D01*
X192365496Y-110315691D01*
X192510146Y-110222611D01*
X192607186Y-110080588D01*
X192641326Y-109912000D01*
X192641326Y-108143249D01*
X201403527Y-108143249D01*
X201538039Y-108372061D01*
X202143868Y-108597646D01*
X202789908Y-108574219D01*
X203277961Y-108372061D01*
X203412473Y-108143249D01*
X202408000Y-107138777D01*
X201403527Y-108143249D01*
X192641326Y-108143249D01*
X192641326Y-107512000D01*
X192611691Y-107354504D01*
X192518611Y-107209854D01*
X192433000Y-107151359D01*
X192433000Y-106697868D01*
X200772354Y-106697868D01*
X200795781Y-107343908D01*
X200997939Y-107831961D01*
X201226751Y-107966473D01*
X202231223Y-106962000D01*
X202584777Y-106962000D01*
X203589249Y-107966473D01*
X203818061Y-107831961D01*
X204043646Y-107226132D01*
X204020219Y-106580092D01*
X203818061Y-106092039D01*
X203589249Y-105957527D01*
X202584777Y-106962000D01*
X202231223Y-106962000D01*
X201226751Y-105957527D01*
X200997939Y-106092039D01*
X200772354Y-106697868D01*
X192433000Y-106697868D01*
X192433000Y-106017625D01*
X192531358Y-105780751D01*
X201403527Y-105780751D01*
X202408000Y-106785223D01*
X203412473Y-105780751D01*
X203277961Y-105551939D01*
X202672132Y-105326354D01*
X202026092Y-105349781D01*
X201538039Y-105551939D01*
X201403527Y-105780751D01*
X192531358Y-105780751D01*
X192632718Y-105536651D01*
X192633282Y-104890186D01*
X192531250Y-104643249D01*
X201403527Y-104643249D01*
X201538039Y-104872061D01*
X202143868Y-105097646D01*
X202789908Y-105074219D01*
X203277961Y-104872061D01*
X203412473Y-104643249D01*
X202408000Y-103638777D01*
X201403527Y-104643249D01*
X192531250Y-104643249D01*
X192433000Y-104405466D01*
X192433000Y-103197868D01*
X200772354Y-103197868D01*
X200795781Y-103843908D01*
X200997939Y-104331961D01*
X201226751Y-104466473D01*
X202231223Y-103462000D01*
X202584777Y-103462000D01*
X203589249Y-104466473D01*
X203818061Y-104331961D01*
X204043646Y-103726132D01*
X204020219Y-103080092D01*
X203818061Y-102592039D01*
X203589249Y-102457527D01*
X202584777Y-103462000D01*
X202231223Y-103462000D01*
X201226751Y-102457527D01*
X200997939Y-102592039D01*
X200772354Y-103197868D01*
X192433000Y-103197868D01*
X192433000Y-102517625D01*
X192531358Y-102280751D01*
X201403527Y-102280751D01*
X202408000Y-103285223D01*
X203412473Y-102280751D01*
X203277961Y-102051939D01*
X202672132Y-101826354D01*
X202026092Y-101849781D01*
X201538039Y-102051939D01*
X201403527Y-102280751D01*
X192531358Y-102280751D01*
X192632718Y-102036651D01*
X192633282Y-101390186D01*
X192531250Y-101143249D01*
X201403527Y-101143249D01*
X201538039Y-101372061D01*
X202143868Y-101597646D01*
X202789908Y-101574219D01*
X203277961Y-101372061D01*
X203412473Y-101143249D01*
X202408000Y-100138777D01*
X201403527Y-101143249D01*
X192531250Y-101143249D01*
X192433000Y-100905466D01*
X192433000Y-99697868D01*
X200772354Y-99697868D01*
X200795781Y-100343908D01*
X200997939Y-100831961D01*
X201226751Y-100966473D01*
X202231223Y-99962000D01*
X202584777Y-99962000D01*
X203589249Y-100966473D01*
X203818061Y-100831961D01*
X204043646Y-100226132D01*
X204020219Y-99580092D01*
X203818061Y-99092039D01*
X203589249Y-98957527D01*
X202584777Y-99962000D01*
X202231223Y-99962000D01*
X201226751Y-98957527D01*
X200997939Y-99092039D01*
X200772354Y-99697868D01*
X192433000Y-99697868D01*
X192433000Y-98780751D01*
X201403527Y-98780751D01*
X202408000Y-99785223D01*
X203412473Y-98780751D01*
X203277961Y-98551939D01*
X202672132Y-98326354D01*
X202026092Y-98349781D01*
X201538039Y-98551939D01*
X201403527Y-98780751D01*
X192433000Y-98780751D01*
X192433000Y-97670254D01*
X193007627Y-97095627D01*
X193045002Y-97039691D01*
X193316528Y-96633324D01*
X193364613Y-96391585D01*
X194785191Y-96391585D01*
X194870670Y-96578862D01*
X195331437Y-96737573D01*
X195817867Y-96707874D01*
X196129330Y-96578862D01*
X196214809Y-96391585D01*
X195500000Y-95676777D01*
X194785191Y-96391585D01*
X193364613Y-96391585D01*
X193425000Y-96088000D01*
X193425000Y-95500000D01*
X193391471Y-95331437D01*
X194262427Y-95331437D01*
X194292126Y-95817867D01*
X194421138Y-96129330D01*
X194608415Y-96214809D01*
X195323223Y-95500000D01*
X195676777Y-95500000D01*
X196391585Y-96214809D01*
X196578862Y-96129330D01*
X196737573Y-95668563D01*
X196707874Y-95182133D01*
X196578862Y-94870670D01*
X196391585Y-94785191D01*
X195676777Y-95500000D01*
X195323223Y-95500000D01*
X194608415Y-94785191D01*
X194421138Y-94870670D01*
X194262427Y-95331437D01*
X193391471Y-95331437D01*
X193316528Y-94954676D01*
X193233326Y-94830155D01*
X193233326Y-94700000D01*
X193216094Y-94608415D01*
X194785191Y-94608415D01*
X195500000Y-95323223D01*
X196214809Y-94608415D01*
X196129330Y-94421138D01*
X195668563Y-94262427D01*
X195182133Y-94292126D01*
X194870670Y-94421138D01*
X194785191Y-94608415D01*
X193216094Y-94608415D01*
X193203691Y-94542504D01*
X193110611Y-94397854D01*
X192968588Y-94300814D01*
X192800000Y-94266674D01*
X192781928Y-94266674D01*
X192497188Y-93981934D01*
X200444903Y-93981934D01*
X200587974Y-94218019D01*
X201219161Y-94455295D01*
X201893104Y-94432964D01*
X202412026Y-94218019D01*
X202555097Y-93981934D01*
X201500000Y-92926837D01*
X200444903Y-93981934D01*
X192497188Y-93981934D01*
X191675000Y-93159746D01*
X191675000Y-92469221D01*
X199794765Y-92469221D01*
X199817096Y-93143164D01*
X200032041Y-93662086D01*
X200268126Y-93805157D01*
X201323223Y-92750060D01*
X201676777Y-92750060D01*
X202731874Y-93805157D01*
X202967959Y-93662086D01*
X203205235Y-93030899D01*
X203182904Y-92356956D01*
X202967959Y-91838034D01*
X202731874Y-91694963D01*
X201676777Y-92750060D01*
X201323223Y-92750060D01*
X200268126Y-91694963D01*
X200032041Y-91838034D01*
X199794765Y-92469221D01*
X191675000Y-92469221D01*
X191675000Y-91500000D01*
X191566528Y-90954676D01*
X191257627Y-90492373D01*
X191081966Y-90375000D01*
X191257627Y-90257627D01*
X191566528Y-89795324D01*
X191590462Y-89675000D01*
X192234331Y-89675000D01*
X192763334Y-90028468D01*
X193500000Y-90175000D01*
X199702699Y-90175000D01*
X199796674Y-90268975D01*
X199796674Y-90519940D01*
X199826309Y-90677436D01*
X199919389Y-90822086D01*
X200061412Y-90919126D01*
X200230000Y-90953266D01*
X200650876Y-90953266D01*
X200763335Y-91028409D01*
X201058633Y-91087147D01*
X200587974Y-91282101D01*
X200444903Y-91518186D01*
X201500000Y-92573283D01*
X202555097Y-91518186D01*
X202412026Y-91282101D01*
X201910013Y-91093384D01*
X202236665Y-91028409D01*
X202349125Y-90953266D01*
X202770000Y-90953266D01*
X202927496Y-90923631D01*
X203072146Y-90830551D01*
X203169186Y-90688528D01*
X203203326Y-90519940D01*
X203203326Y-90099065D01*
X203278469Y-89986605D01*
X203425001Y-89249940D01*
X203278469Y-88513275D01*
X203203326Y-88400816D01*
X203203326Y-87979940D01*
X203173691Y-87822444D01*
X203080611Y-87677794D01*
X202938588Y-87580754D01*
X202770000Y-87546614D01*
X202519035Y-87546614D01*
X201861241Y-86888819D01*
X201561448Y-86688504D01*
X201236726Y-86471532D01*
X201089812Y-86442309D01*
X200500060Y-86324999D01*
X200500055Y-86325000D01*
X193500000Y-86325000D01*
X192763334Y-86471532D01*
X192234331Y-86825000D01*
X190750000Y-86825000D01*
X190204676Y-86933472D01*
X189883831Y-87147854D01*
X189742373Y-87242373D01*
X189242373Y-87742373D01*
X189221189Y-87774078D01*
X189155000Y-87760674D01*
X187455000Y-87760674D01*
X187297504Y-87790309D01*
X187152854Y-87883389D01*
X187055814Y-88025412D01*
X187055761Y-88025674D01*
X184195000Y-88025674D01*
X184037504Y-88055309D01*
X183892854Y-88148389D01*
X183818326Y-88257465D01*
X183818326Y-88194000D01*
X183788691Y-88036504D01*
X183695611Y-87891854D01*
X183553588Y-87794814D01*
X183385000Y-87760674D01*
X181988992Y-87760674D01*
X181975909Y-87747591D01*
X181797476Y-87628366D01*
X181587000Y-87586500D01*
X179057340Y-87586500D01*
X178991611Y-87484354D01*
X178849588Y-87387314D01*
X178681000Y-87353174D01*
X177681000Y-87353174D01*
X177523504Y-87382809D01*
X177378854Y-87475889D01*
X177303277Y-87586500D01*
X177025340Y-87586500D01*
X176959611Y-87484354D01*
X176817588Y-87387314D01*
X176649000Y-87353174D01*
X175658535Y-87353174D01*
X175653134Y-87326024D01*
X175533909Y-87147591D01*
X175343409Y-86957091D01*
X175164976Y-86837866D01*
X175034409Y-86811895D01*
X175011191Y-86688504D01*
X174918111Y-86543854D01*
X174776088Y-86446814D01*
X174607500Y-86412674D01*
X173907500Y-86412674D01*
X173750004Y-86442309D01*
X173605354Y-86535389D01*
X173557619Y-86605251D01*
X173518111Y-86543854D01*
X173407500Y-86468277D01*
X173407500Y-86432318D01*
X174004909Y-85834909D01*
X174124134Y-85656476D01*
X174127095Y-85641585D01*
X192785191Y-85641585D01*
X192870670Y-85828862D01*
X193331437Y-85987573D01*
X193817867Y-85957874D01*
X194129330Y-85828862D01*
X194214809Y-85641585D01*
X193500000Y-84926777D01*
X192785191Y-85641585D01*
X174127095Y-85641585D01*
X174166000Y-85446000D01*
X174166000Y-84436669D01*
X174182219Y-84420478D01*
X174442299Y-84420478D01*
X174478194Y-84566433D01*
X174793361Y-84658021D01*
X175119588Y-84622028D01*
X175217583Y-84581437D01*
X192262427Y-84581437D01*
X192292126Y-85067867D01*
X192421138Y-85379330D01*
X192608415Y-85464809D01*
X193323223Y-84750000D01*
X193676777Y-84750000D01*
X194391585Y-85464809D01*
X194578862Y-85379330D01*
X194737573Y-84918563D01*
X194707874Y-84432133D01*
X194578862Y-84120670D01*
X194391585Y-84035191D01*
X193676777Y-84750000D01*
X193323223Y-84750000D01*
X192608415Y-84035191D01*
X192421138Y-84120670D01*
X192262427Y-84581437D01*
X175217583Y-84581437D01*
X175253806Y-84566433D01*
X175289701Y-84420478D01*
X174866000Y-83996777D01*
X174442299Y-84420478D01*
X174182219Y-84420478D01*
X174314993Y-84287935D01*
X174381533Y-84127690D01*
X174689223Y-83820000D01*
X175042777Y-83820000D01*
X175466478Y-84243701D01*
X175612433Y-84207806D01*
X175704021Y-83892639D01*
X175700246Y-83858415D01*
X192785191Y-83858415D01*
X193500000Y-84573223D01*
X194214809Y-83858415D01*
X194129330Y-83671138D01*
X193668563Y-83512427D01*
X193182133Y-83542126D01*
X192870670Y-83671138D01*
X192785191Y-83858415D01*
X175700246Y-83858415D01*
X175668028Y-83566412D01*
X175612433Y-83432194D01*
X175466478Y-83396299D01*
X175042777Y-83820000D01*
X174689223Y-83820000D01*
X174381505Y-83512282D01*
X174315809Y-83353285D01*
X174182279Y-83219522D01*
X174442299Y-83219522D01*
X174866000Y-83643223D01*
X175289701Y-83219522D01*
X175253806Y-83073567D01*
X174938639Y-82981979D01*
X174612412Y-83017972D01*
X174478194Y-83073567D01*
X174442299Y-83219522D01*
X174182279Y-83219522D01*
X174083935Y-83121007D01*
X173780823Y-82995143D01*
X173452617Y-82994857D01*
X173149285Y-83120191D01*
X172917007Y-83352065D01*
X172850467Y-83512310D01*
X172542777Y-83820000D01*
X172850495Y-84127718D01*
X172916191Y-84286715D01*
X173066000Y-84436785D01*
X173066000Y-85218182D01*
X172468591Y-85815591D01*
X172349366Y-85994024D01*
X172307500Y-86204500D01*
X172307500Y-86469660D01*
X172205354Y-86535389D01*
X172139000Y-86632501D01*
X172139000Y-86266500D01*
X172097134Y-86056024D01*
X171977909Y-85877591D01*
X171666000Y-85565682D01*
X171666000Y-84436669D01*
X171682219Y-84420478D01*
X171942299Y-84420478D01*
X171978194Y-84566433D01*
X172293361Y-84658021D01*
X172619588Y-84622028D01*
X172753806Y-84566433D01*
X172789701Y-84420478D01*
X172366000Y-83996777D01*
X171942299Y-84420478D01*
X171682219Y-84420478D01*
X171814993Y-84287935D01*
X171881533Y-84127690D01*
X172189223Y-83820000D01*
X171881505Y-83512282D01*
X171815809Y-83353285D01*
X171682279Y-83219522D01*
X171942299Y-83219522D01*
X172366000Y-83643223D01*
X172789701Y-83219522D01*
X172753806Y-83073567D01*
X172438639Y-82981979D01*
X172112412Y-83017972D01*
X171978194Y-83073567D01*
X171942299Y-83219522D01*
X171682279Y-83219522D01*
X171583935Y-83121007D01*
X171280823Y-82995143D01*
X170952617Y-82994857D01*
X170649285Y-83120191D01*
X170417007Y-83352065D01*
X170350467Y-83512310D01*
X170042777Y-83820000D01*
X170350495Y-84127718D01*
X170416191Y-84286715D01*
X170566000Y-84436785D01*
X170566000Y-85793500D01*
X170607866Y-86003976D01*
X170727091Y-86182409D01*
X171039000Y-86494318D01*
X171039000Y-89115776D01*
X171027110Y-89087000D01*
X170682813Y-88742101D01*
X170232737Y-88555213D01*
X169745401Y-88554788D01*
X169295000Y-88740890D01*
X168950101Y-89085187D01*
X168837000Y-89357564D01*
X168837000Y-88018318D01*
X169004909Y-87850409D01*
X169124134Y-87671976D01*
X169166000Y-87461500D01*
X169166000Y-84436669D01*
X169182219Y-84420478D01*
X169442299Y-84420478D01*
X169478194Y-84566433D01*
X169793361Y-84658021D01*
X170119588Y-84622028D01*
X170253806Y-84566433D01*
X170289701Y-84420478D01*
X169866000Y-83996777D01*
X169442299Y-84420478D01*
X169182219Y-84420478D01*
X169314993Y-84287935D01*
X169381533Y-84127690D01*
X169689223Y-83820000D01*
X169381505Y-83512282D01*
X169315809Y-83353285D01*
X169182279Y-83219522D01*
X169442299Y-83219522D01*
X169866000Y-83643223D01*
X170289701Y-83219522D01*
X170253806Y-83073567D01*
X169938639Y-82981979D01*
X169612412Y-83017972D01*
X169478194Y-83073567D01*
X169442299Y-83219522D01*
X169182279Y-83219522D01*
X169083935Y-83121007D01*
X168780823Y-82995143D01*
X168452617Y-82994857D01*
X168149285Y-83120191D01*
X167917007Y-83352065D01*
X167850467Y-83512310D01*
X167542777Y-83820000D01*
X167850495Y-84127718D01*
X167916191Y-84286715D01*
X168066000Y-84436785D01*
X168066000Y-87233682D01*
X167898091Y-87401591D01*
X167778866Y-87580024D01*
X167737000Y-87790500D01*
X167737000Y-92172000D01*
X167778866Y-92382476D01*
X167898091Y-92560909D01*
X171102500Y-95765318D01*
X171102500Y-96869458D01*
X171027110Y-96687000D01*
X170682813Y-96342101D01*
X170232737Y-96155213D01*
X169745401Y-96154788D01*
X169295000Y-96340890D01*
X168950101Y-96685187D01*
X168763213Y-97135263D01*
X168762788Y-97622599D01*
X168948890Y-98073000D01*
X169293187Y-98417899D01*
X169438000Y-98478031D01*
X169438000Y-105112500D01*
X169479866Y-105322976D01*
X169599091Y-105501409D01*
X174165953Y-110068271D01*
X174165874Y-110159079D01*
X174276016Y-110425643D01*
X174479784Y-110629767D01*
X174746156Y-110740374D01*
X175034579Y-110740626D01*
X175301143Y-110630484D01*
X175505267Y-110426716D01*
X175615874Y-110160344D01*
X175616126Y-109871921D01*
X175505984Y-109605357D01*
X175302216Y-109401233D01*
X175035844Y-109290626D01*
X174943864Y-109290546D01*
X170538000Y-104884682D01*
X170538000Y-104335692D01*
X170572866Y-104510976D01*
X170692091Y-104689409D01*
X175753453Y-109750771D01*
X175753374Y-109841579D01*
X175863516Y-110108143D01*
X176067284Y-110312267D01*
X176333656Y-110422874D01*
X176622079Y-110423126D01*
X176888643Y-110312984D01*
X177092767Y-110109216D01*
X177203374Y-109842844D01*
X177203626Y-109554421D01*
X177093484Y-109287857D01*
X176889716Y-109083733D01*
X176623344Y-108973126D01*
X176531364Y-108973046D01*
X172769716Y-105211398D01*
X173105867Y-105190874D01*
X173417330Y-105061862D01*
X173502809Y-104874585D01*
X172788000Y-104159777D01*
X172773858Y-104173919D01*
X172597081Y-103997142D01*
X172611223Y-103983000D01*
X172964777Y-103983000D01*
X173679585Y-104697809D01*
X173866862Y-104612330D01*
X174025573Y-104151563D01*
X173995874Y-103665133D01*
X173866862Y-103353670D01*
X173679585Y-103268191D01*
X172964777Y-103983000D01*
X172611223Y-103983000D01*
X171896415Y-103268191D01*
X171709138Y-103353670D01*
X171631000Y-103580519D01*
X171631000Y-103091415D01*
X172073191Y-103091415D01*
X172788000Y-103806223D01*
X173502809Y-103091415D01*
X173417330Y-102904138D01*
X172956563Y-102745427D01*
X172470133Y-102775126D01*
X172158670Y-102904138D01*
X172073191Y-103091415D01*
X171631000Y-103091415D01*
X171631000Y-102178818D01*
X172041409Y-101768409D01*
X172160634Y-101589976D01*
X172202500Y-101379500D01*
X172202500Y-95537505D01*
X172202501Y-95537500D01*
X172160634Y-95327024D01*
X172041409Y-95148591D01*
X168837000Y-91944182D01*
X168837000Y-90202206D01*
X168948890Y-90473000D01*
X169293187Y-90817899D01*
X169743263Y-91004787D01*
X170230599Y-91005212D01*
X170681000Y-90819110D01*
X171025899Y-90474813D01*
X171039000Y-90443262D01*
X171039000Y-90584500D01*
X171080866Y-90794976D01*
X171200091Y-90973409D01*
X171835089Y-91608406D01*
X171835091Y-91608409D01*
X171980220Y-91705381D01*
X172013524Y-91727634D01*
X172144091Y-91753606D01*
X172167309Y-91876996D01*
X172260389Y-92021646D01*
X172371000Y-92097223D01*
X172371000Y-92311660D01*
X172268854Y-92377389D01*
X172171814Y-92519412D01*
X172137674Y-92688000D01*
X172137674Y-93688000D01*
X172167309Y-93845496D01*
X172260389Y-93990146D01*
X172402412Y-94087186D01*
X172571000Y-94121326D01*
X173271000Y-94121326D01*
X173428496Y-94091691D01*
X173573146Y-93998611D01*
X173620881Y-93928749D01*
X173660389Y-93990146D01*
X173802412Y-94087186D01*
X173971000Y-94121326D01*
X174671000Y-94121326D01*
X174828496Y-94091691D01*
X174973146Y-93998611D01*
X175065805Y-93863000D01*
X175291500Y-93863000D01*
X175549812Y-93811619D01*
X175768797Y-93665297D01*
X176320268Y-93113826D01*
X176649000Y-93113826D01*
X176806496Y-93084191D01*
X176928785Y-93005500D01*
X177403837Y-93005500D01*
X177512412Y-93079686D01*
X177681000Y-93113826D01*
X178681000Y-93113826D01*
X178838496Y-93084191D01*
X178920741Y-93031268D01*
X178971972Y-93288824D01*
X179280873Y-93751127D01*
X179687033Y-94022515D01*
X179138819Y-94388819D01*
X178721532Y-95013334D01*
X178575000Y-95750000D01*
X178575000Y-102058000D01*
X176288000Y-102058000D01*
X175551334Y-102204532D01*
X174926819Y-102621819D01*
X174509532Y-103246334D01*
X174363000Y-103983000D01*
X174509532Y-104719666D01*
X174926819Y-105344181D01*
X175551334Y-105761468D01*
X176288000Y-105908000D01*
X178575000Y-105908000D01*
X178575000Y-109202639D01*
X177787069Y-109990569D01*
X177787067Y-109990572D01*
X175452638Y-112325000D01*
X168500000Y-112325000D01*
X167763334Y-112471532D01*
X167763326Y-112471537D01*
X167763326Y-111763000D01*
X167733691Y-111605504D01*
X167640611Y-111460854D01*
X167498588Y-111363814D01*
X167498326Y-111363761D01*
X167498326Y-108503000D01*
X167468691Y-108345504D01*
X167375611Y-108200854D01*
X167266535Y-108126326D01*
X167330000Y-108126326D01*
X167487496Y-108096691D01*
X167632146Y-108003611D01*
X167729186Y-107861588D01*
X167763326Y-107693000D01*
X167763326Y-105993000D01*
X167733691Y-105835504D01*
X167680214Y-105752398D01*
X167724874Y-105644844D01*
X167725126Y-105356421D01*
X167614984Y-105089857D01*
X167411216Y-104885733D01*
X167144844Y-104775126D01*
X166922000Y-104774931D01*
X166922000Y-104326594D01*
X166947400Y-104198900D01*
X166857958Y-103749247D01*
X166603250Y-103368050D01*
X166222053Y-103113342D01*
X165772400Y-103023900D01*
X163258147Y-103023900D01*
X163194300Y-103011200D01*
X162744647Y-103100642D01*
X162363450Y-103355350D01*
X162108742Y-103736547D01*
X162019300Y-104186200D01*
X162019300Y-105267100D01*
X162108742Y-105716753D01*
X162363450Y-106097950D01*
X162436674Y-106146877D01*
X162436674Y-107693000D01*
X162466309Y-107850496D01*
X162559389Y-107995146D01*
X162701412Y-108092186D01*
X162870000Y-108126326D01*
X162945519Y-108126326D01*
X162842854Y-108192389D01*
X162745814Y-108334412D01*
X162711674Y-108503000D01*
X162711674Y-109445000D01*
X161493473Y-109445000D01*
X161287849Y-109239016D01*
X160580586Y-108945335D01*
X159814774Y-108944667D01*
X159813968Y-108945000D01*
X156796534Y-108945000D01*
X156414774Y-108944667D01*
X155707000Y-109237113D01*
X155500000Y-109443752D01*
X155500000Y-98826476D01*
X155704151Y-99030984D01*
X155967507Y-99140339D01*
X156129334Y-99248468D01*
X156184655Y-99259472D01*
X156318555Y-99286106D01*
X156411414Y-99324665D01*
X156512845Y-99324753D01*
X156866000Y-99395001D01*
X156866005Y-99395000D01*
X160195466Y-99395000D01*
X160577226Y-99395333D01*
X161285000Y-99102887D01*
X161826984Y-98561849D01*
X162120665Y-97854586D01*
X162121333Y-97088774D01*
X161828887Y-96381000D01*
X161413000Y-95964386D01*
X161413000Y-94708005D01*
X161413001Y-94708000D01*
X161413000Y-94707995D01*
X161413000Y-92030060D01*
X161266468Y-91293394D01*
X161191326Y-91180936D01*
X161191326Y-90760060D01*
X161161691Y-90602564D01*
X161068611Y-90457914D01*
X160926588Y-90360874D01*
X160758000Y-90326734D01*
X160337124Y-90326734D01*
X160224666Y-90251592D01*
X159929366Y-90192853D01*
X160400026Y-89997899D01*
X160543097Y-89761814D01*
X159488000Y-88706717D01*
X158432903Y-89761814D01*
X158575974Y-89997899D01*
X159077988Y-90186616D01*
X158751334Y-90251592D01*
X158638876Y-90326734D01*
X158218000Y-90326734D01*
X158060504Y-90356369D01*
X157915854Y-90449449D01*
X157818814Y-90591472D01*
X157784674Y-90760060D01*
X157784674Y-91180936D01*
X157709532Y-91293394D01*
X157563000Y-92030060D01*
X157563000Y-93910639D01*
X155500000Y-95973638D01*
X155500000Y-88249101D01*
X157782765Y-88249101D01*
X157805096Y-88923044D01*
X158020041Y-89441966D01*
X158256126Y-89585037D01*
X159311223Y-88529940D01*
X159664777Y-88529940D01*
X160719874Y-89585037D01*
X160955959Y-89441966D01*
X161193235Y-88810779D01*
X161170904Y-88136836D01*
X160955959Y-87617914D01*
X160719874Y-87474843D01*
X159664777Y-88529940D01*
X159311223Y-88529940D01*
X158256126Y-87474843D01*
X158020041Y-87617914D01*
X157782765Y-88249101D01*
X155500000Y-88249101D01*
X155500000Y-87298066D01*
X158432903Y-87298066D01*
X159488000Y-88353163D01*
X160543097Y-87298066D01*
X160400026Y-87061981D01*
X159768839Y-86824705D01*
X159094896Y-86847036D01*
X158575974Y-87061981D01*
X158432903Y-87298066D01*
X155500000Y-87298066D01*
X155500000Y-85643346D01*
X155735537Y-85837686D01*
X155967145Y-85606078D01*
X156143767Y-85783010D01*
X155912314Y-86014463D01*
X156229755Y-86399196D01*
X157378310Y-86874981D01*
X158621512Y-86875017D01*
X159770094Y-86399298D01*
X159770245Y-86399196D01*
X160087686Y-86014463D01*
X159856078Y-85782855D01*
X160033010Y-85606233D01*
X160264463Y-85837686D01*
X160649196Y-85520245D01*
X161124981Y-84371690D01*
X161124988Y-84096265D01*
X161164758Y-84096265D01*
X161376687Y-84609172D01*
X161768764Y-85001934D01*
X162281300Y-85214758D01*
X162836265Y-85215242D01*
X163349172Y-85003313D01*
X163741934Y-84611236D01*
X163954758Y-84098700D01*
X163955242Y-83543735D01*
X163904116Y-83420000D01*
X165282674Y-83420000D01*
X165282674Y-84220000D01*
X165312309Y-84377496D01*
X165405389Y-84522146D01*
X165547412Y-84619186D01*
X165566000Y-84622950D01*
X165566000Y-98891000D01*
X165607866Y-99101476D01*
X165727091Y-99279909D01*
X167991000Y-101543818D01*
X167991000Y-109380500D01*
X168032866Y-109590976D01*
X168152091Y-109769409D01*
X169847953Y-111465271D01*
X169847874Y-111556079D01*
X169958016Y-111822643D01*
X170161784Y-112026767D01*
X170428156Y-112137374D01*
X170716579Y-112137626D01*
X170983143Y-112027484D01*
X171187267Y-111823716D01*
X171297874Y-111557344D01*
X171298126Y-111268921D01*
X171187984Y-111002357D01*
X170984216Y-110798233D01*
X170717844Y-110687626D01*
X170625864Y-110687546D01*
X169091000Y-109152682D01*
X169091000Y-101316000D01*
X169049134Y-101105524D01*
X168929909Y-100927091D01*
X166666000Y-98663182D01*
X166666000Y-84625101D01*
X166673496Y-84623691D01*
X166818146Y-84530611D01*
X166847512Y-84487633D01*
X166861329Y-84501450D01*
X166942299Y-84420480D01*
X166978194Y-84566433D01*
X167293361Y-84658021D01*
X167619588Y-84622028D01*
X167753806Y-84566433D01*
X167789701Y-84420478D01*
X167366000Y-83996777D01*
X167351858Y-84010919D01*
X167175081Y-83834142D01*
X167189223Y-83820000D01*
X167175081Y-83805858D01*
X167351858Y-83629081D01*
X167366000Y-83643223D01*
X167789701Y-83219522D01*
X167753806Y-83073567D01*
X167438639Y-82981979D01*
X167112412Y-83017972D01*
X166978194Y-83073567D01*
X166942299Y-83219520D01*
X166861329Y-83138550D01*
X166848308Y-83151571D01*
X166826611Y-83117854D01*
X166684588Y-83020814D01*
X166516000Y-82986674D01*
X165716000Y-82986674D01*
X165558504Y-83016309D01*
X165413854Y-83109389D01*
X165316814Y-83251412D01*
X165282674Y-83420000D01*
X163904116Y-83420000D01*
X163743313Y-83030828D01*
X163351236Y-82638066D01*
X162838700Y-82425242D01*
X162283735Y-82424758D01*
X161770828Y-82636687D01*
X161378066Y-83028764D01*
X161165242Y-83541300D01*
X161164758Y-84096265D01*
X161124988Y-84096265D01*
X161125017Y-83128488D01*
X160649298Y-81979906D01*
X160649196Y-81979755D01*
X160264463Y-81662314D01*
X160032855Y-81893922D01*
X159856233Y-81716990D01*
X160087686Y-81485537D01*
X159893346Y-81250000D01*
X201106654Y-81250000D01*
X200912314Y-81485537D01*
X200912314Y-81485537D01*
G37*
X200912314Y-81485537D02*
X201143922Y-81717145D01*
X200966990Y-81893767D01*
X200735537Y-81662314D01*
X200350804Y-81979755D01*
X199875019Y-83128310D01*
X199874983Y-84371512D01*
X200350702Y-85520094D01*
X200350804Y-85520245D01*
X200735537Y-85837686D01*
X200967145Y-85606078D01*
X201143767Y-85783010D01*
X200912314Y-86014463D01*
X201229755Y-86399196D01*
X202378310Y-86874981D01*
X203621512Y-86875017D01*
X204770094Y-86399298D01*
X204770245Y-86399196D01*
X205087686Y-86014463D01*
X204856078Y-85782855D01*
X205033010Y-85606233D01*
X205264463Y-85837686D01*
X205500000Y-85643346D01*
X205500000Y-142856654D01*
X205264463Y-142662314D01*
X205032855Y-142893922D01*
X204856233Y-142716990D01*
X205087686Y-142485537D01*
X204770245Y-142100804D01*
X203621690Y-141625019D01*
X202378488Y-141624983D01*
X201229906Y-142100702D01*
X201229755Y-142100804D01*
X200912314Y-142485537D01*
X201143922Y-142717145D01*
X200966990Y-142893767D01*
X200735537Y-142662314D01*
X200350804Y-142979755D01*
X199875019Y-144128310D01*
X199874983Y-145371512D01*
X200350702Y-146520094D01*
X200350804Y-146520245D01*
X200735537Y-146837686D01*
X200967145Y-146606078D01*
X201143767Y-146783010D01*
X200912314Y-147014463D01*
X201106654Y-147250000D01*
X159906099Y-147250000D01*
X160075686Y-147044463D01*
X159844078Y-146812855D01*
X160021010Y-146636233D01*
X160252463Y-146867686D01*
X160637196Y-146550245D01*
X161045634Y-145564265D01*
X195708758Y-145564265D01*
X195920687Y-146077172D01*
X196312764Y-146469934D01*
X196825300Y-146682758D01*
X197380265Y-146683242D01*
X197893172Y-146471313D01*
X198285934Y-146079236D01*
X198498758Y-145566700D01*
X198499242Y-145011735D01*
X198287313Y-144498828D01*
X197895236Y-144106066D01*
X197382700Y-143893242D01*
X196827735Y-143892758D01*
X196314828Y-144104687D01*
X195922066Y-144496764D01*
X195709242Y-145009300D01*
X195708758Y-145564265D01*
X161045634Y-145564265D01*
X161112981Y-145401690D01*
X161113017Y-144158488D01*
X160637298Y-143009906D01*
X160637196Y-143009755D01*
X160252463Y-142692314D01*
X160020855Y-142923922D01*
X159844233Y-142746990D01*
X160075686Y-142515537D01*
X159758245Y-142130804D01*
X158778770Y-141725060D01*
X159256750Y-141725060D01*
X159363000Y-141618810D01*
X159363000Y-140155060D01*
X159613000Y-140155060D01*
X159613000Y-141618810D01*
X159719250Y-141725060D01*
X160842538Y-141725060D01*
X160998743Y-141660358D01*
X161118298Y-141540803D01*
X161183000Y-141384598D01*
X161183000Y-141240000D01*
X165698674Y-141240000D01*
X165698674Y-143240000D01*
X165728309Y-143397496D01*
X165821389Y-143542146D01*
X165963412Y-143639186D01*
X166132000Y-143673326D01*
X168132000Y-143673326D01*
X168289496Y-143643691D01*
X168434146Y-143550611D01*
X168531186Y-143408588D01*
X168557931Y-143276515D01*
X173772262Y-143276515D01*
X173882291Y-143484550D01*
X174415627Y-143676716D01*
X174981905Y-143650155D01*
X175381709Y-143484550D01*
X175491738Y-143276515D01*
X174632000Y-142416777D01*
X173772262Y-143276515D01*
X168557931Y-143276515D01*
X168565326Y-143240000D01*
X168565326Y-142821928D01*
X169363627Y-142023627D01*
X173195284Y-142023627D01*
X173221845Y-142589905D01*
X173387450Y-142989709D01*
X173595485Y-143099738D01*
X174455223Y-142240000D01*
X174808777Y-142240000D01*
X175668515Y-143099738D01*
X175876550Y-142989709D01*
X176068716Y-142456373D01*
X176042155Y-141890095D01*
X175876550Y-141490291D01*
X175668515Y-141380262D01*
X174808777Y-142240000D01*
X174455223Y-142240000D01*
X173595485Y-141380262D01*
X173387450Y-141490291D01*
X173195284Y-142023627D01*
X169363627Y-142023627D01*
X170183769Y-141203485D01*
X173772262Y-141203485D01*
X174632000Y-142063223D01*
X175491738Y-141203485D01*
X175381709Y-140995450D01*
X174848373Y-140803284D01*
X174282095Y-140829845D01*
X173882291Y-140995450D01*
X173772262Y-141203485D01*
X170183769Y-141203485D01*
X170712254Y-140675000D01*
X181750000Y-140675000D01*
X182295324Y-140566528D01*
X182757627Y-140257627D01*
X184882254Y-138133000D01*
X189583000Y-138133000D01*
X189583000Y-138647747D01*
X189505854Y-138697389D01*
X189408814Y-138839412D01*
X189374674Y-139008000D01*
X189374674Y-141408000D01*
X189404309Y-141565496D01*
X189497389Y-141710146D01*
X189639412Y-141807186D01*
X189808000Y-141841326D01*
X192208000Y-141841326D01*
X192365496Y-141811691D01*
X192510146Y-141718611D01*
X192607186Y-141576588D01*
X192641326Y-141408000D01*
X192641326Y-139639249D01*
X201403527Y-139639249D01*
X201538039Y-139868061D01*
X202143868Y-140093646D01*
X202789908Y-140070219D01*
X203277961Y-139868061D01*
X203412473Y-139639249D01*
X202408000Y-138634777D01*
X201403527Y-139639249D01*
X192641326Y-139639249D01*
X192641326Y-139008000D01*
X192611691Y-138850504D01*
X192518611Y-138705854D01*
X192433000Y-138647359D01*
X192433000Y-138193868D01*
X200772354Y-138193868D01*
X200795781Y-138839908D01*
X200997939Y-139327961D01*
X201226751Y-139462473D01*
X202231223Y-138458000D01*
X202584777Y-138458000D01*
X203589249Y-139462473D01*
X203818061Y-139327961D01*
X204043646Y-138722132D01*
X204020219Y-138076092D01*
X203818061Y-137588039D01*
X203589249Y-137453527D01*
X202584777Y-138458000D01*
X202231223Y-138458000D01*
X201226751Y-137453527D01*
X200997939Y-137588039D01*
X200772354Y-138193868D01*
X192433000Y-138193868D01*
X192433000Y-137513625D01*
X192531358Y-137276751D01*
X201403527Y-137276751D01*
X202408000Y-138281223D01*
X203412473Y-137276751D01*
X203277961Y-137047939D01*
X202672132Y-136822354D01*
X202026092Y-136845781D01*
X201538039Y-137047939D01*
X201403527Y-137276751D01*
X192531358Y-137276751D01*
X192632718Y-137032651D01*
X192633282Y-136386186D01*
X192531250Y-136139249D01*
X201403527Y-136139249D01*
X201538039Y-136368061D01*
X202143868Y-136593646D01*
X202789908Y-136570219D01*
X203277961Y-136368061D01*
X203412473Y-136139249D01*
X202408000Y-135134777D01*
X201403527Y-136139249D01*
X192531250Y-136139249D01*
X192433000Y-135901466D01*
X192433000Y-134693868D01*
X200772354Y-134693868D01*
X200795781Y-135339908D01*
X200997939Y-135827961D01*
X201226751Y-135962473D01*
X202231223Y-134958000D01*
X202584777Y-134958000D01*
X203589249Y-135962473D01*
X203818061Y-135827961D01*
X204043646Y-135222132D01*
X204020219Y-134576092D01*
X203818061Y-134088039D01*
X203589249Y-133953527D01*
X202584777Y-134958000D01*
X202231223Y-134958000D01*
X201226751Y-133953527D01*
X200997939Y-134088039D01*
X200772354Y-134693868D01*
X192433000Y-134693868D01*
X192433000Y-134013625D01*
X192531358Y-133776751D01*
X201403527Y-133776751D01*
X202408000Y-134781223D01*
X203412473Y-133776751D01*
X203277961Y-133547939D01*
X202672132Y-133322354D01*
X202026092Y-133345781D01*
X201538039Y-133547939D01*
X201403527Y-133776751D01*
X192531358Y-133776751D01*
X192632718Y-133532651D01*
X192633282Y-132886186D01*
X192531250Y-132639249D01*
X201403527Y-132639249D01*
X201538039Y-132868061D01*
X202143868Y-133093646D01*
X202789908Y-133070219D01*
X203277961Y-132868061D01*
X203412473Y-132639249D01*
X202408000Y-131634777D01*
X201403527Y-132639249D01*
X192531250Y-132639249D01*
X192433000Y-132401466D01*
X192433000Y-131193868D01*
X200772354Y-131193868D01*
X200795781Y-131839908D01*
X200997939Y-132327961D01*
X201226751Y-132462473D01*
X202231223Y-131458000D01*
X202584777Y-131458000D01*
X203589249Y-132462473D01*
X203818061Y-132327961D01*
X204043646Y-131722132D01*
X204020219Y-131076092D01*
X203818061Y-130588039D01*
X203589249Y-130453527D01*
X202584777Y-131458000D01*
X202231223Y-131458000D01*
X201226751Y-130453527D01*
X200997939Y-130588039D01*
X200772354Y-131193868D01*
X192433000Y-131193868D01*
X192433000Y-130513625D01*
X192531358Y-130276751D01*
X201403527Y-130276751D01*
X202408000Y-131281223D01*
X203412473Y-130276751D01*
X203277961Y-130047939D01*
X202672132Y-129822354D01*
X202026092Y-129845781D01*
X201538039Y-130047939D01*
X201403527Y-130276751D01*
X192531358Y-130276751D01*
X192632718Y-130032651D01*
X192633282Y-129386186D01*
X192531250Y-129139249D01*
X201403527Y-129139249D01*
X201538039Y-129368061D01*
X202143868Y-129593646D01*
X202789908Y-129570219D01*
X203277961Y-129368061D01*
X203412473Y-129139249D01*
X202408000Y-128134777D01*
X201403527Y-129139249D01*
X192531250Y-129139249D01*
X192433000Y-128901466D01*
X192433000Y-127693868D01*
X200772354Y-127693868D01*
X200795781Y-128339908D01*
X200997939Y-128827961D01*
X201226751Y-128962473D01*
X202231223Y-127958000D01*
X202584777Y-127958000D01*
X203589249Y-128962473D01*
X203818061Y-128827961D01*
X204043646Y-128222132D01*
X204020219Y-127576092D01*
X203818061Y-127088039D01*
X203589249Y-126953527D01*
X202584777Y-127958000D01*
X202231223Y-127958000D01*
X201226751Y-126953527D01*
X200997939Y-127088039D01*
X200772354Y-127693868D01*
X192433000Y-127693868D01*
X192433000Y-127013625D01*
X192531358Y-126776751D01*
X201403527Y-126776751D01*
X202408000Y-127781223D01*
X203412473Y-126776751D01*
X203277961Y-126547939D01*
X202672132Y-126322354D01*
X202026092Y-126345781D01*
X201538039Y-126547939D01*
X201403527Y-126776751D01*
X192531358Y-126776751D01*
X192632718Y-126532651D01*
X192633282Y-125886186D01*
X192531250Y-125639249D01*
X201403527Y-125639249D01*
X201538039Y-125868061D01*
X202143868Y-126093646D01*
X202789908Y-126070219D01*
X203277961Y-125868061D01*
X203412473Y-125639249D01*
X202408000Y-124634777D01*
X201403527Y-125639249D01*
X192531250Y-125639249D01*
X192386412Y-125288714D01*
X191929691Y-124831195D01*
X191332651Y-124583282D01*
X190686186Y-124582718D01*
X190088714Y-124829588D01*
X189631195Y-125286309D01*
X189383282Y-125883349D01*
X189382718Y-126529814D01*
X189583000Y-127014534D01*
X189583000Y-128902375D01*
X189383282Y-129383349D01*
X189382718Y-130029814D01*
X189583000Y-130514534D01*
X189583000Y-132402375D01*
X189383282Y-132883349D01*
X189382718Y-133529814D01*
X189583000Y-134014534D01*
X189583000Y-135283000D01*
X184292000Y-135283000D01*
X183746676Y-135391472D01*
X183284373Y-135700373D01*
X181216746Y-137768000D01*
X179701326Y-137768000D01*
X179701326Y-136401000D01*
X179671691Y-136243504D01*
X179578611Y-136098854D01*
X179436588Y-136001814D01*
X179436326Y-136001761D01*
X179436326Y-133141000D01*
X179406691Y-132983504D01*
X179362987Y-132915585D01*
X183181191Y-132915585D01*
X183266670Y-133102862D01*
X183727437Y-133261573D01*
X184213867Y-133231874D01*
X184525330Y-133102862D01*
X184610809Y-132915585D01*
X183896000Y-132200777D01*
X183181191Y-132915585D01*
X179362987Y-132915585D01*
X179313611Y-132838854D01*
X179204535Y-132764326D01*
X179268000Y-132764326D01*
X179425496Y-132734691D01*
X179570146Y-132641611D01*
X179667186Y-132499588D01*
X179701326Y-132331000D01*
X179701326Y-131855437D01*
X182658427Y-131855437D01*
X182688126Y-132341867D01*
X182817138Y-132653330D01*
X183004415Y-132738809D01*
X183719223Y-132024000D01*
X184072777Y-132024000D01*
X184787585Y-132738809D01*
X184974862Y-132653330D01*
X185133573Y-132192563D01*
X185103874Y-131706133D01*
X184974862Y-131394670D01*
X184787585Y-131309191D01*
X184072777Y-132024000D01*
X183719223Y-132024000D01*
X183004415Y-131309191D01*
X182817138Y-131394670D01*
X182658427Y-131855437D01*
X179701326Y-131855437D01*
X179701326Y-131132415D01*
X183181191Y-131132415D01*
X183896000Y-131847223D01*
X184610809Y-131132415D01*
X184525330Y-130945138D01*
X184064563Y-130786427D01*
X183578133Y-130816126D01*
X183266670Y-130945138D01*
X183181191Y-131132415D01*
X179701326Y-131132415D01*
X179701326Y-130631000D01*
X179671691Y-130473504D01*
X179578611Y-130328854D01*
X179493000Y-130270359D01*
X179493000Y-129561500D01*
X179451134Y-129351024D01*
X179331909Y-129172591D01*
X179331906Y-129172589D01*
X178772409Y-128613091D01*
X178593976Y-128493866D01*
X178383500Y-128452000D01*
X173875005Y-128452000D01*
X173875000Y-128451999D01*
X173664524Y-128493866D01*
X173486091Y-128613091D01*
X173486089Y-128613094D01*
X172539182Y-129560000D01*
X172072340Y-129560000D01*
X172006611Y-129457854D01*
X171941271Y-129413209D01*
X171998146Y-129376611D01*
X172095186Y-129234588D01*
X172129326Y-129066000D01*
X172129326Y-128366000D01*
X172099691Y-128208504D01*
X172006611Y-128063854D01*
X171936749Y-128016119D01*
X171998146Y-127976611D01*
X172095186Y-127834588D01*
X172129326Y-127666000D01*
X172129326Y-126966000D01*
X172099691Y-126808504D01*
X172006611Y-126663854D01*
X171864588Y-126566814D01*
X171696000Y-126532674D01*
X170742000Y-126532674D01*
X170742000Y-125391250D01*
X172303000Y-125391250D01*
X172303000Y-125594538D01*
X172367702Y-125750743D01*
X172487257Y-125870298D01*
X172643462Y-125935000D01*
X172996750Y-125935000D01*
X173103000Y-125828750D01*
X173103000Y-125285000D01*
X173353000Y-125285000D01*
X173353000Y-125828750D01*
X173459250Y-125935000D01*
X173812538Y-125935000D01*
X173968743Y-125870298D01*
X174088298Y-125750743D01*
X174153000Y-125594538D01*
X174153000Y-125391250D01*
X178399000Y-125391250D01*
X178399000Y-125594538D01*
X178463702Y-125750743D01*
X178583257Y-125870298D01*
X178739462Y-125935000D01*
X179092750Y-125935000D01*
X179199000Y-125828750D01*
X179199000Y-125285000D01*
X179449000Y-125285000D01*
X179449000Y-125828750D01*
X179555250Y-125935000D01*
X179908538Y-125935000D01*
X180064743Y-125870298D01*
X180184298Y-125750743D01*
X180249000Y-125594538D01*
X180249000Y-125391250D01*
X180142750Y-125285000D01*
X179449000Y-125285000D01*
X179199000Y-125285000D01*
X178505250Y-125285000D01*
X178399000Y-125391250D01*
X174153000Y-125391250D01*
X174046750Y-125285000D01*
X173353000Y-125285000D01*
X173103000Y-125285000D01*
X172409250Y-125285000D01*
X172303000Y-125391250D01*
X170742000Y-125391250D01*
X170742000Y-124905371D01*
X170806267Y-124841216D01*
X170916874Y-124574844D01*
X170917126Y-124286421D01*
X170806984Y-124019857D01*
X170603216Y-123815733D01*
X170336844Y-123705126D01*
X170048421Y-123704874D01*
X169781857Y-123815016D01*
X169577733Y-124018784D01*
X169467126Y-124285156D01*
X169466874Y-124573579D01*
X169577016Y-124840143D01*
X169642000Y-124905241D01*
X169642000Y-126532674D01*
X168664000Y-126532674D01*
X168506504Y-126562309D01*
X168361854Y-126655389D01*
X168264814Y-126797412D01*
X168230674Y-126966000D01*
X168230674Y-127666000D01*
X168260309Y-127823496D01*
X168353389Y-127968146D01*
X168423251Y-128015881D01*
X168384215Y-128041000D01*
X168128500Y-128041000D01*
X167870188Y-128092381D01*
X167651203Y-128238703D01*
X167238203Y-128651703D01*
X167091881Y-128870688D01*
X167091881Y-128870689D01*
X167040500Y-129129000D01*
X167040500Y-131097500D01*
X167091881Y-131355812D01*
X167238203Y-131574797D01*
X167650703Y-131987297D01*
X167869688Y-132133619D01*
X168128000Y-132185000D01*
X168386837Y-132185000D01*
X168495412Y-132259186D01*
X168664000Y-132293326D01*
X169664000Y-132293326D01*
X169821496Y-132263691D01*
X169943785Y-132185000D01*
X170418837Y-132185000D01*
X170527412Y-132259186D01*
X170696000Y-132293326D01*
X171696000Y-132293326D01*
X171853496Y-132263691D01*
X171998146Y-132170611D01*
X172008129Y-132156000D01*
X174374674Y-132156000D01*
X174374674Y-132331000D01*
X174404309Y-132488496D01*
X174497389Y-132633146D01*
X174639412Y-132730186D01*
X174808000Y-132764326D01*
X174883519Y-132764326D01*
X174780854Y-132830389D01*
X174683814Y-132972412D01*
X174649674Y-133141000D01*
X174649674Y-135997843D01*
X174505854Y-136090389D01*
X174408814Y-136232412D01*
X174374674Y-136401000D01*
X174374674Y-137825000D01*
X170122000Y-137825000D01*
X169576676Y-137933472D01*
X169199680Y-138185373D01*
X169114373Y-138242373D01*
X166550072Y-140806674D01*
X166132000Y-140806674D01*
X165974504Y-140836309D01*
X165829854Y-140929389D01*
X165732814Y-141071412D01*
X165698674Y-141240000D01*
X161183000Y-141240000D01*
X161183000Y-140261310D01*
X161076750Y-140155060D01*
X159613000Y-140155060D01*
X159363000Y-140155060D01*
X157899250Y-140155060D01*
X157793000Y-140261310D01*
X157793000Y-141384598D01*
X157857702Y-141540803D01*
X157971900Y-141655001D01*
X157366488Y-141654983D01*
X156217906Y-142130702D01*
X156217755Y-142130804D01*
X155900314Y-142515537D01*
X156131922Y-142747145D01*
X155954990Y-142923767D01*
X155723537Y-142692314D01*
X155500000Y-142876753D01*
X155500000Y-132556476D01*
X155704151Y-132760984D01*
X155704957Y-132761319D01*
X157563000Y-134619361D01*
X157563000Y-136529940D01*
X157709532Y-137266606D01*
X158126819Y-137891121D01*
X158751334Y-138308408D01*
X158885323Y-138335060D01*
X158133462Y-138335060D01*
X157977257Y-138399762D01*
X157857702Y-138519317D01*
X157793000Y-138675522D01*
X157793000Y-139798810D01*
X157899250Y-139905060D01*
X159363000Y-139905060D01*
X159363000Y-139885060D01*
X159613000Y-139885060D01*
X159613000Y-139905060D01*
X161076750Y-139905060D01*
X161183000Y-139798810D01*
X161183000Y-138675522D01*
X161118298Y-138519317D01*
X160998743Y-138399762D01*
X160842538Y-138335060D01*
X160090677Y-138335060D01*
X160224666Y-138308408D01*
X160849181Y-137891121D01*
X161266468Y-137266606D01*
X161413000Y-136529940D01*
X161413000Y-133822005D01*
X161413001Y-133822000D01*
X161413000Y-133821995D01*
X161413000Y-132705361D01*
X161556565Y-132561796D01*
X161826984Y-132291849D01*
X162120665Y-131584586D01*
X162121333Y-130818774D01*
X161828887Y-130111000D01*
X161287849Y-129569016D01*
X160580586Y-129275335D01*
X159814774Y-129274667D01*
X159813968Y-129275000D01*
X157348358Y-129275000D01*
X157180586Y-129205335D01*
X156796003Y-129205000D01*
X156796000Y-129204999D01*
X156795997Y-129205000D01*
X156414774Y-129204667D01*
X155707000Y-129497113D01*
X155500000Y-129703752D01*
X155500000Y-119156476D01*
X155704151Y-119360984D01*
X156411414Y-119654665D01*
X157177226Y-119655333D01*
X157178032Y-119655000D01*
X160195466Y-119655000D01*
X160577226Y-119655333D01*
X161285000Y-119362887D01*
X161493250Y-119155000D01*
X162701674Y-119155000D01*
X162701674Y-120097000D01*
X162731309Y-120254496D01*
X162824389Y-120399146D01*
X162933465Y-120473674D01*
X162870000Y-120473674D01*
X162712504Y-120503309D01*
X162567854Y-120596389D01*
X162470814Y-120738412D01*
X162436674Y-120907000D01*
X162436674Y-122607000D01*
X162466309Y-122764496D01*
X162507132Y-122827936D01*
X162482126Y-122888156D01*
X162481874Y-123176579D01*
X162592016Y-123443143D01*
X162795784Y-123647267D01*
X163062156Y-123757874D01*
X163302000Y-123758084D01*
X163302000Y-124303000D01*
X163391442Y-124752653D01*
X163646150Y-125133850D01*
X164027347Y-125388558D01*
X164477000Y-125478000D01*
X167017000Y-125478000D01*
X167466653Y-125388558D01*
X167847850Y-125133850D01*
X168102558Y-124752653D01*
X168192000Y-124303000D01*
X168192000Y-123287000D01*
X168102558Y-122837347D01*
X167959240Y-122622857D01*
X167847851Y-122456150D01*
X167835850Y-122444150D01*
X167763326Y-122395691D01*
X167763326Y-120907000D01*
X167733691Y-120749504D01*
X167640611Y-120604854D01*
X167498588Y-120507814D01*
X167330000Y-120473674D01*
X167254481Y-120473674D01*
X167357146Y-120407611D01*
X167454186Y-120265588D01*
X167488326Y-120097000D01*
X167488326Y-117240157D01*
X167630323Y-117148784D01*
X167635016Y-117160143D01*
X167838784Y-117364267D01*
X168105156Y-117474874D01*
X168393579Y-117475126D01*
X168579972Y-117398110D01*
X168697051Y-117478106D01*
X168635257Y-117503702D01*
X168515702Y-117623257D01*
X168451000Y-117779462D01*
X168451000Y-118132750D01*
X168557250Y-118239000D01*
X169101000Y-118239000D01*
X169101000Y-118219000D01*
X169351000Y-118219000D01*
X169351000Y-118239000D01*
X169371000Y-118239000D01*
X169371000Y-118489000D01*
X169351000Y-118489000D01*
X169351000Y-118509000D01*
X169101000Y-118509000D01*
X169101000Y-118489000D01*
X168557250Y-118489000D01*
X168451000Y-118595250D01*
X168451000Y-118948538D01*
X168515702Y-119104743D01*
X168635257Y-119224298D01*
X168699150Y-119250763D01*
X168573854Y-119331389D01*
X168509827Y-119425095D01*
X168256421Y-119424874D01*
X167989857Y-119535016D01*
X167785733Y-119738784D01*
X167675126Y-120005156D01*
X167674874Y-120293579D01*
X167785016Y-120560143D01*
X167988784Y-120764267D01*
X168255156Y-120874874D01*
X168520963Y-120875106D01*
X168565389Y-120944146D01*
X168707412Y-121041186D01*
X168876000Y-121075326D01*
X169576000Y-121075326D01*
X169733496Y-121045691D01*
X169878146Y-120952611D01*
X169925881Y-120882749D01*
X169965389Y-120944146D01*
X170107412Y-121041186D01*
X170276000Y-121075326D01*
X170976000Y-121075326D01*
X171133496Y-121045691D01*
X171278146Y-120952611D01*
X171375186Y-120810588D01*
X171409200Y-120642624D01*
X171571156Y-120709874D01*
X171859579Y-120710126D01*
X172126143Y-120599984D01*
X172167674Y-120558525D01*
X172167674Y-120580000D01*
X172187181Y-120683671D01*
X172167674Y-120780000D01*
X172167674Y-121230000D01*
X172185214Y-121323217D01*
X172176000Y-121345462D01*
X172176000Y-121436250D01*
X172282250Y-121542500D01*
X172305543Y-121542500D01*
X172432412Y-121629186D01*
X172558376Y-121654694D01*
X172443504Y-121676309D01*
X172301790Y-121767500D01*
X172282250Y-121767500D01*
X172176000Y-121873750D01*
X172176000Y-121964538D01*
X172186112Y-121988951D01*
X172167674Y-122080000D01*
X172167674Y-122530000D01*
X172197309Y-122687496D01*
X172290389Y-122832146D01*
X172432412Y-122929186D01*
X172601000Y-122963326D01*
X172776000Y-122963326D01*
X172776000Y-122976674D01*
X172728000Y-122976674D01*
X172570504Y-123006309D01*
X172425854Y-123099389D01*
X172328814Y-123241412D01*
X172294674Y-123410000D01*
X172294674Y-124110000D01*
X172324309Y-124267496D01*
X172417389Y-124412146D01*
X172481208Y-124455751D01*
X172367702Y-124569257D01*
X172303000Y-124725462D01*
X172303000Y-124928750D01*
X172409250Y-125035000D01*
X173103000Y-125035000D01*
X173103000Y-125015000D01*
X173353000Y-125015000D01*
X173353000Y-125035000D01*
X174046750Y-125035000D01*
X174153000Y-124928750D01*
X174153000Y-124725462D01*
X174088298Y-124569257D01*
X173975084Y-124456043D01*
X174030146Y-124420611D01*
X174127186Y-124278588D01*
X174161326Y-124110000D01*
X174161326Y-123410000D01*
X174131691Y-123252504D01*
X174038611Y-123107854D01*
X173896588Y-123010814D01*
X173876000Y-123006645D01*
X173876000Y-122963326D01*
X174051000Y-122963326D01*
X174208496Y-122933691D01*
X174353146Y-122840611D01*
X174450186Y-122698588D01*
X174484326Y-122530000D01*
X174484326Y-122080000D01*
X174466786Y-121986783D01*
X174476000Y-121964538D01*
X174476000Y-121873750D01*
X174369750Y-121767500D01*
X174346457Y-121767500D01*
X174219588Y-121680814D01*
X174093624Y-121655306D01*
X174208496Y-121633691D01*
X174350210Y-121542500D01*
X174369750Y-121542500D01*
X174476000Y-121436250D01*
X174476000Y-121345462D01*
X174465888Y-121321049D01*
X174484326Y-121230000D01*
X174484326Y-120780000D01*
X174464819Y-120676329D01*
X174484326Y-120580000D01*
X174484326Y-120130000D01*
X174464819Y-120026329D01*
X174484326Y-119930000D01*
X174484326Y-119480000D01*
X174464819Y-119376329D01*
X174484326Y-119280000D01*
X174484326Y-119129888D01*
X174619156Y-119185874D01*
X174907579Y-119186126D01*
X175174143Y-119075984D01*
X175378267Y-118872216D01*
X175488874Y-118605844D01*
X175489126Y-118317421D01*
X175378984Y-118050857D01*
X175175216Y-117846733D01*
X174908844Y-117736126D01*
X174620421Y-117735874D01*
X174484326Y-117792107D01*
X174484326Y-117530000D01*
X174464819Y-117426329D01*
X174484326Y-117330000D01*
X174484326Y-116880000D01*
X174464819Y-116776329D01*
X174484326Y-116680000D01*
X174484326Y-116230000D01*
X174473977Y-116175000D01*
X176249995Y-116175000D01*
X176250000Y-116175001D01*
X176864444Y-116052779D01*
X176986666Y-116028468D01*
X177611181Y-115611181D01*
X180032134Y-113190228D01*
X181443000Y-114601094D01*
X181443000Y-115397573D01*
X181315854Y-115479389D01*
X181218814Y-115621412D01*
X181184674Y-115790000D01*
X181184674Y-116490000D01*
X181214309Y-116647496D01*
X181307389Y-116792146D01*
X181377251Y-116839881D01*
X181315854Y-116879389D01*
X181240277Y-116990000D01*
X181029000Y-116990000D01*
X181029000Y-116492500D01*
X180987134Y-116282024D01*
X180867909Y-116103591D01*
X180830409Y-116066091D01*
X180651976Y-115946866D01*
X180441500Y-115905000D01*
X180228163Y-115905000D01*
X180119588Y-115830814D01*
X179951000Y-115796674D01*
X178501000Y-115796674D01*
X178343504Y-115826309D01*
X178198854Y-115919389D01*
X178101814Y-116061412D01*
X178067674Y-116230000D01*
X178067674Y-116680000D01*
X178087181Y-116783671D01*
X178067674Y-116880000D01*
X178067674Y-117330000D01*
X178087181Y-117433671D01*
X178067674Y-117530000D01*
X178067674Y-117980000D01*
X178085214Y-118073217D01*
X178076000Y-118095462D01*
X178076000Y-118186250D01*
X178182250Y-118292500D01*
X178205543Y-118292500D01*
X178332412Y-118379186D01*
X178458376Y-118404694D01*
X178343504Y-118426309D01*
X178201790Y-118517500D01*
X178182250Y-118517500D01*
X178076000Y-118623750D01*
X178076000Y-118714538D01*
X178086112Y-118738951D01*
X178067674Y-118830000D01*
X178067674Y-119280000D01*
X178087181Y-119383671D01*
X178067674Y-119480000D01*
X178067674Y-119930000D01*
X178087181Y-120033671D01*
X178067674Y-120130000D01*
X178067674Y-120580000D01*
X178087181Y-120683671D01*
X178067674Y-120780000D01*
X178067674Y-121230000D01*
X178087181Y-121333671D01*
X178067674Y-121430000D01*
X178067674Y-121880000D01*
X178087181Y-121983671D01*
X178067674Y-122080000D01*
X178067674Y-122530000D01*
X178097309Y-122687496D01*
X178190389Y-122832146D01*
X178332412Y-122929186D01*
X178501000Y-122963326D01*
X178676000Y-122963326D01*
X178676000Y-123004522D01*
X178666504Y-123006309D01*
X178521854Y-123099389D01*
X178424814Y-123241412D01*
X178390674Y-123410000D01*
X178390674Y-124110000D01*
X178420309Y-124267496D01*
X178513389Y-124412146D01*
X178577208Y-124455751D01*
X178463702Y-124569257D01*
X178399000Y-124725462D01*
X178399000Y-124928750D01*
X178505250Y-125035000D01*
X179199000Y-125035000D01*
X179199000Y-125015000D01*
X179449000Y-125015000D01*
X179449000Y-125035000D01*
X180142750Y-125035000D01*
X180249000Y-124928750D01*
X180249000Y-124725462D01*
X180184298Y-124569257D01*
X180071084Y-124456043D01*
X180126146Y-124420611D01*
X180223186Y-124278588D01*
X180257326Y-124110000D01*
X180257326Y-123410000D01*
X180227691Y-123252504D01*
X180134611Y-123107854D01*
X179992588Y-123010814D01*
X179824000Y-122976674D01*
X179776000Y-122976674D01*
X179776000Y-122963326D01*
X179951000Y-122963326D01*
X180108496Y-122933691D01*
X180253146Y-122840611D01*
X180350186Y-122698588D01*
X180384326Y-122530000D01*
X180384326Y-122360973D01*
X180559079Y-122361126D01*
X180825643Y-122250984D01*
X181029767Y-122047216D01*
X181140374Y-121780844D01*
X181140626Y-121492421D01*
X181030484Y-121225857D01*
X180826716Y-121021733D01*
X180776992Y-121001086D01*
X180825643Y-120980984D01*
X181029767Y-120777216D01*
X181140374Y-120510844D01*
X181140626Y-120222421D01*
X181030484Y-119955857D01*
X180826716Y-119751733D01*
X180560344Y-119641126D01*
X180384326Y-119640972D01*
X180384326Y-119605000D01*
X181197281Y-119605000D01*
X181214309Y-119695496D01*
X181307389Y-119840146D01*
X181377251Y-119887881D01*
X181315854Y-119927389D01*
X181218814Y-120069412D01*
X181184674Y-120238000D01*
X181184674Y-120938000D01*
X181214309Y-121095496D01*
X181307389Y-121240146D01*
X181405065Y-121306885D01*
X181404874Y-121525579D01*
X181515016Y-121792143D01*
X181718784Y-121996267D01*
X181985156Y-122106874D01*
X182273579Y-122107126D01*
X182540143Y-121996984D01*
X182744267Y-121793216D01*
X182854874Y-121526844D01*
X182855081Y-121290480D01*
X182920146Y-121248611D01*
X183010106Y-121116949D01*
X183035702Y-121178743D01*
X183155257Y-121298298D01*
X183311462Y-121363000D01*
X183664750Y-121363000D01*
X183770998Y-121256752D01*
X183770998Y-121363000D01*
X183871746Y-121363000D01*
X182888373Y-122346373D01*
X182579472Y-122808676D01*
X182471000Y-123354000D01*
X182471000Y-128524000D01*
X182579472Y-129069324D01*
X182662674Y-129193845D01*
X182662674Y-129324000D01*
X182692309Y-129481496D01*
X182785389Y-129626146D01*
X182927412Y-129723186D01*
X183096000Y-129757326D01*
X183226155Y-129757326D01*
X183350676Y-129840528D01*
X183896000Y-129949000D01*
X184441324Y-129840528D01*
X184565845Y-129757326D01*
X184696000Y-129757326D01*
X184853496Y-129727691D01*
X184998146Y-129634611D01*
X185095186Y-129492588D01*
X185129326Y-129324000D01*
X185129326Y-129193845D01*
X185212528Y-129069324D01*
X185321000Y-128524000D01*
X185321000Y-123944254D01*
X185739963Y-123525291D01*
X185833483Y-123995447D01*
X186145852Y-124462941D01*
X186613346Y-124775310D01*
X187164793Y-124885000D01*
X187739207Y-124885000D01*
X188290654Y-124775310D01*
X188758148Y-124462941D01*
X188937936Y-124193868D01*
X200772354Y-124193868D01*
X200795781Y-124839908D01*
X200997939Y-125327961D01*
X201226751Y-125462473D01*
X202231223Y-124458000D01*
X202584777Y-124458000D01*
X203589249Y-125462473D01*
X203818061Y-125327961D01*
X204043646Y-124722132D01*
X204020219Y-124076092D01*
X203818061Y-123588039D01*
X203589249Y-123453527D01*
X202584777Y-124458000D01*
X202231223Y-124458000D01*
X201226751Y-123453527D01*
X200997939Y-123588039D01*
X200772354Y-124193868D01*
X188937936Y-124193868D01*
X189070517Y-123995447D01*
X189180207Y-123444000D01*
X189146939Y-123276751D01*
X201403527Y-123276751D01*
X202408000Y-124281223D01*
X203412473Y-123276751D01*
X203277961Y-123047939D01*
X202672132Y-122822354D01*
X202026092Y-122845781D01*
X201538039Y-123047939D01*
X201403527Y-123276751D01*
X189146939Y-123276751D01*
X189070517Y-122892553D01*
X188758148Y-122425059D01*
X188614385Y-122329000D01*
X189447747Y-122329000D01*
X189497389Y-122406146D01*
X189639412Y-122503186D01*
X189808000Y-122537326D01*
X192208000Y-122537326D01*
X192365496Y-122507691D01*
X192510146Y-122414611D01*
X192607186Y-122272588D01*
X192641326Y-122104000D01*
X192641326Y-120335249D01*
X201403527Y-120335249D01*
X201538039Y-120564061D01*
X202143868Y-120789646D01*
X202789908Y-120766219D01*
X203277961Y-120564061D01*
X203412473Y-120335249D01*
X202408000Y-119330777D01*
X201403527Y-120335249D01*
X192641326Y-120335249D01*
X192641326Y-119704000D01*
X192611691Y-119546504D01*
X192518611Y-119401854D01*
X192433000Y-119343359D01*
X192433000Y-118889868D01*
X200772354Y-118889868D01*
X200795781Y-119535908D01*
X200997939Y-120023961D01*
X201226751Y-120158473D01*
X202231223Y-119154000D01*
X202584777Y-119154000D01*
X203589249Y-120158473D01*
X203818061Y-120023961D01*
X204043646Y-119418132D01*
X204020219Y-118772092D01*
X203818061Y-118284039D01*
X203589249Y-118149527D01*
X202584777Y-119154000D01*
X202231223Y-119154000D01*
X201226751Y-118149527D01*
X200997939Y-118284039D01*
X200772354Y-118889868D01*
X192433000Y-118889868D01*
X192433000Y-118209625D01*
X192531358Y-117972751D01*
X201403527Y-117972751D01*
X202408000Y-118977223D01*
X203412473Y-117972751D01*
X203277961Y-117743939D01*
X202672132Y-117518354D01*
X202026092Y-117541781D01*
X201538039Y-117743939D01*
X201403527Y-117972751D01*
X192531358Y-117972751D01*
X192632718Y-117728651D01*
X192633282Y-117082186D01*
X192531250Y-116835249D01*
X201403527Y-116835249D01*
X201538039Y-117064061D01*
X202143868Y-117289646D01*
X202789908Y-117266219D01*
X203277961Y-117064061D01*
X203412473Y-116835249D01*
X202408000Y-115830777D01*
X201403527Y-116835249D01*
X192531250Y-116835249D01*
X192433000Y-116597466D01*
X192433000Y-115389868D01*
X200772354Y-115389868D01*
X200795781Y-116035908D01*
X200997939Y-116523961D01*
X201226751Y-116658473D01*
X202231223Y-115654000D01*
X202584777Y-115654000D01*
X203589249Y-116658473D01*
X203818061Y-116523961D01*
X204043646Y-115918132D01*
X204020219Y-115272092D01*
X203818061Y-114784039D01*
X203589249Y-114649527D01*
X202584777Y-115654000D01*
X202231223Y-115654000D01*
X201226751Y-114649527D01*
X200997939Y-114784039D01*
X200772354Y-115389868D01*
X192433000Y-115389868D01*
X192433000Y-114709625D01*
X192531358Y-114472751D01*
X201403527Y-114472751D01*
X202408000Y-115477223D01*
X203412473Y-114472751D01*
X203277961Y-114243939D01*
X202672132Y-114018354D01*
X202026092Y-114041781D01*
X201538039Y-114243939D01*
X201403527Y-114472751D01*
X192531358Y-114472751D01*
X192632718Y-114228651D01*
X192633282Y-113582186D01*
X192531250Y-113335249D01*
X201403527Y-113335249D01*
X201538039Y-113564061D01*
X202143868Y-113789646D01*
X202789908Y-113766219D01*
X203277961Y-113564061D01*
X203412473Y-113335249D01*
X202408000Y-112330777D01*
X201403527Y-113335249D01*
X192531250Y-113335249D01*
X192386412Y-112984714D01*
X191929691Y-112527195D01*
X191332651Y-112279282D01*
X190686186Y-112278718D01*
X190088714Y-112525588D01*
X189631195Y-112982309D01*
X189383282Y-113579349D01*
X189382718Y-114225814D01*
X189454277Y-114399000D01*
X188583164Y-114399000D01*
X188813329Y-114214552D01*
X189085145Y-113719961D01*
X189104339Y-113632033D01*
X189034884Y-113409000D01*
X187577000Y-113409000D01*
X187577000Y-113429000D01*
X187327000Y-113429000D01*
X187327000Y-113409000D01*
X185869116Y-113409000D01*
X185799661Y-113632033D01*
X185818855Y-113719961D01*
X186090671Y-114214552D01*
X186517589Y-114556673D01*
X186426011Y-114617863D01*
X184821000Y-113012852D01*
X184821000Y-111531214D01*
X184903496Y-111515691D01*
X185048146Y-111422611D01*
X185145186Y-111280588D01*
X185179326Y-111112000D01*
X185179326Y-111092033D01*
X185799661Y-111092033D01*
X185818855Y-111179961D01*
X186090671Y-111674552D01*
X186514253Y-112014000D01*
X186090671Y-112353448D01*
X185818855Y-112848039D01*
X185799661Y-112935967D01*
X185869116Y-113159000D01*
X187327000Y-113159000D01*
X187327000Y-110869000D01*
X187577000Y-110869000D01*
X187577000Y-113159000D01*
X189034884Y-113159000D01*
X189104339Y-112935967D01*
X189085145Y-112848039D01*
X188813329Y-112353448D01*
X188389747Y-112014000D01*
X188544645Y-111889868D01*
X200772354Y-111889868D01*
X200795781Y-112535908D01*
X200997939Y-113023961D01*
X201226751Y-113158473D01*
X202231223Y-112154000D01*
X202584777Y-112154000D01*
X203589249Y-113158473D01*
X203818061Y-113023961D01*
X204043646Y-112418132D01*
X204020219Y-111772092D01*
X203818061Y-111284039D01*
X203589249Y-111149527D01*
X202584777Y-112154000D01*
X202231223Y-112154000D01*
X201226751Y-111149527D01*
X200997939Y-111284039D01*
X200772354Y-111889868D01*
X188544645Y-111889868D01*
X188813329Y-111674552D01*
X189085145Y-111179961D01*
X189104339Y-111092033D01*
X189067194Y-110972751D01*
X201403527Y-110972751D01*
X202408000Y-111977223D01*
X203412473Y-110972751D01*
X203277961Y-110743939D01*
X202672132Y-110518354D01*
X202026092Y-110541781D01*
X201538039Y-110743939D01*
X201403527Y-110972751D01*
X189067194Y-110972751D01*
X189034884Y-110869000D01*
X187577000Y-110869000D01*
X187327000Y-110869000D01*
X185869116Y-110869000D01*
X185799661Y-111092033D01*
X185179326Y-111092033D01*
X185179326Y-109812000D01*
X185149691Y-109654504D01*
X185056611Y-109509854D01*
X184914588Y-109412814D01*
X184746000Y-109378674D01*
X183046000Y-109378674D01*
X182888504Y-109408309D01*
X182743854Y-109501389D01*
X182646814Y-109643412D01*
X182612674Y-109812000D01*
X182612674Y-111112000D01*
X182642309Y-111269496D01*
X182735389Y-111414146D01*
X182877412Y-111511186D01*
X182971000Y-111530138D01*
X182971000Y-113396000D01*
X183041411Y-113749983D01*
X183241926Y-114050074D01*
X184610815Y-115418962D01*
X184480538Y-115365000D01*
X184127250Y-115365000D01*
X184021000Y-115471250D01*
X184021000Y-116015000D01*
X184714750Y-116015000D01*
X184821000Y-115908750D01*
X184821000Y-115705462D01*
X184767038Y-115575185D01*
X185669924Y-116478071D01*
X185669926Y-116478074D01*
X185919515Y-116644844D01*
X185970018Y-116678589D01*
X186027000Y-116689924D01*
X186027000Y-117522934D01*
X185833483Y-117812553D01*
X185723793Y-118364000D01*
X185833483Y-118915447D01*
X186027000Y-119205066D01*
X186027000Y-119542453D01*
X185800676Y-119587472D01*
X185338373Y-119896373D01*
X184771748Y-120462998D01*
X184714752Y-120462998D01*
X184821000Y-120356750D01*
X184821000Y-120153462D01*
X184756298Y-119997257D01*
X184643084Y-119884043D01*
X184698146Y-119848611D01*
X184795186Y-119706588D01*
X184829326Y-119538000D01*
X184829326Y-118838000D01*
X184799691Y-118680504D01*
X184706611Y-118535854D01*
X184564588Y-118438814D01*
X184396000Y-118404674D01*
X183396000Y-118404674D01*
X183238504Y-118434309D01*
X183093854Y-118527389D01*
X183018277Y-118638000D01*
X182994340Y-118638000D01*
X182928611Y-118535854D01*
X182786588Y-118438814D01*
X182618000Y-118404674D01*
X181618000Y-118404674D01*
X181460504Y-118434309D01*
X181350647Y-118505000D01*
X180228163Y-118505000D01*
X180119588Y-118430814D01*
X179993624Y-118405306D01*
X180108496Y-118383691D01*
X180230785Y-118305000D01*
X180677000Y-118305000D01*
X180887476Y-118263134D01*
X181065909Y-118143909D01*
X181119818Y-118090000D01*
X181241660Y-118090000D01*
X181307389Y-118192146D01*
X181449412Y-118289186D01*
X181618000Y-118323326D01*
X182618000Y-118323326D01*
X182775496Y-118293691D01*
X182920146Y-118200611D01*
X182995723Y-118090000D01*
X183019660Y-118090000D01*
X183085389Y-118192146D01*
X183227412Y-118289186D01*
X183396000Y-118323326D01*
X184396000Y-118323326D01*
X184553496Y-118293691D01*
X184698146Y-118200611D01*
X184795186Y-118058588D01*
X184829326Y-117890000D01*
X184829326Y-117190000D01*
X184799691Y-117032504D01*
X184706611Y-116887854D01*
X184642792Y-116844249D01*
X184756298Y-116730743D01*
X184821000Y-116574538D01*
X184821000Y-116371250D01*
X184714750Y-116265000D01*
X184021000Y-116265000D01*
X184021000Y-116285000D01*
X183771000Y-116285000D01*
X183771000Y-116265000D01*
X183751000Y-116265000D01*
X183751000Y-116015000D01*
X183771000Y-116015000D01*
X183771000Y-115471250D01*
X183664750Y-115365000D01*
X183311462Y-115365000D01*
X183155257Y-115429702D01*
X183035702Y-115549257D01*
X183009237Y-115613150D01*
X182928611Y-115487854D01*
X182793000Y-115395195D01*
X182793000Y-114321500D01*
X182771727Y-114214552D01*
X182741619Y-114063188D01*
X182595297Y-113844203D01*
X180986728Y-112235634D01*
X181861178Y-111361183D01*
X181861181Y-111361181D01*
X182278468Y-110736666D01*
X182329305Y-110481091D01*
X182425001Y-110000000D01*
X182425000Y-109999995D01*
X182425000Y-108552033D01*
X185799661Y-108552033D01*
X185818855Y-108639961D01*
X186090671Y-109134552D01*
X186514253Y-109474000D01*
X186090671Y-109813448D01*
X185818855Y-110308039D01*
X185799661Y-110395967D01*
X185869116Y-110619000D01*
X187327000Y-110619000D01*
X187327000Y-108329000D01*
X187577000Y-108329000D01*
X187577000Y-110619000D01*
X189034884Y-110619000D01*
X189104339Y-110395967D01*
X189085145Y-110308039D01*
X188813329Y-109813448D01*
X188389747Y-109474000D01*
X188813329Y-109134552D01*
X189085145Y-108639961D01*
X189104339Y-108552033D01*
X189034884Y-108329000D01*
X187577000Y-108329000D01*
X187327000Y-108329000D01*
X185869116Y-108329000D01*
X185799661Y-108552033D01*
X182425000Y-108552033D01*
X182425000Y-95750000D01*
X182278468Y-95013334D01*
X181861181Y-94388819D01*
X181236666Y-93971532D01*
X181096341Y-93943620D01*
X181468824Y-93869528D01*
X181931127Y-93560627D01*
X182240028Y-93098324D01*
X182242216Y-93087326D01*
X183385000Y-93087326D01*
X183542496Y-93057691D01*
X183687146Y-92964611D01*
X183784186Y-92822588D01*
X183818326Y-92654000D01*
X183818326Y-92578481D01*
X183884389Y-92681146D01*
X184026412Y-92778186D01*
X184195000Y-92812326D01*
X187051843Y-92812326D01*
X187144389Y-92956146D01*
X187286412Y-93053186D01*
X187455000Y-93087326D01*
X188825000Y-93087326D01*
X188825000Y-93750000D01*
X188933472Y-94295324D01*
X189242373Y-94757627D01*
X189987854Y-95503108D01*
X189691472Y-95946676D01*
X189583560Y-96489186D01*
X189453746Y-96619000D01*
X188614385Y-96619000D01*
X188758148Y-96522941D01*
X189070517Y-96055447D01*
X189180207Y-95504000D01*
X189070517Y-94952553D01*
X188758148Y-94485059D01*
X188290654Y-94172690D01*
X187739207Y-94063000D01*
X187164793Y-94063000D01*
X186613346Y-94172690D01*
X186145852Y-94485059D01*
X185833483Y-94952553D01*
X185723793Y-95504000D01*
X185833483Y-96055447D01*
X186145852Y-96522941D01*
X186521589Y-96774000D01*
X186145852Y-97025059D01*
X185833483Y-97492553D01*
X185723793Y-98044000D01*
X185833483Y-98595447D01*
X186145852Y-99062941D01*
X186521589Y-99314000D01*
X186145852Y-99565059D01*
X185833483Y-100032553D01*
X185723793Y-100584000D01*
X185833483Y-101135447D01*
X186145852Y-101602941D01*
X186521589Y-101854000D01*
X186145852Y-102105059D01*
X186083083Y-102199000D01*
X185126005Y-102199000D01*
X185126000Y-102198999D01*
X184772018Y-102269411D01*
X184471926Y-102469926D01*
X183241926Y-103699926D01*
X183041411Y-104000017D01*
X183041411Y-104000018D01*
X182971000Y-104354000D01*
X182971000Y-105892786D01*
X182888504Y-105908309D01*
X182743854Y-106001389D01*
X182646814Y-106143412D01*
X182612674Y-106312000D01*
X182612674Y-107612000D01*
X182642309Y-107769496D01*
X182735389Y-107914146D01*
X182877412Y-108011186D01*
X183046000Y-108045326D01*
X184746000Y-108045326D01*
X184903496Y-108015691D01*
X185048146Y-107922611D01*
X185145186Y-107780588D01*
X185179326Y-107612000D01*
X185179326Y-106312000D01*
X185149691Y-106154504D01*
X185058014Y-106012033D01*
X185799661Y-106012033D01*
X185818855Y-106099961D01*
X186090671Y-106594552D01*
X186514253Y-106934000D01*
X186090671Y-107273448D01*
X185818855Y-107768039D01*
X185799661Y-107855967D01*
X185869116Y-108079000D01*
X187327000Y-108079000D01*
X187327000Y-105789000D01*
X187577000Y-105789000D01*
X187577000Y-108079000D01*
X189034884Y-108079000D01*
X189104339Y-107855967D01*
X189085145Y-107768039D01*
X188813329Y-107273448D01*
X188389747Y-106934000D01*
X188813329Y-106594552D01*
X189085145Y-106099961D01*
X189104339Y-106012033D01*
X189034884Y-105789000D01*
X187577000Y-105789000D01*
X187327000Y-105789000D01*
X185869116Y-105789000D01*
X185799661Y-106012033D01*
X185058014Y-106012033D01*
X185056611Y-106009854D01*
X184914588Y-105912814D01*
X184821000Y-105893862D01*
X184821000Y-104737148D01*
X185509148Y-104049000D01*
X186083083Y-104049000D01*
X186145852Y-104142941D01*
X186517589Y-104391327D01*
X186090671Y-104733448D01*
X185818855Y-105228039D01*
X185799661Y-105315967D01*
X185869116Y-105539000D01*
X187327000Y-105539000D01*
X187327000Y-105519000D01*
X187577000Y-105519000D01*
X187577000Y-105539000D01*
X189034884Y-105539000D01*
X189104339Y-105315967D01*
X189085145Y-105228039D01*
X188813329Y-104733448D01*
X188583164Y-104549000D01*
X189523777Y-104549000D01*
X189383282Y-104887349D01*
X189382718Y-105533814D01*
X189583000Y-106018534D01*
X189583000Y-107151747D01*
X189505854Y-107201389D01*
X189408814Y-107343412D01*
X189374674Y-107512000D01*
X189374674Y-109912000D01*
X189404309Y-110069496D01*
X189497389Y-110214146D01*
X189639412Y-110311186D01*
X189808000Y-110345326D01*
X192208000Y-110345326D01*
X192365496Y-110315691D01*
X192510146Y-110222611D01*
X192607186Y-110080588D01*
X192641326Y-109912000D01*
X192641326Y-108143249D01*
X201403527Y-108143249D01*
X201538039Y-108372061D01*
X202143868Y-108597646D01*
X202789908Y-108574219D01*
X203277961Y-108372061D01*
X203412473Y-108143249D01*
X202408000Y-107138777D01*
X201403527Y-108143249D01*
X192641326Y-108143249D01*
X192641326Y-107512000D01*
X192611691Y-107354504D01*
X192518611Y-107209854D01*
X192433000Y-107151359D01*
X192433000Y-106697868D01*
X200772354Y-106697868D01*
X200795781Y-107343908D01*
X200997939Y-107831961D01*
X201226751Y-107966473D01*
X202231223Y-106962000D01*
X202584777Y-106962000D01*
X203589249Y-107966473D01*
X203818061Y-107831961D01*
X204043646Y-107226132D01*
X204020219Y-106580092D01*
X203818061Y-106092039D01*
X203589249Y-105957527D01*
X202584777Y-106962000D01*
X202231223Y-106962000D01*
X201226751Y-105957527D01*
X200997939Y-106092039D01*
X200772354Y-106697868D01*
X192433000Y-106697868D01*
X192433000Y-106017625D01*
X192531358Y-105780751D01*
X201403527Y-105780751D01*
X202408000Y-106785223D01*
X203412473Y-105780751D01*
X203277961Y-105551939D01*
X202672132Y-105326354D01*
X202026092Y-105349781D01*
X201538039Y-105551939D01*
X201403527Y-105780751D01*
X192531358Y-105780751D01*
X192632718Y-105536651D01*
X192633282Y-104890186D01*
X192531250Y-104643249D01*
X201403527Y-104643249D01*
X201538039Y-104872061D01*
X202143868Y-105097646D01*
X202789908Y-105074219D01*
X203277961Y-104872061D01*
X203412473Y-104643249D01*
X202408000Y-103638777D01*
X201403527Y-104643249D01*
X192531250Y-104643249D01*
X192433000Y-104405466D01*
X192433000Y-103197868D01*
X200772354Y-103197868D01*
X200795781Y-103843908D01*
X200997939Y-104331961D01*
X201226751Y-104466473D01*
X202231223Y-103462000D01*
X202584777Y-103462000D01*
X203589249Y-104466473D01*
X203818061Y-104331961D01*
X204043646Y-103726132D01*
X204020219Y-103080092D01*
X203818061Y-102592039D01*
X203589249Y-102457527D01*
X202584777Y-103462000D01*
X202231223Y-103462000D01*
X201226751Y-102457527D01*
X200997939Y-102592039D01*
X200772354Y-103197868D01*
X192433000Y-103197868D01*
X192433000Y-102517625D01*
X192531358Y-102280751D01*
X201403527Y-102280751D01*
X202408000Y-103285223D01*
X203412473Y-102280751D01*
X203277961Y-102051939D01*
X202672132Y-101826354D01*
X202026092Y-101849781D01*
X201538039Y-102051939D01*
X201403527Y-102280751D01*
X192531358Y-102280751D01*
X192632718Y-102036651D01*
X192633282Y-101390186D01*
X192531250Y-101143249D01*
X201403527Y-101143249D01*
X201538039Y-101372061D01*
X202143868Y-101597646D01*
X202789908Y-101574219D01*
X203277961Y-101372061D01*
X203412473Y-101143249D01*
X202408000Y-100138777D01*
X201403527Y-101143249D01*
X192531250Y-101143249D01*
X192433000Y-100905466D01*
X192433000Y-99697868D01*
X200772354Y-99697868D01*
X200795781Y-100343908D01*
X200997939Y-100831961D01*
X201226751Y-100966473D01*
X202231223Y-99962000D01*
X202584777Y-99962000D01*
X203589249Y-100966473D01*
X203818061Y-100831961D01*
X204043646Y-100226132D01*
X204020219Y-99580092D01*
X203818061Y-99092039D01*
X203589249Y-98957527D01*
X202584777Y-99962000D01*
X202231223Y-99962000D01*
X201226751Y-98957527D01*
X200997939Y-99092039D01*
X200772354Y-99697868D01*
X192433000Y-99697868D01*
X192433000Y-98780751D01*
X201403527Y-98780751D01*
X202408000Y-99785223D01*
X203412473Y-98780751D01*
X203277961Y-98551939D01*
X202672132Y-98326354D01*
X202026092Y-98349781D01*
X201538039Y-98551939D01*
X201403527Y-98780751D01*
X192433000Y-98780751D01*
X192433000Y-97670254D01*
X193007627Y-97095627D01*
X193045002Y-97039691D01*
X193316528Y-96633324D01*
X193364613Y-96391585D01*
X194785191Y-96391585D01*
X194870670Y-96578862D01*
X195331437Y-96737573D01*
X195817867Y-96707874D01*
X196129330Y-96578862D01*
X196214809Y-96391585D01*
X195500000Y-95676777D01*
X194785191Y-96391585D01*
X193364613Y-96391585D01*
X193425000Y-96088000D01*
X193425000Y-95500000D01*
X193391471Y-95331437D01*
X194262427Y-95331437D01*
X194292126Y-95817867D01*
X194421138Y-96129330D01*
X194608415Y-96214809D01*
X195323223Y-95500000D01*
X195676777Y-95500000D01*
X196391585Y-96214809D01*
X196578862Y-96129330D01*
X196737573Y-95668563D01*
X196707874Y-95182133D01*
X196578862Y-94870670D01*
X196391585Y-94785191D01*
X195676777Y-95500000D01*
X195323223Y-95500000D01*
X194608415Y-94785191D01*
X194421138Y-94870670D01*
X194262427Y-95331437D01*
X193391471Y-95331437D01*
X193316528Y-94954676D01*
X193233326Y-94830155D01*
X193233326Y-94700000D01*
X193216094Y-94608415D01*
X194785191Y-94608415D01*
X195500000Y-95323223D01*
X196214809Y-94608415D01*
X196129330Y-94421138D01*
X195668563Y-94262427D01*
X195182133Y-94292126D01*
X194870670Y-94421138D01*
X194785191Y-94608415D01*
X193216094Y-94608415D01*
X193203691Y-94542504D01*
X193110611Y-94397854D01*
X192968588Y-94300814D01*
X192800000Y-94266674D01*
X192781928Y-94266674D01*
X192497188Y-93981934D01*
X200444903Y-93981934D01*
X200587974Y-94218019D01*
X201219161Y-94455295D01*
X201893104Y-94432964D01*
X202412026Y-94218019D01*
X202555097Y-93981934D01*
X201500000Y-92926837D01*
X200444903Y-93981934D01*
X192497188Y-93981934D01*
X191675000Y-93159746D01*
X191675000Y-92469221D01*
X199794765Y-92469221D01*
X199817096Y-93143164D01*
X200032041Y-93662086D01*
X200268126Y-93805157D01*
X201323223Y-92750060D01*
X201676777Y-92750060D01*
X202731874Y-93805157D01*
X202967959Y-93662086D01*
X203205235Y-93030899D01*
X203182904Y-92356956D01*
X202967959Y-91838034D01*
X202731874Y-91694963D01*
X201676777Y-92750060D01*
X201323223Y-92750060D01*
X200268126Y-91694963D01*
X200032041Y-91838034D01*
X199794765Y-92469221D01*
X191675000Y-92469221D01*
X191675000Y-91500000D01*
X191566528Y-90954676D01*
X191257627Y-90492373D01*
X191081966Y-90375000D01*
X191257627Y-90257627D01*
X191566528Y-89795324D01*
X191590462Y-89675000D01*
X192234331Y-89675000D01*
X192763334Y-90028468D01*
X193500000Y-90175000D01*
X199702699Y-90175000D01*
X199796674Y-90268975D01*
X199796674Y-90519940D01*
X199826309Y-90677436D01*
X199919389Y-90822086D01*
X200061412Y-90919126D01*
X200230000Y-90953266D01*
X200650876Y-90953266D01*
X200763335Y-91028409D01*
X201058633Y-91087147D01*
X200587974Y-91282101D01*
X200444903Y-91518186D01*
X201500000Y-92573283D01*
X202555097Y-91518186D01*
X202412026Y-91282101D01*
X201910013Y-91093384D01*
X202236665Y-91028409D01*
X202349125Y-90953266D01*
X202770000Y-90953266D01*
X202927496Y-90923631D01*
X203072146Y-90830551D01*
X203169186Y-90688528D01*
X203203326Y-90519940D01*
X203203326Y-90099065D01*
X203278469Y-89986605D01*
X203425001Y-89249940D01*
X203278469Y-88513275D01*
X203203326Y-88400816D01*
X203203326Y-87979940D01*
X203173691Y-87822444D01*
X203080611Y-87677794D01*
X202938588Y-87580754D01*
X202770000Y-87546614D01*
X202519035Y-87546614D01*
X201861241Y-86888819D01*
X201561448Y-86688504D01*
X201236726Y-86471532D01*
X201089812Y-86442309D01*
X200500060Y-86324999D01*
X200500055Y-86325000D01*
X193500000Y-86325000D01*
X192763334Y-86471532D01*
X192234331Y-86825000D01*
X190750000Y-86825000D01*
X190204676Y-86933472D01*
X189883831Y-87147854D01*
X189742373Y-87242373D01*
X189242373Y-87742373D01*
X189221189Y-87774078D01*
X189155000Y-87760674D01*
X187455000Y-87760674D01*
X187297504Y-87790309D01*
X187152854Y-87883389D01*
X187055814Y-88025412D01*
X187055761Y-88025674D01*
X184195000Y-88025674D01*
X184037504Y-88055309D01*
X183892854Y-88148389D01*
X183818326Y-88257465D01*
X183818326Y-88194000D01*
X183788691Y-88036504D01*
X183695611Y-87891854D01*
X183553588Y-87794814D01*
X183385000Y-87760674D01*
X181988992Y-87760674D01*
X181975909Y-87747591D01*
X181797476Y-87628366D01*
X181587000Y-87586500D01*
X179057340Y-87586500D01*
X178991611Y-87484354D01*
X178849588Y-87387314D01*
X178681000Y-87353174D01*
X177681000Y-87353174D01*
X177523504Y-87382809D01*
X177378854Y-87475889D01*
X177303277Y-87586500D01*
X177025340Y-87586500D01*
X176959611Y-87484354D01*
X176817588Y-87387314D01*
X176649000Y-87353174D01*
X175658535Y-87353174D01*
X175653134Y-87326024D01*
X175533909Y-87147591D01*
X175343409Y-86957091D01*
X175164976Y-86837866D01*
X175034409Y-86811895D01*
X175011191Y-86688504D01*
X174918111Y-86543854D01*
X174776088Y-86446814D01*
X174607500Y-86412674D01*
X173907500Y-86412674D01*
X173750004Y-86442309D01*
X173605354Y-86535389D01*
X173557619Y-86605251D01*
X173518111Y-86543854D01*
X173407500Y-86468277D01*
X173407500Y-86432318D01*
X174004909Y-85834909D01*
X174124134Y-85656476D01*
X174127095Y-85641585D01*
X192785191Y-85641585D01*
X192870670Y-85828862D01*
X193331437Y-85987573D01*
X193817867Y-85957874D01*
X194129330Y-85828862D01*
X194214809Y-85641585D01*
X193500000Y-84926777D01*
X192785191Y-85641585D01*
X174127095Y-85641585D01*
X174166000Y-85446000D01*
X174166000Y-84436669D01*
X174182219Y-84420478D01*
X174442299Y-84420478D01*
X174478194Y-84566433D01*
X174793361Y-84658021D01*
X175119588Y-84622028D01*
X175217583Y-84581437D01*
X192262427Y-84581437D01*
X192292126Y-85067867D01*
X192421138Y-85379330D01*
X192608415Y-85464809D01*
X193323223Y-84750000D01*
X193676777Y-84750000D01*
X194391585Y-85464809D01*
X194578862Y-85379330D01*
X194737573Y-84918563D01*
X194707874Y-84432133D01*
X194578862Y-84120670D01*
X194391585Y-84035191D01*
X193676777Y-84750000D01*
X193323223Y-84750000D01*
X192608415Y-84035191D01*
X192421138Y-84120670D01*
X192262427Y-84581437D01*
X175217583Y-84581437D01*
X175253806Y-84566433D01*
X175289701Y-84420478D01*
X174866000Y-83996777D01*
X174442299Y-84420478D01*
X174182219Y-84420478D01*
X174314993Y-84287935D01*
X174381533Y-84127690D01*
X174689223Y-83820000D01*
X175042777Y-83820000D01*
X175466478Y-84243701D01*
X175612433Y-84207806D01*
X175704021Y-83892639D01*
X175700246Y-83858415D01*
X192785191Y-83858415D01*
X193500000Y-84573223D01*
X194214809Y-83858415D01*
X194129330Y-83671138D01*
X193668563Y-83512427D01*
X193182133Y-83542126D01*
X192870670Y-83671138D01*
X192785191Y-83858415D01*
X175700246Y-83858415D01*
X175668028Y-83566412D01*
X175612433Y-83432194D01*
X175466478Y-83396299D01*
X175042777Y-83820000D01*
X174689223Y-83820000D01*
X174381505Y-83512282D01*
X174315809Y-83353285D01*
X174182279Y-83219522D01*
X174442299Y-83219522D01*
X174866000Y-83643223D01*
X175289701Y-83219522D01*
X175253806Y-83073567D01*
X174938639Y-82981979D01*
X174612412Y-83017972D01*
X174478194Y-83073567D01*
X174442299Y-83219522D01*
X174182279Y-83219522D01*
X174083935Y-83121007D01*
X173780823Y-82995143D01*
X173452617Y-82994857D01*
X173149285Y-83120191D01*
X172917007Y-83352065D01*
X172850467Y-83512310D01*
X172542777Y-83820000D01*
X172850495Y-84127718D01*
X172916191Y-84286715D01*
X173066000Y-84436785D01*
X173066000Y-85218182D01*
X172468591Y-85815591D01*
X172349366Y-85994024D01*
X172307500Y-86204500D01*
X172307500Y-86469660D01*
X172205354Y-86535389D01*
X172139000Y-86632501D01*
X172139000Y-86266500D01*
X172097134Y-86056024D01*
X171977909Y-85877591D01*
X171666000Y-85565682D01*
X171666000Y-84436669D01*
X171682219Y-84420478D01*
X171942299Y-84420478D01*
X171978194Y-84566433D01*
X172293361Y-84658021D01*
X172619588Y-84622028D01*
X172753806Y-84566433D01*
X172789701Y-84420478D01*
X172366000Y-83996777D01*
X171942299Y-84420478D01*
X171682219Y-84420478D01*
X171814993Y-84287935D01*
X171881533Y-84127690D01*
X172189223Y-83820000D01*
X171881505Y-83512282D01*
X171815809Y-83353285D01*
X171682279Y-83219522D01*
X171942299Y-83219522D01*
X172366000Y-83643223D01*
X172789701Y-83219522D01*
X172753806Y-83073567D01*
X172438639Y-82981979D01*
X172112412Y-83017972D01*
X171978194Y-83073567D01*
X171942299Y-83219522D01*
X171682279Y-83219522D01*
X171583935Y-83121007D01*
X171280823Y-82995143D01*
X170952617Y-82994857D01*
X170649285Y-83120191D01*
X170417007Y-83352065D01*
X170350467Y-83512310D01*
X170042777Y-83820000D01*
X170350495Y-84127718D01*
X170416191Y-84286715D01*
X170566000Y-84436785D01*
X170566000Y-85793500D01*
X170607866Y-86003976D01*
X170727091Y-86182409D01*
X171039000Y-86494318D01*
X171039000Y-89115776D01*
X171027110Y-89087000D01*
X170682813Y-88742101D01*
X170232737Y-88555213D01*
X169745401Y-88554788D01*
X169295000Y-88740890D01*
X168950101Y-89085187D01*
X168837000Y-89357564D01*
X168837000Y-88018318D01*
X169004909Y-87850409D01*
X169124134Y-87671976D01*
X169166000Y-87461500D01*
X169166000Y-84436669D01*
X169182219Y-84420478D01*
X169442299Y-84420478D01*
X169478194Y-84566433D01*
X169793361Y-84658021D01*
X170119588Y-84622028D01*
X170253806Y-84566433D01*
X170289701Y-84420478D01*
X169866000Y-83996777D01*
X169442299Y-84420478D01*
X169182219Y-84420478D01*
X169314993Y-84287935D01*
X169381533Y-84127690D01*
X169689223Y-83820000D01*
X169381505Y-83512282D01*
X169315809Y-83353285D01*
X169182279Y-83219522D01*
X169442299Y-83219522D01*
X169866000Y-83643223D01*
X170289701Y-83219522D01*
X170253806Y-83073567D01*
X169938639Y-82981979D01*
X169612412Y-83017972D01*
X169478194Y-83073567D01*
X169442299Y-83219522D01*
X169182279Y-83219522D01*
X169083935Y-83121007D01*
X168780823Y-82995143D01*
X168452617Y-82994857D01*
X168149285Y-83120191D01*
X167917007Y-83352065D01*
X167850467Y-83512310D01*
X167542777Y-83820000D01*
X167850495Y-84127718D01*
X167916191Y-84286715D01*
X168066000Y-84436785D01*
X168066000Y-87233682D01*
X167898091Y-87401591D01*
X167778866Y-87580024D01*
X167737000Y-87790500D01*
X167737000Y-92172000D01*
X167778866Y-92382476D01*
X167898091Y-92560909D01*
X171102500Y-95765318D01*
X171102500Y-96869458D01*
X171027110Y-96687000D01*
X170682813Y-96342101D01*
X170232737Y-96155213D01*
X169745401Y-96154788D01*
X169295000Y-96340890D01*
X168950101Y-96685187D01*
X168763213Y-97135263D01*
X168762788Y-97622599D01*
X168948890Y-98073000D01*
X169293187Y-98417899D01*
X169438000Y-98478031D01*
X169438000Y-105112500D01*
X169479866Y-105322976D01*
X169599091Y-105501409D01*
X174165953Y-110068271D01*
X174165874Y-110159079D01*
X174276016Y-110425643D01*
X174479784Y-110629767D01*
X174746156Y-110740374D01*
X175034579Y-110740626D01*
X175301143Y-110630484D01*
X175505267Y-110426716D01*
X175615874Y-110160344D01*
X175616126Y-109871921D01*
X175505984Y-109605357D01*
X175302216Y-109401233D01*
X175035844Y-109290626D01*
X174943864Y-109290546D01*
X170538000Y-104884682D01*
X170538000Y-104335692D01*
X170572866Y-104510976D01*
X170692091Y-104689409D01*
X175753453Y-109750771D01*
X175753374Y-109841579D01*
X175863516Y-110108143D01*
X176067284Y-110312267D01*
X176333656Y-110422874D01*
X176622079Y-110423126D01*
X176888643Y-110312984D01*
X177092767Y-110109216D01*
X177203374Y-109842844D01*
X177203626Y-109554421D01*
X177093484Y-109287857D01*
X176889716Y-109083733D01*
X176623344Y-108973126D01*
X176531364Y-108973046D01*
X172769716Y-105211398D01*
X173105867Y-105190874D01*
X173417330Y-105061862D01*
X173502809Y-104874585D01*
X172788000Y-104159777D01*
X172773858Y-104173919D01*
X172597081Y-103997142D01*
X172611223Y-103983000D01*
X172964777Y-103983000D01*
X173679585Y-104697809D01*
X173866862Y-104612330D01*
X174025573Y-104151563D01*
X173995874Y-103665133D01*
X173866862Y-103353670D01*
X173679585Y-103268191D01*
X172964777Y-103983000D01*
X172611223Y-103983000D01*
X171896415Y-103268191D01*
X171709138Y-103353670D01*
X171631000Y-103580519D01*
X171631000Y-103091415D01*
X172073191Y-103091415D01*
X172788000Y-103806223D01*
X173502809Y-103091415D01*
X173417330Y-102904138D01*
X172956563Y-102745427D01*
X172470133Y-102775126D01*
X172158670Y-102904138D01*
X172073191Y-103091415D01*
X171631000Y-103091415D01*
X171631000Y-102178818D01*
X172041409Y-101768409D01*
X172160634Y-101589976D01*
X172202500Y-101379500D01*
X172202500Y-95537505D01*
X172202501Y-95537500D01*
X172160634Y-95327024D01*
X172041409Y-95148591D01*
X168837000Y-91944182D01*
X168837000Y-90202206D01*
X168948890Y-90473000D01*
X169293187Y-90817899D01*
X169743263Y-91004787D01*
X170230599Y-91005212D01*
X170681000Y-90819110D01*
X171025899Y-90474813D01*
X171039000Y-90443262D01*
X171039000Y-90584500D01*
X171080866Y-90794976D01*
X171200091Y-90973409D01*
X171835089Y-91608406D01*
X171835091Y-91608409D01*
X171980220Y-91705381D01*
X172013524Y-91727634D01*
X172144091Y-91753606D01*
X172167309Y-91876996D01*
X172260389Y-92021646D01*
X172371000Y-92097223D01*
X172371000Y-92311660D01*
X172268854Y-92377389D01*
X172171814Y-92519412D01*
X172137674Y-92688000D01*
X172137674Y-93688000D01*
X172167309Y-93845496D01*
X172260389Y-93990146D01*
X172402412Y-94087186D01*
X172571000Y-94121326D01*
X173271000Y-94121326D01*
X173428496Y-94091691D01*
X173573146Y-93998611D01*
X173620881Y-93928749D01*
X173660389Y-93990146D01*
X173802412Y-94087186D01*
X173971000Y-94121326D01*
X174671000Y-94121326D01*
X174828496Y-94091691D01*
X174973146Y-93998611D01*
X175065805Y-93863000D01*
X175291500Y-93863000D01*
X175549812Y-93811619D01*
X175768797Y-93665297D01*
X176320268Y-93113826D01*
X176649000Y-93113826D01*
X176806496Y-93084191D01*
X176928785Y-93005500D01*
X177403837Y-93005500D01*
X177512412Y-93079686D01*
X177681000Y-93113826D01*
X178681000Y-93113826D01*
X178838496Y-93084191D01*
X178920741Y-93031268D01*
X178971972Y-93288824D01*
X179280873Y-93751127D01*
X179687033Y-94022515D01*
X179138819Y-94388819D01*
X178721532Y-95013334D01*
X178575000Y-95750000D01*
X178575000Y-102058000D01*
X176288000Y-102058000D01*
X175551334Y-102204532D01*
X174926819Y-102621819D01*
X174509532Y-103246334D01*
X174363000Y-103983000D01*
X174509532Y-104719666D01*
X174926819Y-105344181D01*
X175551334Y-105761468D01*
X176288000Y-105908000D01*
X178575000Y-105908000D01*
X178575000Y-109202639D01*
X177787069Y-109990569D01*
X177787067Y-109990572D01*
X175452638Y-112325000D01*
X168500000Y-112325000D01*
X167763334Y-112471532D01*
X167763326Y-112471537D01*
X167763326Y-111763000D01*
X167733691Y-111605504D01*
X167640611Y-111460854D01*
X167498588Y-111363814D01*
X167498326Y-111363761D01*
X167498326Y-108503000D01*
X167468691Y-108345504D01*
X167375611Y-108200854D01*
X167266535Y-108126326D01*
X167330000Y-108126326D01*
X167487496Y-108096691D01*
X167632146Y-108003611D01*
X167729186Y-107861588D01*
X167763326Y-107693000D01*
X167763326Y-105993000D01*
X167733691Y-105835504D01*
X167680214Y-105752398D01*
X167724874Y-105644844D01*
X167725126Y-105356421D01*
X167614984Y-105089857D01*
X167411216Y-104885733D01*
X167144844Y-104775126D01*
X166922000Y-104774931D01*
X166922000Y-104326594D01*
X166947400Y-104198900D01*
X166857958Y-103749247D01*
X166603250Y-103368050D01*
X166222053Y-103113342D01*
X165772400Y-103023900D01*
X163258147Y-103023900D01*
X163194300Y-103011200D01*
X162744647Y-103100642D01*
X162363450Y-103355350D01*
X162108742Y-103736547D01*
X162019300Y-104186200D01*
X162019300Y-105267100D01*
X162108742Y-105716753D01*
X162363450Y-106097950D01*
X162436674Y-106146877D01*
X162436674Y-107693000D01*
X162466309Y-107850496D01*
X162559389Y-107995146D01*
X162701412Y-108092186D01*
X162870000Y-108126326D01*
X162945519Y-108126326D01*
X162842854Y-108192389D01*
X162745814Y-108334412D01*
X162711674Y-108503000D01*
X162711674Y-109445000D01*
X161493473Y-109445000D01*
X161287849Y-109239016D01*
X160580586Y-108945335D01*
X159814774Y-108944667D01*
X159813968Y-108945000D01*
X156796534Y-108945000D01*
X156414774Y-108944667D01*
X155707000Y-109237113D01*
X155500000Y-109443752D01*
X155500000Y-98826476D01*
X155704151Y-99030984D01*
X155967507Y-99140339D01*
X156129334Y-99248468D01*
X156184655Y-99259472D01*
X156318555Y-99286106D01*
X156411414Y-99324665D01*
X156512845Y-99324753D01*
X156866000Y-99395001D01*
X156866005Y-99395000D01*
X160195466Y-99395000D01*
X160577226Y-99395333D01*
X161285000Y-99102887D01*
X161826984Y-98561849D01*
X162120665Y-97854586D01*
X162121333Y-97088774D01*
X161828887Y-96381000D01*
X161413000Y-95964386D01*
X161413000Y-94708005D01*
X161413001Y-94708000D01*
X161413000Y-94707995D01*
X161413000Y-92030060D01*
X161266468Y-91293394D01*
X161191326Y-91180936D01*
X161191326Y-90760060D01*
X161161691Y-90602564D01*
X161068611Y-90457914D01*
X160926588Y-90360874D01*
X160758000Y-90326734D01*
X160337124Y-90326734D01*
X160224666Y-90251592D01*
X159929366Y-90192853D01*
X160400026Y-89997899D01*
X160543097Y-89761814D01*
X159488000Y-88706717D01*
X158432903Y-89761814D01*
X158575974Y-89997899D01*
X159077988Y-90186616D01*
X158751334Y-90251592D01*
X158638876Y-90326734D01*
X158218000Y-90326734D01*
X158060504Y-90356369D01*
X157915854Y-90449449D01*
X157818814Y-90591472D01*
X157784674Y-90760060D01*
X157784674Y-91180936D01*
X157709532Y-91293394D01*
X157563000Y-92030060D01*
X157563000Y-93910639D01*
X155500000Y-95973638D01*
X155500000Y-88249101D01*
X157782765Y-88249101D01*
X157805096Y-88923044D01*
X158020041Y-89441966D01*
X158256126Y-89585037D01*
X159311223Y-88529940D01*
X159664777Y-88529940D01*
X160719874Y-89585037D01*
X160955959Y-89441966D01*
X161193235Y-88810779D01*
X161170904Y-88136836D01*
X160955959Y-87617914D01*
X160719874Y-87474843D01*
X159664777Y-88529940D01*
X159311223Y-88529940D01*
X158256126Y-87474843D01*
X158020041Y-87617914D01*
X157782765Y-88249101D01*
X155500000Y-88249101D01*
X155500000Y-87298066D01*
X158432903Y-87298066D01*
X159488000Y-88353163D01*
X160543097Y-87298066D01*
X160400026Y-87061981D01*
X159768839Y-86824705D01*
X159094896Y-86847036D01*
X158575974Y-87061981D01*
X158432903Y-87298066D01*
X155500000Y-87298066D01*
X155500000Y-85643346D01*
X155735537Y-85837686D01*
X155967145Y-85606078D01*
X156143767Y-85783010D01*
X155912314Y-86014463D01*
X156229755Y-86399196D01*
X157378310Y-86874981D01*
X158621512Y-86875017D01*
X159770094Y-86399298D01*
X159770245Y-86399196D01*
X160087686Y-86014463D01*
X159856078Y-85782855D01*
X160033010Y-85606233D01*
X160264463Y-85837686D01*
X160649196Y-85520245D01*
X161124981Y-84371690D01*
X161124988Y-84096265D01*
X161164758Y-84096265D01*
X161376687Y-84609172D01*
X161768764Y-85001934D01*
X162281300Y-85214758D01*
X162836265Y-85215242D01*
X163349172Y-85003313D01*
X163741934Y-84611236D01*
X163954758Y-84098700D01*
X163955242Y-83543735D01*
X163904116Y-83420000D01*
X165282674Y-83420000D01*
X165282674Y-84220000D01*
X165312309Y-84377496D01*
X165405389Y-84522146D01*
X165547412Y-84619186D01*
X165566000Y-84622950D01*
X165566000Y-98891000D01*
X165607866Y-99101476D01*
X165727091Y-99279909D01*
X167991000Y-101543818D01*
X167991000Y-109380500D01*
X168032866Y-109590976D01*
X168152091Y-109769409D01*
X169847953Y-111465271D01*
X169847874Y-111556079D01*
X169958016Y-111822643D01*
X170161784Y-112026767D01*
X170428156Y-112137374D01*
X170716579Y-112137626D01*
X170983143Y-112027484D01*
X171187267Y-111823716D01*
X171297874Y-111557344D01*
X171298126Y-111268921D01*
X171187984Y-111002357D01*
X170984216Y-110798233D01*
X170717844Y-110687626D01*
X170625864Y-110687546D01*
X169091000Y-109152682D01*
X169091000Y-101316000D01*
X169049134Y-101105524D01*
X168929909Y-100927091D01*
X166666000Y-98663182D01*
X166666000Y-84625101D01*
X166673496Y-84623691D01*
X166818146Y-84530611D01*
X166847512Y-84487633D01*
X166861329Y-84501450D01*
X166942299Y-84420480D01*
X166978194Y-84566433D01*
X167293361Y-84658021D01*
X167619588Y-84622028D01*
X167753806Y-84566433D01*
X167789701Y-84420478D01*
X167366000Y-83996777D01*
X167351858Y-84010919D01*
X167175081Y-83834142D01*
X167189223Y-83820000D01*
X167175081Y-83805858D01*
X167351858Y-83629081D01*
X167366000Y-83643223D01*
X167789701Y-83219522D01*
X167753806Y-83073567D01*
X167438639Y-82981979D01*
X167112412Y-83017972D01*
X166978194Y-83073567D01*
X166942299Y-83219520D01*
X166861329Y-83138550D01*
X166848308Y-83151571D01*
X166826611Y-83117854D01*
X166684588Y-83020814D01*
X166516000Y-82986674D01*
X165716000Y-82986674D01*
X165558504Y-83016309D01*
X165413854Y-83109389D01*
X165316814Y-83251412D01*
X165282674Y-83420000D01*
X163904116Y-83420000D01*
X163743313Y-83030828D01*
X163351236Y-82638066D01*
X162838700Y-82425242D01*
X162283735Y-82424758D01*
X161770828Y-82636687D01*
X161378066Y-83028764D01*
X161165242Y-83541300D01*
X161164758Y-84096265D01*
X161124988Y-84096265D01*
X161125017Y-83128488D01*
X160649298Y-81979906D01*
X160649196Y-81979755D01*
X160264463Y-81662314D01*
X160032855Y-81893922D01*
X159856233Y-81716990D01*
X160087686Y-81485537D01*
X159893346Y-81250000D01*
X201106654Y-81250000D01*
X200912314Y-81485537D01*
G36*
X158995549Y-143949228D02*
X158164777Y-144780000D01*
X158995704Y-145610927D01*
X158818772Y-145787549D01*
X157988000Y-144956777D01*
X157973858Y-144970919D01*
X157797081Y-144794142D01*
X157811223Y-144780000D01*
X156980296Y-143949073D01*
X157157228Y-143772451D01*
X157988000Y-144603223D01*
X158818927Y-143772296D01*
X158995549Y-143949228D01*
X158995549Y-143949228D01*
G37*
X158995549Y-143949228D02*
X158164777Y-144780000D01*
X158995704Y-145610927D01*
X158818772Y-145787549D01*
X157988000Y-144956777D01*
X157973858Y-144970919D01*
X157797081Y-144794142D01*
X157811223Y-144780000D01*
X156980296Y-143949073D01*
X157157228Y-143772451D01*
X157988000Y-144603223D01*
X158818927Y-143772296D01*
X158995549Y-143949228D01*
G36*
X204007549Y-143919228D02*
X203176777Y-144750000D01*
X203190919Y-144764142D01*
X203014142Y-144940919D01*
X203000000Y-144926777D01*
X202169073Y-145757704D01*
X201992451Y-145580772D01*
X202823223Y-144750000D01*
X201992296Y-143919073D01*
X202169228Y-143742451D01*
X203000000Y-144573223D01*
X203830927Y-143742296D01*
X204007549Y-143919228D01*
X204007549Y-143919228D01*
G37*
X204007549Y-143919228D02*
X203176777Y-144750000D01*
X203190919Y-144764142D01*
X203014142Y-144940919D01*
X203000000Y-144926777D01*
X202169073Y-145757704D01*
X201992451Y-145580772D01*
X202823223Y-144750000D01*
X201992296Y-143919073D01*
X202169228Y-143742451D01*
X203000000Y-144573223D01*
X203830927Y-143742296D01*
X204007549Y-143919228D01*
G36*
X184021000Y-120463000D02*
X184041000Y-120463000D01*
X184041000Y-120713000D01*
X184021000Y-120713000D01*
X184021000Y-120733000D01*
X183771000Y-120733000D01*
X183771000Y-120713000D01*
X183751000Y-120713000D01*
X183751000Y-120463000D01*
X183771000Y-120463000D01*
X183771000Y-120443000D01*
X184021000Y-120443000D01*
X184021000Y-120463000D01*
X184021000Y-120463000D01*
G37*
X184021000Y-120463000D02*
X184041000Y-120463000D01*
X184041000Y-120713000D01*
X184021000Y-120713000D01*
X184021000Y-120733000D01*
X183771000Y-120733000D01*
X183771000Y-120713000D01*
X183751000Y-120713000D01*
X183751000Y-120463000D01*
X183771000Y-120463000D01*
X183771000Y-120443000D01*
X184021000Y-120443000D01*
X184021000Y-120463000D01*
G36*
X203000000Y-83573223D02*
X203014142Y-83559081D01*
X203190919Y-83735858D01*
X203176777Y-83750000D01*
X204007704Y-84580927D01*
X203830772Y-84757549D01*
X203000000Y-83926777D01*
X202169073Y-84757704D01*
X201992451Y-84580772D01*
X202823223Y-83750000D01*
X201992296Y-82919073D01*
X202169228Y-82742451D01*
X203000000Y-83573223D01*
X203000000Y-83573223D01*
G37*
X203000000Y-83573223D02*
X203014142Y-83559081D01*
X203190919Y-83735858D01*
X203176777Y-83750000D01*
X204007704Y-84580927D01*
X203830772Y-84757549D01*
X203000000Y-83926777D01*
X202169073Y-84757704D01*
X201992451Y-84580772D01*
X202823223Y-83750000D01*
X201992296Y-82919073D01*
X202169228Y-82742451D01*
X203000000Y-83573223D01*
G36*
X159007549Y-82919228D02*
X158176777Y-83750000D01*
X159007704Y-84580927D01*
X158830772Y-84757549D01*
X158000000Y-83926777D01*
X157169073Y-84757704D01*
X156992451Y-84580772D01*
X157823223Y-83750000D01*
X157809081Y-83735858D01*
X157985858Y-83559081D01*
X158000000Y-83573223D01*
X158830927Y-82742296D01*
X159007549Y-82919228D01*
X159007549Y-82919228D01*
G37*
X159007549Y-82919228D02*
X158176777Y-83750000D01*
X159007704Y-84580927D01*
X158830772Y-84757549D01*
X158000000Y-83926777D01*
X157169073Y-84757704D01*
X156992451Y-84580772D01*
X157823223Y-83750000D01*
X157809081Y-83735858D01*
X157985858Y-83559081D01*
X158000000Y-83573223D01*
X158830927Y-82742296D01*
X159007549Y-82919228D01*
M02*
