G04 #@! TF.FileFunction,Legend,Bot*
%FSLAX46Y46*%
G04 Gerber Fmt 4.6, Leading zero omitted, Abs format (unit mm)*
G04 Created by KiCad (PCBNEW 4.0.5) date 03/05/17 20:07:58*
%MOMM*%
%LPD*%
G01*
G04 APERTURE LIST*
%ADD10C,0.100000*%
%ADD11C,0.150000*%
%ADD12C,0.120000*%
G04 APERTURE END LIST*
D10*
D11*
X179824000Y-124560000D02*
X179824000Y-124360000D01*
X178824000Y-124560000D02*
X178824000Y-124360000D01*
X173521000Y-93688000D02*
X173721000Y-93688000D01*
X173521000Y-92688000D02*
X173721000Y-92688000D01*
X173728000Y-124560000D02*
X173728000Y-124360000D01*
X172728000Y-124560000D02*
X172728000Y-124360000D01*
X175649000Y-91530500D02*
X175649000Y-91730500D01*
X176649000Y-91530500D02*
X176649000Y-91730500D01*
X169826000Y-118864000D02*
X170026000Y-118864000D01*
X169826000Y-117864000D02*
X170026000Y-117864000D01*
X168664000Y-127916000D02*
X168664000Y-128116000D01*
X169664000Y-127916000D02*
X169664000Y-128116000D01*
X173457500Y-89814500D02*
X173657500Y-89814500D01*
X173457500Y-88814500D02*
X173657500Y-88814500D01*
X168664000Y-130710000D02*
X168664000Y-130910000D01*
X169664000Y-130710000D02*
X169664000Y-130910000D01*
X175649000Y-88736500D02*
X175649000Y-88936500D01*
X176649000Y-88736500D02*
X176649000Y-88936500D01*
D12*
X182896000Y-110462000D02*
X182896000Y-106162000D01*
X182896000Y-106162000D02*
X184896000Y-106162000D01*
X184896000Y-106162000D02*
X184896000Y-110462000D01*
D11*
X169826000Y-117086000D02*
X170026000Y-117086000D01*
X169826000Y-116086000D02*
X170026000Y-116086000D01*
X169826000Y-120642000D02*
X170026000Y-120642000D01*
X169826000Y-119642000D02*
X170026000Y-119642000D01*
X173521000Y-91719500D02*
X173721000Y-91719500D01*
X173521000Y-90719500D02*
X173721000Y-90719500D01*
X177681000Y-91530500D02*
X177681000Y-91730500D01*
X178681000Y-91530500D02*
X178681000Y-91730500D01*
X181618000Y-119788000D02*
X181618000Y-119988000D01*
X182618000Y-119788000D02*
X182618000Y-119988000D01*
X182618000Y-116940000D02*
X182618000Y-116740000D01*
X181618000Y-116940000D02*
X181618000Y-116740000D01*
X183396000Y-119788000D02*
X183396000Y-119988000D01*
X184396000Y-119788000D02*
X184396000Y-119988000D01*
X184396000Y-116940000D02*
X184396000Y-116740000D01*
X183396000Y-116940000D02*
X183396000Y-116740000D01*
X170696000Y-127916000D02*
X170696000Y-128116000D01*
X171696000Y-127916000D02*
X171696000Y-128116000D01*
X173457500Y-87846000D02*
X173657500Y-87846000D01*
X173457500Y-86846000D02*
X173657500Y-86846000D01*
X170696000Y-130710000D02*
X170696000Y-130910000D01*
X171696000Y-130710000D02*
X171696000Y-130910000D01*
X177681000Y-88736500D02*
X177681000Y-88936500D01*
X178681000Y-88736500D02*
X178681000Y-88936500D01*
X178501000Y-122830000D02*
X174051000Y-122830000D01*
X180026000Y-115930000D02*
X174051000Y-115930000D01*
X167855000Y-121942000D02*
X167650000Y-121942000D01*
X167855000Y-115802000D02*
X167555000Y-115802000D01*
X162345000Y-115802000D02*
X162645000Y-115802000D01*
X162345000Y-121942000D02*
X162645000Y-121942000D01*
X167855000Y-121942000D02*
X167855000Y-115802000D01*
X162345000Y-121942000D02*
X162345000Y-115802000D01*
X167650000Y-121942000D02*
X167650000Y-122622000D01*
X162345000Y-106658000D02*
X162550000Y-106658000D01*
X162345000Y-112798000D02*
X162645000Y-112798000D01*
X167855000Y-112798000D02*
X167555000Y-112798000D01*
X167855000Y-106658000D02*
X167555000Y-106658000D01*
X162345000Y-106658000D02*
X162345000Y-112798000D01*
X167855000Y-106658000D02*
X167855000Y-112798000D01*
X162550000Y-106658000D02*
X162550000Y-105978000D01*
X174283000Y-131296000D02*
X174488000Y-131296000D01*
X174283000Y-137436000D02*
X174583000Y-137436000D01*
X179793000Y-137436000D02*
X179493000Y-137436000D01*
X179793000Y-131296000D02*
X179493000Y-131296000D01*
X174283000Y-131296000D02*
X174283000Y-137436000D01*
X179793000Y-131296000D02*
X179793000Y-137436000D01*
X174488000Y-131296000D02*
X174488000Y-130616000D01*
X182350000Y-93179000D02*
X182350000Y-92974000D01*
X188490000Y-93179000D02*
X188490000Y-92879000D01*
X188490000Y-87669000D02*
X188490000Y-87969000D01*
X182350000Y-87669000D02*
X182350000Y-87969000D01*
X182350000Y-93179000D02*
X188490000Y-93179000D01*
X182350000Y-87669000D02*
X188490000Y-87669000D01*
X182350000Y-92974000D02*
X181670000Y-92974000D01*
X178357143Y-124383334D02*
X178404762Y-124335715D01*
X178452381Y-124192858D01*
X178452381Y-124097620D01*
X178404762Y-123954762D01*
X178309524Y-123859524D01*
X178214286Y-123811905D01*
X178023810Y-123764286D01*
X177880952Y-123764286D01*
X177690476Y-123811905D01*
X177595238Y-123859524D01*
X177500000Y-123954762D01*
X177452381Y-124097620D01*
X177452381Y-124192858D01*
X177500000Y-124335715D01*
X177547619Y-124383334D01*
X178452381Y-125335715D02*
X178452381Y-124764286D01*
X178452381Y-125050000D02*
X177452381Y-125050000D01*
X177595238Y-124954762D01*
X177690476Y-124859524D01*
X177738095Y-124764286D01*
X171566666Y-93507143D02*
X171614285Y-93554762D01*
X171757142Y-93602381D01*
X171852380Y-93602381D01*
X171995238Y-93554762D01*
X172090476Y-93459524D01*
X172138095Y-93364286D01*
X172185714Y-93173810D01*
X172185714Y-93030952D01*
X172138095Y-92840476D01*
X172090476Y-92745238D01*
X171995238Y-92650000D01*
X171852380Y-92602381D01*
X171757142Y-92602381D01*
X171614285Y-92650000D01*
X171566666Y-92697619D01*
X171185714Y-92697619D02*
X171138095Y-92650000D01*
X171042857Y-92602381D01*
X170804761Y-92602381D01*
X170709523Y-92650000D01*
X170661904Y-92697619D01*
X170614285Y-92792857D01*
X170614285Y-92888095D01*
X170661904Y-93030952D01*
X171233333Y-93602381D01*
X170614285Y-93602381D01*
X174957143Y-124183334D02*
X175004762Y-124135715D01*
X175052381Y-123992858D01*
X175052381Y-123897620D01*
X175004762Y-123754762D01*
X174909524Y-123659524D01*
X174814286Y-123611905D01*
X174623810Y-123564286D01*
X174480952Y-123564286D01*
X174290476Y-123611905D01*
X174195238Y-123659524D01*
X174100000Y-123754762D01*
X174052381Y-123897620D01*
X174052381Y-123992858D01*
X174100000Y-124135715D01*
X174147619Y-124183334D01*
X174052381Y-124516667D02*
X174052381Y-125135715D01*
X174433333Y-124802381D01*
X174433333Y-124945239D01*
X174480952Y-125040477D01*
X174528571Y-125088096D01*
X174623810Y-125135715D01*
X174861905Y-125135715D01*
X174957143Y-125088096D01*
X175004762Y-125040477D01*
X175052381Y-124945239D01*
X175052381Y-124659524D01*
X175004762Y-124564286D01*
X174957143Y-124516667D01*
X176557143Y-93783334D02*
X176604762Y-93735715D01*
X176652381Y-93592858D01*
X176652381Y-93497620D01*
X176604762Y-93354762D01*
X176509524Y-93259524D01*
X176414286Y-93211905D01*
X176223810Y-93164286D01*
X176080952Y-93164286D01*
X175890476Y-93211905D01*
X175795238Y-93259524D01*
X175700000Y-93354762D01*
X175652381Y-93497620D01*
X175652381Y-93592858D01*
X175700000Y-93735715D01*
X175747619Y-93783334D01*
X175985714Y-94640477D02*
X176652381Y-94640477D01*
X175604762Y-94402381D02*
X176319048Y-94164286D01*
X176319048Y-94783334D01*
X172157143Y-118183334D02*
X172204762Y-118135715D01*
X172252381Y-117992858D01*
X172252381Y-117897620D01*
X172204762Y-117754762D01*
X172109524Y-117659524D01*
X172014286Y-117611905D01*
X171823810Y-117564286D01*
X171680952Y-117564286D01*
X171490476Y-117611905D01*
X171395238Y-117659524D01*
X171300000Y-117754762D01*
X171252381Y-117897620D01*
X171252381Y-117992858D01*
X171300000Y-118135715D01*
X171347619Y-118183334D01*
X171252381Y-119088096D02*
X171252381Y-118611905D01*
X171728571Y-118564286D01*
X171680952Y-118611905D01*
X171633333Y-118707143D01*
X171633333Y-118945239D01*
X171680952Y-119040477D01*
X171728571Y-119088096D01*
X171823810Y-119135715D01*
X172061905Y-119135715D01*
X172157143Y-119088096D01*
X172204762Y-119040477D01*
X172252381Y-118945239D01*
X172252381Y-118707143D01*
X172204762Y-118611905D01*
X172157143Y-118564286D01*
X169557143Y-125583334D02*
X169604762Y-125535715D01*
X169652381Y-125392858D01*
X169652381Y-125297620D01*
X169604762Y-125154762D01*
X169509524Y-125059524D01*
X169414286Y-125011905D01*
X169223810Y-124964286D01*
X169080952Y-124964286D01*
X168890476Y-125011905D01*
X168795238Y-125059524D01*
X168700000Y-125154762D01*
X168652381Y-125297620D01*
X168652381Y-125392858D01*
X168700000Y-125535715D01*
X168747619Y-125583334D01*
X169080952Y-126154762D02*
X169033333Y-126059524D01*
X168985714Y-126011905D01*
X168890476Y-125964286D01*
X168842857Y-125964286D01*
X168747619Y-126011905D01*
X168700000Y-126059524D01*
X168652381Y-126154762D01*
X168652381Y-126345239D01*
X168700000Y-126440477D01*
X168747619Y-126488096D01*
X168842857Y-126535715D01*
X168890476Y-126535715D01*
X168985714Y-126488096D01*
X169033333Y-126440477D01*
X169080952Y-126345239D01*
X169080952Y-126154762D01*
X169128571Y-126059524D01*
X169176190Y-126011905D01*
X169271429Y-125964286D01*
X169461905Y-125964286D01*
X169557143Y-126011905D01*
X169604762Y-126059524D01*
X169652381Y-126154762D01*
X169652381Y-126345239D01*
X169604762Y-126440477D01*
X169557143Y-126488096D01*
X169461905Y-126535715D01*
X169271429Y-126535715D01*
X169176190Y-126488096D01*
X169128571Y-126440477D01*
X169080952Y-126345239D01*
X172157143Y-89183334D02*
X172204762Y-89135715D01*
X172252381Y-88992858D01*
X172252381Y-88897620D01*
X172204762Y-88754762D01*
X172109524Y-88659524D01*
X172014286Y-88611905D01*
X171823810Y-88564286D01*
X171680952Y-88564286D01*
X171490476Y-88611905D01*
X171395238Y-88659524D01*
X171300000Y-88754762D01*
X171252381Y-88897620D01*
X171252381Y-88992858D01*
X171300000Y-89135715D01*
X171347619Y-89183334D01*
X172252381Y-89659524D02*
X172252381Y-89850000D01*
X172204762Y-89945239D01*
X172157143Y-89992858D01*
X172014286Y-90088096D01*
X171823810Y-90135715D01*
X171442857Y-90135715D01*
X171347619Y-90088096D01*
X171300000Y-90040477D01*
X171252381Y-89945239D01*
X171252381Y-89754762D01*
X171300000Y-89659524D01*
X171347619Y-89611905D01*
X171442857Y-89564286D01*
X171680952Y-89564286D01*
X171776190Y-89611905D01*
X171823810Y-89659524D01*
X171871429Y-89754762D01*
X171871429Y-89945239D01*
X171823810Y-90040477D01*
X171776190Y-90088096D01*
X171680952Y-90135715D01*
X169557143Y-132907143D02*
X169604762Y-132859524D01*
X169652381Y-132716667D01*
X169652381Y-132621429D01*
X169604762Y-132478571D01*
X169509524Y-132383333D01*
X169414286Y-132335714D01*
X169223810Y-132288095D01*
X169080952Y-132288095D01*
X168890476Y-132335714D01*
X168795238Y-132383333D01*
X168700000Y-132478571D01*
X168652381Y-132621429D01*
X168652381Y-132716667D01*
X168700000Y-132859524D01*
X168747619Y-132907143D01*
X169652381Y-133859524D02*
X169652381Y-133288095D01*
X169652381Y-133573809D02*
X168652381Y-133573809D01*
X168795238Y-133478571D01*
X168890476Y-133383333D01*
X168938095Y-133288095D01*
X168652381Y-134478571D02*
X168652381Y-134573810D01*
X168700000Y-134669048D01*
X168747619Y-134716667D01*
X168842857Y-134764286D01*
X169033333Y-134811905D01*
X169271429Y-134811905D01*
X169461905Y-134764286D01*
X169557143Y-134716667D01*
X169604762Y-134669048D01*
X169652381Y-134573810D01*
X169652381Y-134478571D01*
X169604762Y-134383333D01*
X169557143Y-134335714D01*
X169461905Y-134288095D01*
X169271429Y-134240476D01*
X169033333Y-134240476D01*
X168842857Y-134288095D01*
X168747619Y-134335714D01*
X168700000Y-134383333D01*
X168652381Y-134478571D01*
X176557143Y-85507143D02*
X176604762Y-85459524D01*
X176652381Y-85316667D01*
X176652381Y-85221429D01*
X176604762Y-85078571D01*
X176509524Y-84983333D01*
X176414286Y-84935714D01*
X176223810Y-84888095D01*
X176080952Y-84888095D01*
X175890476Y-84935714D01*
X175795238Y-84983333D01*
X175700000Y-85078571D01*
X175652381Y-85221429D01*
X175652381Y-85316667D01*
X175700000Y-85459524D01*
X175747619Y-85507143D01*
X176652381Y-86459524D02*
X176652381Y-85888095D01*
X176652381Y-86173809D02*
X175652381Y-86173809D01*
X175795238Y-86078571D01*
X175890476Y-85983333D01*
X175938095Y-85888095D01*
X176652381Y-87411905D02*
X176652381Y-86840476D01*
X176652381Y-87126190D02*
X175652381Y-87126190D01*
X175795238Y-87030952D01*
X175890476Y-86935714D01*
X175938095Y-86840476D01*
X182398381Y-107973905D02*
X181398381Y-107973905D01*
X181398381Y-108212000D01*
X181446000Y-108354858D01*
X181541238Y-108450096D01*
X181636476Y-108497715D01*
X181826952Y-108545334D01*
X181969810Y-108545334D01*
X182160286Y-108497715D01*
X182255524Y-108450096D01*
X182350762Y-108354858D01*
X182398381Y-108212000D01*
X182398381Y-107973905D01*
X182398381Y-109497715D02*
X182398381Y-108926286D01*
X182398381Y-109212000D02*
X181398381Y-109212000D01*
X181541238Y-109116762D01*
X181636476Y-109021524D01*
X181684095Y-108926286D01*
X170166666Y-115602381D02*
X170500000Y-115126190D01*
X170738095Y-115602381D02*
X170738095Y-114602381D01*
X170357142Y-114602381D01*
X170261904Y-114650000D01*
X170214285Y-114697619D01*
X170166666Y-114792857D01*
X170166666Y-114935714D01*
X170214285Y-115030952D01*
X170261904Y-115078571D01*
X170357142Y-115126190D01*
X170738095Y-115126190D01*
X169214285Y-115602381D02*
X169785714Y-115602381D01*
X169500000Y-115602381D02*
X169500000Y-114602381D01*
X169595238Y-114745238D01*
X169690476Y-114840476D01*
X169785714Y-114888095D01*
X170166666Y-122002381D02*
X170500000Y-121526190D01*
X170738095Y-122002381D02*
X170738095Y-121002381D01*
X170357142Y-121002381D01*
X170261904Y-121050000D01*
X170214285Y-121097619D01*
X170166666Y-121192857D01*
X170166666Y-121335714D01*
X170214285Y-121430952D01*
X170261904Y-121478571D01*
X170357142Y-121526190D01*
X170738095Y-121526190D01*
X169785714Y-121097619D02*
X169738095Y-121050000D01*
X169642857Y-121002381D01*
X169404761Y-121002381D01*
X169309523Y-121050000D01*
X169261904Y-121097619D01*
X169214285Y-121192857D01*
X169214285Y-121288095D01*
X169261904Y-121430952D01*
X169833333Y-122002381D01*
X169214285Y-122002381D01*
X171566666Y-91602381D02*
X171900000Y-91126190D01*
X172138095Y-91602381D02*
X172138095Y-90602381D01*
X171757142Y-90602381D01*
X171661904Y-90650000D01*
X171614285Y-90697619D01*
X171566666Y-90792857D01*
X171566666Y-90935714D01*
X171614285Y-91030952D01*
X171661904Y-91078571D01*
X171757142Y-91126190D01*
X172138095Y-91126190D01*
X171233333Y-90602381D02*
X170614285Y-90602381D01*
X170947619Y-90983333D01*
X170804761Y-90983333D01*
X170709523Y-91030952D01*
X170661904Y-91078571D01*
X170614285Y-91173810D01*
X170614285Y-91411905D01*
X170661904Y-91507143D01*
X170709523Y-91554762D01*
X170804761Y-91602381D01*
X171090476Y-91602381D01*
X171185714Y-91554762D01*
X171233333Y-91507143D01*
X178652381Y-93783334D02*
X178176190Y-93450000D01*
X178652381Y-93211905D02*
X177652381Y-93211905D01*
X177652381Y-93592858D01*
X177700000Y-93688096D01*
X177747619Y-93735715D01*
X177842857Y-93783334D01*
X177985714Y-93783334D01*
X178080952Y-93735715D01*
X178128571Y-93688096D01*
X178176190Y-93592858D01*
X178176190Y-93211905D01*
X177985714Y-94640477D02*
X178652381Y-94640477D01*
X177604762Y-94402381D02*
X178319048Y-94164286D01*
X178319048Y-94783334D01*
X182652381Y-122383334D02*
X182176190Y-122050000D01*
X182652381Y-121811905D02*
X181652381Y-121811905D01*
X181652381Y-122192858D01*
X181700000Y-122288096D01*
X181747619Y-122335715D01*
X181842857Y-122383334D01*
X181985714Y-122383334D01*
X182080952Y-122335715D01*
X182128571Y-122288096D01*
X182176190Y-122192858D01*
X182176190Y-121811905D01*
X181652381Y-123288096D02*
X181652381Y-122811905D01*
X182128571Y-122764286D01*
X182080952Y-122811905D01*
X182033333Y-122907143D01*
X182033333Y-123145239D01*
X182080952Y-123240477D01*
X182128571Y-123288096D01*
X182223810Y-123335715D01*
X182461905Y-123335715D01*
X182557143Y-123288096D01*
X182604762Y-123240477D01*
X182652381Y-123145239D01*
X182652381Y-122907143D01*
X182604762Y-122811905D01*
X182557143Y-122764286D01*
X182652381Y-114383334D02*
X182176190Y-114050000D01*
X182652381Y-113811905D02*
X181652381Y-113811905D01*
X181652381Y-114192858D01*
X181700000Y-114288096D01*
X181747619Y-114335715D01*
X181842857Y-114383334D01*
X181985714Y-114383334D01*
X182080952Y-114335715D01*
X182128571Y-114288096D01*
X182176190Y-114192858D01*
X182176190Y-113811905D01*
X181652381Y-115240477D02*
X181652381Y-115050000D01*
X181700000Y-114954762D01*
X181747619Y-114907143D01*
X181890476Y-114811905D01*
X182080952Y-114764286D01*
X182461905Y-114764286D01*
X182557143Y-114811905D01*
X182604762Y-114859524D01*
X182652381Y-114954762D01*
X182652381Y-115145239D01*
X182604762Y-115240477D01*
X182557143Y-115288096D01*
X182461905Y-115335715D01*
X182223810Y-115335715D01*
X182128571Y-115288096D01*
X182080952Y-115240477D01*
X182033333Y-115145239D01*
X182033333Y-114954762D01*
X182080952Y-114859524D01*
X182128571Y-114811905D01*
X182223810Y-114764286D01*
X184452381Y-121983334D02*
X183976190Y-121650000D01*
X184452381Y-121411905D02*
X183452381Y-121411905D01*
X183452381Y-121792858D01*
X183500000Y-121888096D01*
X183547619Y-121935715D01*
X183642857Y-121983334D01*
X183785714Y-121983334D01*
X183880952Y-121935715D01*
X183928571Y-121888096D01*
X183976190Y-121792858D01*
X183976190Y-121411905D01*
X183452381Y-122316667D02*
X183452381Y-122983334D01*
X184452381Y-122554762D01*
X184452381Y-114383334D02*
X183976190Y-114050000D01*
X184452381Y-113811905D02*
X183452381Y-113811905D01*
X183452381Y-114192858D01*
X183500000Y-114288096D01*
X183547619Y-114335715D01*
X183642857Y-114383334D01*
X183785714Y-114383334D01*
X183880952Y-114335715D01*
X183928571Y-114288096D01*
X183976190Y-114192858D01*
X183976190Y-113811905D01*
X183880952Y-114954762D02*
X183833333Y-114859524D01*
X183785714Y-114811905D01*
X183690476Y-114764286D01*
X183642857Y-114764286D01*
X183547619Y-114811905D01*
X183500000Y-114859524D01*
X183452381Y-114954762D01*
X183452381Y-115145239D01*
X183500000Y-115240477D01*
X183547619Y-115288096D01*
X183642857Y-115335715D01*
X183690476Y-115335715D01*
X183785714Y-115288096D01*
X183833333Y-115240477D01*
X183880952Y-115145239D01*
X183880952Y-114954762D01*
X183928571Y-114859524D01*
X183976190Y-114811905D01*
X184071429Y-114764286D01*
X184261905Y-114764286D01*
X184357143Y-114811905D01*
X184404762Y-114859524D01*
X184452381Y-114954762D01*
X184452381Y-115145239D01*
X184404762Y-115240477D01*
X184357143Y-115288096D01*
X184261905Y-115335715D01*
X184071429Y-115335715D01*
X183976190Y-115288096D01*
X183928571Y-115240477D01*
X183880952Y-115145239D01*
X171652381Y-125583334D02*
X171176190Y-125250000D01*
X171652381Y-125011905D02*
X170652381Y-125011905D01*
X170652381Y-125392858D01*
X170700000Y-125488096D01*
X170747619Y-125535715D01*
X170842857Y-125583334D01*
X170985714Y-125583334D01*
X171080952Y-125535715D01*
X171128571Y-125488096D01*
X171176190Y-125392858D01*
X171176190Y-125011905D01*
X171652381Y-126059524D02*
X171652381Y-126250000D01*
X171604762Y-126345239D01*
X171557143Y-126392858D01*
X171414286Y-126488096D01*
X171223810Y-126535715D01*
X170842857Y-126535715D01*
X170747619Y-126488096D01*
X170700000Y-126440477D01*
X170652381Y-126345239D01*
X170652381Y-126154762D01*
X170700000Y-126059524D01*
X170747619Y-126011905D01*
X170842857Y-125964286D01*
X171080952Y-125964286D01*
X171176190Y-126011905D01*
X171223810Y-126059524D01*
X171271429Y-126154762D01*
X171271429Y-126345239D01*
X171223810Y-126440477D01*
X171176190Y-126488096D01*
X171080952Y-126535715D01*
X171642857Y-87802381D02*
X171976191Y-87326190D01*
X172214286Y-87802381D02*
X172214286Y-86802381D01*
X171833333Y-86802381D01*
X171738095Y-86850000D01*
X171690476Y-86897619D01*
X171642857Y-86992857D01*
X171642857Y-87135714D01*
X171690476Y-87230952D01*
X171738095Y-87278571D01*
X171833333Y-87326190D01*
X172214286Y-87326190D01*
X170690476Y-87802381D02*
X171261905Y-87802381D01*
X170976191Y-87802381D02*
X170976191Y-86802381D01*
X171071429Y-86945238D01*
X171166667Y-87040476D01*
X171261905Y-87088095D01*
X170071429Y-86802381D02*
X169976190Y-86802381D01*
X169880952Y-86850000D01*
X169833333Y-86897619D01*
X169785714Y-86992857D01*
X169738095Y-87183333D01*
X169738095Y-87421429D01*
X169785714Y-87611905D01*
X169833333Y-87707143D01*
X169880952Y-87754762D01*
X169976190Y-87802381D01*
X170071429Y-87802381D01*
X170166667Y-87754762D01*
X170214286Y-87707143D01*
X170261905Y-87611905D01*
X170309524Y-87421429D01*
X170309524Y-87183333D01*
X170261905Y-86992857D01*
X170214286Y-86897619D01*
X170166667Y-86850000D01*
X170071429Y-86802381D01*
X171652381Y-132907143D02*
X171176190Y-132573809D01*
X171652381Y-132335714D02*
X170652381Y-132335714D01*
X170652381Y-132716667D01*
X170700000Y-132811905D01*
X170747619Y-132859524D01*
X170842857Y-132907143D01*
X170985714Y-132907143D01*
X171080952Y-132859524D01*
X171128571Y-132811905D01*
X171176190Y-132716667D01*
X171176190Y-132335714D01*
X171652381Y-133859524D02*
X171652381Y-133288095D01*
X171652381Y-133573809D02*
X170652381Y-133573809D01*
X170795238Y-133478571D01*
X170890476Y-133383333D01*
X170938095Y-133288095D01*
X171652381Y-134811905D02*
X171652381Y-134240476D01*
X171652381Y-134526190D02*
X170652381Y-134526190D01*
X170795238Y-134430952D01*
X170890476Y-134335714D01*
X170938095Y-134240476D01*
X178652381Y-85507143D02*
X178176190Y-85173809D01*
X178652381Y-84935714D02*
X177652381Y-84935714D01*
X177652381Y-85316667D01*
X177700000Y-85411905D01*
X177747619Y-85459524D01*
X177842857Y-85507143D01*
X177985714Y-85507143D01*
X178080952Y-85459524D01*
X178128571Y-85411905D01*
X178176190Y-85316667D01*
X178176190Y-84935714D01*
X178652381Y-86459524D02*
X178652381Y-85888095D01*
X178652381Y-86173809D02*
X177652381Y-86173809D01*
X177795238Y-86078571D01*
X177890476Y-85983333D01*
X177938095Y-85888095D01*
X177747619Y-86840476D02*
X177700000Y-86888095D01*
X177652381Y-86983333D01*
X177652381Y-87221429D01*
X177700000Y-87316667D01*
X177747619Y-87364286D01*
X177842857Y-87411905D01*
X177938095Y-87411905D01*
X178080952Y-87364286D01*
X178652381Y-86792857D01*
X178652381Y-87411905D01*
X177037905Y-114532381D02*
X177037905Y-115341905D01*
X176990286Y-115437143D01*
X176942667Y-115484762D01*
X176847429Y-115532381D01*
X176656952Y-115532381D01*
X176561714Y-115484762D01*
X176514095Y-115437143D01*
X176466476Y-115341905D01*
X176466476Y-114532381D01*
X175466476Y-115532381D02*
X176037905Y-115532381D01*
X175752191Y-115532381D02*
X175752191Y-114532381D01*
X175847429Y-114675238D01*
X175942667Y-114770476D01*
X176037905Y-114818095D01*
X194836219Y-146802581D02*
X195169553Y-146326390D01*
X195407648Y-146802581D02*
X195407648Y-145802581D01*
X195026695Y-145802581D01*
X194931457Y-145850200D01*
X194883838Y-145897819D01*
X194836219Y-145993057D01*
X194836219Y-146135914D01*
X194883838Y-146231152D01*
X194931457Y-146278771D01*
X195026695Y-146326390D01*
X195407648Y-146326390D01*
X194407648Y-146278771D02*
X194074314Y-146278771D01*
X193931457Y-146802581D02*
X194407648Y-146802581D01*
X194407648Y-145802581D01*
X193931457Y-145802581D01*
X193169552Y-146278771D02*
X193502886Y-146278771D01*
X193502886Y-146802581D02*
X193502886Y-145802581D01*
X193026695Y-145802581D01*
X192121933Y-146802581D02*
X192693362Y-146802581D01*
X192407648Y-146802581D02*
X192407648Y-145802581D01*
X192502886Y-145945438D01*
X192598124Y-146040676D01*
X192693362Y-146088295D01*
X163647619Y-82202381D02*
X163980953Y-81726190D01*
X164219048Y-82202381D02*
X164219048Y-81202381D01*
X163838095Y-81202381D01*
X163742857Y-81250000D01*
X163695238Y-81297619D01*
X163647619Y-81392857D01*
X163647619Y-81535714D01*
X163695238Y-81630952D01*
X163742857Y-81678571D01*
X163838095Y-81726190D01*
X164219048Y-81726190D01*
X163219048Y-81678571D02*
X162885714Y-81678571D01*
X162742857Y-82202381D02*
X163219048Y-82202381D01*
X163219048Y-81202381D01*
X162742857Y-81202381D01*
X161980952Y-81678571D02*
X162314286Y-81678571D01*
X162314286Y-82202381D02*
X162314286Y-81202381D01*
X161838095Y-81202381D01*
X161504762Y-81297619D02*
X161457143Y-81250000D01*
X161361905Y-81202381D01*
X161123809Y-81202381D01*
X161028571Y-81250000D01*
X160980952Y-81297619D01*
X160933333Y-81392857D01*
X160933333Y-81488095D01*
X160980952Y-81630952D01*
X161552381Y-82202381D01*
X160933333Y-82202381D01*
X165359638Y-124787119D02*
X165454876Y-124739500D01*
X165550114Y-124644262D01*
X165692971Y-124501405D01*
X165788210Y-124453786D01*
X165883448Y-124453786D01*
X165835829Y-124691881D02*
X165931067Y-124644262D01*
X166026305Y-124549024D01*
X166073924Y-124358548D01*
X166073924Y-124025214D01*
X166026305Y-123834738D01*
X165931067Y-123739500D01*
X165835829Y-123691881D01*
X165645352Y-123691881D01*
X165550114Y-123739500D01*
X165454876Y-123834738D01*
X165407257Y-124025214D01*
X165407257Y-124358548D01*
X165454876Y-124549024D01*
X165550114Y-124644262D01*
X165645352Y-124691881D01*
X165835829Y-124691881D01*
X164454876Y-124691881D02*
X165026305Y-124691881D01*
X164740591Y-124691881D02*
X164740591Y-123691881D01*
X164835829Y-123834738D01*
X164931067Y-123929976D01*
X165026305Y-123977595D01*
X165385038Y-105152919D02*
X165480276Y-105105300D01*
X165575514Y-105010062D01*
X165718371Y-104867205D01*
X165813610Y-104819586D01*
X165908848Y-104819586D01*
X165861229Y-105057681D02*
X165956467Y-105010062D01*
X166051705Y-104914824D01*
X166099324Y-104724348D01*
X166099324Y-104391014D01*
X166051705Y-104200538D01*
X165956467Y-104105300D01*
X165861229Y-104057681D01*
X165670752Y-104057681D01*
X165575514Y-104105300D01*
X165480276Y-104200538D01*
X165432657Y-104391014D01*
X165432657Y-104724348D01*
X165480276Y-104914824D01*
X165575514Y-105010062D01*
X165670752Y-105057681D01*
X165861229Y-105057681D01*
X165051705Y-104152919D02*
X165004086Y-104105300D01*
X164908848Y-104057681D01*
X164670752Y-104057681D01*
X164575514Y-104105300D01*
X164527895Y-104152919D01*
X164480276Y-104248157D01*
X164480276Y-104343395D01*
X164527895Y-104486252D01*
X165099324Y-105057681D01*
X164480276Y-105057681D01*
X177043638Y-139569919D02*
X177138876Y-139522300D01*
X177234114Y-139427062D01*
X177376971Y-139284205D01*
X177472210Y-139236586D01*
X177567448Y-139236586D01*
X177519829Y-139474681D02*
X177615067Y-139427062D01*
X177710305Y-139331824D01*
X177757924Y-139141348D01*
X177757924Y-138808014D01*
X177710305Y-138617538D01*
X177615067Y-138522300D01*
X177519829Y-138474681D01*
X177329352Y-138474681D01*
X177234114Y-138522300D01*
X177138876Y-138617538D01*
X177091257Y-138808014D01*
X177091257Y-139141348D01*
X177138876Y-139331824D01*
X177234114Y-139427062D01*
X177329352Y-139474681D01*
X177519829Y-139474681D01*
X176757924Y-138474681D02*
X176138876Y-138474681D01*
X176472210Y-138855633D01*
X176329352Y-138855633D01*
X176234114Y-138903252D01*
X176186495Y-138950871D01*
X176138876Y-139046110D01*
X176138876Y-139284205D01*
X176186495Y-139379443D01*
X176234114Y-139427062D01*
X176329352Y-139474681D01*
X176615067Y-139474681D01*
X176710305Y-139427062D01*
X176757924Y-139379443D01*
X186035238Y-87131619D02*
X186130476Y-87084000D01*
X186225714Y-86988762D01*
X186368571Y-86845905D01*
X186463810Y-86798286D01*
X186559048Y-86798286D01*
X186511429Y-87036381D02*
X186606667Y-86988762D01*
X186701905Y-86893524D01*
X186749524Y-86703048D01*
X186749524Y-86369714D01*
X186701905Y-86179238D01*
X186606667Y-86084000D01*
X186511429Y-86036381D01*
X186320952Y-86036381D01*
X186225714Y-86084000D01*
X186130476Y-86179238D01*
X186082857Y-86369714D01*
X186082857Y-86703048D01*
X186130476Y-86893524D01*
X186225714Y-86988762D01*
X186320952Y-87036381D01*
X186511429Y-87036381D01*
X185225714Y-86369714D02*
X185225714Y-87036381D01*
X185463810Y-85988762D02*
X185701905Y-86703048D01*
X185082857Y-86703048D01*
M02*
