G04 #@! TF.FileFunction,Copper,L1,Top,Signal*
%FSLAX46Y46*%
G04 Gerber Fmt 4.6, Leading zero omitted, Abs format (unit mm)*
G04 Created by KiCad (PCBNEW 4.0.5) date 03/05/17 20:07:58*
%MOMM*%
%LPD*%
G01*
G04 APERTURE LIST*
%ADD10C,0.100000*%
%ADD11R,1.600000X1.600000*%
%ADD12C,1.600000*%
%ADD13R,2.000000X2.000000*%
%ADD14C,2.000000*%
%ADD15C,3.000000*%
%ADD16R,0.800000X0.800000*%
%ADD17C,0.800000*%
%ADD18R,2.540000X2.540000*%
%ADD19C,2.540000*%
%ADD20C,2.400000*%
%ADD21R,2.400000X2.400000*%
%ADD22O,2.540000X2.032000*%
%ADD23C,5.400000*%
%ADD24C,0.600000*%
%ADD25C,1.300000*%
%ADD26C,0.250000*%
%ADD27C,1.500000*%
%ADD28C,3.000000*%
%ADD29C,0.500000*%
G04 APERTURE END LIST*
D10*
D11*
X192000000Y-95500000D03*
D12*
X195500000Y-95500000D03*
D11*
X176288000Y-103983000D03*
D12*
X172788000Y-103983000D03*
D13*
X167132000Y-142240000D03*
D14*
X174632000Y-142240000D03*
D11*
X193500000Y-88250000D03*
D12*
X193500000Y-84750000D03*
D11*
X183896000Y-128524000D03*
D12*
X183896000Y-132024000D03*
D15*
X160196000Y-117730000D03*
X156796000Y-117730000D03*
X160196000Y-131200000D03*
X156796000Y-131130000D03*
X156796000Y-110870000D03*
X160196000Y-110870000D03*
X156796000Y-97400000D03*
X160196000Y-97470000D03*
D16*
X166116000Y-83820000D03*
D17*
X167366000Y-83820000D03*
X168616000Y-83820000D03*
X169866000Y-83820000D03*
X171116000Y-83820000D03*
X172366000Y-83820000D03*
X173616000Y-83820000D03*
X174866000Y-83820000D03*
D18*
X159488000Y-140030060D03*
D19*
X159488000Y-136529940D03*
D18*
X159488000Y-92030060D03*
D19*
X159488000Y-88529940D03*
D20*
X202408000Y-99962000D03*
X202408000Y-106962000D03*
D21*
X191008000Y-108712000D03*
D20*
X191008000Y-105212000D03*
X202408000Y-103462000D03*
X191008000Y-101712000D03*
X202408000Y-124458000D03*
X191008000Y-126208000D03*
X202408000Y-127958000D03*
X191008000Y-129708000D03*
X202408000Y-131458000D03*
X202408000Y-138458000D03*
D21*
X191008000Y-140208000D03*
D20*
X191008000Y-136708000D03*
X202408000Y-134958000D03*
X191008000Y-133208000D03*
D18*
X201500000Y-89249940D03*
D19*
X201500000Y-92750060D03*
D20*
X202408000Y-112154000D03*
X202408000Y-119154000D03*
D21*
X191008000Y-120904000D03*
D20*
X191008000Y-117404000D03*
X202408000Y-115654000D03*
X191008000Y-113904000D03*
D22*
X187452000Y-98044000D03*
X187452000Y-100584000D03*
X187452000Y-95504000D03*
X187452000Y-103124000D03*
X187452000Y-105664000D03*
X187452000Y-108204000D03*
X187452000Y-110744000D03*
X187452000Y-113284000D03*
X187452000Y-115824000D03*
X187452000Y-118364000D03*
X187452000Y-120904000D03*
X187452000Y-123444000D03*
D23*
X203000000Y-83750000D03*
D24*
X205025000Y-83750000D03*
X204431891Y-85181891D03*
X203000000Y-85775000D03*
X201568109Y-85181891D03*
X200975000Y-83750000D03*
X201568109Y-82318109D03*
X203000000Y-81725000D03*
X204431891Y-82318109D03*
D23*
X157988000Y-144780000D03*
D24*
X160013000Y-144780000D03*
X159419891Y-146211891D03*
X157988000Y-146805000D03*
X156556109Y-146211891D03*
X155963000Y-144780000D03*
X156556109Y-143348109D03*
X157988000Y-142755000D03*
X159419891Y-143348109D03*
D23*
X203000000Y-144750000D03*
D24*
X205025000Y-144750000D03*
X204431891Y-146181891D03*
X203000000Y-146775000D03*
X201568109Y-146181891D03*
X200975000Y-144750000D03*
X201568109Y-143318109D03*
X203000000Y-142725000D03*
X204431891Y-143318109D03*
D23*
X158000000Y-83750000D03*
D24*
X160025000Y-83750000D03*
X159431891Y-85181891D03*
X158000000Y-85775000D03*
X156568109Y-85181891D03*
X155975000Y-83750000D03*
X156568109Y-82318109D03*
X158000000Y-81725000D03*
X159431891Y-82318109D03*
D12*
X169988000Y-89780000D03*
X169988000Y-97380000D03*
D24*
X182130000Y-121382000D03*
D25*
X180500000Y-95750000D03*
X180288500Y-92743500D03*
X180500000Y-97950500D03*
X180288500Y-89568500D03*
X176250000Y-114250000D03*
X174750000Y-114250000D03*
D24*
X174764000Y-118461000D03*
X177750000Y-130000000D03*
X175000000Y-130000000D03*
X174891000Y-110015500D03*
X180415500Y-121636000D03*
X168250000Y-118500000D03*
X170192000Y-124430000D03*
X170573000Y-111412500D03*
X168400000Y-120150000D03*
X164500000Y-114250000D03*
X168250000Y-116750000D03*
X180415500Y-120366000D03*
X176478500Y-109698000D03*
X163207000Y-123033000D03*
X171716000Y-119985000D03*
X165747000Y-123033000D03*
X167000000Y-105500000D03*
X164500000Y-105500000D03*
X171750000Y-116500000D03*
D26*
X169988000Y-89780000D02*
X175251000Y-89780000D01*
X175462500Y-89568500D02*
X180288500Y-89568500D01*
X175251000Y-89780000D02*
X175462500Y-89568500D01*
X180987000Y-122525000D02*
X175750000Y-122525000D01*
X182130000Y-121382000D02*
X180987000Y-122525000D01*
X175750000Y-122525000D02*
X175716500Y-122525000D01*
X175716500Y-122525000D02*
X175750000Y-122525000D01*
D27*
X180288500Y-95538500D02*
X180288500Y-92743500D01*
X180500000Y-95750000D02*
X180288500Y-95538500D01*
D28*
X180288500Y-97739000D02*
X180288500Y-89568500D01*
X180288500Y-97739000D02*
X180500000Y-97950500D01*
X174750000Y-114250000D02*
X176250000Y-114250000D01*
X175750000Y-129750000D02*
X177250000Y-129750000D01*
D26*
X174764000Y-118461000D02*
X175750000Y-118461000D01*
D29*
X177500000Y-129750000D02*
X177250000Y-129750000D01*
X177750000Y-130000000D02*
X177500000Y-129750000D01*
D28*
X175750000Y-114750000D02*
X175750000Y-118461000D01*
X176250000Y-114250000D02*
X175750000Y-114750000D01*
X175750000Y-118461000D02*
X175750000Y-122525000D01*
X175750000Y-122525000D02*
X175750000Y-129750000D01*
D29*
X175000000Y-130000000D02*
X175250000Y-129750000D01*
X175250000Y-129750000D02*
X175750000Y-129750000D01*
D26*
X179145500Y-114270000D02*
X174891000Y-110015500D01*
X179145500Y-120366000D02*
X179145500Y-114270000D01*
X180415500Y-121636000D02*
X179145500Y-120366000D01*
X172795500Y-121826500D02*
X170192000Y-124430000D01*
X172795500Y-113635000D02*
X172795500Y-121826500D01*
X170573000Y-111412500D02*
X172795500Y-113635000D01*
X164580000Y-117730000D02*
X160196000Y-117730000D01*
X167000000Y-120150000D02*
X164580000Y-117730000D01*
X168400000Y-120150000D02*
X167000000Y-120150000D01*
X165750000Y-114250000D02*
X164500000Y-114250000D01*
X168250000Y-116750000D02*
X165750000Y-114250000D01*
X180415500Y-113635000D02*
X180415500Y-120366000D01*
X176478500Y-109698000D02*
X180415500Y-113635000D01*
X165747000Y-123033000D02*
X163207000Y-123033000D01*
X170192000Y-121509000D02*
X171716000Y-119985000D01*
X167271000Y-121509000D02*
X170192000Y-121509000D01*
X165747000Y-123033000D02*
X167271000Y-121509000D01*
X167000000Y-105500000D02*
X164500000Y-105500000D01*
X164500000Y-109250000D02*
X164500000Y-105500000D01*
X171750000Y-116500000D02*
X164500000Y-109250000D01*
G36*
X200912314Y-81485537D02*
X201143922Y-81717145D01*
X200966990Y-81893767D01*
X200735537Y-81662314D01*
X200350804Y-81979755D01*
X199875019Y-83128310D01*
X199874983Y-84371512D01*
X200350702Y-85520094D01*
X200350804Y-85520245D01*
X200735537Y-85837686D01*
X200967145Y-85606078D01*
X201143767Y-85783010D01*
X200912314Y-86014463D01*
X201229755Y-86399196D01*
X202378310Y-86874981D01*
X203621512Y-86875017D01*
X204770094Y-86399298D01*
X204770245Y-86399196D01*
X205087686Y-86014463D01*
X204856078Y-85782855D01*
X205033010Y-85606233D01*
X205264463Y-85837686D01*
X205500000Y-85643346D01*
X205500000Y-142856654D01*
X205264463Y-142662314D01*
X205032855Y-142893922D01*
X204856233Y-142716990D01*
X205087686Y-142485537D01*
X204770245Y-142100804D01*
X203621690Y-141625019D01*
X202378488Y-141624983D01*
X201229906Y-142100702D01*
X201229755Y-142100804D01*
X200912314Y-142485537D01*
X201143922Y-142717145D01*
X200966990Y-142893767D01*
X200735537Y-142662314D01*
X200350804Y-142979755D01*
X199875019Y-144128310D01*
X199874983Y-145371512D01*
X200350702Y-146520094D01*
X200350804Y-146520245D01*
X200735537Y-146837686D01*
X200967145Y-146606078D01*
X201143767Y-146783010D01*
X200912314Y-147014463D01*
X201106654Y-147250000D01*
X159906099Y-147250000D01*
X160075686Y-147044463D01*
X159844078Y-146812855D01*
X160021010Y-146636233D01*
X160252463Y-146867686D01*
X160637196Y-146550245D01*
X161112981Y-145401690D01*
X161113017Y-144158488D01*
X160637298Y-143009906D01*
X160637196Y-143009755D01*
X160252463Y-142692314D01*
X160020855Y-142923922D01*
X159844233Y-142746990D01*
X160075686Y-142515537D01*
X159758245Y-142130804D01*
X158778770Y-141725060D01*
X159256750Y-141725060D01*
X159363000Y-141618810D01*
X159363000Y-140155060D01*
X159613000Y-140155060D01*
X159613000Y-141618810D01*
X159719250Y-141725060D01*
X160842538Y-141725060D01*
X160998743Y-141660358D01*
X161118298Y-141540803D01*
X161183000Y-141384598D01*
X161183000Y-141240000D01*
X165698674Y-141240000D01*
X165698674Y-143240000D01*
X165728309Y-143397496D01*
X165821389Y-143542146D01*
X165963412Y-143639186D01*
X166132000Y-143673326D01*
X168132000Y-143673326D01*
X168289496Y-143643691D01*
X168434146Y-143550611D01*
X168531186Y-143408588D01*
X168557931Y-143276515D01*
X173772262Y-143276515D01*
X173882291Y-143484550D01*
X174415627Y-143676716D01*
X174981905Y-143650155D01*
X175381709Y-143484550D01*
X175491738Y-143276515D01*
X174632000Y-142416777D01*
X173772262Y-143276515D01*
X168557931Y-143276515D01*
X168565326Y-143240000D01*
X168565326Y-142023627D01*
X173195284Y-142023627D01*
X173221845Y-142589905D01*
X173387450Y-142989709D01*
X173595485Y-143099738D01*
X174455223Y-142240000D01*
X174808777Y-142240000D01*
X175668515Y-143099738D01*
X175876550Y-142989709D01*
X176068716Y-142456373D01*
X176042155Y-141890095D01*
X175876550Y-141490291D01*
X175668515Y-141380262D01*
X174808777Y-142240000D01*
X174455223Y-142240000D01*
X173595485Y-141380262D01*
X173387450Y-141490291D01*
X173195284Y-142023627D01*
X168565326Y-142023627D01*
X168565326Y-141240000D01*
X168558456Y-141203485D01*
X173772262Y-141203485D01*
X174632000Y-142063223D01*
X175491738Y-141203485D01*
X175381709Y-140995450D01*
X174848373Y-140803284D01*
X174282095Y-140829845D01*
X173882291Y-140995450D01*
X173772262Y-141203485D01*
X168558456Y-141203485D01*
X168535691Y-141082504D01*
X168442611Y-140937854D01*
X168300588Y-140840814D01*
X168132000Y-140806674D01*
X166132000Y-140806674D01*
X165974504Y-140836309D01*
X165829854Y-140929389D01*
X165732814Y-141071412D01*
X165698674Y-141240000D01*
X161183000Y-141240000D01*
X161183000Y-140261310D01*
X161076750Y-140155060D01*
X159613000Y-140155060D01*
X159363000Y-140155060D01*
X157899250Y-140155060D01*
X157793000Y-140261310D01*
X157793000Y-141384598D01*
X157857702Y-141540803D01*
X157971900Y-141655001D01*
X157366488Y-141654983D01*
X156217906Y-142130702D01*
X156217755Y-142130804D01*
X155900314Y-142515537D01*
X156131922Y-142747145D01*
X155954990Y-142923767D01*
X155723537Y-142692314D01*
X155500000Y-142876753D01*
X155500000Y-138675522D01*
X157793000Y-138675522D01*
X157793000Y-139798810D01*
X157899250Y-139905060D01*
X159363000Y-139905060D01*
X159363000Y-138441310D01*
X159613000Y-138441310D01*
X159613000Y-139905060D01*
X161076750Y-139905060D01*
X161183000Y-139798810D01*
X161183000Y-139008000D01*
X189374674Y-139008000D01*
X189374674Y-141408000D01*
X189404309Y-141565496D01*
X189497389Y-141710146D01*
X189639412Y-141807186D01*
X189808000Y-141841326D01*
X192208000Y-141841326D01*
X192365496Y-141811691D01*
X192510146Y-141718611D01*
X192607186Y-141576588D01*
X192641326Y-141408000D01*
X192641326Y-139639249D01*
X201403527Y-139639249D01*
X201538039Y-139868061D01*
X202143868Y-140093646D01*
X202789908Y-140070219D01*
X203277961Y-139868061D01*
X203412473Y-139639249D01*
X202408000Y-138634777D01*
X201403527Y-139639249D01*
X192641326Y-139639249D01*
X192641326Y-139008000D01*
X192611691Y-138850504D01*
X192518611Y-138705854D01*
X192376588Y-138608814D01*
X192208000Y-138574674D01*
X189808000Y-138574674D01*
X189650504Y-138604309D01*
X189505854Y-138697389D01*
X189408814Y-138839412D01*
X189374674Y-139008000D01*
X161183000Y-139008000D01*
X161183000Y-138675522D01*
X161118298Y-138519317D01*
X160998743Y-138399762D01*
X160842538Y-138335060D01*
X159719250Y-138335060D01*
X159613000Y-138441310D01*
X159363000Y-138441310D01*
X159256750Y-138335060D01*
X158133462Y-138335060D01*
X157977257Y-138399762D01*
X157857702Y-138519317D01*
X157793000Y-138675522D01*
X155500000Y-138675522D01*
X155500000Y-136865617D01*
X157792706Y-136865617D01*
X158050211Y-137488826D01*
X158526606Y-137966053D01*
X159149365Y-138224645D01*
X159823677Y-138225234D01*
X160446886Y-137967729D01*
X160924113Y-137491334D01*
X161115752Y-137029814D01*
X189382718Y-137029814D01*
X189629588Y-137627286D01*
X190086309Y-138084805D01*
X190683349Y-138332718D01*
X191329814Y-138333282D01*
X191667222Y-138193868D01*
X200772354Y-138193868D01*
X200795781Y-138839908D01*
X200997939Y-139327961D01*
X201226751Y-139462473D01*
X202231223Y-138458000D01*
X202584777Y-138458000D01*
X203589249Y-139462473D01*
X203818061Y-139327961D01*
X204043646Y-138722132D01*
X204020219Y-138076092D01*
X203818061Y-137588039D01*
X203589249Y-137453527D01*
X202584777Y-138458000D01*
X202231223Y-138458000D01*
X201226751Y-137453527D01*
X200997939Y-137588039D01*
X200772354Y-138193868D01*
X191667222Y-138193868D01*
X191927286Y-138086412D01*
X192384805Y-137629691D01*
X192531358Y-137276751D01*
X201403527Y-137276751D01*
X202408000Y-138281223D01*
X203412473Y-137276751D01*
X203277961Y-137047939D01*
X202672132Y-136822354D01*
X202026092Y-136845781D01*
X201538039Y-137047939D01*
X201403527Y-137276751D01*
X192531358Y-137276751D01*
X192632718Y-137032651D01*
X192633282Y-136386186D01*
X192531250Y-136139249D01*
X201403527Y-136139249D01*
X201538039Y-136368061D01*
X202143868Y-136593646D01*
X202789908Y-136570219D01*
X203277961Y-136368061D01*
X203412473Y-136139249D01*
X202408000Y-135134777D01*
X201403527Y-136139249D01*
X192531250Y-136139249D01*
X192386412Y-135788714D01*
X191929691Y-135331195D01*
X191332651Y-135083282D01*
X190686186Y-135082718D01*
X190088714Y-135329588D01*
X189631195Y-135786309D01*
X189383282Y-136383349D01*
X189382718Y-137029814D01*
X161115752Y-137029814D01*
X161182705Y-136868575D01*
X161183294Y-136194263D01*
X160925789Y-135571054D01*
X160449394Y-135093827D01*
X159826635Y-134835235D01*
X159152323Y-134834646D01*
X158529114Y-135092151D01*
X158051887Y-135568546D01*
X157793295Y-136191305D01*
X157792706Y-136865617D01*
X155500000Y-136865617D01*
X155500000Y-133529814D01*
X189382718Y-133529814D01*
X189629588Y-134127286D01*
X190086309Y-134584805D01*
X190683349Y-134832718D01*
X191329814Y-134833282D01*
X191667222Y-134693868D01*
X200772354Y-134693868D01*
X200795781Y-135339908D01*
X200997939Y-135827961D01*
X201226751Y-135962473D01*
X202231223Y-134958000D01*
X202584777Y-134958000D01*
X203589249Y-135962473D01*
X203818061Y-135827961D01*
X204043646Y-135222132D01*
X204020219Y-134576092D01*
X203818061Y-134088039D01*
X203589249Y-133953527D01*
X202584777Y-134958000D01*
X202231223Y-134958000D01*
X201226751Y-133953527D01*
X200997939Y-134088039D01*
X200772354Y-134693868D01*
X191667222Y-134693868D01*
X191927286Y-134586412D01*
X192384805Y-134129691D01*
X192531358Y-133776751D01*
X201403527Y-133776751D01*
X202408000Y-134781223D01*
X203412473Y-133776751D01*
X203277961Y-133547939D01*
X202672132Y-133322354D01*
X202026092Y-133345781D01*
X201538039Y-133547939D01*
X201403527Y-133776751D01*
X192531358Y-133776751D01*
X192632718Y-133532651D01*
X192633282Y-132886186D01*
X192531250Y-132639249D01*
X201403527Y-132639249D01*
X201538039Y-132868061D01*
X202143868Y-133093646D01*
X202789908Y-133070219D01*
X203277961Y-132868061D01*
X203412473Y-132639249D01*
X202408000Y-131634777D01*
X201403527Y-132639249D01*
X192531250Y-132639249D01*
X192386412Y-132288714D01*
X191929691Y-131831195D01*
X191332651Y-131583282D01*
X190686186Y-131582718D01*
X190088714Y-131829588D01*
X189631195Y-132286309D01*
X189383282Y-132883349D01*
X189382718Y-133529814D01*
X155500000Y-133529814D01*
X155500000Y-132556476D01*
X155704151Y-132760984D01*
X156411414Y-133054665D01*
X157177226Y-133055333D01*
X157885000Y-132762887D01*
X158426984Y-132221849D01*
X158481309Y-132091019D01*
X158563113Y-132289000D01*
X159104151Y-132830984D01*
X159811414Y-133124665D01*
X160577226Y-133125333D01*
X161084855Y-132915585D01*
X183181191Y-132915585D01*
X183266670Y-133102862D01*
X183727437Y-133261573D01*
X184213867Y-133231874D01*
X184525330Y-133102862D01*
X184610809Y-132915585D01*
X183896000Y-132200777D01*
X183181191Y-132915585D01*
X161084855Y-132915585D01*
X161285000Y-132832887D01*
X161826984Y-132291849D01*
X162008197Y-131855437D01*
X182658427Y-131855437D01*
X182688126Y-132341867D01*
X182817138Y-132653330D01*
X183004415Y-132738809D01*
X183719223Y-132024000D01*
X184072777Y-132024000D01*
X184787585Y-132738809D01*
X184974862Y-132653330D01*
X185133573Y-132192563D01*
X185103874Y-131706133D01*
X184974862Y-131394670D01*
X184787585Y-131309191D01*
X184072777Y-132024000D01*
X183719223Y-132024000D01*
X183004415Y-131309191D01*
X182817138Y-131394670D01*
X182658427Y-131855437D01*
X162008197Y-131855437D01*
X162120665Y-131584586D01*
X162121333Y-130818774D01*
X161828887Y-130111000D01*
X161287849Y-129569016D01*
X160580586Y-129275335D01*
X159814774Y-129274667D01*
X159107000Y-129567113D01*
X158565016Y-130108151D01*
X158510691Y-130238981D01*
X158428887Y-130041000D01*
X157887849Y-129499016D01*
X157180586Y-129205335D01*
X156414774Y-129204667D01*
X155707000Y-129497113D01*
X155500000Y-129703752D01*
X155500000Y-123176579D01*
X162481874Y-123176579D01*
X162592016Y-123443143D01*
X162795784Y-123647267D01*
X163062156Y-123757874D01*
X163350579Y-123758126D01*
X163617143Y-123647984D01*
X163682241Y-123583000D01*
X165271629Y-123583000D01*
X165335784Y-123647267D01*
X165602156Y-123757874D01*
X165890579Y-123758126D01*
X166157143Y-123647984D01*
X166361267Y-123444216D01*
X166471874Y-123177844D01*
X166471954Y-123085863D01*
X167498817Y-122059000D01*
X170192000Y-122059000D01*
X170402476Y-122017134D01*
X170580909Y-121897909D01*
X171768771Y-120710047D01*
X171859579Y-120710126D01*
X172126143Y-120599984D01*
X172245500Y-120480835D01*
X172245500Y-121598682D01*
X170139229Y-123704953D01*
X170048421Y-123704874D01*
X169781857Y-123815016D01*
X169577733Y-124018784D01*
X169467126Y-124285156D01*
X169466874Y-124573579D01*
X169577016Y-124840143D01*
X169780784Y-125044267D01*
X170047156Y-125154874D01*
X170335579Y-125155126D01*
X170602143Y-125044984D01*
X170806267Y-124841216D01*
X170916874Y-124574844D01*
X170916954Y-124482864D01*
X173184409Y-122215409D01*
X173303634Y-122036976D01*
X173345500Y-121826500D01*
X173345500Y-115546349D01*
X173388819Y-115611181D01*
X173825000Y-115902627D01*
X173825000Y-129750000D01*
X173971532Y-130486666D01*
X174388819Y-131111181D01*
X175013334Y-131528468D01*
X175750000Y-131675000D01*
X177250000Y-131675000D01*
X177986666Y-131528468D01*
X178579402Y-131132415D01*
X183181191Y-131132415D01*
X183896000Y-131847223D01*
X184610809Y-131132415D01*
X184525330Y-130945138D01*
X184064563Y-130786427D01*
X183578133Y-130816126D01*
X183266670Y-130945138D01*
X183181191Y-131132415D01*
X178579402Y-131132415D01*
X178611181Y-131111181D01*
X179028468Y-130486666D01*
X179119341Y-130029814D01*
X189382718Y-130029814D01*
X189629588Y-130627286D01*
X190086309Y-131084805D01*
X190683349Y-131332718D01*
X191329814Y-131333282D01*
X191667222Y-131193868D01*
X200772354Y-131193868D01*
X200795781Y-131839908D01*
X200997939Y-132327961D01*
X201226751Y-132462473D01*
X202231223Y-131458000D01*
X202584777Y-131458000D01*
X203589249Y-132462473D01*
X203818061Y-132327961D01*
X204043646Y-131722132D01*
X204020219Y-131076092D01*
X203818061Y-130588039D01*
X203589249Y-130453527D01*
X202584777Y-131458000D01*
X202231223Y-131458000D01*
X201226751Y-130453527D01*
X200997939Y-130588039D01*
X200772354Y-131193868D01*
X191667222Y-131193868D01*
X191927286Y-131086412D01*
X192384805Y-130629691D01*
X192531358Y-130276751D01*
X201403527Y-130276751D01*
X202408000Y-131281223D01*
X203412473Y-130276751D01*
X203277961Y-130047939D01*
X202672132Y-129822354D01*
X202026092Y-129845781D01*
X201538039Y-130047939D01*
X201403527Y-130276751D01*
X192531358Y-130276751D01*
X192632718Y-130032651D01*
X192633282Y-129386186D01*
X192531250Y-129139249D01*
X201403527Y-129139249D01*
X201538039Y-129368061D01*
X202143868Y-129593646D01*
X202789908Y-129570219D01*
X203277961Y-129368061D01*
X203412473Y-129139249D01*
X202408000Y-128134777D01*
X201403527Y-129139249D01*
X192531250Y-129139249D01*
X192386412Y-128788714D01*
X191929691Y-128331195D01*
X191332651Y-128083282D01*
X190686186Y-128082718D01*
X190088714Y-128329588D01*
X189631195Y-128786309D01*
X189383282Y-129383349D01*
X189382718Y-130029814D01*
X179119341Y-130029814D01*
X179175000Y-129750000D01*
X179028468Y-129013334D01*
X178611181Y-128388819D01*
X177986666Y-127971532D01*
X177675000Y-127909538D01*
X177675000Y-127724000D01*
X182662674Y-127724000D01*
X182662674Y-129324000D01*
X182692309Y-129481496D01*
X182785389Y-129626146D01*
X182927412Y-129723186D01*
X183096000Y-129757326D01*
X184696000Y-129757326D01*
X184853496Y-129727691D01*
X184998146Y-129634611D01*
X185095186Y-129492588D01*
X185129326Y-129324000D01*
X185129326Y-127724000D01*
X185099691Y-127566504D01*
X185006611Y-127421854D01*
X184864588Y-127324814D01*
X184696000Y-127290674D01*
X183096000Y-127290674D01*
X182938504Y-127320309D01*
X182793854Y-127413389D01*
X182696814Y-127555412D01*
X182662674Y-127724000D01*
X177675000Y-127724000D01*
X177675000Y-126529814D01*
X189382718Y-126529814D01*
X189629588Y-127127286D01*
X190086309Y-127584805D01*
X190683349Y-127832718D01*
X191329814Y-127833282D01*
X191667222Y-127693868D01*
X200772354Y-127693868D01*
X200795781Y-128339908D01*
X200997939Y-128827961D01*
X201226751Y-128962473D01*
X202231223Y-127958000D01*
X202584777Y-127958000D01*
X203589249Y-128962473D01*
X203818061Y-128827961D01*
X204043646Y-128222132D01*
X204020219Y-127576092D01*
X203818061Y-127088039D01*
X203589249Y-126953527D01*
X202584777Y-127958000D01*
X202231223Y-127958000D01*
X201226751Y-126953527D01*
X200997939Y-127088039D01*
X200772354Y-127693868D01*
X191667222Y-127693868D01*
X191927286Y-127586412D01*
X192384805Y-127129691D01*
X192531358Y-126776751D01*
X201403527Y-126776751D01*
X202408000Y-127781223D01*
X203412473Y-126776751D01*
X203277961Y-126547939D01*
X202672132Y-126322354D01*
X202026092Y-126345781D01*
X201538039Y-126547939D01*
X201403527Y-126776751D01*
X192531358Y-126776751D01*
X192632718Y-126532651D01*
X192633282Y-125886186D01*
X192531250Y-125639249D01*
X201403527Y-125639249D01*
X201538039Y-125868061D01*
X202143868Y-126093646D01*
X202789908Y-126070219D01*
X203277961Y-125868061D01*
X203412473Y-125639249D01*
X202408000Y-124634777D01*
X201403527Y-125639249D01*
X192531250Y-125639249D01*
X192386412Y-125288714D01*
X191929691Y-124831195D01*
X191332651Y-124583282D01*
X190686186Y-124582718D01*
X190088714Y-124829588D01*
X189631195Y-125286309D01*
X189383282Y-125883349D01*
X189382718Y-126529814D01*
X177675000Y-126529814D01*
X177675000Y-123075000D01*
X180987000Y-123075000D01*
X181197476Y-123033134D01*
X181375909Y-122913909D01*
X182182771Y-122107047D01*
X182273579Y-122107126D01*
X182540143Y-121996984D01*
X182744267Y-121793216D01*
X182854874Y-121526844D01*
X182855126Y-121238421D01*
X182744984Y-120971857D01*
X182541216Y-120767733D01*
X182274844Y-120657126D01*
X181986421Y-120656874D01*
X181719857Y-120767016D01*
X181515733Y-120970784D01*
X181405126Y-121237156D01*
X181405046Y-121329136D01*
X181140538Y-121593644D01*
X181140626Y-121492421D01*
X181030484Y-121225857D01*
X180826716Y-121021733D01*
X180776992Y-121001086D01*
X180825643Y-120980984D01*
X181029767Y-120777216D01*
X181140374Y-120510844D01*
X181140626Y-120222421D01*
X181030484Y-119955857D01*
X180965500Y-119890759D01*
X180965500Y-115824000D01*
X185723793Y-115824000D01*
X185833483Y-116375447D01*
X186145852Y-116842941D01*
X186521589Y-117094000D01*
X186145852Y-117345059D01*
X185833483Y-117812553D01*
X185723793Y-118364000D01*
X185833483Y-118915447D01*
X186145852Y-119382941D01*
X186521589Y-119634000D01*
X186145852Y-119885059D01*
X185833483Y-120352553D01*
X185723793Y-120904000D01*
X185833483Y-121455447D01*
X186145852Y-121922941D01*
X186521589Y-122174000D01*
X186145852Y-122425059D01*
X185833483Y-122892553D01*
X185723793Y-123444000D01*
X185833483Y-123995447D01*
X186145852Y-124462941D01*
X186613346Y-124775310D01*
X187164793Y-124885000D01*
X187739207Y-124885000D01*
X188290654Y-124775310D01*
X188758148Y-124462941D01*
X188937936Y-124193868D01*
X200772354Y-124193868D01*
X200795781Y-124839908D01*
X200997939Y-125327961D01*
X201226751Y-125462473D01*
X202231223Y-124458000D01*
X202584777Y-124458000D01*
X203589249Y-125462473D01*
X203818061Y-125327961D01*
X204043646Y-124722132D01*
X204020219Y-124076092D01*
X203818061Y-123588039D01*
X203589249Y-123453527D01*
X202584777Y-124458000D01*
X202231223Y-124458000D01*
X201226751Y-123453527D01*
X200997939Y-123588039D01*
X200772354Y-124193868D01*
X188937936Y-124193868D01*
X189070517Y-123995447D01*
X189180207Y-123444000D01*
X189146939Y-123276751D01*
X201403527Y-123276751D01*
X202408000Y-124281223D01*
X203412473Y-123276751D01*
X203277961Y-123047939D01*
X202672132Y-122822354D01*
X202026092Y-122845781D01*
X201538039Y-123047939D01*
X201403527Y-123276751D01*
X189146939Y-123276751D01*
X189070517Y-122892553D01*
X188758148Y-122425059D01*
X188382411Y-122174000D01*
X188758148Y-121922941D01*
X189070517Y-121455447D01*
X189180207Y-120904000D01*
X189070517Y-120352553D01*
X188758148Y-119885059D01*
X188487174Y-119704000D01*
X189374674Y-119704000D01*
X189374674Y-122104000D01*
X189404309Y-122261496D01*
X189497389Y-122406146D01*
X189639412Y-122503186D01*
X189808000Y-122537326D01*
X192208000Y-122537326D01*
X192365496Y-122507691D01*
X192510146Y-122414611D01*
X192607186Y-122272588D01*
X192641326Y-122104000D01*
X192641326Y-120335249D01*
X201403527Y-120335249D01*
X201538039Y-120564061D01*
X202143868Y-120789646D01*
X202789908Y-120766219D01*
X203277961Y-120564061D01*
X203412473Y-120335249D01*
X202408000Y-119330777D01*
X201403527Y-120335249D01*
X192641326Y-120335249D01*
X192641326Y-119704000D01*
X192611691Y-119546504D01*
X192518611Y-119401854D01*
X192376588Y-119304814D01*
X192208000Y-119270674D01*
X189808000Y-119270674D01*
X189650504Y-119300309D01*
X189505854Y-119393389D01*
X189408814Y-119535412D01*
X189374674Y-119704000D01*
X188487174Y-119704000D01*
X188382411Y-119634000D01*
X188758148Y-119382941D01*
X189070517Y-118915447D01*
X189180207Y-118364000D01*
X189070517Y-117812553D01*
X189012560Y-117725814D01*
X189382718Y-117725814D01*
X189629588Y-118323286D01*
X190086309Y-118780805D01*
X190683349Y-119028718D01*
X191329814Y-119029282D01*
X191667222Y-118889868D01*
X200772354Y-118889868D01*
X200795781Y-119535908D01*
X200997939Y-120023961D01*
X201226751Y-120158473D01*
X202231223Y-119154000D01*
X202584777Y-119154000D01*
X203589249Y-120158473D01*
X203818061Y-120023961D01*
X204043646Y-119418132D01*
X204020219Y-118772092D01*
X203818061Y-118284039D01*
X203589249Y-118149527D01*
X202584777Y-119154000D01*
X202231223Y-119154000D01*
X201226751Y-118149527D01*
X200997939Y-118284039D01*
X200772354Y-118889868D01*
X191667222Y-118889868D01*
X191927286Y-118782412D01*
X192384805Y-118325691D01*
X192531358Y-117972751D01*
X201403527Y-117972751D01*
X202408000Y-118977223D01*
X203412473Y-117972751D01*
X203277961Y-117743939D01*
X202672132Y-117518354D01*
X202026092Y-117541781D01*
X201538039Y-117743939D01*
X201403527Y-117972751D01*
X192531358Y-117972751D01*
X192632718Y-117728651D01*
X192633282Y-117082186D01*
X192531250Y-116835249D01*
X201403527Y-116835249D01*
X201538039Y-117064061D01*
X202143868Y-117289646D01*
X202789908Y-117266219D01*
X203277961Y-117064061D01*
X203412473Y-116835249D01*
X202408000Y-115830777D01*
X201403527Y-116835249D01*
X192531250Y-116835249D01*
X192386412Y-116484714D01*
X191929691Y-116027195D01*
X191332651Y-115779282D01*
X190686186Y-115778718D01*
X190088714Y-116025588D01*
X189631195Y-116482309D01*
X189383282Y-117079349D01*
X189382718Y-117725814D01*
X189012560Y-117725814D01*
X188758148Y-117345059D01*
X188382411Y-117094000D01*
X188758148Y-116842941D01*
X189070517Y-116375447D01*
X189180207Y-115824000D01*
X189070517Y-115272553D01*
X188758148Y-114805059D01*
X188386411Y-114556673D01*
X188799275Y-114225814D01*
X189382718Y-114225814D01*
X189629588Y-114823286D01*
X190086309Y-115280805D01*
X190683349Y-115528718D01*
X191329814Y-115529282D01*
X191667222Y-115389868D01*
X200772354Y-115389868D01*
X200795781Y-116035908D01*
X200997939Y-116523961D01*
X201226751Y-116658473D01*
X202231223Y-115654000D01*
X202584777Y-115654000D01*
X203589249Y-116658473D01*
X203818061Y-116523961D01*
X204043646Y-115918132D01*
X204020219Y-115272092D01*
X203818061Y-114784039D01*
X203589249Y-114649527D01*
X202584777Y-115654000D01*
X202231223Y-115654000D01*
X201226751Y-114649527D01*
X200997939Y-114784039D01*
X200772354Y-115389868D01*
X191667222Y-115389868D01*
X191927286Y-115282412D01*
X192384805Y-114825691D01*
X192531358Y-114472751D01*
X201403527Y-114472751D01*
X202408000Y-115477223D01*
X203412473Y-114472751D01*
X203277961Y-114243939D01*
X202672132Y-114018354D01*
X202026092Y-114041781D01*
X201538039Y-114243939D01*
X201403527Y-114472751D01*
X192531358Y-114472751D01*
X192632718Y-114228651D01*
X192633282Y-113582186D01*
X192531250Y-113335249D01*
X201403527Y-113335249D01*
X201538039Y-113564061D01*
X202143868Y-113789646D01*
X202789908Y-113766219D01*
X203277961Y-113564061D01*
X203412473Y-113335249D01*
X202408000Y-112330777D01*
X201403527Y-113335249D01*
X192531250Y-113335249D01*
X192386412Y-112984714D01*
X191929691Y-112527195D01*
X191332651Y-112279282D01*
X190686186Y-112278718D01*
X190088714Y-112525588D01*
X189631195Y-112982309D01*
X189383282Y-113579349D01*
X189382718Y-114225814D01*
X188799275Y-114225814D01*
X188813329Y-114214552D01*
X189085145Y-113719961D01*
X189104339Y-113632033D01*
X189034884Y-113409000D01*
X187577000Y-113409000D01*
X187577000Y-113429000D01*
X187327000Y-113429000D01*
X187327000Y-113409000D01*
X185869116Y-113409000D01*
X185799661Y-113632033D01*
X185818855Y-113719961D01*
X186090671Y-114214552D01*
X186517589Y-114556673D01*
X186145852Y-114805059D01*
X185833483Y-115272553D01*
X185723793Y-115824000D01*
X180965500Y-115824000D01*
X180965500Y-113635005D01*
X180965501Y-113635000D01*
X180923634Y-113424524D01*
X180804409Y-113246091D01*
X178650351Y-111092033D01*
X185799661Y-111092033D01*
X185818855Y-111179961D01*
X186090671Y-111674552D01*
X186514253Y-112014000D01*
X186090671Y-112353448D01*
X185818855Y-112848039D01*
X185799661Y-112935967D01*
X185869116Y-113159000D01*
X187327000Y-113159000D01*
X187327000Y-110869000D01*
X187577000Y-110869000D01*
X187577000Y-113159000D01*
X189034884Y-113159000D01*
X189104339Y-112935967D01*
X189085145Y-112848039D01*
X188813329Y-112353448D01*
X188389747Y-112014000D01*
X188544645Y-111889868D01*
X200772354Y-111889868D01*
X200795781Y-112535908D01*
X200997939Y-113023961D01*
X201226751Y-113158473D01*
X202231223Y-112154000D01*
X202584777Y-112154000D01*
X203589249Y-113158473D01*
X203818061Y-113023961D01*
X204043646Y-112418132D01*
X204020219Y-111772092D01*
X203818061Y-111284039D01*
X203589249Y-111149527D01*
X202584777Y-112154000D01*
X202231223Y-112154000D01*
X201226751Y-111149527D01*
X200997939Y-111284039D01*
X200772354Y-111889868D01*
X188544645Y-111889868D01*
X188813329Y-111674552D01*
X189085145Y-111179961D01*
X189104339Y-111092033D01*
X189067194Y-110972751D01*
X201403527Y-110972751D01*
X202408000Y-111977223D01*
X203412473Y-110972751D01*
X203277961Y-110743939D01*
X202672132Y-110518354D01*
X202026092Y-110541781D01*
X201538039Y-110743939D01*
X201403527Y-110972751D01*
X189067194Y-110972751D01*
X189034884Y-110869000D01*
X187577000Y-110869000D01*
X187327000Y-110869000D01*
X185869116Y-110869000D01*
X185799661Y-111092033D01*
X178650351Y-111092033D01*
X177203547Y-109645229D01*
X177203626Y-109554421D01*
X177093484Y-109287857D01*
X176889716Y-109083733D01*
X176623344Y-108973126D01*
X176334921Y-108972874D01*
X176068357Y-109083016D01*
X175864233Y-109286784D01*
X175753626Y-109553156D01*
X175753374Y-109841579D01*
X175863516Y-110108143D01*
X176067284Y-110312267D01*
X176333656Y-110422874D01*
X176425636Y-110422954D01*
X179865500Y-113862818D01*
X179865500Y-119890629D01*
X179801233Y-119954784D01*
X179716401Y-120159083D01*
X179695500Y-120138182D01*
X179695500Y-114270005D01*
X179695501Y-114270000D01*
X179653634Y-114059524D01*
X179534409Y-113881091D01*
X179534406Y-113881089D01*
X175616047Y-109962729D01*
X175616126Y-109871921D01*
X175505984Y-109605357D01*
X175302216Y-109401233D01*
X175035844Y-109290626D01*
X174747421Y-109290374D01*
X174480857Y-109400516D01*
X174276733Y-109604284D01*
X174166126Y-109870656D01*
X174165874Y-110159079D01*
X174276016Y-110425643D01*
X174479784Y-110629767D01*
X174746156Y-110740374D01*
X174838136Y-110740454D01*
X176465559Y-112367877D01*
X176250000Y-112324999D01*
X176249995Y-112325000D01*
X174750000Y-112325000D01*
X174013334Y-112471532D01*
X173388819Y-112888819D01*
X173163841Y-113225524D01*
X171298047Y-111359729D01*
X171298126Y-111268921D01*
X171187984Y-111002357D01*
X170984216Y-110798233D01*
X170717844Y-110687626D01*
X170429421Y-110687374D01*
X170162857Y-110797516D01*
X169958733Y-111001284D01*
X169848126Y-111267656D01*
X169847874Y-111556079D01*
X169958016Y-111822643D01*
X170161784Y-112026767D01*
X170428156Y-112137374D01*
X170520137Y-112137454D01*
X172245500Y-113862817D01*
X172245500Y-115970164D01*
X172161216Y-115885733D01*
X171894844Y-115775126D01*
X171802863Y-115775046D01*
X165050000Y-109022182D01*
X165050000Y-108552033D01*
X185799661Y-108552033D01*
X185818855Y-108639961D01*
X186090671Y-109134552D01*
X186514253Y-109474000D01*
X186090671Y-109813448D01*
X185818855Y-110308039D01*
X185799661Y-110395967D01*
X185869116Y-110619000D01*
X187327000Y-110619000D01*
X187327000Y-108329000D01*
X187577000Y-108329000D01*
X187577000Y-110619000D01*
X189034884Y-110619000D01*
X189104339Y-110395967D01*
X189085145Y-110308039D01*
X188813329Y-109813448D01*
X188389747Y-109474000D01*
X188813329Y-109134552D01*
X189085145Y-108639961D01*
X189104339Y-108552033D01*
X189034884Y-108329000D01*
X187577000Y-108329000D01*
X187327000Y-108329000D01*
X185869116Y-108329000D01*
X185799661Y-108552033D01*
X165050000Y-108552033D01*
X165050000Y-106050000D01*
X166524629Y-106050000D01*
X166588784Y-106114267D01*
X166855156Y-106224874D01*
X167143579Y-106225126D01*
X167410143Y-106114984D01*
X167513273Y-106012033D01*
X185799661Y-106012033D01*
X185818855Y-106099961D01*
X186090671Y-106594552D01*
X186514253Y-106934000D01*
X186090671Y-107273448D01*
X185818855Y-107768039D01*
X185799661Y-107855967D01*
X185869116Y-108079000D01*
X187327000Y-108079000D01*
X187327000Y-105789000D01*
X187577000Y-105789000D01*
X187577000Y-108079000D01*
X189034884Y-108079000D01*
X189104339Y-107855967D01*
X189085145Y-107768039D01*
X188944432Y-107512000D01*
X189374674Y-107512000D01*
X189374674Y-109912000D01*
X189404309Y-110069496D01*
X189497389Y-110214146D01*
X189639412Y-110311186D01*
X189808000Y-110345326D01*
X192208000Y-110345326D01*
X192365496Y-110315691D01*
X192510146Y-110222611D01*
X192607186Y-110080588D01*
X192641326Y-109912000D01*
X192641326Y-108143249D01*
X201403527Y-108143249D01*
X201538039Y-108372061D01*
X202143868Y-108597646D01*
X202789908Y-108574219D01*
X203277961Y-108372061D01*
X203412473Y-108143249D01*
X202408000Y-107138777D01*
X201403527Y-108143249D01*
X192641326Y-108143249D01*
X192641326Y-107512000D01*
X192611691Y-107354504D01*
X192518611Y-107209854D01*
X192376588Y-107112814D01*
X192208000Y-107078674D01*
X189808000Y-107078674D01*
X189650504Y-107108309D01*
X189505854Y-107201389D01*
X189408814Y-107343412D01*
X189374674Y-107512000D01*
X188944432Y-107512000D01*
X188813329Y-107273448D01*
X188389747Y-106934000D01*
X188813329Y-106594552D01*
X189085145Y-106099961D01*
X189104339Y-106012033D01*
X189034884Y-105789000D01*
X187577000Y-105789000D01*
X187327000Y-105789000D01*
X185869116Y-105789000D01*
X185799661Y-106012033D01*
X167513273Y-106012033D01*
X167614267Y-105911216D01*
X167724874Y-105644844D01*
X167725126Y-105356421D01*
X167614984Y-105089857D01*
X167411216Y-104885733D01*
X167384369Y-104874585D01*
X172073191Y-104874585D01*
X172158670Y-105061862D01*
X172619437Y-105220573D01*
X173105867Y-105190874D01*
X173417330Y-105061862D01*
X173502809Y-104874585D01*
X172788000Y-104159777D01*
X172073191Y-104874585D01*
X167384369Y-104874585D01*
X167144844Y-104775126D01*
X166856421Y-104774874D01*
X166589857Y-104885016D01*
X166524759Y-104950000D01*
X164975371Y-104950000D01*
X164911216Y-104885733D01*
X164644844Y-104775126D01*
X164356421Y-104774874D01*
X164089857Y-104885016D01*
X163885733Y-105088784D01*
X163775126Y-105355156D01*
X163774874Y-105643579D01*
X163885016Y-105910143D01*
X163950000Y-105975241D01*
X163950000Y-109250000D01*
X163991866Y-109460476D01*
X164111091Y-109638909D01*
X171024953Y-116552770D01*
X171024874Y-116643579D01*
X171135016Y-116910143D01*
X171338784Y-117114267D01*
X171605156Y-117224874D01*
X171893579Y-117225126D01*
X172160143Y-117114984D01*
X172245500Y-117029776D01*
X172245500Y-119489224D01*
X172127216Y-119370733D01*
X171860844Y-119260126D01*
X171572421Y-119259874D01*
X171305857Y-119370016D01*
X171101733Y-119573784D01*
X170991126Y-119840156D01*
X170991046Y-119932137D01*
X169964182Y-120959000D01*
X167271000Y-120959000D01*
X167060524Y-121000866D01*
X166882091Y-121120091D01*
X166882089Y-121120094D01*
X165694229Y-122307953D01*
X165603421Y-122307874D01*
X165336857Y-122418016D01*
X165271759Y-122483000D01*
X163682371Y-122483000D01*
X163618216Y-122418733D01*
X163351844Y-122308126D01*
X163063421Y-122307874D01*
X162796857Y-122418016D01*
X162592733Y-122621784D01*
X162482126Y-122888156D01*
X162481874Y-123176579D01*
X155500000Y-123176579D01*
X155500000Y-119156476D01*
X155704151Y-119360984D01*
X156411414Y-119654665D01*
X157177226Y-119655333D01*
X157885000Y-119362887D01*
X158426984Y-118821849D01*
X158495807Y-118656106D01*
X158563113Y-118819000D01*
X159104151Y-119360984D01*
X159811414Y-119654665D01*
X160577226Y-119655333D01*
X161285000Y-119362887D01*
X161826984Y-118821849D01*
X162051979Y-118280000D01*
X164352182Y-118280000D01*
X166611091Y-120538909D01*
X166789524Y-120658134D01*
X167000000Y-120700001D01*
X167000005Y-120700000D01*
X167924629Y-120700000D01*
X167988784Y-120764267D01*
X168255156Y-120874874D01*
X168543579Y-120875126D01*
X168810143Y-120764984D01*
X169014267Y-120561216D01*
X169124874Y-120294844D01*
X169125126Y-120006421D01*
X169014984Y-119739857D01*
X168811216Y-119535733D01*
X168544844Y-119425126D01*
X168256421Y-119424874D01*
X167989857Y-119535016D01*
X167924759Y-119600000D01*
X167227818Y-119600000D01*
X164968909Y-117341091D01*
X164790476Y-117221866D01*
X164580000Y-117180000D01*
X162051597Y-117180000D01*
X161828887Y-116641000D01*
X161287849Y-116099016D01*
X160580586Y-115805335D01*
X159814774Y-115804667D01*
X159107000Y-116097113D01*
X158565016Y-116638151D01*
X158496193Y-116803894D01*
X158428887Y-116641000D01*
X157887849Y-116099016D01*
X157180586Y-115805335D01*
X156414774Y-115804667D01*
X155707000Y-116097113D01*
X155500000Y-116303752D01*
X155500000Y-114393579D01*
X163774874Y-114393579D01*
X163885016Y-114660143D01*
X164088784Y-114864267D01*
X164355156Y-114974874D01*
X164643579Y-114975126D01*
X164910143Y-114864984D01*
X164975241Y-114800000D01*
X165522182Y-114800000D01*
X167524953Y-116802771D01*
X167524874Y-116893579D01*
X167635016Y-117160143D01*
X167838784Y-117364267D01*
X168105156Y-117474874D01*
X168393579Y-117475126D01*
X168660143Y-117364984D01*
X168864267Y-117161216D01*
X168974874Y-116894844D01*
X168975126Y-116606421D01*
X168864984Y-116339857D01*
X168661216Y-116135733D01*
X168394844Y-116025126D01*
X168302864Y-116025046D01*
X166138909Y-113861091D01*
X165960476Y-113741866D01*
X165750000Y-113700000D01*
X164975371Y-113700000D01*
X164911216Y-113635733D01*
X164644844Y-113525126D01*
X164356421Y-113524874D01*
X164089857Y-113635016D01*
X163885733Y-113838784D01*
X163775126Y-114105156D01*
X163774874Y-114393579D01*
X155500000Y-114393579D01*
X155500000Y-112296476D01*
X155704151Y-112500984D01*
X156411414Y-112794665D01*
X157177226Y-112795333D01*
X157885000Y-112502887D01*
X158426984Y-111961849D01*
X158495807Y-111796106D01*
X158563113Y-111959000D01*
X159104151Y-112500984D01*
X159811414Y-112794665D01*
X160577226Y-112795333D01*
X161285000Y-112502887D01*
X161826984Y-111961849D01*
X162120665Y-111254586D01*
X162121333Y-110488774D01*
X161828887Y-109781000D01*
X161287849Y-109239016D01*
X160580586Y-108945335D01*
X159814774Y-108944667D01*
X159107000Y-109237113D01*
X158565016Y-109778151D01*
X158496193Y-109943894D01*
X158428887Y-109781000D01*
X157887849Y-109239016D01*
X157180586Y-108945335D01*
X156414774Y-108944667D01*
X155707000Y-109237113D01*
X155500000Y-109443752D01*
X155500000Y-103814437D01*
X171550427Y-103814437D01*
X171580126Y-104300867D01*
X171709138Y-104612330D01*
X171896415Y-104697809D01*
X172611223Y-103983000D01*
X172964777Y-103983000D01*
X173679585Y-104697809D01*
X173866862Y-104612330D01*
X174025573Y-104151563D01*
X173995874Y-103665133D01*
X173866862Y-103353670D01*
X173679585Y-103268191D01*
X172964777Y-103983000D01*
X172611223Y-103983000D01*
X171896415Y-103268191D01*
X171709138Y-103353670D01*
X171550427Y-103814437D01*
X155500000Y-103814437D01*
X155500000Y-103091415D01*
X172073191Y-103091415D01*
X172788000Y-103806223D01*
X173411223Y-103183000D01*
X175054674Y-103183000D01*
X175054674Y-104783000D01*
X175084309Y-104940496D01*
X175177389Y-105085146D01*
X175319412Y-105182186D01*
X175488000Y-105216326D01*
X177088000Y-105216326D01*
X177245496Y-105186691D01*
X177390146Y-105093611D01*
X177487186Y-104951588D01*
X177521326Y-104783000D01*
X177521326Y-103183000D01*
X177491691Y-103025504D01*
X177398611Y-102880854D01*
X177256588Y-102783814D01*
X177088000Y-102749674D01*
X175488000Y-102749674D01*
X175330504Y-102779309D01*
X175185854Y-102872389D01*
X175088814Y-103014412D01*
X175054674Y-103183000D01*
X173411223Y-103183000D01*
X173502809Y-103091415D01*
X173417330Y-102904138D01*
X172956563Y-102745427D01*
X172470133Y-102775126D01*
X172158670Y-102904138D01*
X172073191Y-103091415D01*
X155500000Y-103091415D01*
X155500000Y-98826476D01*
X155704151Y-99030984D01*
X156411414Y-99324665D01*
X157177226Y-99325333D01*
X157885000Y-99032887D01*
X158426984Y-98491849D01*
X158481309Y-98361019D01*
X158563113Y-98559000D01*
X159104151Y-99100984D01*
X159811414Y-99394665D01*
X160577226Y-99395333D01*
X161285000Y-99102887D01*
X161826984Y-98561849D01*
X162120665Y-97854586D01*
X162120867Y-97622599D01*
X168762788Y-97622599D01*
X168948890Y-98073000D01*
X169293187Y-98417899D01*
X169743263Y-98604787D01*
X170230599Y-98605212D01*
X170681000Y-98419110D01*
X171025899Y-98074813D01*
X171212787Y-97624737D01*
X171213212Y-97137401D01*
X171027110Y-96687000D01*
X170682813Y-96342101D01*
X170232737Y-96155213D01*
X169745401Y-96154788D01*
X169295000Y-96340890D01*
X168950101Y-96685187D01*
X168763213Y-97135263D01*
X168762788Y-97622599D01*
X162120867Y-97622599D01*
X162121333Y-97088774D01*
X161828887Y-96381000D01*
X161287849Y-95839016D01*
X160580586Y-95545335D01*
X159814774Y-95544667D01*
X159107000Y-95837113D01*
X158565016Y-96378151D01*
X158510691Y-96508981D01*
X158428887Y-96311000D01*
X157887849Y-95769016D01*
X157180586Y-95475335D01*
X156414774Y-95474667D01*
X155707000Y-95767113D01*
X155500000Y-95973752D01*
X155500000Y-90760060D01*
X157784674Y-90760060D01*
X157784674Y-93300060D01*
X157814309Y-93457556D01*
X157907389Y-93602206D01*
X158049412Y-93699246D01*
X158218000Y-93733386D01*
X160758000Y-93733386D01*
X160915496Y-93703751D01*
X161060146Y-93610671D01*
X161157186Y-93468648D01*
X161191326Y-93300060D01*
X161191326Y-90760060D01*
X161161691Y-90602564D01*
X161068611Y-90457914D01*
X160926588Y-90360874D01*
X160758000Y-90326734D01*
X158218000Y-90326734D01*
X158060504Y-90356369D01*
X157915854Y-90449449D01*
X157818814Y-90591472D01*
X157784674Y-90760060D01*
X155500000Y-90760060D01*
X155500000Y-89761814D01*
X158432903Y-89761814D01*
X158575974Y-89997899D01*
X159207161Y-90235175D01*
X159881104Y-90212844D01*
X160340395Y-90022599D01*
X168762788Y-90022599D01*
X168948890Y-90473000D01*
X169293187Y-90817899D01*
X169743263Y-91004787D01*
X170230599Y-91005212D01*
X170681000Y-90819110D01*
X171025899Y-90474813D01*
X171086031Y-90330000D01*
X175251000Y-90330000D01*
X175461476Y-90288134D01*
X175639909Y-90168909D01*
X175690318Y-90118500D01*
X178363500Y-90118500D01*
X178363500Y-97738995D01*
X178363499Y-97739000D01*
X178430297Y-98074813D01*
X178510032Y-98475666D01*
X178832001Y-98957527D01*
X178927319Y-99100181D01*
X179138819Y-99311680D01*
X179763335Y-99728968D01*
X180500000Y-99875501D01*
X181236665Y-99728968D01*
X181861180Y-99311680D01*
X182278468Y-98687165D01*
X182425001Y-97950500D01*
X182278468Y-97213835D01*
X182213500Y-97116603D01*
X182213500Y-95504000D01*
X185723793Y-95504000D01*
X185833483Y-96055447D01*
X186145852Y-96522941D01*
X186521589Y-96774000D01*
X186145852Y-97025059D01*
X185833483Y-97492553D01*
X185723793Y-98044000D01*
X185833483Y-98595447D01*
X186145852Y-99062941D01*
X186521589Y-99314000D01*
X186145852Y-99565059D01*
X185833483Y-100032553D01*
X185723793Y-100584000D01*
X185833483Y-101135447D01*
X186145852Y-101602941D01*
X186521589Y-101854000D01*
X186145852Y-102105059D01*
X185833483Y-102572553D01*
X185723793Y-103124000D01*
X185833483Y-103675447D01*
X186145852Y-104142941D01*
X186517589Y-104391327D01*
X186090671Y-104733448D01*
X185818855Y-105228039D01*
X185799661Y-105315967D01*
X185869116Y-105539000D01*
X187327000Y-105539000D01*
X187327000Y-105519000D01*
X187577000Y-105519000D01*
X187577000Y-105539000D01*
X189034884Y-105539000D01*
X189036498Y-105533814D01*
X189382718Y-105533814D01*
X189629588Y-106131286D01*
X190086309Y-106588805D01*
X190683349Y-106836718D01*
X191329814Y-106837282D01*
X191667222Y-106697868D01*
X200772354Y-106697868D01*
X200795781Y-107343908D01*
X200997939Y-107831961D01*
X201226751Y-107966473D01*
X202231223Y-106962000D01*
X202584777Y-106962000D01*
X203589249Y-107966473D01*
X203818061Y-107831961D01*
X204043646Y-107226132D01*
X204020219Y-106580092D01*
X203818061Y-106092039D01*
X203589249Y-105957527D01*
X202584777Y-106962000D01*
X202231223Y-106962000D01*
X201226751Y-105957527D01*
X200997939Y-106092039D01*
X200772354Y-106697868D01*
X191667222Y-106697868D01*
X191927286Y-106590412D01*
X192384805Y-106133691D01*
X192531358Y-105780751D01*
X201403527Y-105780751D01*
X202408000Y-106785223D01*
X203412473Y-105780751D01*
X203277961Y-105551939D01*
X202672132Y-105326354D01*
X202026092Y-105349781D01*
X201538039Y-105551939D01*
X201403527Y-105780751D01*
X192531358Y-105780751D01*
X192632718Y-105536651D01*
X192633282Y-104890186D01*
X192531250Y-104643249D01*
X201403527Y-104643249D01*
X201538039Y-104872061D01*
X202143868Y-105097646D01*
X202789908Y-105074219D01*
X203277961Y-104872061D01*
X203412473Y-104643249D01*
X202408000Y-103638777D01*
X201403527Y-104643249D01*
X192531250Y-104643249D01*
X192386412Y-104292714D01*
X191929691Y-103835195D01*
X191332651Y-103587282D01*
X190686186Y-103586718D01*
X190088714Y-103833588D01*
X189631195Y-104290309D01*
X189383282Y-104887349D01*
X189382718Y-105533814D01*
X189036498Y-105533814D01*
X189104339Y-105315967D01*
X189085145Y-105228039D01*
X188813329Y-104733448D01*
X188386411Y-104391327D01*
X188758148Y-104142941D01*
X189070517Y-103675447D01*
X189180207Y-103124000D01*
X189070517Y-102572553D01*
X188758148Y-102105059D01*
X188651523Y-102033814D01*
X189382718Y-102033814D01*
X189629588Y-102631286D01*
X190086309Y-103088805D01*
X190683349Y-103336718D01*
X191329814Y-103337282D01*
X191667222Y-103197868D01*
X200772354Y-103197868D01*
X200795781Y-103843908D01*
X200997939Y-104331961D01*
X201226751Y-104466473D01*
X202231223Y-103462000D01*
X202584777Y-103462000D01*
X203589249Y-104466473D01*
X203818061Y-104331961D01*
X204043646Y-103726132D01*
X204020219Y-103080092D01*
X203818061Y-102592039D01*
X203589249Y-102457527D01*
X202584777Y-103462000D01*
X202231223Y-103462000D01*
X201226751Y-102457527D01*
X200997939Y-102592039D01*
X200772354Y-103197868D01*
X191667222Y-103197868D01*
X191927286Y-103090412D01*
X192384805Y-102633691D01*
X192531358Y-102280751D01*
X201403527Y-102280751D01*
X202408000Y-103285223D01*
X203412473Y-102280751D01*
X203277961Y-102051939D01*
X202672132Y-101826354D01*
X202026092Y-101849781D01*
X201538039Y-102051939D01*
X201403527Y-102280751D01*
X192531358Y-102280751D01*
X192632718Y-102036651D01*
X192633282Y-101390186D01*
X192531250Y-101143249D01*
X201403527Y-101143249D01*
X201538039Y-101372061D01*
X202143868Y-101597646D01*
X202789908Y-101574219D01*
X203277961Y-101372061D01*
X203412473Y-101143249D01*
X202408000Y-100138777D01*
X201403527Y-101143249D01*
X192531250Y-101143249D01*
X192386412Y-100792714D01*
X191929691Y-100335195D01*
X191332651Y-100087282D01*
X190686186Y-100086718D01*
X190088714Y-100333588D01*
X189631195Y-100790309D01*
X189383282Y-101387349D01*
X189382718Y-102033814D01*
X188651523Y-102033814D01*
X188382411Y-101854000D01*
X188758148Y-101602941D01*
X189070517Y-101135447D01*
X189180207Y-100584000D01*
X189070517Y-100032553D01*
X188846888Y-99697868D01*
X200772354Y-99697868D01*
X200795781Y-100343908D01*
X200997939Y-100831961D01*
X201226751Y-100966473D01*
X202231223Y-99962000D01*
X202584777Y-99962000D01*
X203589249Y-100966473D01*
X203818061Y-100831961D01*
X204043646Y-100226132D01*
X204020219Y-99580092D01*
X203818061Y-99092039D01*
X203589249Y-98957527D01*
X202584777Y-99962000D01*
X202231223Y-99962000D01*
X201226751Y-98957527D01*
X200997939Y-99092039D01*
X200772354Y-99697868D01*
X188846888Y-99697868D01*
X188758148Y-99565059D01*
X188382411Y-99314000D01*
X188758148Y-99062941D01*
X188946701Y-98780751D01*
X201403527Y-98780751D01*
X202408000Y-99785223D01*
X203412473Y-98780751D01*
X203277961Y-98551939D01*
X202672132Y-98326354D01*
X202026092Y-98349781D01*
X201538039Y-98551939D01*
X201403527Y-98780751D01*
X188946701Y-98780751D01*
X189070517Y-98595447D01*
X189180207Y-98044000D01*
X189070517Y-97492553D01*
X188758148Y-97025059D01*
X188382411Y-96774000D01*
X188758148Y-96522941D01*
X189070517Y-96055447D01*
X189180207Y-95504000D01*
X189070517Y-94952553D01*
X188901767Y-94700000D01*
X190766674Y-94700000D01*
X190766674Y-96300000D01*
X190796309Y-96457496D01*
X190889389Y-96602146D01*
X191031412Y-96699186D01*
X191200000Y-96733326D01*
X192800000Y-96733326D01*
X192957496Y-96703691D01*
X193102146Y-96610611D01*
X193199186Y-96468588D01*
X193214779Y-96391585D01*
X194785191Y-96391585D01*
X194870670Y-96578862D01*
X195331437Y-96737573D01*
X195817867Y-96707874D01*
X196129330Y-96578862D01*
X196214809Y-96391585D01*
X195500000Y-95676777D01*
X194785191Y-96391585D01*
X193214779Y-96391585D01*
X193233326Y-96300000D01*
X193233326Y-95331437D01*
X194262427Y-95331437D01*
X194292126Y-95817867D01*
X194421138Y-96129330D01*
X194608415Y-96214809D01*
X195323223Y-95500000D01*
X195676777Y-95500000D01*
X196391585Y-96214809D01*
X196578862Y-96129330D01*
X196737573Y-95668563D01*
X196707874Y-95182133D01*
X196578862Y-94870670D01*
X196391585Y-94785191D01*
X195676777Y-95500000D01*
X195323223Y-95500000D01*
X194608415Y-94785191D01*
X194421138Y-94870670D01*
X194262427Y-95331437D01*
X193233326Y-95331437D01*
X193233326Y-94700000D01*
X193216094Y-94608415D01*
X194785191Y-94608415D01*
X195500000Y-95323223D01*
X196214809Y-94608415D01*
X196129330Y-94421138D01*
X195668563Y-94262427D01*
X195182133Y-94292126D01*
X194870670Y-94421138D01*
X194785191Y-94608415D01*
X193216094Y-94608415D01*
X193203691Y-94542504D01*
X193110611Y-94397854D01*
X192968588Y-94300814D01*
X192800000Y-94266674D01*
X191200000Y-94266674D01*
X191042504Y-94296309D01*
X190897854Y-94389389D01*
X190800814Y-94531412D01*
X190766674Y-94700000D01*
X188901767Y-94700000D01*
X188758148Y-94485059D01*
X188290654Y-94172690D01*
X187739207Y-94063000D01*
X187164793Y-94063000D01*
X186613346Y-94172690D01*
X186145852Y-94485059D01*
X185833483Y-94952553D01*
X185723793Y-95504000D01*
X182213500Y-95504000D01*
X182213500Y-93981934D01*
X200444903Y-93981934D01*
X200587974Y-94218019D01*
X201219161Y-94455295D01*
X201893104Y-94432964D01*
X202412026Y-94218019D01*
X202555097Y-93981934D01*
X201500000Y-92926837D01*
X200444903Y-93981934D01*
X182213500Y-93981934D01*
X182213500Y-92469221D01*
X199794765Y-92469221D01*
X199817096Y-93143164D01*
X200032041Y-93662086D01*
X200268126Y-93805157D01*
X201323223Y-92750060D01*
X201676777Y-92750060D01*
X202731874Y-93805157D01*
X202967959Y-93662086D01*
X203205235Y-93030899D01*
X203182904Y-92356956D01*
X202967959Y-91838034D01*
X202731874Y-91694963D01*
X201676777Y-92750060D01*
X201323223Y-92750060D01*
X200268126Y-91694963D01*
X200032041Y-91838034D01*
X199794765Y-92469221D01*
X182213500Y-92469221D01*
X182213500Y-91518186D01*
X200444903Y-91518186D01*
X201500000Y-92573283D01*
X202555097Y-91518186D01*
X202412026Y-91282101D01*
X201780839Y-91044825D01*
X201106896Y-91067156D01*
X200587974Y-91282101D01*
X200444903Y-91518186D01*
X182213500Y-91518186D01*
X182213500Y-89568500D01*
X182066968Y-88831834D01*
X181649681Y-88207319D01*
X181025166Y-87790032D01*
X180288500Y-87643500D01*
X179551834Y-87790032D01*
X178927319Y-88207319D01*
X178510032Y-88831834D01*
X178472902Y-89018500D01*
X175462500Y-89018500D01*
X175252024Y-89060366D01*
X175073591Y-89179591D01*
X175023182Y-89230000D01*
X171086196Y-89230000D01*
X171027110Y-89087000D01*
X170682813Y-88742101D01*
X170232737Y-88555213D01*
X169745401Y-88554788D01*
X169295000Y-88740890D01*
X168950101Y-89085187D01*
X168763213Y-89535263D01*
X168762788Y-90022599D01*
X160340395Y-90022599D01*
X160400026Y-89997899D01*
X160543097Y-89761814D01*
X159488000Y-88706717D01*
X158432903Y-89761814D01*
X155500000Y-89761814D01*
X155500000Y-88249101D01*
X157782765Y-88249101D01*
X157805096Y-88923044D01*
X158020041Y-89441966D01*
X158256126Y-89585037D01*
X159311223Y-88529940D01*
X159664777Y-88529940D01*
X160719874Y-89585037D01*
X160955959Y-89441966D01*
X161193235Y-88810779D01*
X161170904Y-88136836D01*
X160955959Y-87617914D01*
X160719874Y-87474843D01*
X159664777Y-88529940D01*
X159311223Y-88529940D01*
X158256126Y-87474843D01*
X158020041Y-87617914D01*
X157782765Y-88249101D01*
X155500000Y-88249101D01*
X155500000Y-87298066D01*
X158432903Y-87298066D01*
X159488000Y-88353163D01*
X160391163Y-87450000D01*
X192266674Y-87450000D01*
X192266674Y-89050000D01*
X192296309Y-89207496D01*
X192389389Y-89352146D01*
X192531412Y-89449186D01*
X192700000Y-89483326D01*
X194300000Y-89483326D01*
X194457496Y-89453691D01*
X194602146Y-89360611D01*
X194699186Y-89218588D01*
X194733326Y-89050000D01*
X194733326Y-87979940D01*
X199796674Y-87979940D01*
X199796674Y-90519940D01*
X199826309Y-90677436D01*
X199919389Y-90822086D01*
X200061412Y-90919126D01*
X200230000Y-90953266D01*
X202770000Y-90953266D01*
X202927496Y-90923631D01*
X203072146Y-90830551D01*
X203169186Y-90688528D01*
X203203326Y-90519940D01*
X203203326Y-87979940D01*
X203173691Y-87822444D01*
X203080611Y-87677794D01*
X202938588Y-87580754D01*
X202770000Y-87546614D01*
X200230000Y-87546614D01*
X200072504Y-87576249D01*
X199927854Y-87669329D01*
X199830814Y-87811352D01*
X199796674Y-87979940D01*
X194733326Y-87979940D01*
X194733326Y-87450000D01*
X194703691Y-87292504D01*
X194610611Y-87147854D01*
X194468588Y-87050814D01*
X194300000Y-87016674D01*
X192700000Y-87016674D01*
X192542504Y-87046309D01*
X192397854Y-87139389D01*
X192300814Y-87281412D01*
X192266674Y-87450000D01*
X160391163Y-87450000D01*
X160543097Y-87298066D01*
X160400026Y-87061981D01*
X159768839Y-86824705D01*
X159094896Y-86847036D01*
X158575974Y-87061981D01*
X158432903Y-87298066D01*
X155500000Y-87298066D01*
X155500000Y-85643346D01*
X155735537Y-85837686D01*
X155967145Y-85606078D01*
X156143767Y-85783010D01*
X155912314Y-86014463D01*
X156229755Y-86399196D01*
X157378310Y-86874981D01*
X158621512Y-86875017D01*
X159770094Y-86399298D01*
X159770245Y-86399196D01*
X160087686Y-86014463D01*
X159856078Y-85782855D01*
X160033010Y-85606233D01*
X160264463Y-85837686D01*
X160502134Y-85641585D01*
X192785191Y-85641585D01*
X192870670Y-85828862D01*
X193331437Y-85987573D01*
X193817867Y-85957874D01*
X194129330Y-85828862D01*
X194214809Y-85641585D01*
X193500000Y-84926777D01*
X192785191Y-85641585D01*
X160502134Y-85641585D01*
X160649196Y-85520245D01*
X161124981Y-84371690D01*
X161125008Y-83420000D01*
X165282674Y-83420000D01*
X165282674Y-84220000D01*
X165312309Y-84377496D01*
X165405389Y-84522146D01*
X165547412Y-84619186D01*
X165716000Y-84653326D01*
X166516000Y-84653326D01*
X166673496Y-84623691D01*
X166818146Y-84530611D01*
X166847512Y-84487633D01*
X166861329Y-84501450D01*
X166942299Y-84420480D01*
X166978194Y-84566433D01*
X167293361Y-84658021D01*
X167619588Y-84622028D01*
X167753806Y-84566433D01*
X167789701Y-84420478D01*
X167366000Y-83996777D01*
X167351858Y-84010919D01*
X167175081Y-83834142D01*
X167189223Y-83820000D01*
X167542777Y-83820000D01*
X167850495Y-84127718D01*
X167916191Y-84286715D01*
X168148065Y-84518993D01*
X168451177Y-84644857D01*
X168779383Y-84645143D01*
X169082715Y-84519809D01*
X169182219Y-84420478D01*
X169442299Y-84420478D01*
X169478194Y-84566433D01*
X169793361Y-84658021D01*
X170119588Y-84622028D01*
X170253806Y-84566433D01*
X170289701Y-84420478D01*
X169866000Y-83996777D01*
X169442299Y-84420478D01*
X169182219Y-84420478D01*
X169314993Y-84287935D01*
X169381533Y-84127690D01*
X169689223Y-83820000D01*
X170042777Y-83820000D01*
X170350495Y-84127718D01*
X170416191Y-84286715D01*
X170648065Y-84518993D01*
X170951177Y-84644857D01*
X171279383Y-84645143D01*
X171582715Y-84519809D01*
X171682219Y-84420478D01*
X171942299Y-84420478D01*
X171978194Y-84566433D01*
X172293361Y-84658021D01*
X172619588Y-84622028D01*
X172753806Y-84566433D01*
X172789701Y-84420478D01*
X172366000Y-83996777D01*
X171942299Y-84420478D01*
X171682219Y-84420478D01*
X171814993Y-84287935D01*
X171881533Y-84127690D01*
X172189223Y-83820000D01*
X172542777Y-83820000D01*
X172850495Y-84127718D01*
X172916191Y-84286715D01*
X173148065Y-84518993D01*
X173451177Y-84644857D01*
X173779383Y-84645143D01*
X174082715Y-84519809D01*
X174182219Y-84420478D01*
X174442299Y-84420478D01*
X174478194Y-84566433D01*
X174793361Y-84658021D01*
X175119588Y-84622028D01*
X175217583Y-84581437D01*
X192262427Y-84581437D01*
X192292126Y-85067867D01*
X192421138Y-85379330D01*
X192608415Y-85464809D01*
X193323223Y-84750000D01*
X193676777Y-84750000D01*
X194391585Y-85464809D01*
X194578862Y-85379330D01*
X194737573Y-84918563D01*
X194707874Y-84432133D01*
X194578862Y-84120670D01*
X194391585Y-84035191D01*
X193676777Y-84750000D01*
X193323223Y-84750000D01*
X192608415Y-84035191D01*
X192421138Y-84120670D01*
X192262427Y-84581437D01*
X175217583Y-84581437D01*
X175253806Y-84566433D01*
X175289701Y-84420478D01*
X174866000Y-83996777D01*
X174442299Y-84420478D01*
X174182219Y-84420478D01*
X174314993Y-84287935D01*
X174381533Y-84127690D01*
X174689223Y-83820000D01*
X175042777Y-83820000D01*
X175466478Y-84243701D01*
X175612433Y-84207806D01*
X175704021Y-83892639D01*
X175700246Y-83858415D01*
X192785191Y-83858415D01*
X193500000Y-84573223D01*
X194214809Y-83858415D01*
X194129330Y-83671138D01*
X193668563Y-83512427D01*
X193182133Y-83542126D01*
X192870670Y-83671138D01*
X192785191Y-83858415D01*
X175700246Y-83858415D01*
X175668028Y-83566412D01*
X175612433Y-83432194D01*
X175466478Y-83396299D01*
X175042777Y-83820000D01*
X174689223Y-83820000D01*
X174381505Y-83512282D01*
X174315809Y-83353285D01*
X174182279Y-83219522D01*
X174442299Y-83219522D01*
X174866000Y-83643223D01*
X175289701Y-83219522D01*
X175253806Y-83073567D01*
X174938639Y-82981979D01*
X174612412Y-83017972D01*
X174478194Y-83073567D01*
X174442299Y-83219522D01*
X174182279Y-83219522D01*
X174083935Y-83121007D01*
X173780823Y-82995143D01*
X173452617Y-82994857D01*
X173149285Y-83120191D01*
X172917007Y-83352065D01*
X172850467Y-83512310D01*
X172542777Y-83820000D01*
X172189223Y-83820000D01*
X171881505Y-83512282D01*
X171815809Y-83353285D01*
X171682279Y-83219522D01*
X171942299Y-83219522D01*
X172366000Y-83643223D01*
X172789701Y-83219522D01*
X172753806Y-83073567D01*
X172438639Y-82981979D01*
X172112412Y-83017972D01*
X171978194Y-83073567D01*
X171942299Y-83219522D01*
X171682279Y-83219522D01*
X171583935Y-83121007D01*
X171280823Y-82995143D01*
X170952617Y-82994857D01*
X170649285Y-83120191D01*
X170417007Y-83352065D01*
X170350467Y-83512310D01*
X170042777Y-83820000D01*
X169689223Y-83820000D01*
X169381505Y-83512282D01*
X169315809Y-83353285D01*
X169182279Y-83219522D01*
X169442299Y-83219522D01*
X169866000Y-83643223D01*
X170289701Y-83219522D01*
X170253806Y-83073567D01*
X169938639Y-82981979D01*
X169612412Y-83017972D01*
X169478194Y-83073567D01*
X169442299Y-83219522D01*
X169182279Y-83219522D01*
X169083935Y-83121007D01*
X168780823Y-82995143D01*
X168452617Y-82994857D01*
X168149285Y-83120191D01*
X167917007Y-83352065D01*
X167850467Y-83512310D01*
X167542777Y-83820000D01*
X167189223Y-83820000D01*
X167175081Y-83805858D01*
X167351858Y-83629081D01*
X167366000Y-83643223D01*
X167789701Y-83219522D01*
X167753806Y-83073567D01*
X167438639Y-82981979D01*
X167112412Y-83017972D01*
X166978194Y-83073567D01*
X166942299Y-83219520D01*
X166861329Y-83138550D01*
X166848308Y-83151571D01*
X166826611Y-83117854D01*
X166684588Y-83020814D01*
X166516000Y-82986674D01*
X165716000Y-82986674D01*
X165558504Y-83016309D01*
X165413854Y-83109389D01*
X165316814Y-83251412D01*
X165282674Y-83420000D01*
X161125008Y-83420000D01*
X161125017Y-83128488D01*
X160649298Y-81979906D01*
X160649196Y-81979755D01*
X160264463Y-81662314D01*
X160032855Y-81893922D01*
X159856233Y-81716990D01*
X160087686Y-81485537D01*
X159893346Y-81250000D01*
X201106654Y-81250000D01*
X200912314Y-81485537D01*
X200912314Y-81485537D01*
G37*
X200912314Y-81485537D02*
X201143922Y-81717145D01*
X200966990Y-81893767D01*
X200735537Y-81662314D01*
X200350804Y-81979755D01*
X199875019Y-83128310D01*
X199874983Y-84371512D01*
X200350702Y-85520094D01*
X200350804Y-85520245D01*
X200735537Y-85837686D01*
X200967145Y-85606078D01*
X201143767Y-85783010D01*
X200912314Y-86014463D01*
X201229755Y-86399196D01*
X202378310Y-86874981D01*
X203621512Y-86875017D01*
X204770094Y-86399298D01*
X204770245Y-86399196D01*
X205087686Y-86014463D01*
X204856078Y-85782855D01*
X205033010Y-85606233D01*
X205264463Y-85837686D01*
X205500000Y-85643346D01*
X205500000Y-142856654D01*
X205264463Y-142662314D01*
X205032855Y-142893922D01*
X204856233Y-142716990D01*
X205087686Y-142485537D01*
X204770245Y-142100804D01*
X203621690Y-141625019D01*
X202378488Y-141624983D01*
X201229906Y-142100702D01*
X201229755Y-142100804D01*
X200912314Y-142485537D01*
X201143922Y-142717145D01*
X200966990Y-142893767D01*
X200735537Y-142662314D01*
X200350804Y-142979755D01*
X199875019Y-144128310D01*
X199874983Y-145371512D01*
X200350702Y-146520094D01*
X200350804Y-146520245D01*
X200735537Y-146837686D01*
X200967145Y-146606078D01*
X201143767Y-146783010D01*
X200912314Y-147014463D01*
X201106654Y-147250000D01*
X159906099Y-147250000D01*
X160075686Y-147044463D01*
X159844078Y-146812855D01*
X160021010Y-146636233D01*
X160252463Y-146867686D01*
X160637196Y-146550245D01*
X161112981Y-145401690D01*
X161113017Y-144158488D01*
X160637298Y-143009906D01*
X160637196Y-143009755D01*
X160252463Y-142692314D01*
X160020855Y-142923922D01*
X159844233Y-142746990D01*
X160075686Y-142515537D01*
X159758245Y-142130804D01*
X158778770Y-141725060D01*
X159256750Y-141725060D01*
X159363000Y-141618810D01*
X159363000Y-140155060D01*
X159613000Y-140155060D01*
X159613000Y-141618810D01*
X159719250Y-141725060D01*
X160842538Y-141725060D01*
X160998743Y-141660358D01*
X161118298Y-141540803D01*
X161183000Y-141384598D01*
X161183000Y-141240000D01*
X165698674Y-141240000D01*
X165698674Y-143240000D01*
X165728309Y-143397496D01*
X165821389Y-143542146D01*
X165963412Y-143639186D01*
X166132000Y-143673326D01*
X168132000Y-143673326D01*
X168289496Y-143643691D01*
X168434146Y-143550611D01*
X168531186Y-143408588D01*
X168557931Y-143276515D01*
X173772262Y-143276515D01*
X173882291Y-143484550D01*
X174415627Y-143676716D01*
X174981905Y-143650155D01*
X175381709Y-143484550D01*
X175491738Y-143276515D01*
X174632000Y-142416777D01*
X173772262Y-143276515D01*
X168557931Y-143276515D01*
X168565326Y-143240000D01*
X168565326Y-142023627D01*
X173195284Y-142023627D01*
X173221845Y-142589905D01*
X173387450Y-142989709D01*
X173595485Y-143099738D01*
X174455223Y-142240000D01*
X174808777Y-142240000D01*
X175668515Y-143099738D01*
X175876550Y-142989709D01*
X176068716Y-142456373D01*
X176042155Y-141890095D01*
X175876550Y-141490291D01*
X175668515Y-141380262D01*
X174808777Y-142240000D01*
X174455223Y-142240000D01*
X173595485Y-141380262D01*
X173387450Y-141490291D01*
X173195284Y-142023627D01*
X168565326Y-142023627D01*
X168565326Y-141240000D01*
X168558456Y-141203485D01*
X173772262Y-141203485D01*
X174632000Y-142063223D01*
X175491738Y-141203485D01*
X175381709Y-140995450D01*
X174848373Y-140803284D01*
X174282095Y-140829845D01*
X173882291Y-140995450D01*
X173772262Y-141203485D01*
X168558456Y-141203485D01*
X168535691Y-141082504D01*
X168442611Y-140937854D01*
X168300588Y-140840814D01*
X168132000Y-140806674D01*
X166132000Y-140806674D01*
X165974504Y-140836309D01*
X165829854Y-140929389D01*
X165732814Y-141071412D01*
X165698674Y-141240000D01*
X161183000Y-141240000D01*
X161183000Y-140261310D01*
X161076750Y-140155060D01*
X159613000Y-140155060D01*
X159363000Y-140155060D01*
X157899250Y-140155060D01*
X157793000Y-140261310D01*
X157793000Y-141384598D01*
X157857702Y-141540803D01*
X157971900Y-141655001D01*
X157366488Y-141654983D01*
X156217906Y-142130702D01*
X156217755Y-142130804D01*
X155900314Y-142515537D01*
X156131922Y-142747145D01*
X155954990Y-142923767D01*
X155723537Y-142692314D01*
X155500000Y-142876753D01*
X155500000Y-138675522D01*
X157793000Y-138675522D01*
X157793000Y-139798810D01*
X157899250Y-139905060D01*
X159363000Y-139905060D01*
X159363000Y-138441310D01*
X159613000Y-138441310D01*
X159613000Y-139905060D01*
X161076750Y-139905060D01*
X161183000Y-139798810D01*
X161183000Y-139008000D01*
X189374674Y-139008000D01*
X189374674Y-141408000D01*
X189404309Y-141565496D01*
X189497389Y-141710146D01*
X189639412Y-141807186D01*
X189808000Y-141841326D01*
X192208000Y-141841326D01*
X192365496Y-141811691D01*
X192510146Y-141718611D01*
X192607186Y-141576588D01*
X192641326Y-141408000D01*
X192641326Y-139639249D01*
X201403527Y-139639249D01*
X201538039Y-139868061D01*
X202143868Y-140093646D01*
X202789908Y-140070219D01*
X203277961Y-139868061D01*
X203412473Y-139639249D01*
X202408000Y-138634777D01*
X201403527Y-139639249D01*
X192641326Y-139639249D01*
X192641326Y-139008000D01*
X192611691Y-138850504D01*
X192518611Y-138705854D01*
X192376588Y-138608814D01*
X192208000Y-138574674D01*
X189808000Y-138574674D01*
X189650504Y-138604309D01*
X189505854Y-138697389D01*
X189408814Y-138839412D01*
X189374674Y-139008000D01*
X161183000Y-139008000D01*
X161183000Y-138675522D01*
X161118298Y-138519317D01*
X160998743Y-138399762D01*
X160842538Y-138335060D01*
X159719250Y-138335060D01*
X159613000Y-138441310D01*
X159363000Y-138441310D01*
X159256750Y-138335060D01*
X158133462Y-138335060D01*
X157977257Y-138399762D01*
X157857702Y-138519317D01*
X157793000Y-138675522D01*
X155500000Y-138675522D01*
X155500000Y-136865617D01*
X157792706Y-136865617D01*
X158050211Y-137488826D01*
X158526606Y-137966053D01*
X159149365Y-138224645D01*
X159823677Y-138225234D01*
X160446886Y-137967729D01*
X160924113Y-137491334D01*
X161115752Y-137029814D01*
X189382718Y-137029814D01*
X189629588Y-137627286D01*
X190086309Y-138084805D01*
X190683349Y-138332718D01*
X191329814Y-138333282D01*
X191667222Y-138193868D01*
X200772354Y-138193868D01*
X200795781Y-138839908D01*
X200997939Y-139327961D01*
X201226751Y-139462473D01*
X202231223Y-138458000D01*
X202584777Y-138458000D01*
X203589249Y-139462473D01*
X203818061Y-139327961D01*
X204043646Y-138722132D01*
X204020219Y-138076092D01*
X203818061Y-137588039D01*
X203589249Y-137453527D01*
X202584777Y-138458000D01*
X202231223Y-138458000D01*
X201226751Y-137453527D01*
X200997939Y-137588039D01*
X200772354Y-138193868D01*
X191667222Y-138193868D01*
X191927286Y-138086412D01*
X192384805Y-137629691D01*
X192531358Y-137276751D01*
X201403527Y-137276751D01*
X202408000Y-138281223D01*
X203412473Y-137276751D01*
X203277961Y-137047939D01*
X202672132Y-136822354D01*
X202026092Y-136845781D01*
X201538039Y-137047939D01*
X201403527Y-137276751D01*
X192531358Y-137276751D01*
X192632718Y-137032651D01*
X192633282Y-136386186D01*
X192531250Y-136139249D01*
X201403527Y-136139249D01*
X201538039Y-136368061D01*
X202143868Y-136593646D01*
X202789908Y-136570219D01*
X203277961Y-136368061D01*
X203412473Y-136139249D01*
X202408000Y-135134777D01*
X201403527Y-136139249D01*
X192531250Y-136139249D01*
X192386412Y-135788714D01*
X191929691Y-135331195D01*
X191332651Y-135083282D01*
X190686186Y-135082718D01*
X190088714Y-135329588D01*
X189631195Y-135786309D01*
X189383282Y-136383349D01*
X189382718Y-137029814D01*
X161115752Y-137029814D01*
X161182705Y-136868575D01*
X161183294Y-136194263D01*
X160925789Y-135571054D01*
X160449394Y-135093827D01*
X159826635Y-134835235D01*
X159152323Y-134834646D01*
X158529114Y-135092151D01*
X158051887Y-135568546D01*
X157793295Y-136191305D01*
X157792706Y-136865617D01*
X155500000Y-136865617D01*
X155500000Y-133529814D01*
X189382718Y-133529814D01*
X189629588Y-134127286D01*
X190086309Y-134584805D01*
X190683349Y-134832718D01*
X191329814Y-134833282D01*
X191667222Y-134693868D01*
X200772354Y-134693868D01*
X200795781Y-135339908D01*
X200997939Y-135827961D01*
X201226751Y-135962473D01*
X202231223Y-134958000D01*
X202584777Y-134958000D01*
X203589249Y-135962473D01*
X203818061Y-135827961D01*
X204043646Y-135222132D01*
X204020219Y-134576092D01*
X203818061Y-134088039D01*
X203589249Y-133953527D01*
X202584777Y-134958000D01*
X202231223Y-134958000D01*
X201226751Y-133953527D01*
X200997939Y-134088039D01*
X200772354Y-134693868D01*
X191667222Y-134693868D01*
X191927286Y-134586412D01*
X192384805Y-134129691D01*
X192531358Y-133776751D01*
X201403527Y-133776751D01*
X202408000Y-134781223D01*
X203412473Y-133776751D01*
X203277961Y-133547939D01*
X202672132Y-133322354D01*
X202026092Y-133345781D01*
X201538039Y-133547939D01*
X201403527Y-133776751D01*
X192531358Y-133776751D01*
X192632718Y-133532651D01*
X192633282Y-132886186D01*
X192531250Y-132639249D01*
X201403527Y-132639249D01*
X201538039Y-132868061D01*
X202143868Y-133093646D01*
X202789908Y-133070219D01*
X203277961Y-132868061D01*
X203412473Y-132639249D01*
X202408000Y-131634777D01*
X201403527Y-132639249D01*
X192531250Y-132639249D01*
X192386412Y-132288714D01*
X191929691Y-131831195D01*
X191332651Y-131583282D01*
X190686186Y-131582718D01*
X190088714Y-131829588D01*
X189631195Y-132286309D01*
X189383282Y-132883349D01*
X189382718Y-133529814D01*
X155500000Y-133529814D01*
X155500000Y-132556476D01*
X155704151Y-132760984D01*
X156411414Y-133054665D01*
X157177226Y-133055333D01*
X157885000Y-132762887D01*
X158426984Y-132221849D01*
X158481309Y-132091019D01*
X158563113Y-132289000D01*
X159104151Y-132830984D01*
X159811414Y-133124665D01*
X160577226Y-133125333D01*
X161084855Y-132915585D01*
X183181191Y-132915585D01*
X183266670Y-133102862D01*
X183727437Y-133261573D01*
X184213867Y-133231874D01*
X184525330Y-133102862D01*
X184610809Y-132915585D01*
X183896000Y-132200777D01*
X183181191Y-132915585D01*
X161084855Y-132915585D01*
X161285000Y-132832887D01*
X161826984Y-132291849D01*
X162008197Y-131855437D01*
X182658427Y-131855437D01*
X182688126Y-132341867D01*
X182817138Y-132653330D01*
X183004415Y-132738809D01*
X183719223Y-132024000D01*
X184072777Y-132024000D01*
X184787585Y-132738809D01*
X184974862Y-132653330D01*
X185133573Y-132192563D01*
X185103874Y-131706133D01*
X184974862Y-131394670D01*
X184787585Y-131309191D01*
X184072777Y-132024000D01*
X183719223Y-132024000D01*
X183004415Y-131309191D01*
X182817138Y-131394670D01*
X182658427Y-131855437D01*
X162008197Y-131855437D01*
X162120665Y-131584586D01*
X162121333Y-130818774D01*
X161828887Y-130111000D01*
X161287849Y-129569016D01*
X160580586Y-129275335D01*
X159814774Y-129274667D01*
X159107000Y-129567113D01*
X158565016Y-130108151D01*
X158510691Y-130238981D01*
X158428887Y-130041000D01*
X157887849Y-129499016D01*
X157180586Y-129205335D01*
X156414774Y-129204667D01*
X155707000Y-129497113D01*
X155500000Y-129703752D01*
X155500000Y-123176579D01*
X162481874Y-123176579D01*
X162592016Y-123443143D01*
X162795784Y-123647267D01*
X163062156Y-123757874D01*
X163350579Y-123758126D01*
X163617143Y-123647984D01*
X163682241Y-123583000D01*
X165271629Y-123583000D01*
X165335784Y-123647267D01*
X165602156Y-123757874D01*
X165890579Y-123758126D01*
X166157143Y-123647984D01*
X166361267Y-123444216D01*
X166471874Y-123177844D01*
X166471954Y-123085863D01*
X167498817Y-122059000D01*
X170192000Y-122059000D01*
X170402476Y-122017134D01*
X170580909Y-121897909D01*
X171768771Y-120710047D01*
X171859579Y-120710126D01*
X172126143Y-120599984D01*
X172245500Y-120480835D01*
X172245500Y-121598682D01*
X170139229Y-123704953D01*
X170048421Y-123704874D01*
X169781857Y-123815016D01*
X169577733Y-124018784D01*
X169467126Y-124285156D01*
X169466874Y-124573579D01*
X169577016Y-124840143D01*
X169780784Y-125044267D01*
X170047156Y-125154874D01*
X170335579Y-125155126D01*
X170602143Y-125044984D01*
X170806267Y-124841216D01*
X170916874Y-124574844D01*
X170916954Y-124482864D01*
X173184409Y-122215409D01*
X173303634Y-122036976D01*
X173345500Y-121826500D01*
X173345500Y-115546349D01*
X173388819Y-115611181D01*
X173825000Y-115902627D01*
X173825000Y-129750000D01*
X173971532Y-130486666D01*
X174388819Y-131111181D01*
X175013334Y-131528468D01*
X175750000Y-131675000D01*
X177250000Y-131675000D01*
X177986666Y-131528468D01*
X178579402Y-131132415D01*
X183181191Y-131132415D01*
X183896000Y-131847223D01*
X184610809Y-131132415D01*
X184525330Y-130945138D01*
X184064563Y-130786427D01*
X183578133Y-130816126D01*
X183266670Y-130945138D01*
X183181191Y-131132415D01*
X178579402Y-131132415D01*
X178611181Y-131111181D01*
X179028468Y-130486666D01*
X179119341Y-130029814D01*
X189382718Y-130029814D01*
X189629588Y-130627286D01*
X190086309Y-131084805D01*
X190683349Y-131332718D01*
X191329814Y-131333282D01*
X191667222Y-131193868D01*
X200772354Y-131193868D01*
X200795781Y-131839908D01*
X200997939Y-132327961D01*
X201226751Y-132462473D01*
X202231223Y-131458000D01*
X202584777Y-131458000D01*
X203589249Y-132462473D01*
X203818061Y-132327961D01*
X204043646Y-131722132D01*
X204020219Y-131076092D01*
X203818061Y-130588039D01*
X203589249Y-130453527D01*
X202584777Y-131458000D01*
X202231223Y-131458000D01*
X201226751Y-130453527D01*
X200997939Y-130588039D01*
X200772354Y-131193868D01*
X191667222Y-131193868D01*
X191927286Y-131086412D01*
X192384805Y-130629691D01*
X192531358Y-130276751D01*
X201403527Y-130276751D01*
X202408000Y-131281223D01*
X203412473Y-130276751D01*
X203277961Y-130047939D01*
X202672132Y-129822354D01*
X202026092Y-129845781D01*
X201538039Y-130047939D01*
X201403527Y-130276751D01*
X192531358Y-130276751D01*
X192632718Y-130032651D01*
X192633282Y-129386186D01*
X192531250Y-129139249D01*
X201403527Y-129139249D01*
X201538039Y-129368061D01*
X202143868Y-129593646D01*
X202789908Y-129570219D01*
X203277961Y-129368061D01*
X203412473Y-129139249D01*
X202408000Y-128134777D01*
X201403527Y-129139249D01*
X192531250Y-129139249D01*
X192386412Y-128788714D01*
X191929691Y-128331195D01*
X191332651Y-128083282D01*
X190686186Y-128082718D01*
X190088714Y-128329588D01*
X189631195Y-128786309D01*
X189383282Y-129383349D01*
X189382718Y-130029814D01*
X179119341Y-130029814D01*
X179175000Y-129750000D01*
X179028468Y-129013334D01*
X178611181Y-128388819D01*
X177986666Y-127971532D01*
X177675000Y-127909538D01*
X177675000Y-127724000D01*
X182662674Y-127724000D01*
X182662674Y-129324000D01*
X182692309Y-129481496D01*
X182785389Y-129626146D01*
X182927412Y-129723186D01*
X183096000Y-129757326D01*
X184696000Y-129757326D01*
X184853496Y-129727691D01*
X184998146Y-129634611D01*
X185095186Y-129492588D01*
X185129326Y-129324000D01*
X185129326Y-127724000D01*
X185099691Y-127566504D01*
X185006611Y-127421854D01*
X184864588Y-127324814D01*
X184696000Y-127290674D01*
X183096000Y-127290674D01*
X182938504Y-127320309D01*
X182793854Y-127413389D01*
X182696814Y-127555412D01*
X182662674Y-127724000D01*
X177675000Y-127724000D01*
X177675000Y-126529814D01*
X189382718Y-126529814D01*
X189629588Y-127127286D01*
X190086309Y-127584805D01*
X190683349Y-127832718D01*
X191329814Y-127833282D01*
X191667222Y-127693868D01*
X200772354Y-127693868D01*
X200795781Y-128339908D01*
X200997939Y-128827961D01*
X201226751Y-128962473D01*
X202231223Y-127958000D01*
X202584777Y-127958000D01*
X203589249Y-128962473D01*
X203818061Y-128827961D01*
X204043646Y-128222132D01*
X204020219Y-127576092D01*
X203818061Y-127088039D01*
X203589249Y-126953527D01*
X202584777Y-127958000D01*
X202231223Y-127958000D01*
X201226751Y-126953527D01*
X200997939Y-127088039D01*
X200772354Y-127693868D01*
X191667222Y-127693868D01*
X191927286Y-127586412D01*
X192384805Y-127129691D01*
X192531358Y-126776751D01*
X201403527Y-126776751D01*
X202408000Y-127781223D01*
X203412473Y-126776751D01*
X203277961Y-126547939D01*
X202672132Y-126322354D01*
X202026092Y-126345781D01*
X201538039Y-126547939D01*
X201403527Y-126776751D01*
X192531358Y-126776751D01*
X192632718Y-126532651D01*
X192633282Y-125886186D01*
X192531250Y-125639249D01*
X201403527Y-125639249D01*
X201538039Y-125868061D01*
X202143868Y-126093646D01*
X202789908Y-126070219D01*
X203277961Y-125868061D01*
X203412473Y-125639249D01*
X202408000Y-124634777D01*
X201403527Y-125639249D01*
X192531250Y-125639249D01*
X192386412Y-125288714D01*
X191929691Y-124831195D01*
X191332651Y-124583282D01*
X190686186Y-124582718D01*
X190088714Y-124829588D01*
X189631195Y-125286309D01*
X189383282Y-125883349D01*
X189382718Y-126529814D01*
X177675000Y-126529814D01*
X177675000Y-123075000D01*
X180987000Y-123075000D01*
X181197476Y-123033134D01*
X181375909Y-122913909D01*
X182182771Y-122107047D01*
X182273579Y-122107126D01*
X182540143Y-121996984D01*
X182744267Y-121793216D01*
X182854874Y-121526844D01*
X182855126Y-121238421D01*
X182744984Y-120971857D01*
X182541216Y-120767733D01*
X182274844Y-120657126D01*
X181986421Y-120656874D01*
X181719857Y-120767016D01*
X181515733Y-120970784D01*
X181405126Y-121237156D01*
X181405046Y-121329136D01*
X181140538Y-121593644D01*
X181140626Y-121492421D01*
X181030484Y-121225857D01*
X180826716Y-121021733D01*
X180776992Y-121001086D01*
X180825643Y-120980984D01*
X181029767Y-120777216D01*
X181140374Y-120510844D01*
X181140626Y-120222421D01*
X181030484Y-119955857D01*
X180965500Y-119890759D01*
X180965500Y-115824000D01*
X185723793Y-115824000D01*
X185833483Y-116375447D01*
X186145852Y-116842941D01*
X186521589Y-117094000D01*
X186145852Y-117345059D01*
X185833483Y-117812553D01*
X185723793Y-118364000D01*
X185833483Y-118915447D01*
X186145852Y-119382941D01*
X186521589Y-119634000D01*
X186145852Y-119885059D01*
X185833483Y-120352553D01*
X185723793Y-120904000D01*
X185833483Y-121455447D01*
X186145852Y-121922941D01*
X186521589Y-122174000D01*
X186145852Y-122425059D01*
X185833483Y-122892553D01*
X185723793Y-123444000D01*
X185833483Y-123995447D01*
X186145852Y-124462941D01*
X186613346Y-124775310D01*
X187164793Y-124885000D01*
X187739207Y-124885000D01*
X188290654Y-124775310D01*
X188758148Y-124462941D01*
X188937936Y-124193868D01*
X200772354Y-124193868D01*
X200795781Y-124839908D01*
X200997939Y-125327961D01*
X201226751Y-125462473D01*
X202231223Y-124458000D01*
X202584777Y-124458000D01*
X203589249Y-125462473D01*
X203818061Y-125327961D01*
X204043646Y-124722132D01*
X204020219Y-124076092D01*
X203818061Y-123588039D01*
X203589249Y-123453527D01*
X202584777Y-124458000D01*
X202231223Y-124458000D01*
X201226751Y-123453527D01*
X200997939Y-123588039D01*
X200772354Y-124193868D01*
X188937936Y-124193868D01*
X189070517Y-123995447D01*
X189180207Y-123444000D01*
X189146939Y-123276751D01*
X201403527Y-123276751D01*
X202408000Y-124281223D01*
X203412473Y-123276751D01*
X203277961Y-123047939D01*
X202672132Y-122822354D01*
X202026092Y-122845781D01*
X201538039Y-123047939D01*
X201403527Y-123276751D01*
X189146939Y-123276751D01*
X189070517Y-122892553D01*
X188758148Y-122425059D01*
X188382411Y-122174000D01*
X188758148Y-121922941D01*
X189070517Y-121455447D01*
X189180207Y-120904000D01*
X189070517Y-120352553D01*
X188758148Y-119885059D01*
X188487174Y-119704000D01*
X189374674Y-119704000D01*
X189374674Y-122104000D01*
X189404309Y-122261496D01*
X189497389Y-122406146D01*
X189639412Y-122503186D01*
X189808000Y-122537326D01*
X192208000Y-122537326D01*
X192365496Y-122507691D01*
X192510146Y-122414611D01*
X192607186Y-122272588D01*
X192641326Y-122104000D01*
X192641326Y-120335249D01*
X201403527Y-120335249D01*
X201538039Y-120564061D01*
X202143868Y-120789646D01*
X202789908Y-120766219D01*
X203277961Y-120564061D01*
X203412473Y-120335249D01*
X202408000Y-119330777D01*
X201403527Y-120335249D01*
X192641326Y-120335249D01*
X192641326Y-119704000D01*
X192611691Y-119546504D01*
X192518611Y-119401854D01*
X192376588Y-119304814D01*
X192208000Y-119270674D01*
X189808000Y-119270674D01*
X189650504Y-119300309D01*
X189505854Y-119393389D01*
X189408814Y-119535412D01*
X189374674Y-119704000D01*
X188487174Y-119704000D01*
X188382411Y-119634000D01*
X188758148Y-119382941D01*
X189070517Y-118915447D01*
X189180207Y-118364000D01*
X189070517Y-117812553D01*
X189012560Y-117725814D01*
X189382718Y-117725814D01*
X189629588Y-118323286D01*
X190086309Y-118780805D01*
X190683349Y-119028718D01*
X191329814Y-119029282D01*
X191667222Y-118889868D01*
X200772354Y-118889868D01*
X200795781Y-119535908D01*
X200997939Y-120023961D01*
X201226751Y-120158473D01*
X202231223Y-119154000D01*
X202584777Y-119154000D01*
X203589249Y-120158473D01*
X203818061Y-120023961D01*
X204043646Y-119418132D01*
X204020219Y-118772092D01*
X203818061Y-118284039D01*
X203589249Y-118149527D01*
X202584777Y-119154000D01*
X202231223Y-119154000D01*
X201226751Y-118149527D01*
X200997939Y-118284039D01*
X200772354Y-118889868D01*
X191667222Y-118889868D01*
X191927286Y-118782412D01*
X192384805Y-118325691D01*
X192531358Y-117972751D01*
X201403527Y-117972751D01*
X202408000Y-118977223D01*
X203412473Y-117972751D01*
X203277961Y-117743939D01*
X202672132Y-117518354D01*
X202026092Y-117541781D01*
X201538039Y-117743939D01*
X201403527Y-117972751D01*
X192531358Y-117972751D01*
X192632718Y-117728651D01*
X192633282Y-117082186D01*
X192531250Y-116835249D01*
X201403527Y-116835249D01*
X201538039Y-117064061D01*
X202143868Y-117289646D01*
X202789908Y-117266219D01*
X203277961Y-117064061D01*
X203412473Y-116835249D01*
X202408000Y-115830777D01*
X201403527Y-116835249D01*
X192531250Y-116835249D01*
X192386412Y-116484714D01*
X191929691Y-116027195D01*
X191332651Y-115779282D01*
X190686186Y-115778718D01*
X190088714Y-116025588D01*
X189631195Y-116482309D01*
X189383282Y-117079349D01*
X189382718Y-117725814D01*
X189012560Y-117725814D01*
X188758148Y-117345059D01*
X188382411Y-117094000D01*
X188758148Y-116842941D01*
X189070517Y-116375447D01*
X189180207Y-115824000D01*
X189070517Y-115272553D01*
X188758148Y-114805059D01*
X188386411Y-114556673D01*
X188799275Y-114225814D01*
X189382718Y-114225814D01*
X189629588Y-114823286D01*
X190086309Y-115280805D01*
X190683349Y-115528718D01*
X191329814Y-115529282D01*
X191667222Y-115389868D01*
X200772354Y-115389868D01*
X200795781Y-116035908D01*
X200997939Y-116523961D01*
X201226751Y-116658473D01*
X202231223Y-115654000D01*
X202584777Y-115654000D01*
X203589249Y-116658473D01*
X203818061Y-116523961D01*
X204043646Y-115918132D01*
X204020219Y-115272092D01*
X203818061Y-114784039D01*
X203589249Y-114649527D01*
X202584777Y-115654000D01*
X202231223Y-115654000D01*
X201226751Y-114649527D01*
X200997939Y-114784039D01*
X200772354Y-115389868D01*
X191667222Y-115389868D01*
X191927286Y-115282412D01*
X192384805Y-114825691D01*
X192531358Y-114472751D01*
X201403527Y-114472751D01*
X202408000Y-115477223D01*
X203412473Y-114472751D01*
X203277961Y-114243939D01*
X202672132Y-114018354D01*
X202026092Y-114041781D01*
X201538039Y-114243939D01*
X201403527Y-114472751D01*
X192531358Y-114472751D01*
X192632718Y-114228651D01*
X192633282Y-113582186D01*
X192531250Y-113335249D01*
X201403527Y-113335249D01*
X201538039Y-113564061D01*
X202143868Y-113789646D01*
X202789908Y-113766219D01*
X203277961Y-113564061D01*
X203412473Y-113335249D01*
X202408000Y-112330777D01*
X201403527Y-113335249D01*
X192531250Y-113335249D01*
X192386412Y-112984714D01*
X191929691Y-112527195D01*
X191332651Y-112279282D01*
X190686186Y-112278718D01*
X190088714Y-112525588D01*
X189631195Y-112982309D01*
X189383282Y-113579349D01*
X189382718Y-114225814D01*
X188799275Y-114225814D01*
X188813329Y-114214552D01*
X189085145Y-113719961D01*
X189104339Y-113632033D01*
X189034884Y-113409000D01*
X187577000Y-113409000D01*
X187577000Y-113429000D01*
X187327000Y-113429000D01*
X187327000Y-113409000D01*
X185869116Y-113409000D01*
X185799661Y-113632033D01*
X185818855Y-113719961D01*
X186090671Y-114214552D01*
X186517589Y-114556673D01*
X186145852Y-114805059D01*
X185833483Y-115272553D01*
X185723793Y-115824000D01*
X180965500Y-115824000D01*
X180965500Y-113635005D01*
X180965501Y-113635000D01*
X180923634Y-113424524D01*
X180804409Y-113246091D01*
X178650351Y-111092033D01*
X185799661Y-111092033D01*
X185818855Y-111179961D01*
X186090671Y-111674552D01*
X186514253Y-112014000D01*
X186090671Y-112353448D01*
X185818855Y-112848039D01*
X185799661Y-112935967D01*
X185869116Y-113159000D01*
X187327000Y-113159000D01*
X187327000Y-110869000D01*
X187577000Y-110869000D01*
X187577000Y-113159000D01*
X189034884Y-113159000D01*
X189104339Y-112935967D01*
X189085145Y-112848039D01*
X188813329Y-112353448D01*
X188389747Y-112014000D01*
X188544645Y-111889868D01*
X200772354Y-111889868D01*
X200795781Y-112535908D01*
X200997939Y-113023961D01*
X201226751Y-113158473D01*
X202231223Y-112154000D01*
X202584777Y-112154000D01*
X203589249Y-113158473D01*
X203818061Y-113023961D01*
X204043646Y-112418132D01*
X204020219Y-111772092D01*
X203818061Y-111284039D01*
X203589249Y-111149527D01*
X202584777Y-112154000D01*
X202231223Y-112154000D01*
X201226751Y-111149527D01*
X200997939Y-111284039D01*
X200772354Y-111889868D01*
X188544645Y-111889868D01*
X188813329Y-111674552D01*
X189085145Y-111179961D01*
X189104339Y-111092033D01*
X189067194Y-110972751D01*
X201403527Y-110972751D01*
X202408000Y-111977223D01*
X203412473Y-110972751D01*
X203277961Y-110743939D01*
X202672132Y-110518354D01*
X202026092Y-110541781D01*
X201538039Y-110743939D01*
X201403527Y-110972751D01*
X189067194Y-110972751D01*
X189034884Y-110869000D01*
X187577000Y-110869000D01*
X187327000Y-110869000D01*
X185869116Y-110869000D01*
X185799661Y-111092033D01*
X178650351Y-111092033D01*
X177203547Y-109645229D01*
X177203626Y-109554421D01*
X177093484Y-109287857D01*
X176889716Y-109083733D01*
X176623344Y-108973126D01*
X176334921Y-108972874D01*
X176068357Y-109083016D01*
X175864233Y-109286784D01*
X175753626Y-109553156D01*
X175753374Y-109841579D01*
X175863516Y-110108143D01*
X176067284Y-110312267D01*
X176333656Y-110422874D01*
X176425636Y-110422954D01*
X179865500Y-113862818D01*
X179865500Y-119890629D01*
X179801233Y-119954784D01*
X179716401Y-120159083D01*
X179695500Y-120138182D01*
X179695500Y-114270005D01*
X179695501Y-114270000D01*
X179653634Y-114059524D01*
X179534409Y-113881091D01*
X179534406Y-113881089D01*
X175616047Y-109962729D01*
X175616126Y-109871921D01*
X175505984Y-109605357D01*
X175302216Y-109401233D01*
X175035844Y-109290626D01*
X174747421Y-109290374D01*
X174480857Y-109400516D01*
X174276733Y-109604284D01*
X174166126Y-109870656D01*
X174165874Y-110159079D01*
X174276016Y-110425643D01*
X174479784Y-110629767D01*
X174746156Y-110740374D01*
X174838136Y-110740454D01*
X176465559Y-112367877D01*
X176250000Y-112324999D01*
X176249995Y-112325000D01*
X174750000Y-112325000D01*
X174013334Y-112471532D01*
X173388819Y-112888819D01*
X173163841Y-113225524D01*
X171298047Y-111359729D01*
X171298126Y-111268921D01*
X171187984Y-111002357D01*
X170984216Y-110798233D01*
X170717844Y-110687626D01*
X170429421Y-110687374D01*
X170162857Y-110797516D01*
X169958733Y-111001284D01*
X169848126Y-111267656D01*
X169847874Y-111556079D01*
X169958016Y-111822643D01*
X170161784Y-112026767D01*
X170428156Y-112137374D01*
X170520137Y-112137454D01*
X172245500Y-113862817D01*
X172245500Y-115970164D01*
X172161216Y-115885733D01*
X171894844Y-115775126D01*
X171802863Y-115775046D01*
X165050000Y-109022182D01*
X165050000Y-108552033D01*
X185799661Y-108552033D01*
X185818855Y-108639961D01*
X186090671Y-109134552D01*
X186514253Y-109474000D01*
X186090671Y-109813448D01*
X185818855Y-110308039D01*
X185799661Y-110395967D01*
X185869116Y-110619000D01*
X187327000Y-110619000D01*
X187327000Y-108329000D01*
X187577000Y-108329000D01*
X187577000Y-110619000D01*
X189034884Y-110619000D01*
X189104339Y-110395967D01*
X189085145Y-110308039D01*
X188813329Y-109813448D01*
X188389747Y-109474000D01*
X188813329Y-109134552D01*
X189085145Y-108639961D01*
X189104339Y-108552033D01*
X189034884Y-108329000D01*
X187577000Y-108329000D01*
X187327000Y-108329000D01*
X185869116Y-108329000D01*
X185799661Y-108552033D01*
X165050000Y-108552033D01*
X165050000Y-106050000D01*
X166524629Y-106050000D01*
X166588784Y-106114267D01*
X166855156Y-106224874D01*
X167143579Y-106225126D01*
X167410143Y-106114984D01*
X167513273Y-106012033D01*
X185799661Y-106012033D01*
X185818855Y-106099961D01*
X186090671Y-106594552D01*
X186514253Y-106934000D01*
X186090671Y-107273448D01*
X185818855Y-107768039D01*
X185799661Y-107855967D01*
X185869116Y-108079000D01*
X187327000Y-108079000D01*
X187327000Y-105789000D01*
X187577000Y-105789000D01*
X187577000Y-108079000D01*
X189034884Y-108079000D01*
X189104339Y-107855967D01*
X189085145Y-107768039D01*
X188944432Y-107512000D01*
X189374674Y-107512000D01*
X189374674Y-109912000D01*
X189404309Y-110069496D01*
X189497389Y-110214146D01*
X189639412Y-110311186D01*
X189808000Y-110345326D01*
X192208000Y-110345326D01*
X192365496Y-110315691D01*
X192510146Y-110222611D01*
X192607186Y-110080588D01*
X192641326Y-109912000D01*
X192641326Y-108143249D01*
X201403527Y-108143249D01*
X201538039Y-108372061D01*
X202143868Y-108597646D01*
X202789908Y-108574219D01*
X203277961Y-108372061D01*
X203412473Y-108143249D01*
X202408000Y-107138777D01*
X201403527Y-108143249D01*
X192641326Y-108143249D01*
X192641326Y-107512000D01*
X192611691Y-107354504D01*
X192518611Y-107209854D01*
X192376588Y-107112814D01*
X192208000Y-107078674D01*
X189808000Y-107078674D01*
X189650504Y-107108309D01*
X189505854Y-107201389D01*
X189408814Y-107343412D01*
X189374674Y-107512000D01*
X188944432Y-107512000D01*
X188813329Y-107273448D01*
X188389747Y-106934000D01*
X188813329Y-106594552D01*
X189085145Y-106099961D01*
X189104339Y-106012033D01*
X189034884Y-105789000D01*
X187577000Y-105789000D01*
X187327000Y-105789000D01*
X185869116Y-105789000D01*
X185799661Y-106012033D01*
X167513273Y-106012033D01*
X167614267Y-105911216D01*
X167724874Y-105644844D01*
X167725126Y-105356421D01*
X167614984Y-105089857D01*
X167411216Y-104885733D01*
X167384369Y-104874585D01*
X172073191Y-104874585D01*
X172158670Y-105061862D01*
X172619437Y-105220573D01*
X173105867Y-105190874D01*
X173417330Y-105061862D01*
X173502809Y-104874585D01*
X172788000Y-104159777D01*
X172073191Y-104874585D01*
X167384369Y-104874585D01*
X167144844Y-104775126D01*
X166856421Y-104774874D01*
X166589857Y-104885016D01*
X166524759Y-104950000D01*
X164975371Y-104950000D01*
X164911216Y-104885733D01*
X164644844Y-104775126D01*
X164356421Y-104774874D01*
X164089857Y-104885016D01*
X163885733Y-105088784D01*
X163775126Y-105355156D01*
X163774874Y-105643579D01*
X163885016Y-105910143D01*
X163950000Y-105975241D01*
X163950000Y-109250000D01*
X163991866Y-109460476D01*
X164111091Y-109638909D01*
X171024953Y-116552770D01*
X171024874Y-116643579D01*
X171135016Y-116910143D01*
X171338784Y-117114267D01*
X171605156Y-117224874D01*
X171893579Y-117225126D01*
X172160143Y-117114984D01*
X172245500Y-117029776D01*
X172245500Y-119489224D01*
X172127216Y-119370733D01*
X171860844Y-119260126D01*
X171572421Y-119259874D01*
X171305857Y-119370016D01*
X171101733Y-119573784D01*
X170991126Y-119840156D01*
X170991046Y-119932137D01*
X169964182Y-120959000D01*
X167271000Y-120959000D01*
X167060524Y-121000866D01*
X166882091Y-121120091D01*
X166882089Y-121120094D01*
X165694229Y-122307953D01*
X165603421Y-122307874D01*
X165336857Y-122418016D01*
X165271759Y-122483000D01*
X163682371Y-122483000D01*
X163618216Y-122418733D01*
X163351844Y-122308126D01*
X163063421Y-122307874D01*
X162796857Y-122418016D01*
X162592733Y-122621784D01*
X162482126Y-122888156D01*
X162481874Y-123176579D01*
X155500000Y-123176579D01*
X155500000Y-119156476D01*
X155704151Y-119360984D01*
X156411414Y-119654665D01*
X157177226Y-119655333D01*
X157885000Y-119362887D01*
X158426984Y-118821849D01*
X158495807Y-118656106D01*
X158563113Y-118819000D01*
X159104151Y-119360984D01*
X159811414Y-119654665D01*
X160577226Y-119655333D01*
X161285000Y-119362887D01*
X161826984Y-118821849D01*
X162051979Y-118280000D01*
X164352182Y-118280000D01*
X166611091Y-120538909D01*
X166789524Y-120658134D01*
X167000000Y-120700001D01*
X167000005Y-120700000D01*
X167924629Y-120700000D01*
X167988784Y-120764267D01*
X168255156Y-120874874D01*
X168543579Y-120875126D01*
X168810143Y-120764984D01*
X169014267Y-120561216D01*
X169124874Y-120294844D01*
X169125126Y-120006421D01*
X169014984Y-119739857D01*
X168811216Y-119535733D01*
X168544844Y-119425126D01*
X168256421Y-119424874D01*
X167989857Y-119535016D01*
X167924759Y-119600000D01*
X167227818Y-119600000D01*
X164968909Y-117341091D01*
X164790476Y-117221866D01*
X164580000Y-117180000D01*
X162051597Y-117180000D01*
X161828887Y-116641000D01*
X161287849Y-116099016D01*
X160580586Y-115805335D01*
X159814774Y-115804667D01*
X159107000Y-116097113D01*
X158565016Y-116638151D01*
X158496193Y-116803894D01*
X158428887Y-116641000D01*
X157887849Y-116099016D01*
X157180586Y-115805335D01*
X156414774Y-115804667D01*
X155707000Y-116097113D01*
X155500000Y-116303752D01*
X155500000Y-114393579D01*
X163774874Y-114393579D01*
X163885016Y-114660143D01*
X164088784Y-114864267D01*
X164355156Y-114974874D01*
X164643579Y-114975126D01*
X164910143Y-114864984D01*
X164975241Y-114800000D01*
X165522182Y-114800000D01*
X167524953Y-116802771D01*
X167524874Y-116893579D01*
X167635016Y-117160143D01*
X167838784Y-117364267D01*
X168105156Y-117474874D01*
X168393579Y-117475126D01*
X168660143Y-117364984D01*
X168864267Y-117161216D01*
X168974874Y-116894844D01*
X168975126Y-116606421D01*
X168864984Y-116339857D01*
X168661216Y-116135733D01*
X168394844Y-116025126D01*
X168302864Y-116025046D01*
X166138909Y-113861091D01*
X165960476Y-113741866D01*
X165750000Y-113700000D01*
X164975371Y-113700000D01*
X164911216Y-113635733D01*
X164644844Y-113525126D01*
X164356421Y-113524874D01*
X164089857Y-113635016D01*
X163885733Y-113838784D01*
X163775126Y-114105156D01*
X163774874Y-114393579D01*
X155500000Y-114393579D01*
X155500000Y-112296476D01*
X155704151Y-112500984D01*
X156411414Y-112794665D01*
X157177226Y-112795333D01*
X157885000Y-112502887D01*
X158426984Y-111961849D01*
X158495807Y-111796106D01*
X158563113Y-111959000D01*
X159104151Y-112500984D01*
X159811414Y-112794665D01*
X160577226Y-112795333D01*
X161285000Y-112502887D01*
X161826984Y-111961849D01*
X162120665Y-111254586D01*
X162121333Y-110488774D01*
X161828887Y-109781000D01*
X161287849Y-109239016D01*
X160580586Y-108945335D01*
X159814774Y-108944667D01*
X159107000Y-109237113D01*
X158565016Y-109778151D01*
X158496193Y-109943894D01*
X158428887Y-109781000D01*
X157887849Y-109239016D01*
X157180586Y-108945335D01*
X156414774Y-108944667D01*
X155707000Y-109237113D01*
X155500000Y-109443752D01*
X155500000Y-103814437D01*
X171550427Y-103814437D01*
X171580126Y-104300867D01*
X171709138Y-104612330D01*
X171896415Y-104697809D01*
X172611223Y-103983000D01*
X172964777Y-103983000D01*
X173679585Y-104697809D01*
X173866862Y-104612330D01*
X174025573Y-104151563D01*
X173995874Y-103665133D01*
X173866862Y-103353670D01*
X173679585Y-103268191D01*
X172964777Y-103983000D01*
X172611223Y-103983000D01*
X171896415Y-103268191D01*
X171709138Y-103353670D01*
X171550427Y-103814437D01*
X155500000Y-103814437D01*
X155500000Y-103091415D01*
X172073191Y-103091415D01*
X172788000Y-103806223D01*
X173411223Y-103183000D01*
X175054674Y-103183000D01*
X175054674Y-104783000D01*
X175084309Y-104940496D01*
X175177389Y-105085146D01*
X175319412Y-105182186D01*
X175488000Y-105216326D01*
X177088000Y-105216326D01*
X177245496Y-105186691D01*
X177390146Y-105093611D01*
X177487186Y-104951588D01*
X177521326Y-104783000D01*
X177521326Y-103183000D01*
X177491691Y-103025504D01*
X177398611Y-102880854D01*
X177256588Y-102783814D01*
X177088000Y-102749674D01*
X175488000Y-102749674D01*
X175330504Y-102779309D01*
X175185854Y-102872389D01*
X175088814Y-103014412D01*
X175054674Y-103183000D01*
X173411223Y-103183000D01*
X173502809Y-103091415D01*
X173417330Y-102904138D01*
X172956563Y-102745427D01*
X172470133Y-102775126D01*
X172158670Y-102904138D01*
X172073191Y-103091415D01*
X155500000Y-103091415D01*
X155500000Y-98826476D01*
X155704151Y-99030984D01*
X156411414Y-99324665D01*
X157177226Y-99325333D01*
X157885000Y-99032887D01*
X158426984Y-98491849D01*
X158481309Y-98361019D01*
X158563113Y-98559000D01*
X159104151Y-99100984D01*
X159811414Y-99394665D01*
X160577226Y-99395333D01*
X161285000Y-99102887D01*
X161826984Y-98561849D01*
X162120665Y-97854586D01*
X162120867Y-97622599D01*
X168762788Y-97622599D01*
X168948890Y-98073000D01*
X169293187Y-98417899D01*
X169743263Y-98604787D01*
X170230599Y-98605212D01*
X170681000Y-98419110D01*
X171025899Y-98074813D01*
X171212787Y-97624737D01*
X171213212Y-97137401D01*
X171027110Y-96687000D01*
X170682813Y-96342101D01*
X170232737Y-96155213D01*
X169745401Y-96154788D01*
X169295000Y-96340890D01*
X168950101Y-96685187D01*
X168763213Y-97135263D01*
X168762788Y-97622599D01*
X162120867Y-97622599D01*
X162121333Y-97088774D01*
X161828887Y-96381000D01*
X161287849Y-95839016D01*
X160580586Y-95545335D01*
X159814774Y-95544667D01*
X159107000Y-95837113D01*
X158565016Y-96378151D01*
X158510691Y-96508981D01*
X158428887Y-96311000D01*
X157887849Y-95769016D01*
X157180586Y-95475335D01*
X156414774Y-95474667D01*
X155707000Y-95767113D01*
X155500000Y-95973752D01*
X155500000Y-90760060D01*
X157784674Y-90760060D01*
X157784674Y-93300060D01*
X157814309Y-93457556D01*
X157907389Y-93602206D01*
X158049412Y-93699246D01*
X158218000Y-93733386D01*
X160758000Y-93733386D01*
X160915496Y-93703751D01*
X161060146Y-93610671D01*
X161157186Y-93468648D01*
X161191326Y-93300060D01*
X161191326Y-90760060D01*
X161161691Y-90602564D01*
X161068611Y-90457914D01*
X160926588Y-90360874D01*
X160758000Y-90326734D01*
X158218000Y-90326734D01*
X158060504Y-90356369D01*
X157915854Y-90449449D01*
X157818814Y-90591472D01*
X157784674Y-90760060D01*
X155500000Y-90760060D01*
X155500000Y-89761814D01*
X158432903Y-89761814D01*
X158575974Y-89997899D01*
X159207161Y-90235175D01*
X159881104Y-90212844D01*
X160340395Y-90022599D01*
X168762788Y-90022599D01*
X168948890Y-90473000D01*
X169293187Y-90817899D01*
X169743263Y-91004787D01*
X170230599Y-91005212D01*
X170681000Y-90819110D01*
X171025899Y-90474813D01*
X171086031Y-90330000D01*
X175251000Y-90330000D01*
X175461476Y-90288134D01*
X175639909Y-90168909D01*
X175690318Y-90118500D01*
X178363500Y-90118500D01*
X178363500Y-97738995D01*
X178363499Y-97739000D01*
X178430297Y-98074813D01*
X178510032Y-98475666D01*
X178832001Y-98957527D01*
X178927319Y-99100181D01*
X179138819Y-99311680D01*
X179763335Y-99728968D01*
X180500000Y-99875501D01*
X181236665Y-99728968D01*
X181861180Y-99311680D01*
X182278468Y-98687165D01*
X182425001Y-97950500D01*
X182278468Y-97213835D01*
X182213500Y-97116603D01*
X182213500Y-95504000D01*
X185723793Y-95504000D01*
X185833483Y-96055447D01*
X186145852Y-96522941D01*
X186521589Y-96774000D01*
X186145852Y-97025059D01*
X185833483Y-97492553D01*
X185723793Y-98044000D01*
X185833483Y-98595447D01*
X186145852Y-99062941D01*
X186521589Y-99314000D01*
X186145852Y-99565059D01*
X185833483Y-100032553D01*
X185723793Y-100584000D01*
X185833483Y-101135447D01*
X186145852Y-101602941D01*
X186521589Y-101854000D01*
X186145852Y-102105059D01*
X185833483Y-102572553D01*
X185723793Y-103124000D01*
X185833483Y-103675447D01*
X186145852Y-104142941D01*
X186517589Y-104391327D01*
X186090671Y-104733448D01*
X185818855Y-105228039D01*
X185799661Y-105315967D01*
X185869116Y-105539000D01*
X187327000Y-105539000D01*
X187327000Y-105519000D01*
X187577000Y-105519000D01*
X187577000Y-105539000D01*
X189034884Y-105539000D01*
X189036498Y-105533814D01*
X189382718Y-105533814D01*
X189629588Y-106131286D01*
X190086309Y-106588805D01*
X190683349Y-106836718D01*
X191329814Y-106837282D01*
X191667222Y-106697868D01*
X200772354Y-106697868D01*
X200795781Y-107343908D01*
X200997939Y-107831961D01*
X201226751Y-107966473D01*
X202231223Y-106962000D01*
X202584777Y-106962000D01*
X203589249Y-107966473D01*
X203818061Y-107831961D01*
X204043646Y-107226132D01*
X204020219Y-106580092D01*
X203818061Y-106092039D01*
X203589249Y-105957527D01*
X202584777Y-106962000D01*
X202231223Y-106962000D01*
X201226751Y-105957527D01*
X200997939Y-106092039D01*
X200772354Y-106697868D01*
X191667222Y-106697868D01*
X191927286Y-106590412D01*
X192384805Y-106133691D01*
X192531358Y-105780751D01*
X201403527Y-105780751D01*
X202408000Y-106785223D01*
X203412473Y-105780751D01*
X203277961Y-105551939D01*
X202672132Y-105326354D01*
X202026092Y-105349781D01*
X201538039Y-105551939D01*
X201403527Y-105780751D01*
X192531358Y-105780751D01*
X192632718Y-105536651D01*
X192633282Y-104890186D01*
X192531250Y-104643249D01*
X201403527Y-104643249D01*
X201538039Y-104872061D01*
X202143868Y-105097646D01*
X202789908Y-105074219D01*
X203277961Y-104872061D01*
X203412473Y-104643249D01*
X202408000Y-103638777D01*
X201403527Y-104643249D01*
X192531250Y-104643249D01*
X192386412Y-104292714D01*
X191929691Y-103835195D01*
X191332651Y-103587282D01*
X190686186Y-103586718D01*
X190088714Y-103833588D01*
X189631195Y-104290309D01*
X189383282Y-104887349D01*
X189382718Y-105533814D01*
X189036498Y-105533814D01*
X189104339Y-105315967D01*
X189085145Y-105228039D01*
X188813329Y-104733448D01*
X188386411Y-104391327D01*
X188758148Y-104142941D01*
X189070517Y-103675447D01*
X189180207Y-103124000D01*
X189070517Y-102572553D01*
X188758148Y-102105059D01*
X188651523Y-102033814D01*
X189382718Y-102033814D01*
X189629588Y-102631286D01*
X190086309Y-103088805D01*
X190683349Y-103336718D01*
X191329814Y-103337282D01*
X191667222Y-103197868D01*
X200772354Y-103197868D01*
X200795781Y-103843908D01*
X200997939Y-104331961D01*
X201226751Y-104466473D01*
X202231223Y-103462000D01*
X202584777Y-103462000D01*
X203589249Y-104466473D01*
X203818061Y-104331961D01*
X204043646Y-103726132D01*
X204020219Y-103080092D01*
X203818061Y-102592039D01*
X203589249Y-102457527D01*
X202584777Y-103462000D01*
X202231223Y-103462000D01*
X201226751Y-102457527D01*
X200997939Y-102592039D01*
X200772354Y-103197868D01*
X191667222Y-103197868D01*
X191927286Y-103090412D01*
X192384805Y-102633691D01*
X192531358Y-102280751D01*
X201403527Y-102280751D01*
X202408000Y-103285223D01*
X203412473Y-102280751D01*
X203277961Y-102051939D01*
X202672132Y-101826354D01*
X202026092Y-101849781D01*
X201538039Y-102051939D01*
X201403527Y-102280751D01*
X192531358Y-102280751D01*
X192632718Y-102036651D01*
X192633282Y-101390186D01*
X192531250Y-101143249D01*
X201403527Y-101143249D01*
X201538039Y-101372061D01*
X202143868Y-101597646D01*
X202789908Y-101574219D01*
X203277961Y-101372061D01*
X203412473Y-101143249D01*
X202408000Y-100138777D01*
X201403527Y-101143249D01*
X192531250Y-101143249D01*
X192386412Y-100792714D01*
X191929691Y-100335195D01*
X191332651Y-100087282D01*
X190686186Y-100086718D01*
X190088714Y-100333588D01*
X189631195Y-100790309D01*
X189383282Y-101387349D01*
X189382718Y-102033814D01*
X188651523Y-102033814D01*
X188382411Y-101854000D01*
X188758148Y-101602941D01*
X189070517Y-101135447D01*
X189180207Y-100584000D01*
X189070517Y-100032553D01*
X188846888Y-99697868D01*
X200772354Y-99697868D01*
X200795781Y-100343908D01*
X200997939Y-100831961D01*
X201226751Y-100966473D01*
X202231223Y-99962000D01*
X202584777Y-99962000D01*
X203589249Y-100966473D01*
X203818061Y-100831961D01*
X204043646Y-100226132D01*
X204020219Y-99580092D01*
X203818061Y-99092039D01*
X203589249Y-98957527D01*
X202584777Y-99962000D01*
X202231223Y-99962000D01*
X201226751Y-98957527D01*
X200997939Y-99092039D01*
X200772354Y-99697868D01*
X188846888Y-99697868D01*
X188758148Y-99565059D01*
X188382411Y-99314000D01*
X188758148Y-99062941D01*
X188946701Y-98780751D01*
X201403527Y-98780751D01*
X202408000Y-99785223D01*
X203412473Y-98780751D01*
X203277961Y-98551939D01*
X202672132Y-98326354D01*
X202026092Y-98349781D01*
X201538039Y-98551939D01*
X201403527Y-98780751D01*
X188946701Y-98780751D01*
X189070517Y-98595447D01*
X189180207Y-98044000D01*
X189070517Y-97492553D01*
X188758148Y-97025059D01*
X188382411Y-96774000D01*
X188758148Y-96522941D01*
X189070517Y-96055447D01*
X189180207Y-95504000D01*
X189070517Y-94952553D01*
X188901767Y-94700000D01*
X190766674Y-94700000D01*
X190766674Y-96300000D01*
X190796309Y-96457496D01*
X190889389Y-96602146D01*
X191031412Y-96699186D01*
X191200000Y-96733326D01*
X192800000Y-96733326D01*
X192957496Y-96703691D01*
X193102146Y-96610611D01*
X193199186Y-96468588D01*
X193214779Y-96391585D01*
X194785191Y-96391585D01*
X194870670Y-96578862D01*
X195331437Y-96737573D01*
X195817867Y-96707874D01*
X196129330Y-96578862D01*
X196214809Y-96391585D01*
X195500000Y-95676777D01*
X194785191Y-96391585D01*
X193214779Y-96391585D01*
X193233326Y-96300000D01*
X193233326Y-95331437D01*
X194262427Y-95331437D01*
X194292126Y-95817867D01*
X194421138Y-96129330D01*
X194608415Y-96214809D01*
X195323223Y-95500000D01*
X195676777Y-95500000D01*
X196391585Y-96214809D01*
X196578862Y-96129330D01*
X196737573Y-95668563D01*
X196707874Y-95182133D01*
X196578862Y-94870670D01*
X196391585Y-94785191D01*
X195676777Y-95500000D01*
X195323223Y-95500000D01*
X194608415Y-94785191D01*
X194421138Y-94870670D01*
X194262427Y-95331437D01*
X193233326Y-95331437D01*
X193233326Y-94700000D01*
X193216094Y-94608415D01*
X194785191Y-94608415D01*
X195500000Y-95323223D01*
X196214809Y-94608415D01*
X196129330Y-94421138D01*
X195668563Y-94262427D01*
X195182133Y-94292126D01*
X194870670Y-94421138D01*
X194785191Y-94608415D01*
X193216094Y-94608415D01*
X193203691Y-94542504D01*
X193110611Y-94397854D01*
X192968588Y-94300814D01*
X192800000Y-94266674D01*
X191200000Y-94266674D01*
X191042504Y-94296309D01*
X190897854Y-94389389D01*
X190800814Y-94531412D01*
X190766674Y-94700000D01*
X188901767Y-94700000D01*
X188758148Y-94485059D01*
X188290654Y-94172690D01*
X187739207Y-94063000D01*
X187164793Y-94063000D01*
X186613346Y-94172690D01*
X186145852Y-94485059D01*
X185833483Y-94952553D01*
X185723793Y-95504000D01*
X182213500Y-95504000D01*
X182213500Y-93981934D01*
X200444903Y-93981934D01*
X200587974Y-94218019D01*
X201219161Y-94455295D01*
X201893104Y-94432964D01*
X202412026Y-94218019D01*
X202555097Y-93981934D01*
X201500000Y-92926837D01*
X200444903Y-93981934D01*
X182213500Y-93981934D01*
X182213500Y-92469221D01*
X199794765Y-92469221D01*
X199817096Y-93143164D01*
X200032041Y-93662086D01*
X200268126Y-93805157D01*
X201323223Y-92750060D01*
X201676777Y-92750060D01*
X202731874Y-93805157D01*
X202967959Y-93662086D01*
X203205235Y-93030899D01*
X203182904Y-92356956D01*
X202967959Y-91838034D01*
X202731874Y-91694963D01*
X201676777Y-92750060D01*
X201323223Y-92750060D01*
X200268126Y-91694963D01*
X200032041Y-91838034D01*
X199794765Y-92469221D01*
X182213500Y-92469221D01*
X182213500Y-91518186D01*
X200444903Y-91518186D01*
X201500000Y-92573283D01*
X202555097Y-91518186D01*
X202412026Y-91282101D01*
X201780839Y-91044825D01*
X201106896Y-91067156D01*
X200587974Y-91282101D01*
X200444903Y-91518186D01*
X182213500Y-91518186D01*
X182213500Y-89568500D01*
X182066968Y-88831834D01*
X181649681Y-88207319D01*
X181025166Y-87790032D01*
X180288500Y-87643500D01*
X179551834Y-87790032D01*
X178927319Y-88207319D01*
X178510032Y-88831834D01*
X178472902Y-89018500D01*
X175462500Y-89018500D01*
X175252024Y-89060366D01*
X175073591Y-89179591D01*
X175023182Y-89230000D01*
X171086196Y-89230000D01*
X171027110Y-89087000D01*
X170682813Y-88742101D01*
X170232737Y-88555213D01*
X169745401Y-88554788D01*
X169295000Y-88740890D01*
X168950101Y-89085187D01*
X168763213Y-89535263D01*
X168762788Y-90022599D01*
X160340395Y-90022599D01*
X160400026Y-89997899D01*
X160543097Y-89761814D01*
X159488000Y-88706717D01*
X158432903Y-89761814D01*
X155500000Y-89761814D01*
X155500000Y-88249101D01*
X157782765Y-88249101D01*
X157805096Y-88923044D01*
X158020041Y-89441966D01*
X158256126Y-89585037D01*
X159311223Y-88529940D01*
X159664777Y-88529940D01*
X160719874Y-89585037D01*
X160955959Y-89441966D01*
X161193235Y-88810779D01*
X161170904Y-88136836D01*
X160955959Y-87617914D01*
X160719874Y-87474843D01*
X159664777Y-88529940D01*
X159311223Y-88529940D01*
X158256126Y-87474843D01*
X158020041Y-87617914D01*
X157782765Y-88249101D01*
X155500000Y-88249101D01*
X155500000Y-87298066D01*
X158432903Y-87298066D01*
X159488000Y-88353163D01*
X160391163Y-87450000D01*
X192266674Y-87450000D01*
X192266674Y-89050000D01*
X192296309Y-89207496D01*
X192389389Y-89352146D01*
X192531412Y-89449186D01*
X192700000Y-89483326D01*
X194300000Y-89483326D01*
X194457496Y-89453691D01*
X194602146Y-89360611D01*
X194699186Y-89218588D01*
X194733326Y-89050000D01*
X194733326Y-87979940D01*
X199796674Y-87979940D01*
X199796674Y-90519940D01*
X199826309Y-90677436D01*
X199919389Y-90822086D01*
X200061412Y-90919126D01*
X200230000Y-90953266D01*
X202770000Y-90953266D01*
X202927496Y-90923631D01*
X203072146Y-90830551D01*
X203169186Y-90688528D01*
X203203326Y-90519940D01*
X203203326Y-87979940D01*
X203173691Y-87822444D01*
X203080611Y-87677794D01*
X202938588Y-87580754D01*
X202770000Y-87546614D01*
X200230000Y-87546614D01*
X200072504Y-87576249D01*
X199927854Y-87669329D01*
X199830814Y-87811352D01*
X199796674Y-87979940D01*
X194733326Y-87979940D01*
X194733326Y-87450000D01*
X194703691Y-87292504D01*
X194610611Y-87147854D01*
X194468588Y-87050814D01*
X194300000Y-87016674D01*
X192700000Y-87016674D01*
X192542504Y-87046309D01*
X192397854Y-87139389D01*
X192300814Y-87281412D01*
X192266674Y-87450000D01*
X160391163Y-87450000D01*
X160543097Y-87298066D01*
X160400026Y-87061981D01*
X159768839Y-86824705D01*
X159094896Y-86847036D01*
X158575974Y-87061981D01*
X158432903Y-87298066D01*
X155500000Y-87298066D01*
X155500000Y-85643346D01*
X155735537Y-85837686D01*
X155967145Y-85606078D01*
X156143767Y-85783010D01*
X155912314Y-86014463D01*
X156229755Y-86399196D01*
X157378310Y-86874981D01*
X158621512Y-86875017D01*
X159770094Y-86399298D01*
X159770245Y-86399196D01*
X160087686Y-86014463D01*
X159856078Y-85782855D01*
X160033010Y-85606233D01*
X160264463Y-85837686D01*
X160502134Y-85641585D01*
X192785191Y-85641585D01*
X192870670Y-85828862D01*
X193331437Y-85987573D01*
X193817867Y-85957874D01*
X194129330Y-85828862D01*
X194214809Y-85641585D01*
X193500000Y-84926777D01*
X192785191Y-85641585D01*
X160502134Y-85641585D01*
X160649196Y-85520245D01*
X161124981Y-84371690D01*
X161125008Y-83420000D01*
X165282674Y-83420000D01*
X165282674Y-84220000D01*
X165312309Y-84377496D01*
X165405389Y-84522146D01*
X165547412Y-84619186D01*
X165716000Y-84653326D01*
X166516000Y-84653326D01*
X166673496Y-84623691D01*
X166818146Y-84530611D01*
X166847512Y-84487633D01*
X166861329Y-84501450D01*
X166942299Y-84420480D01*
X166978194Y-84566433D01*
X167293361Y-84658021D01*
X167619588Y-84622028D01*
X167753806Y-84566433D01*
X167789701Y-84420478D01*
X167366000Y-83996777D01*
X167351858Y-84010919D01*
X167175081Y-83834142D01*
X167189223Y-83820000D01*
X167542777Y-83820000D01*
X167850495Y-84127718D01*
X167916191Y-84286715D01*
X168148065Y-84518993D01*
X168451177Y-84644857D01*
X168779383Y-84645143D01*
X169082715Y-84519809D01*
X169182219Y-84420478D01*
X169442299Y-84420478D01*
X169478194Y-84566433D01*
X169793361Y-84658021D01*
X170119588Y-84622028D01*
X170253806Y-84566433D01*
X170289701Y-84420478D01*
X169866000Y-83996777D01*
X169442299Y-84420478D01*
X169182219Y-84420478D01*
X169314993Y-84287935D01*
X169381533Y-84127690D01*
X169689223Y-83820000D01*
X170042777Y-83820000D01*
X170350495Y-84127718D01*
X170416191Y-84286715D01*
X170648065Y-84518993D01*
X170951177Y-84644857D01*
X171279383Y-84645143D01*
X171582715Y-84519809D01*
X171682219Y-84420478D01*
X171942299Y-84420478D01*
X171978194Y-84566433D01*
X172293361Y-84658021D01*
X172619588Y-84622028D01*
X172753806Y-84566433D01*
X172789701Y-84420478D01*
X172366000Y-83996777D01*
X171942299Y-84420478D01*
X171682219Y-84420478D01*
X171814993Y-84287935D01*
X171881533Y-84127690D01*
X172189223Y-83820000D01*
X172542777Y-83820000D01*
X172850495Y-84127718D01*
X172916191Y-84286715D01*
X173148065Y-84518993D01*
X173451177Y-84644857D01*
X173779383Y-84645143D01*
X174082715Y-84519809D01*
X174182219Y-84420478D01*
X174442299Y-84420478D01*
X174478194Y-84566433D01*
X174793361Y-84658021D01*
X175119588Y-84622028D01*
X175217583Y-84581437D01*
X192262427Y-84581437D01*
X192292126Y-85067867D01*
X192421138Y-85379330D01*
X192608415Y-85464809D01*
X193323223Y-84750000D01*
X193676777Y-84750000D01*
X194391585Y-85464809D01*
X194578862Y-85379330D01*
X194737573Y-84918563D01*
X194707874Y-84432133D01*
X194578862Y-84120670D01*
X194391585Y-84035191D01*
X193676777Y-84750000D01*
X193323223Y-84750000D01*
X192608415Y-84035191D01*
X192421138Y-84120670D01*
X192262427Y-84581437D01*
X175217583Y-84581437D01*
X175253806Y-84566433D01*
X175289701Y-84420478D01*
X174866000Y-83996777D01*
X174442299Y-84420478D01*
X174182219Y-84420478D01*
X174314993Y-84287935D01*
X174381533Y-84127690D01*
X174689223Y-83820000D01*
X175042777Y-83820000D01*
X175466478Y-84243701D01*
X175612433Y-84207806D01*
X175704021Y-83892639D01*
X175700246Y-83858415D01*
X192785191Y-83858415D01*
X193500000Y-84573223D01*
X194214809Y-83858415D01*
X194129330Y-83671138D01*
X193668563Y-83512427D01*
X193182133Y-83542126D01*
X192870670Y-83671138D01*
X192785191Y-83858415D01*
X175700246Y-83858415D01*
X175668028Y-83566412D01*
X175612433Y-83432194D01*
X175466478Y-83396299D01*
X175042777Y-83820000D01*
X174689223Y-83820000D01*
X174381505Y-83512282D01*
X174315809Y-83353285D01*
X174182279Y-83219522D01*
X174442299Y-83219522D01*
X174866000Y-83643223D01*
X175289701Y-83219522D01*
X175253806Y-83073567D01*
X174938639Y-82981979D01*
X174612412Y-83017972D01*
X174478194Y-83073567D01*
X174442299Y-83219522D01*
X174182279Y-83219522D01*
X174083935Y-83121007D01*
X173780823Y-82995143D01*
X173452617Y-82994857D01*
X173149285Y-83120191D01*
X172917007Y-83352065D01*
X172850467Y-83512310D01*
X172542777Y-83820000D01*
X172189223Y-83820000D01*
X171881505Y-83512282D01*
X171815809Y-83353285D01*
X171682279Y-83219522D01*
X171942299Y-83219522D01*
X172366000Y-83643223D01*
X172789701Y-83219522D01*
X172753806Y-83073567D01*
X172438639Y-82981979D01*
X172112412Y-83017972D01*
X171978194Y-83073567D01*
X171942299Y-83219522D01*
X171682279Y-83219522D01*
X171583935Y-83121007D01*
X171280823Y-82995143D01*
X170952617Y-82994857D01*
X170649285Y-83120191D01*
X170417007Y-83352065D01*
X170350467Y-83512310D01*
X170042777Y-83820000D01*
X169689223Y-83820000D01*
X169381505Y-83512282D01*
X169315809Y-83353285D01*
X169182279Y-83219522D01*
X169442299Y-83219522D01*
X169866000Y-83643223D01*
X170289701Y-83219522D01*
X170253806Y-83073567D01*
X169938639Y-82981979D01*
X169612412Y-83017972D01*
X169478194Y-83073567D01*
X169442299Y-83219522D01*
X169182279Y-83219522D01*
X169083935Y-83121007D01*
X168780823Y-82995143D01*
X168452617Y-82994857D01*
X168149285Y-83120191D01*
X167917007Y-83352065D01*
X167850467Y-83512310D01*
X167542777Y-83820000D01*
X167189223Y-83820000D01*
X167175081Y-83805858D01*
X167351858Y-83629081D01*
X167366000Y-83643223D01*
X167789701Y-83219522D01*
X167753806Y-83073567D01*
X167438639Y-82981979D01*
X167112412Y-83017972D01*
X166978194Y-83073567D01*
X166942299Y-83219520D01*
X166861329Y-83138550D01*
X166848308Y-83151571D01*
X166826611Y-83117854D01*
X166684588Y-83020814D01*
X166516000Y-82986674D01*
X165716000Y-82986674D01*
X165558504Y-83016309D01*
X165413854Y-83109389D01*
X165316814Y-83251412D01*
X165282674Y-83420000D01*
X161125008Y-83420000D01*
X161125017Y-83128488D01*
X160649298Y-81979906D01*
X160649196Y-81979755D01*
X160264463Y-81662314D01*
X160032855Y-81893922D01*
X159856233Y-81716990D01*
X160087686Y-81485537D01*
X159893346Y-81250000D01*
X201106654Y-81250000D01*
X200912314Y-81485537D01*
G36*
X158995549Y-143949228D02*
X158164777Y-144780000D01*
X158995704Y-145610927D01*
X158818772Y-145787549D01*
X157988000Y-144956777D01*
X157973858Y-144970919D01*
X157797081Y-144794142D01*
X157811223Y-144780000D01*
X156980296Y-143949073D01*
X157157228Y-143772451D01*
X157988000Y-144603223D01*
X158818927Y-143772296D01*
X158995549Y-143949228D01*
X158995549Y-143949228D01*
G37*
X158995549Y-143949228D02*
X158164777Y-144780000D01*
X158995704Y-145610927D01*
X158818772Y-145787549D01*
X157988000Y-144956777D01*
X157973858Y-144970919D01*
X157797081Y-144794142D01*
X157811223Y-144780000D01*
X156980296Y-143949073D01*
X157157228Y-143772451D01*
X157988000Y-144603223D01*
X158818927Y-143772296D01*
X158995549Y-143949228D01*
G36*
X204007549Y-143919228D02*
X203176777Y-144750000D01*
X203190919Y-144764142D01*
X203014142Y-144940919D01*
X203000000Y-144926777D01*
X202169073Y-145757704D01*
X201992451Y-145580772D01*
X202823223Y-144750000D01*
X201992296Y-143919073D01*
X202169228Y-143742451D01*
X203000000Y-144573223D01*
X203830927Y-143742296D01*
X204007549Y-143919228D01*
X204007549Y-143919228D01*
G37*
X204007549Y-143919228D02*
X203176777Y-144750000D01*
X203190919Y-144764142D01*
X203014142Y-144940919D01*
X203000000Y-144926777D01*
X202169073Y-145757704D01*
X201992451Y-145580772D01*
X202823223Y-144750000D01*
X201992296Y-143919073D01*
X202169228Y-143742451D01*
X203000000Y-144573223D01*
X203830927Y-143742296D01*
X204007549Y-143919228D01*
G36*
X203000000Y-83573223D02*
X203014142Y-83559081D01*
X203190919Y-83735858D01*
X203176777Y-83750000D01*
X204007704Y-84580927D01*
X203830772Y-84757549D01*
X203000000Y-83926777D01*
X202169073Y-84757704D01*
X201992451Y-84580772D01*
X202823223Y-83750000D01*
X201992296Y-82919073D01*
X202169228Y-82742451D01*
X203000000Y-83573223D01*
X203000000Y-83573223D01*
G37*
X203000000Y-83573223D02*
X203014142Y-83559081D01*
X203190919Y-83735858D01*
X203176777Y-83750000D01*
X204007704Y-84580927D01*
X203830772Y-84757549D01*
X203000000Y-83926777D01*
X202169073Y-84757704D01*
X201992451Y-84580772D01*
X202823223Y-83750000D01*
X201992296Y-82919073D01*
X202169228Y-82742451D01*
X203000000Y-83573223D01*
G36*
X159007549Y-82919228D02*
X158176777Y-83750000D01*
X159007704Y-84580927D01*
X158830772Y-84757549D01*
X158000000Y-83926777D01*
X157169073Y-84757704D01*
X156992451Y-84580772D01*
X157823223Y-83750000D01*
X157809081Y-83735858D01*
X157985858Y-83559081D01*
X158000000Y-83573223D01*
X158830927Y-82742296D01*
X159007549Y-82919228D01*
X159007549Y-82919228D01*
G37*
X159007549Y-82919228D02*
X158176777Y-83750000D01*
X159007704Y-84580927D01*
X158830772Y-84757549D01*
X158000000Y-83926777D01*
X157169073Y-84757704D01*
X156992451Y-84580772D01*
X157823223Y-83750000D01*
X157809081Y-83735858D01*
X157985858Y-83559081D01*
X158000000Y-83573223D01*
X158830927Y-82742296D01*
X159007549Y-82919228D01*
M02*
