G04 #@! TF.FileFunction,Drawing*
%FSLAX46Y46*%
G04 Gerber Fmt 4.6, Leading zero omitted, Abs format (unit mm)*
G04 Created by KiCad (PCBNEW 4.0.5) date 03/05/17 20:07:58*
%MOMM*%
%LPD*%
G01*
G04 APERTURE LIST*
%ADD10C,0.100000*%
%ADD11C,0.300000*%
G04 APERTURE END LIST*
D10*
D11*
X149228571Y-119749999D02*
X149228571Y-120035713D01*
X149300000Y-120178570D01*
X149371429Y-120249999D01*
X149585714Y-120392856D01*
X149871429Y-120464285D01*
X150442857Y-120464285D01*
X150585714Y-120392856D01*
X150657143Y-120321428D01*
X150728571Y-120178570D01*
X150728571Y-119892856D01*
X150657143Y-119749999D01*
X150585714Y-119678570D01*
X150442857Y-119607142D01*
X150085714Y-119607142D01*
X149942857Y-119678570D01*
X149871429Y-119749999D01*
X149800000Y-119892856D01*
X149800000Y-120178570D01*
X149871429Y-120321428D01*
X149942857Y-120392856D01*
X150085714Y-120464285D01*
X150728571Y-118178571D02*
X150728571Y-119035714D01*
X150728571Y-118607142D02*
X149228571Y-118607142D01*
X149442857Y-118749999D01*
X149585714Y-118892857D01*
X149657143Y-119035714D01*
X150585714Y-117535714D02*
X150657143Y-117464286D01*
X150728571Y-117535714D01*
X150657143Y-117607143D01*
X150585714Y-117535714D01*
X150728571Y-117535714D01*
X149228571Y-116535714D02*
X149228571Y-116392857D01*
X149300000Y-116250000D01*
X149371429Y-116178571D01*
X149514286Y-116107142D01*
X149800000Y-116035714D01*
X150157143Y-116035714D01*
X150442857Y-116107142D01*
X150585714Y-116178571D01*
X150657143Y-116250000D01*
X150728571Y-116392857D01*
X150728571Y-116535714D01*
X150657143Y-116678571D01*
X150585714Y-116750000D01*
X150442857Y-116821428D01*
X150157143Y-116892857D01*
X149800000Y-116892857D01*
X149514286Y-116821428D01*
X149371429Y-116750000D01*
X149300000Y-116678571D01*
X149228571Y-116535714D01*
X149228571Y-115107143D02*
X149228571Y-114964286D01*
X149300000Y-114821429D01*
X149371429Y-114750000D01*
X149514286Y-114678571D01*
X149800000Y-114607143D01*
X150157143Y-114607143D01*
X150442857Y-114678571D01*
X150585714Y-114750000D01*
X150657143Y-114821429D01*
X150728571Y-114964286D01*
X150728571Y-115107143D01*
X150657143Y-115250000D01*
X150585714Y-115321429D01*
X150442857Y-115392857D01*
X150157143Y-115464286D01*
X149800000Y-115464286D01*
X149514286Y-115392857D01*
X149371429Y-115321429D01*
X149300000Y-115250000D01*
X149228571Y-115107143D01*
X149228571Y-113678572D02*
X149228571Y-113535715D01*
X149300000Y-113392858D01*
X149371429Y-113321429D01*
X149514286Y-113250000D01*
X149800000Y-113178572D01*
X150157143Y-113178572D01*
X150442857Y-113250000D01*
X150585714Y-113321429D01*
X150657143Y-113392858D01*
X150728571Y-113535715D01*
X150728571Y-113678572D01*
X150657143Y-113821429D01*
X150585714Y-113892858D01*
X150442857Y-113964286D01*
X150157143Y-114035715D01*
X149800000Y-114035715D01*
X149514286Y-113964286D01*
X149371429Y-113892858D01*
X149300000Y-113821429D01*
X149228571Y-113678572D01*
X150728571Y-111392858D02*
X149728571Y-111392858D01*
X149871429Y-111392858D02*
X149800000Y-111321430D01*
X149728571Y-111178572D01*
X149728571Y-110964287D01*
X149800000Y-110821430D01*
X149942857Y-110750001D01*
X150728571Y-110750001D01*
X149942857Y-110750001D02*
X149800000Y-110678572D01*
X149728571Y-110535715D01*
X149728571Y-110321430D01*
X149800000Y-110178572D01*
X149942857Y-110107144D01*
X150728571Y-110107144D01*
X150728571Y-109392858D02*
X149728571Y-109392858D01*
X149871429Y-109392858D02*
X149800000Y-109321430D01*
X149728571Y-109178572D01*
X149728571Y-108964287D01*
X149800000Y-108821430D01*
X149942857Y-108750001D01*
X150728571Y-108750001D01*
X149942857Y-108750001D02*
X149800000Y-108678572D01*
X149728571Y-108535715D01*
X149728571Y-108321430D01*
X149800000Y-108178572D01*
X149942857Y-108107144D01*
X150728571Y-108107144D01*
X151400000Y-144750000D02*
X151400000Y-83750000D01*
X158000000Y-144750000D02*
X148700000Y-144750000D01*
X158000000Y-83750000D02*
X148700000Y-83750000D01*
X151400000Y-83750000D02*
X151986421Y-84876504D01*
X151400000Y-83750000D02*
X150813579Y-84876504D01*
X151400000Y-144750000D02*
X151986421Y-143623496D01*
X151400000Y-144750000D02*
X150813579Y-143623496D01*
X175000001Y-76078571D02*
X175000001Y-77078571D01*
X174642858Y-75507143D02*
X174285715Y-76578571D01*
X175214287Y-76578571D01*
X176500001Y-75578571D02*
X175785715Y-75578571D01*
X175714286Y-76292857D01*
X175785715Y-76221429D01*
X175928572Y-76150000D01*
X176285715Y-76150000D01*
X176428572Y-76221429D01*
X176500001Y-76292857D01*
X176571429Y-76435714D01*
X176571429Y-76792857D01*
X176500001Y-76935714D01*
X176428572Y-77007143D01*
X176285715Y-77078571D01*
X175928572Y-77078571D01*
X175785715Y-77007143D01*
X175714286Y-76935714D01*
X177214286Y-76935714D02*
X177285714Y-77007143D01*
X177214286Y-77078571D01*
X177142857Y-77007143D01*
X177214286Y-76935714D01*
X177214286Y-77078571D01*
X178214286Y-75578571D02*
X178357143Y-75578571D01*
X178500000Y-75650000D01*
X178571429Y-75721429D01*
X178642858Y-75864286D01*
X178714286Y-76150000D01*
X178714286Y-76507143D01*
X178642858Y-76792857D01*
X178571429Y-76935714D01*
X178500000Y-77007143D01*
X178357143Y-77078571D01*
X178214286Y-77078571D01*
X178071429Y-77007143D01*
X178000000Y-76935714D01*
X177928572Y-76792857D01*
X177857143Y-76507143D01*
X177857143Y-76150000D01*
X177928572Y-75864286D01*
X178000000Y-75721429D01*
X178071429Y-75650000D01*
X178214286Y-75578571D01*
X179642857Y-75578571D02*
X179785714Y-75578571D01*
X179928571Y-75650000D01*
X180000000Y-75721429D01*
X180071429Y-75864286D01*
X180142857Y-76150000D01*
X180142857Y-76507143D01*
X180071429Y-76792857D01*
X180000000Y-76935714D01*
X179928571Y-77007143D01*
X179785714Y-77078571D01*
X179642857Y-77078571D01*
X179500000Y-77007143D01*
X179428571Y-76935714D01*
X179357143Y-76792857D01*
X179285714Y-76507143D01*
X179285714Y-76150000D01*
X179357143Y-75864286D01*
X179428571Y-75721429D01*
X179500000Y-75650000D01*
X179642857Y-75578571D01*
X181071428Y-75578571D02*
X181214285Y-75578571D01*
X181357142Y-75650000D01*
X181428571Y-75721429D01*
X181500000Y-75864286D01*
X181571428Y-76150000D01*
X181571428Y-76507143D01*
X181500000Y-76792857D01*
X181428571Y-76935714D01*
X181357142Y-77007143D01*
X181214285Y-77078571D01*
X181071428Y-77078571D01*
X180928571Y-77007143D01*
X180857142Y-76935714D01*
X180785714Y-76792857D01*
X180714285Y-76507143D01*
X180714285Y-76150000D01*
X180785714Y-75864286D01*
X180857142Y-75721429D01*
X180928571Y-75650000D01*
X181071428Y-75578571D01*
X183357142Y-77078571D02*
X183357142Y-76078571D01*
X183357142Y-76221429D02*
X183428570Y-76150000D01*
X183571428Y-76078571D01*
X183785713Y-76078571D01*
X183928570Y-76150000D01*
X183999999Y-76292857D01*
X183999999Y-77078571D01*
X183999999Y-76292857D02*
X184071428Y-76150000D01*
X184214285Y-76078571D01*
X184428570Y-76078571D01*
X184571428Y-76150000D01*
X184642856Y-76292857D01*
X184642856Y-77078571D01*
X185357142Y-77078571D02*
X185357142Y-76078571D01*
X185357142Y-76221429D02*
X185428570Y-76150000D01*
X185571428Y-76078571D01*
X185785713Y-76078571D01*
X185928570Y-76150000D01*
X185999999Y-76292857D01*
X185999999Y-77078571D01*
X185999999Y-76292857D02*
X186071428Y-76150000D01*
X186214285Y-76078571D01*
X186428570Y-76078571D01*
X186571428Y-76150000D01*
X186642856Y-76292857D01*
X186642856Y-77078571D01*
X158000000Y-77750000D02*
X203000000Y-77750000D01*
X158000000Y-83750000D02*
X158000000Y-75050000D01*
X203000000Y-83750000D02*
X203000000Y-75050000D01*
X203000000Y-77750000D02*
X201873496Y-78336421D01*
X203000000Y-77750000D02*
X201873496Y-77163579D01*
X158000000Y-77750000D02*
X159126504Y-78336421D01*
X158000000Y-77750000D02*
X159126504Y-77163579D01*
X175059430Y-71858571D02*
X174345144Y-71858571D01*
X174273715Y-72572857D01*
X174345144Y-72501429D01*
X174488001Y-72430000D01*
X174845144Y-72430000D01*
X174988001Y-72501429D01*
X175059430Y-72572857D01*
X175130858Y-72715714D01*
X175130858Y-73072857D01*
X175059430Y-73215714D01*
X174988001Y-73287143D01*
X174845144Y-73358571D01*
X174488001Y-73358571D01*
X174345144Y-73287143D01*
X174273715Y-73215714D01*
X176559429Y-73358571D02*
X175702286Y-73358571D01*
X176130858Y-73358571D02*
X176130858Y-71858571D01*
X175988001Y-72072857D01*
X175845143Y-72215714D01*
X175702286Y-72287143D01*
X177202286Y-73215714D02*
X177273714Y-73287143D01*
X177202286Y-73358571D01*
X177130857Y-73287143D01*
X177202286Y-73215714D01*
X177202286Y-73358571D01*
X178202286Y-71858571D02*
X178345143Y-71858571D01*
X178488000Y-71930000D01*
X178559429Y-72001429D01*
X178630858Y-72144286D01*
X178702286Y-72430000D01*
X178702286Y-72787143D01*
X178630858Y-73072857D01*
X178559429Y-73215714D01*
X178488000Y-73287143D01*
X178345143Y-73358571D01*
X178202286Y-73358571D01*
X178059429Y-73287143D01*
X177988000Y-73215714D01*
X177916572Y-73072857D01*
X177845143Y-72787143D01*
X177845143Y-72430000D01*
X177916572Y-72144286D01*
X177988000Y-72001429D01*
X178059429Y-71930000D01*
X178202286Y-71858571D01*
X179630857Y-71858571D02*
X179773714Y-71858571D01*
X179916571Y-71930000D01*
X179988000Y-72001429D01*
X180059429Y-72144286D01*
X180130857Y-72430000D01*
X180130857Y-72787143D01*
X180059429Y-73072857D01*
X179988000Y-73215714D01*
X179916571Y-73287143D01*
X179773714Y-73358571D01*
X179630857Y-73358571D01*
X179488000Y-73287143D01*
X179416571Y-73215714D01*
X179345143Y-73072857D01*
X179273714Y-72787143D01*
X179273714Y-72430000D01*
X179345143Y-72144286D01*
X179416571Y-72001429D01*
X179488000Y-71930000D01*
X179630857Y-71858571D01*
X181059428Y-71858571D02*
X181202285Y-71858571D01*
X181345142Y-71930000D01*
X181416571Y-72001429D01*
X181488000Y-72144286D01*
X181559428Y-72430000D01*
X181559428Y-72787143D01*
X181488000Y-73072857D01*
X181416571Y-73215714D01*
X181345142Y-73287143D01*
X181202285Y-73358571D01*
X181059428Y-73358571D01*
X180916571Y-73287143D01*
X180845142Y-73215714D01*
X180773714Y-73072857D01*
X180702285Y-72787143D01*
X180702285Y-72430000D01*
X180773714Y-72144286D01*
X180845142Y-72001429D01*
X180916571Y-71930000D01*
X181059428Y-71858571D01*
X183345142Y-73358571D02*
X183345142Y-72358571D01*
X183345142Y-72501429D02*
X183416570Y-72430000D01*
X183559428Y-72358571D01*
X183773713Y-72358571D01*
X183916570Y-72430000D01*
X183987999Y-72572857D01*
X183987999Y-73358571D01*
X183987999Y-72572857D02*
X184059428Y-72430000D01*
X184202285Y-72358571D01*
X184416570Y-72358571D01*
X184559428Y-72430000D01*
X184630856Y-72572857D01*
X184630856Y-73358571D01*
X185345142Y-73358571D02*
X185345142Y-72358571D01*
X185345142Y-72501429D02*
X185416570Y-72430000D01*
X185559428Y-72358571D01*
X185773713Y-72358571D01*
X185916570Y-72430000D01*
X185987999Y-72572857D01*
X185987999Y-73358571D01*
X185987999Y-72572857D02*
X186059428Y-72430000D01*
X186202285Y-72358571D01*
X186416570Y-72358571D01*
X186559428Y-72430000D01*
X186630856Y-72572857D01*
X186630856Y-73358571D01*
X154988000Y-74030000D02*
X205988000Y-74030000D01*
X154988000Y-80780000D02*
X154988000Y-71330000D01*
X205988000Y-80780000D02*
X205988000Y-71330000D01*
X205988000Y-74030000D02*
X204861496Y-74616421D01*
X205988000Y-74030000D02*
X204861496Y-73443579D01*
X154988000Y-74030000D02*
X156114504Y-74616421D01*
X154988000Y-74030000D02*
X156114504Y-73443579D01*
X144066571Y-119779999D02*
X144066571Y-120065713D01*
X144138000Y-120208570D01*
X144209429Y-120279999D01*
X144423714Y-120422856D01*
X144709429Y-120494285D01*
X145280857Y-120494285D01*
X145423714Y-120422856D01*
X145495143Y-120351428D01*
X145566571Y-120208570D01*
X145566571Y-119922856D01*
X145495143Y-119779999D01*
X145423714Y-119708570D01*
X145280857Y-119637142D01*
X144923714Y-119637142D01*
X144780857Y-119708570D01*
X144709429Y-119779999D01*
X144638000Y-119922856D01*
X144638000Y-120208570D01*
X144709429Y-120351428D01*
X144780857Y-120422856D01*
X144923714Y-120494285D01*
X144066571Y-119137142D02*
X144066571Y-118137142D01*
X145566571Y-118779999D01*
X145423714Y-117565714D02*
X145495143Y-117494286D01*
X145566571Y-117565714D01*
X145495143Y-117637143D01*
X145423714Y-117565714D01*
X145566571Y-117565714D01*
X144066571Y-116565714D02*
X144066571Y-116422857D01*
X144138000Y-116280000D01*
X144209429Y-116208571D01*
X144352286Y-116137142D01*
X144638000Y-116065714D01*
X144995143Y-116065714D01*
X145280857Y-116137142D01*
X145423714Y-116208571D01*
X145495143Y-116280000D01*
X145566571Y-116422857D01*
X145566571Y-116565714D01*
X145495143Y-116708571D01*
X145423714Y-116780000D01*
X145280857Y-116851428D01*
X144995143Y-116922857D01*
X144638000Y-116922857D01*
X144352286Y-116851428D01*
X144209429Y-116780000D01*
X144138000Y-116708571D01*
X144066571Y-116565714D01*
X144066571Y-115137143D02*
X144066571Y-114994286D01*
X144138000Y-114851429D01*
X144209429Y-114780000D01*
X144352286Y-114708571D01*
X144638000Y-114637143D01*
X144995143Y-114637143D01*
X145280857Y-114708571D01*
X145423714Y-114780000D01*
X145495143Y-114851429D01*
X145566571Y-114994286D01*
X145566571Y-115137143D01*
X145495143Y-115280000D01*
X145423714Y-115351429D01*
X145280857Y-115422857D01*
X144995143Y-115494286D01*
X144638000Y-115494286D01*
X144352286Y-115422857D01*
X144209429Y-115351429D01*
X144138000Y-115280000D01*
X144066571Y-115137143D01*
X144066571Y-113708572D02*
X144066571Y-113565715D01*
X144138000Y-113422858D01*
X144209429Y-113351429D01*
X144352286Y-113280000D01*
X144638000Y-113208572D01*
X144995143Y-113208572D01*
X145280857Y-113280000D01*
X145423714Y-113351429D01*
X145495143Y-113422858D01*
X145566571Y-113565715D01*
X145566571Y-113708572D01*
X145495143Y-113851429D01*
X145423714Y-113922858D01*
X145280857Y-113994286D01*
X144995143Y-114065715D01*
X144638000Y-114065715D01*
X144352286Y-113994286D01*
X144209429Y-113922858D01*
X144138000Y-113851429D01*
X144066571Y-113708572D01*
X145566571Y-111422858D02*
X144566571Y-111422858D01*
X144709429Y-111422858D02*
X144638000Y-111351430D01*
X144566571Y-111208572D01*
X144566571Y-110994287D01*
X144638000Y-110851430D01*
X144780857Y-110780001D01*
X145566571Y-110780001D01*
X144780857Y-110780001D02*
X144638000Y-110708572D01*
X144566571Y-110565715D01*
X144566571Y-110351430D01*
X144638000Y-110208572D01*
X144780857Y-110137144D01*
X145566571Y-110137144D01*
X145566571Y-109422858D02*
X144566571Y-109422858D01*
X144709429Y-109422858D02*
X144638000Y-109351430D01*
X144566571Y-109208572D01*
X144566571Y-108994287D01*
X144638000Y-108851430D01*
X144780857Y-108780001D01*
X145566571Y-108780001D01*
X144780857Y-108780001D02*
X144638000Y-108708572D01*
X144566571Y-108565715D01*
X144566571Y-108351430D01*
X144638000Y-108208572D01*
X144780857Y-108137144D01*
X145566571Y-108137144D01*
X146238000Y-147780000D02*
X146238000Y-80780000D01*
X154988000Y-147780000D02*
X143538000Y-147780000D01*
X154988000Y-80780000D02*
X143538000Y-80780000D01*
X146238000Y-80780000D02*
X146824421Y-81906504D01*
X146238000Y-80780000D02*
X145651579Y-81906504D01*
X146238000Y-147780000D02*
X146824421Y-146653496D01*
X146238000Y-147780000D02*
X145651579Y-146653496D01*
M02*
