G04 #@! TF.FileFunction,Soldermask,Bot*
%FSLAX46Y46*%
G04 Gerber Fmt 4.6, Leading zero omitted, Abs format (unit mm)*
G04 Created by KiCad (PCBNEW 4.0.5) date 03/05/17 20:07:58*
%MOMM*%
%LPD*%
G01*
G04 APERTURE LIST*
%ADD10C,0.100000*%
G04 APERTURE END LIST*
D10*
G36*
X158277894Y-142021837D02*
X158808105Y-142130674D01*
X159307074Y-142340421D01*
X159755803Y-142643092D01*
X160137198Y-143027160D01*
X160436729Y-143477989D01*
X160642988Y-143978410D01*
X160748052Y-144509024D01*
X160748052Y-144509034D01*
X160748118Y-144509368D01*
X160739485Y-145127593D01*
X160739409Y-145127927D01*
X160739409Y-145127939D01*
X160619573Y-145655405D01*
X160399419Y-146149876D01*
X160087418Y-146592167D01*
X159695445Y-146965437D01*
X159238445Y-147255458D01*
X158733810Y-147451194D01*
X158200772Y-147545182D01*
X157659626Y-147533847D01*
X157130982Y-147417617D01*
X156634991Y-147200924D01*
X156190533Y-146892018D01*
X155814537Y-146502662D01*
X155521332Y-146047698D01*
X155322079Y-145544443D01*
X155224370Y-145012065D01*
X155231928Y-144470856D01*
X155344462Y-143941423D01*
X155557690Y-143443925D01*
X155863486Y-142997321D01*
X156250206Y-142618616D01*
X156703115Y-142322241D01*
X157204967Y-142119480D01*
X157736640Y-142018058D01*
X158277894Y-142021837D01*
X158277894Y-142021837D01*
G37*
G36*
X203289894Y-141991837D02*
X203820105Y-142100674D01*
X204319074Y-142310421D01*
X204767803Y-142613092D01*
X205149198Y-142997160D01*
X205448729Y-143447989D01*
X205654988Y-143948410D01*
X205760052Y-144479024D01*
X205760052Y-144479034D01*
X205760118Y-144479368D01*
X205751485Y-145097593D01*
X205751409Y-145097927D01*
X205751409Y-145097939D01*
X205631573Y-145625405D01*
X205411419Y-146119876D01*
X205099418Y-146562167D01*
X204707445Y-146935437D01*
X204250445Y-147225458D01*
X203745810Y-147421194D01*
X203212772Y-147515182D01*
X202671626Y-147503847D01*
X202142982Y-147387617D01*
X201646991Y-147170924D01*
X201202533Y-146862018D01*
X200826537Y-146472662D01*
X200533332Y-146017698D01*
X200334079Y-145514443D01*
X200236370Y-144982065D01*
X200243928Y-144440856D01*
X200356462Y-143911423D01*
X200569690Y-143413925D01*
X200875486Y-142967321D01*
X201262206Y-142588616D01*
X201715115Y-142292241D01*
X202216967Y-142089480D01*
X202748640Y-141988058D01*
X203289894Y-141991837D01*
X203289894Y-141991837D01*
G37*
G36*
X197237393Y-144018844D02*
X197481368Y-144068925D01*
X197710965Y-144165439D01*
X197917446Y-144304711D01*
X198092944Y-144481440D01*
X198230772Y-144688886D01*
X198325680Y-144919151D01*
X198373989Y-145163126D01*
X198373989Y-145163141D01*
X198374054Y-145163470D01*
X198370082Y-145447943D01*
X198370006Y-145448277D01*
X198370006Y-145448289D01*
X198314907Y-145690813D01*
X198213604Y-145918342D01*
X198070038Y-146121860D01*
X197889671Y-146293620D01*
X197679387Y-146427070D01*
X197447181Y-146517138D01*
X197201907Y-146560386D01*
X196952902Y-146555171D01*
X196709647Y-146501687D01*
X196481421Y-146401978D01*
X196276901Y-146259833D01*
X196103890Y-146080674D01*
X195968975Y-145871327D01*
X195877289Y-145639756D01*
X195832328Y-145394782D01*
X195835806Y-145145748D01*
X195887587Y-144902134D01*
X195985704Y-144673211D01*
X196126415Y-144467709D01*
X196304363Y-144293448D01*
X196512766Y-144157073D01*
X196743691Y-144063773D01*
X196988336Y-144017105D01*
X197237393Y-144018844D01*
X197237393Y-144018844D01*
G37*
G36*
X174743336Y-141180704D02*
X174946969Y-141222504D01*
X175138600Y-141303058D01*
X175310942Y-141419304D01*
X175457417Y-141566805D01*
X175572457Y-141739954D01*
X175651669Y-141932139D01*
X175691980Y-142135718D01*
X175691980Y-142135728D01*
X175692046Y-142136062D01*
X175688730Y-142373496D01*
X175688654Y-142373830D01*
X175688654Y-142373842D01*
X175642679Y-142576206D01*
X175558126Y-142766112D01*
X175438300Y-142935977D01*
X175287757Y-143079337D01*
X175112245Y-143190720D01*
X174918434Y-143265896D01*
X174713718Y-143301992D01*
X174505887Y-143297639D01*
X174302852Y-143252999D01*
X174112365Y-143169777D01*
X173941668Y-143051139D01*
X173797262Y-142901602D01*
X173684656Y-142726872D01*
X173608131Y-142533592D01*
X173570604Y-142329125D01*
X173573507Y-142121270D01*
X173616726Y-141917938D01*
X173698619Y-141726869D01*
X173816062Y-141555347D01*
X173964586Y-141409901D01*
X174138529Y-141296076D01*
X174331270Y-141218204D01*
X174535461Y-141179252D01*
X174743336Y-141180704D01*
X174743336Y-141180704D01*
G37*
G36*
X168192000Y-143300000D02*
X166072000Y-143300000D01*
X166072000Y-141180000D01*
X168192000Y-141180000D01*
X168192000Y-143300000D01*
X168192000Y-143300000D01*
G37*
G36*
X192268000Y-141468000D02*
X189748000Y-141468000D01*
X189748000Y-138948000D01*
X192268000Y-138948000D01*
X192268000Y-141468000D01*
X192268000Y-141468000D01*
G37*
G36*
X160818000Y-141360060D02*
X158158000Y-141360060D01*
X158158000Y-138700060D01*
X160818000Y-138700060D01*
X160818000Y-141360060D01*
X160818000Y-141360060D01*
G37*
G36*
X202540343Y-137198837D02*
X202782397Y-137248524D01*
X203010186Y-137344277D01*
X203215041Y-137482453D01*
X203389160Y-137657792D01*
X203525898Y-137863601D01*
X203620061Y-138092055D01*
X203667989Y-138334107D01*
X203667989Y-138334122D01*
X203668054Y-138334451D01*
X203664113Y-138616684D01*
X203664037Y-138617018D01*
X203664037Y-138617030D01*
X203609373Y-138857641D01*
X203508867Y-139083379D01*
X203366432Y-139285294D01*
X203187485Y-139455702D01*
X202978857Y-139588102D01*
X202748479Y-139677460D01*
X202505136Y-139720367D01*
X202258091Y-139715193D01*
X202016752Y-139662131D01*
X201790323Y-139563207D01*
X201587413Y-139422181D01*
X201415765Y-139244433D01*
X201281912Y-139036734D01*
X201190948Y-138806986D01*
X201146341Y-138563941D01*
X201149792Y-138316868D01*
X201201165Y-138075172D01*
X201298509Y-137848052D01*
X201438112Y-137644168D01*
X201614659Y-137471279D01*
X201821421Y-137335978D01*
X202050528Y-137243413D01*
X202293247Y-137197112D01*
X202540343Y-137198837D01*
X202540343Y-137198837D01*
G37*
G36*
X176793000Y-137039323D02*
X176792794Y-137039636D01*
X176788632Y-137053076D01*
X176788000Y-137061000D01*
X176788000Y-138161000D01*
X176018000Y-138161000D01*
X176018000Y-137061000D01*
X176016020Y-137047070D01*
X176010239Y-137034244D01*
X176001112Y-137023536D01*
X175989364Y-137015794D01*
X175975924Y-137011632D01*
X175968000Y-137011000D01*
X175568000Y-137011000D01*
X175554070Y-137012980D01*
X175541244Y-137018761D01*
X175530536Y-137027888D01*
X175522794Y-137039636D01*
X175518632Y-137053076D01*
X175518000Y-137061000D01*
X175518000Y-138161000D01*
X174748000Y-138161000D01*
X174748000Y-136341000D01*
X174973000Y-136341000D01*
X174986930Y-136339020D01*
X174999756Y-136333239D01*
X175010464Y-136324112D01*
X175018206Y-136312364D01*
X175022368Y-136298924D01*
X175023000Y-136291000D01*
X175023000Y-133081000D01*
X176793000Y-133081000D01*
X176793000Y-137039323D01*
X176793000Y-137039323D01*
G37*
G36*
X179063000Y-136291000D02*
X179064980Y-136304930D01*
X179070761Y-136317756D01*
X179079888Y-136328464D01*
X179091636Y-136336206D01*
X179105076Y-136340368D01*
X179113000Y-136341000D01*
X179328000Y-136341000D01*
X179328000Y-138161000D01*
X178558000Y-138161000D01*
X178558000Y-137061000D01*
X178556020Y-137047070D01*
X178550239Y-137034244D01*
X178541112Y-137023536D01*
X178529364Y-137015794D01*
X178515924Y-137011632D01*
X178508000Y-137011000D01*
X178108000Y-137011000D01*
X178094070Y-137012980D01*
X178081244Y-137018761D01*
X178070536Y-137027888D01*
X178062794Y-137039636D01*
X178058632Y-137053076D01*
X178058000Y-137061000D01*
X178058000Y-138161000D01*
X177288000Y-138161000D01*
X177288000Y-136312677D01*
X177288206Y-136312364D01*
X177292368Y-136298924D01*
X177293000Y-136291000D01*
X177293000Y-133081000D01*
X179063000Y-133081000D01*
X179063000Y-136291000D01*
X179063000Y-136291000D01*
G37*
G36*
X191140343Y-135448837D02*
X191382397Y-135498524D01*
X191610186Y-135594277D01*
X191815041Y-135732453D01*
X191989160Y-135907792D01*
X192125898Y-136113601D01*
X192220061Y-136342055D01*
X192267989Y-136584107D01*
X192267989Y-136584122D01*
X192268054Y-136584451D01*
X192264113Y-136866684D01*
X192264037Y-136867018D01*
X192264037Y-136867030D01*
X192209373Y-137107641D01*
X192108867Y-137333379D01*
X191966432Y-137535294D01*
X191787485Y-137705702D01*
X191578857Y-137838102D01*
X191348479Y-137927460D01*
X191105136Y-137970367D01*
X190858091Y-137965193D01*
X190616752Y-137912131D01*
X190390323Y-137813207D01*
X190187413Y-137672181D01*
X190015765Y-137494433D01*
X189881912Y-137286734D01*
X189790948Y-137056986D01*
X189746341Y-136813941D01*
X189749792Y-136566868D01*
X189801165Y-136325172D01*
X189898509Y-136098052D01*
X190038112Y-135894168D01*
X190214659Y-135721279D01*
X190421421Y-135585978D01*
X190650528Y-135493413D01*
X190893247Y-135447112D01*
X191140343Y-135448837D01*
X191140343Y-135448837D01*
G37*
G36*
X159627695Y-135200824D02*
X159883197Y-135253271D01*
X160123640Y-135354345D01*
X160339876Y-135500197D01*
X160523666Y-135685275D01*
X160668005Y-135902522D01*
X160767397Y-136143665D01*
X160817991Y-136399183D01*
X160817991Y-136399193D01*
X160818057Y-136399527D01*
X160813897Y-136697440D01*
X160813821Y-136697774D01*
X160813821Y-136697786D01*
X160756115Y-136951783D01*
X160650026Y-137190062D01*
X160499678Y-137403194D01*
X160310790Y-137583069D01*
X160090571Y-137722824D01*
X159847394Y-137817147D01*
X159590533Y-137862438D01*
X159329763Y-137856976D01*
X159075014Y-137800966D01*
X158836006Y-137696546D01*
X158621829Y-137547689D01*
X158440641Y-137360063D01*
X158299352Y-137140825D01*
X158203335Y-136898314D01*
X158156249Y-136641767D01*
X158159892Y-136380967D01*
X158214119Y-136125845D01*
X158316872Y-135886106D01*
X158464230Y-135670895D01*
X158650585Y-135488402D01*
X158868834Y-135345584D01*
X159110669Y-135247876D01*
X159366872Y-135199003D01*
X159627695Y-135200824D01*
X159627695Y-135200824D01*
G37*
G36*
X202540343Y-133698837D02*
X202782397Y-133748524D01*
X203010186Y-133844277D01*
X203215041Y-133982453D01*
X203389160Y-134157792D01*
X203525898Y-134363601D01*
X203620061Y-134592055D01*
X203667989Y-134834107D01*
X203667989Y-134834122D01*
X203668054Y-134834451D01*
X203664113Y-135116684D01*
X203664037Y-135117018D01*
X203664037Y-135117030D01*
X203609373Y-135357641D01*
X203508867Y-135583379D01*
X203366432Y-135785294D01*
X203187485Y-135955702D01*
X202978857Y-136088102D01*
X202748479Y-136177460D01*
X202505136Y-136220367D01*
X202258091Y-136215193D01*
X202016752Y-136162131D01*
X201790323Y-136063207D01*
X201587413Y-135922181D01*
X201415765Y-135744433D01*
X201281912Y-135536734D01*
X201190948Y-135306986D01*
X201146341Y-135063941D01*
X201149792Y-134816868D01*
X201201165Y-134575172D01*
X201298509Y-134348052D01*
X201438112Y-134144168D01*
X201614659Y-133971279D01*
X201821421Y-133835978D01*
X202050528Y-133743413D01*
X202293247Y-133697112D01*
X202540343Y-133698837D01*
X202540343Y-133698837D01*
G37*
G36*
X191140343Y-131948837D02*
X191382397Y-131998524D01*
X191610186Y-132094277D01*
X191815041Y-132232453D01*
X191989160Y-132407792D01*
X192125898Y-132613601D01*
X192220061Y-132842055D01*
X192267989Y-133084107D01*
X192267989Y-133084122D01*
X192268054Y-133084451D01*
X192264113Y-133366684D01*
X192264037Y-133367018D01*
X192264037Y-133367030D01*
X192209373Y-133607641D01*
X192108867Y-133833379D01*
X191966432Y-134035294D01*
X191787485Y-134205702D01*
X191578857Y-134338102D01*
X191348479Y-134427460D01*
X191105136Y-134470367D01*
X190858091Y-134465193D01*
X190616752Y-134412131D01*
X190390323Y-134313207D01*
X190187413Y-134172181D01*
X190015765Y-133994433D01*
X189881912Y-133786734D01*
X189790948Y-133556986D01*
X189746341Y-133313941D01*
X189749792Y-133066868D01*
X189801165Y-132825172D01*
X189898509Y-132598052D01*
X190038112Y-132394168D01*
X190214659Y-132221279D01*
X190421421Y-132085978D01*
X190650528Y-131993413D01*
X190893247Y-131947112D01*
X191140343Y-131948837D01*
X191140343Y-131948837D01*
G37*
G36*
X183986329Y-131164571D02*
X184151541Y-131198485D01*
X184307015Y-131263840D01*
X184446837Y-131358150D01*
X184565680Y-131477826D01*
X184659012Y-131618301D01*
X184723280Y-131774227D01*
X184755971Y-131939329D01*
X184755971Y-131939339D01*
X184756037Y-131939673D01*
X184753347Y-132132308D01*
X184753271Y-132132642D01*
X184753271Y-132132653D01*
X184715984Y-132296771D01*
X184647386Y-132450846D01*
X184550169Y-132588661D01*
X184428029Y-132704972D01*
X184285633Y-132795339D01*
X184128390Y-132856331D01*
X183962300Y-132885616D01*
X183793682Y-132882085D01*
X183628955Y-132845867D01*
X183474410Y-132778348D01*
X183335919Y-132682094D01*
X183218759Y-132560771D01*
X183127400Y-132419010D01*
X183065313Y-132262198D01*
X183034867Y-132096308D01*
X183037223Y-131927671D01*
X183072287Y-131762705D01*
X183138729Y-131607686D01*
X183234013Y-131468527D01*
X183354514Y-131350523D01*
X183495635Y-131258176D01*
X183652013Y-131194995D01*
X183817675Y-131163393D01*
X183986329Y-131164571D01*
X183986329Y-131164571D01*
G37*
G36*
X160359853Y-129641037D02*
X160659539Y-129702554D01*
X160941563Y-129821106D01*
X161195193Y-129992181D01*
X161410765Y-130209264D01*
X161580066Y-130464081D01*
X161696646Y-130746926D01*
X161756001Y-131046690D01*
X161756001Y-131046700D01*
X161756067Y-131047034D01*
X161751187Y-131396466D01*
X161751111Y-131396800D01*
X161751111Y-131396812D01*
X161683412Y-131694794D01*
X161558977Y-131974278D01*
X161382629Y-132224268D01*
X161161077Y-132435249D01*
X160902774Y-132599172D01*
X160617545Y-132709807D01*
X160316263Y-132762930D01*
X160010398Y-132756524D01*
X159711596Y-132690828D01*
X159431256Y-132568350D01*
X159180040Y-132393750D01*
X158967520Y-132173679D01*
X158801796Y-131916526D01*
X158689174Y-131632077D01*
X158633947Y-131331166D01*
X158638219Y-131025266D01*
X158701825Y-130726022D01*
X158822346Y-130444827D01*
X158995187Y-130192399D01*
X159213769Y-129978347D01*
X159469760Y-129810831D01*
X159753416Y-129696226D01*
X160053926Y-129638901D01*
X160359853Y-129641037D01*
X160359853Y-129641037D01*
G37*
G36*
X202540343Y-130198837D02*
X202782397Y-130248524D01*
X203010186Y-130344277D01*
X203215041Y-130482453D01*
X203389160Y-130657792D01*
X203525898Y-130863601D01*
X203620061Y-131092055D01*
X203667989Y-131334107D01*
X203667989Y-131334122D01*
X203668054Y-131334451D01*
X203664113Y-131616684D01*
X203664037Y-131617018D01*
X203664037Y-131617030D01*
X203609373Y-131857641D01*
X203508867Y-132083379D01*
X203366432Y-132285294D01*
X203187485Y-132455702D01*
X202978857Y-132588102D01*
X202748479Y-132677460D01*
X202505136Y-132720367D01*
X202258091Y-132715193D01*
X202016752Y-132662131D01*
X201790323Y-132563207D01*
X201587413Y-132422181D01*
X201415765Y-132244433D01*
X201281912Y-132036734D01*
X201190948Y-131806986D01*
X201146341Y-131563941D01*
X201149792Y-131316868D01*
X201201165Y-131075172D01*
X201298509Y-130848052D01*
X201438112Y-130644168D01*
X201614659Y-130471279D01*
X201821421Y-130335978D01*
X202050528Y-130243413D01*
X202293247Y-130197112D01*
X202540343Y-130198837D01*
X202540343Y-130198837D01*
G37*
G36*
X156959853Y-129571037D02*
X157259539Y-129632554D01*
X157541563Y-129751106D01*
X157795193Y-129922181D01*
X158010765Y-130139264D01*
X158180066Y-130394081D01*
X158296646Y-130676926D01*
X158356001Y-130976690D01*
X158356001Y-130976700D01*
X158356067Y-130977034D01*
X158351187Y-131326466D01*
X158351111Y-131326800D01*
X158351111Y-131326812D01*
X158283412Y-131624794D01*
X158158977Y-131904278D01*
X157982629Y-132154268D01*
X157761077Y-132365249D01*
X157502774Y-132529172D01*
X157217545Y-132639807D01*
X156916263Y-132692930D01*
X156610398Y-132686524D01*
X156311596Y-132620828D01*
X156031256Y-132498350D01*
X155780040Y-132323750D01*
X155567520Y-132103679D01*
X155401796Y-131846526D01*
X155289174Y-131562077D01*
X155233947Y-131261166D01*
X155238219Y-130955266D01*
X155301825Y-130656022D01*
X155422346Y-130374827D01*
X155595187Y-130122399D01*
X155813769Y-129908347D01*
X156069760Y-129740831D01*
X156353416Y-129626226D01*
X156653926Y-129568901D01*
X156959853Y-129571037D01*
X156959853Y-129571037D01*
G37*
G36*
X175518000Y-132391000D02*
X174748000Y-132391000D01*
X174748000Y-130571000D01*
X175518000Y-130571000D01*
X175518000Y-132391000D01*
X175518000Y-132391000D01*
G37*
G36*
X176788000Y-132391000D02*
X176018000Y-132391000D01*
X176018000Y-130571000D01*
X176788000Y-130571000D01*
X176788000Y-132391000D01*
X176788000Y-132391000D01*
G37*
G36*
X179328000Y-132391000D02*
X178558000Y-132391000D01*
X178558000Y-130571000D01*
X179328000Y-130571000D01*
X179328000Y-132391000D01*
X179328000Y-132391000D01*
G37*
G36*
X178058000Y-132391000D02*
X177288000Y-132391000D01*
X177288000Y-130571000D01*
X178058000Y-130571000D01*
X178058000Y-132391000D01*
X178058000Y-132391000D01*
G37*
G36*
X171756000Y-131920000D02*
X170636000Y-131920000D01*
X170636000Y-131100000D01*
X171756000Y-131100000D01*
X171756000Y-131920000D01*
X171756000Y-131920000D01*
G37*
G36*
X169724000Y-131920000D02*
X168604000Y-131920000D01*
X168604000Y-131100000D01*
X169724000Y-131100000D01*
X169724000Y-131920000D01*
X169724000Y-131920000D01*
G37*
G36*
X191140343Y-128448837D02*
X191382397Y-128498524D01*
X191610186Y-128594277D01*
X191815041Y-128732453D01*
X191989160Y-128907792D01*
X192125898Y-129113601D01*
X192220061Y-129342055D01*
X192267989Y-129584107D01*
X192267989Y-129584122D01*
X192268054Y-129584451D01*
X192264113Y-129866684D01*
X192264037Y-129867018D01*
X192264037Y-129867030D01*
X192209373Y-130107641D01*
X192108867Y-130333379D01*
X191966432Y-130535294D01*
X191787485Y-130705702D01*
X191578857Y-130838102D01*
X191348479Y-130927460D01*
X191105136Y-130970367D01*
X190858091Y-130965193D01*
X190616752Y-130912131D01*
X190390323Y-130813207D01*
X190187413Y-130672181D01*
X190015765Y-130494433D01*
X189881912Y-130286734D01*
X189790948Y-130056986D01*
X189746341Y-129813941D01*
X189749792Y-129566868D01*
X189801165Y-129325172D01*
X189898509Y-129098052D01*
X190038112Y-128894168D01*
X190214659Y-128721279D01*
X190421421Y-128585978D01*
X190650528Y-128493413D01*
X190893247Y-128447112D01*
X191140343Y-128448837D01*
X191140343Y-128448837D01*
G37*
G36*
X171756000Y-130520000D02*
X170636000Y-130520000D01*
X170636000Y-129700000D01*
X171756000Y-129700000D01*
X171756000Y-130520000D01*
X171756000Y-130520000D01*
G37*
G36*
X169724000Y-130520000D02*
X168604000Y-130520000D01*
X168604000Y-129700000D01*
X169724000Y-129700000D01*
X169724000Y-130520000D01*
X169724000Y-130520000D01*
G37*
G36*
X184756000Y-129384000D02*
X183036000Y-129384000D01*
X183036000Y-127664000D01*
X184756000Y-127664000D01*
X184756000Y-129384000D01*
X184756000Y-129384000D01*
G37*
G36*
X202540343Y-126698837D02*
X202782397Y-126748524D01*
X203010186Y-126844277D01*
X203215041Y-126982453D01*
X203389160Y-127157792D01*
X203525898Y-127363601D01*
X203620061Y-127592055D01*
X203667989Y-127834107D01*
X203667989Y-127834122D01*
X203668054Y-127834451D01*
X203664113Y-128116684D01*
X203664037Y-128117018D01*
X203664037Y-128117030D01*
X203609373Y-128357641D01*
X203508867Y-128583379D01*
X203366432Y-128785294D01*
X203187485Y-128955702D01*
X202978857Y-129088102D01*
X202748479Y-129177460D01*
X202505136Y-129220367D01*
X202258091Y-129215193D01*
X202016752Y-129162131D01*
X201790323Y-129063207D01*
X201587413Y-128922181D01*
X201415765Y-128744433D01*
X201281912Y-128536734D01*
X201190948Y-128306986D01*
X201146341Y-128063941D01*
X201149792Y-127816868D01*
X201201165Y-127575172D01*
X201298509Y-127348052D01*
X201438112Y-127144168D01*
X201614659Y-126971279D01*
X201821421Y-126835978D01*
X202050528Y-126743413D01*
X202293247Y-126697112D01*
X202540343Y-126698837D01*
X202540343Y-126698837D01*
G37*
G36*
X169724000Y-129126000D02*
X168604000Y-129126000D01*
X168604000Y-128306000D01*
X169724000Y-128306000D01*
X169724000Y-129126000D01*
X169724000Y-129126000D01*
G37*
G36*
X171756000Y-129126000D02*
X170636000Y-129126000D01*
X170636000Y-128306000D01*
X171756000Y-128306000D01*
X171756000Y-129126000D01*
X171756000Y-129126000D01*
G37*
G36*
X171756000Y-127726000D02*
X170636000Y-127726000D01*
X170636000Y-126906000D01*
X171756000Y-126906000D01*
X171756000Y-127726000D01*
X171756000Y-127726000D01*
G37*
G36*
X169724000Y-127726000D02*
X168604000Y-127726000D01*
X168604000Y-126906000D01*
X169724000Y-126906000D01*
X169724000Y-127726000D01*
X169724000Y-127726000D01*
G37*
G36*
X191140343Y-124948837D02*
X191382397Y-124998524D01*
X191610186Y-125094277D01*
X191815041Y-125232453D01*
X191989160Y-125407792D01*
X192125898Y-125613601D01*
X192220061Y-125842055D01*
X192267989Y-126084107D01*
X192267989Y-126084122D01*
X192268054Y-126084451D01*
X192264113Y-126366684D01*
X192264037Y-126367018D01*
X192264037Y-126367030D01*
X192209373Y-126607641D01*
X192108867Y-126833379D01*
X191966432Y-127035294D01*
X191787485Y-127205702D01*
X191578857Y-127338102D01*
X191348479Y-127427460D01*
X191105136Y-127470367D01*
X190858091Y-127465193D01*
X190616752Y-127412131D01*
X190390323Y-127313207D01*
X190187413Y-127172181D01*
X190015765Y-126994433D01*
X189881912Y-126786734D01*
X189790948Y-126556986D01*
X189746341Y-126313941D01*
X189749792Y-126066868D01*
X189801165Y-125825172D01*
X189898509Y-125598052D01*
X190038112Y-125394168D01*
X190214659Y-125221279D01*
X190421421Y-125085978D01*
X190650528Y-124993413D01*
X190893247Y-124947112D01*
X191140343Y-124948837D01*
X191140343Y-124948837D01*
G37*
G36*
X202540343Y-123198837D02*
X202782397Y-123248524D01*
X203010186Y-123344277D01*
X203215041Y-123482453D01*
X203389160Y-123657792D01*
X203525898Y-123863601D01*
X203620061Y-124092055D01*
X203667989Y-124334107D01*
X203667989Y-124334122D01*
X203668054Y-124334451D01*
X203664113Y-124616684D01*
X203664037Y-124617018D01*
X203664037Y-124617030D01*
X203609373Y-124857641D01*
X203508867Y-125083379D01*
X203366432Y-125285294D01*
X203187485Y-125455702D01*
X202978857Y-125588102D01*
X202748479Y-125677460D01*
X202505136Y-125720367D01*
X202258091Y-125715193D01*
X202016752Y-125662131D01*
X201790323Y-125563207D01*
X201587413Y-125422181D01*
X201415765Y-125244433D01*
X201281912Y-125036734D01*
X201190948Y-124806986D01*
X201146341Y-124563941D01*
X201149792Y-124316868D01*
X201201165Y-124075172D01*
X201298509Y-123848052D01*
X201438112Y-123644168D01*
X201614659Y-123471279D01*
X201821421Y-123335978D01*
X202050528Y-123243413D01*
X202293247Y-123197112D01*
X202540343Y-123198837D01*
X202540343Y-123198837D01*
G37*
G36*
X173788000Y-125570000D02*
X172668000Y-125570000D01*
X172668000Y-124750000D01*
X173788000Y-124750000D01*
X173788000Y-125570000D01*
X173788000Y-125570000D01*
G37*
G36*
X179884000Y-125570000D02*
X178764000Y-125570000D01*
X178764000Y-124750000D01*
X179884000Y-124750000D01*
X179884000Y-125570000D01*
X179884000Y-125570000D01*
G37*
G36*
X187720730Y-122368058D02*
X187727458Y-122368105D01*
X187936148Y-122391513D01*
X188136316Y-122455010D01*
X188320339Y-122556178D01*
X188481208Y-122691162D01*
X188612793Y-122854822D01*
X188710085Y-123040923D01*
X188769376Y-123242378D01*
X188769379Y-123242412D01*
X188769383Y-123242425D01*
X188788412Y-123451510D01*
X188766466Y-123660311D01*
X188766462Y-123660325D01*
X188766458Y-123660360D01*
X188704360Y-123860967D01*
X188604479Y-124045692D01*
X188470621Y-124207498D01*
X188307884Y-124340223D01*
X188122467Y-124438812D01*
X187921431Y-124499508D01*
X187712435Y-124520000D01*
X187191530Y-124520000D01*
X187183270Y-124519942D01*
X187176542Y-124519895D01*
X186967852Y-124496487D01*
X186767684Y-124432990D01*
X186583661Y-124331822D01*
X186422792Y-124196838D01*
X186291207Y-124033178D01*
X186193915Y-123847077D01*
X186134624Y-123645622D01*
X186134621Y-123645588D01*
X186134617Y-123645575D01*
X186115588Y-123436490D01*
X186137534Y-123227689D01*
X186137538Y-123227675D01*
X186137542Y-123227640D01*
X186199640Y-123027033D01*
X186299521Y-122842308D01*
X186433379Y-122680502D01*
X186596116Y-122547777D01*
X186781533Y-122449188D01*
X186982569Y-122388492D01*
X187191565Y-122368000D01*
X187712470Y-122368000D01*
X187720730Y-122368058D01*
X187720730Y-122368058D01*
G37*
G36*
X179884000Y-124170000D02*
X178764000Y-124170000D01*
X178764000Y-123350000D01*
X179884000Y-123350000D01*
X179884000Y-124170000D01*
X179884000Y-124170000D01*
G37*
G36*
X173788000Y-124170000D02*
X172668000Y-124170000D01*
X172668000Y-123350000D01*
X173788000Y-123350000D01*
X173788000Y-124170000D01*
X173788000Y-124170000D01*
G37*
G36*
X163580000Y-122667000D02*
X162810000Y-122667000D01*
X162810000Y-120847000D01*
X163580000Y-120847000D01*
X163580000Y-122667000D01*
X163580000Y-122667000D01*
G37*
G36*
X164850000Y-122667000D02*
X164080000Y-122667000D01*
X164080000Y-120847000D01*
X164850000Y-120847000D01*
X164850000Y-122667000D01*
X164850000Y-122667000D01*
G37*
G36*
X166120000Y-122667000D02*
X165350000Y-122667000D01*
X165350000Y-120847000D01*
X166120000Y-120847000D01*
X166120000Y-122667000D01*
X166120000Y-122667000D01*
G37*
G36*
X167390000Y-122667000D02*
X166620000Y-122667000D01*
X166620000Y-120847000D01*
X167390000Y-120847000D01*
X167390000Y-122667000D01*
X167390000Y-122667000D01*
G37*
G36*
X180011000Y-122590000D02*
X178441000Y-122590000D01*
X178441000Y-116170000D01*
X180011000Y-116170000D01*
X180011000Y-122590000D01*
X180011000Y-122590000D01*
G37*
G36*
X174111000Y-122590000D02*
X172541000Y-122590000D01*
X172541000Y-116170000D01*
X174111000Y-116170000D01*
X174111000Y-122590000D01*
X174111000Y-122590000D01*
G37*
G36*
X192268000Y-122164000D02*
X189748000Y-122164000D01*
X189748000Y-119644000D01*
X192268000Y-119644000D01*
X192268000Y-122164000D01*
X192268000Y-122164000D01*
G37*
G36*
X187720730Y-119828058D02*
X187727458Y-119828105D01*
X187936148Y-119851513D01*
X188136316Y-119915010D01*
X188320339Y-120016178D01*
X188481208Y-120151162D01*
X188612793Y-120314822D01*
X188710085Y-120500923D01*
X188769376Y-120702378D01*
X188769379Y-120702412D01*
X188769383Y-120702425D01*
X188788412Y-120911510D01*
X188766466Y-121120311D01*
X188766462Y-121120325D01*
X188766458Y-121120360D01*
X188704360Y-121320967D01*
X188604479Y-121505692D01*
X188470621Y-121667498D01*
X188307884Y-121800223D01*
X188122467Y-121898812D01*
X187921431Y-121959508D01*
X187712435Y-121980000D01*
X187191530Y-121980000D01*
X187183270Y-121979942D01*
X187176542Y-121979895D01*
X186967852Y-121956487D01*
X186767684Y-121892990D01*
X186583661Y-121791822D01*
X186422792Y-121656838D01*
X186291207Y-121493178D01*
X186193915Y-121307077D01*
X186134624Y-121105622D01*
X186134621Y-121105588D01*
X186134617Y-121105575D01*
X186115588Y-120896490D01*
X186137534Y-120687689D01*
X186137538Y-120687675D01*
X186137542Y-120687640D01*
X186199640Y-120487033D01*
X186299521Y-120302308D01*
X186433379Y-120140502D01*
X186596116Y-120007777D01*
X186781533Y-119909188D01*
X186982569Y-119848492D01*
X187191565Y-119828000D01*
X187712470Y-119828000D01*
X187720730Y-119828058D01*
X187720730Y-119828058D01*
G37*
G36*
X184456000Y-120998000D02*
X183336000Y-120998000D01*
X183336000Y-120178000D01*
X184456000Y-120178000D01*
X184456000Y-120998000D01*
X184456000Y-120998000D01*
G37*
G36*
X182678000Y-120998000D02*
X181558000Y-120998000D01*
X181558000Y-120178000D01*
X182678000Y-120178000D01*
X182678000Y-120998000D01*
X182678000Y-120998000D01*
G37*
G36*
X169636000Y-120702000D02*
X168816000Y-120702000D01*
X168816000Y-119582000D01*
X169636000Y-119582000D01*
X169636000Y-120702000D01*
X169636000Y-120702000D01*
G37*
G36*
X171036000Y-120702000D02*
X170216000Y-120702000D01*
X170216000Y-119582000D01*
X171036000Y-119582000D01*
X171036000Y-120702000D01*
X171036000Y-120702000D01*
G37*
G36*
X202540343Y-117894837D02*
X202782397Y-117944524D01*
X203010186Y-118040277D01*
X203215041Y-118178453D01*
X203389160Y-118353792D01*
X203525898Y-118559601D01*
X203620061Y-118788055D01*
X203667989Y-119030107D01*
X203667989Y-119030122D01*
X203668054Y-119030451D01*
X203664113Y-119312684D01*
X203664037Y-119313018D01*
X203664037Y-119313030D01*
X203609373Y-119553641D01*
X203508867Y-119779379D01*
X203366432Y-119981294D01*
X203187485Y-120151702D01*
X202978857Y-120284102D01*
X202748479Y-120373460D01*
X202505136Y-120416367D01*
X202258091Y-120411193D01*
X202016752Y-120358131D01*
X201790323Y-120259207D01*
X201587413Y-120118181D01*
X201415765Y-119940433D01*
X201281912Y-119732734D01*
X201190948Y-119502986D01*
X201146341Y-119259941D01*
X201149792Y-119012868D01*
X201201165Y-118771172D01*
X201298509Y-118544052D01*
X201438112Y-118340168D01*
X201614659Y-118167279D01*
X201821421Y-118031978D01*
X202050528Y-117939413D01*
X202293247Y-117893112D01*
X202540343Y-117894837D01*
X202540343Y-117894837D01*
G37*
G36*
X163580000Y-116177000D02*
X163581980Y-116190930D01*
X163587761Y-116203756D01*
X163596888Y-116214464D01*
X163608636Y-116222206D01*
X163622076Y-116226368D01*
X163630000Y-116227000D01*
X164030000Y-116227000D01*
X164043930Y-116225020D01*
X164056756Y-116219239D01*
X164067464Y-116210112D01*
X164075206Y-116198364D01*
X164079368Y-116184924D01*
X164080000Y-116177000D01*
X164080000Y-115077000D01*
X164850000Y-115077000D01*
X164850000Y-116925323D01*
X164849794Y-116925636D01*
X164845632Y-116939076D01*
X164845000Y-116947000D01*
X164845000Y-120157000D01*
X163075000Y-120157000D01*
X163075000Y-116947000D01*
X163073020Y-116933070D01*
X163067239Y-116920244D01*
X163058112Y-116909536D01*
X163046364Y-116901794D01*
X163032924Y-116897632D01*
X163025000Y-116897000D01*
X162810000Y-116897000D01*
X162810000Y-115077000D01*
X163580000Y-115077000D01*
X163580000Y-116177000D01*
X163580000Y-116177000D01*
G37*
G36*
X166120000Y-116177000D02*
X166121980Y-116190930D01*
X166127761Y-116203756D01*
X166136888Y-116214464D01*
X166148636Y-116222206D01*
X166162076Y-116226368D01*
X166170000Y-116227000D01*
X166570000Y-116227000D01*
X166583930Y-116225020D01*
X166596756Y-116219239D01*
X166607464Y-116210112D01*
X166615206Y-116198364D01*
X166619368Y-116184924D01*
X166620000Y-116177000D01*
X166620000Y-115077000D01*
X167390000Y-115077000D01*
X167390000Y-116897000D01*
X167165000Y-116897000D01*
X167151070Y-116898980D01*
X167138244Y-116904761D01*
X167127536Y-116913888D01*
X167119794Y-116925636D01*
X167115632Y-116939076D01*
X167115000Y-116947000D01*
X167115000Y-120157000D01*
X165345000Y-120157000D01*
X165345000Y-116198677D01*
X165345206Y-116198364D01*
X165349368Y-116184924D01*
X165350000Y-116177000D01*
X165350000Y-115077000D01*
X166120000Y-115077000D01*
X166120000Y-116177000D01*
X166120000Y-116177000D01*
G37*
G36*
X184456000Y-119598000D02*
X183336000Y-119598000D01*
X183336000Y-118778000D01*
X184456000Y-118778000D01*
X184456000Y-119598000D01*
X184456000Y-119598000D01*
G37*
G36*
X182678000Y-119598000D02*
X181558000Y-119598000D01*
X181558000Y-118778000D01*
X182678000Y-118778000D01*
X182678000Y-119598000D01*
X182678000Y-119598000D01*
G37*
G36*
X187720730Y-117288058D02*
X187727458Y-117288105D01*
X187936148Y-117311513D01*
X188136316Y-117375010D01*
X188320339Y-117476178D01*
X188481208Y-117611162D01*
X188612793Y-117774822D01*
X188710085Y-117960923D01*
X188769376Y-118162378D01*
X188769379Y-118162412D01*
X188769383Y-118162425D01*
X188788412Y-118371510D01*
X188766466Y-118580311D01*
X188766462Y-118580325D01*
X188766458Y-118580360D01*
X188704360Y-118780967D01*
X188604479Y-118965692D01*
X188470621Y-119127498D01*
X188307884Y-119260223D01*
X188122467Y-119358812D01*
X187921431Y-119419508D01*
X187712435Y-119440000D01*
X187191530Y-119440000D01*
X187183270Y-119439942D01*
X187176542Y-119439895D01*
X186967852Y-119416487D01*
X186767684Y-119352990D01*
X186583661Y-119251822D01*
X186422792Y-119116838D01*
X186291207Y-118953178D01*
X186193915Y-118767077D01*
X186134624Y-118565622D01*
X186134621Y-118565588D01*
X186134617Y-118565575D01*
X186115588Y-118356490D01*
X186137534Y-118147689D01*
X186137538Y-118147675D01*
X186137542Y-118147640D01*
X186199640Y-117947033D01*
X186299521Y-117762308D01*
X186433379Y-117600502D01*
X186596116Y-117467777D01*
X186781533Y-117369188D01*
X186982569Y-117308492D01*
X187191565Y-117288000D01*
X187712470Y-117288000D01*
X187720730Y-117288058D01*
X187720730Y-117288058D01*
G37*
G36*
X156959853Y-116171037D02*
X157259539Y-116232554D01*
X157541563Y-116351106D01*
X157795193Y-116522181D01*
X158010765Y-116739264D01*
X158180066Y-116994081D01*
X158296646Y-117276926D01*
X158356001Y-117576690D01*
X158356001Y-117576700D01*
X158356067Y-117577034D01*
X158351187Y-117926466D01*
X158351111Y-117926800D01*
X158351111Y-117926812D01*
X158283412Y-118224794D01*
X158158977Y-118504278D01*
X157982629Y-118754268D01*
X157761077Y-118965249D01*
X157502774Y-119129172D01*
X157217545Y-119239807D01*
X156916263Y-119292930D01*
X156610398Y-119286524D01*
X156311596Y-119220828D01*
X156031256Y-119098350D01*
X155780040Y-118923750D01*
X155567520Y-118703679D01*
X155401796Y-118446526D01*
X155289174Y-118162077D01*
X155233947Y-117861166D01*
X155238219Y-117555266D01*
X155301825Y-117256022D01*
X155422346Y-116974827D01*
X155595187Y-116722399D01*
X155813769Y-116508347D01*
X156069760Y-116340831D01*
X156353416Y-116226226D01*
X156653926Y-116168901D01*
X156959853Y-116171037D01*
X156959853Y-116171037D01*
G37*
G36*
X160359853Y-116171037D02*
X160659539Y-116232554D01*
X160941563Y-116351106D01*
X161195193Y-116522181D01*
X161410765Y-116739264D01*
X161580066Y-116994081D01*
X161696646Y-117276926D01*
X161756001Y-117576690D01*
X161756001Y-117576700D01*
X161756067Y-117577034D01*
X161751187Y-117926466D01*
X161751111Y-117926800D01*
X161751111Y-117926812D01*
X161683412Y-118224794D01*
X161558977Y-118504278D01*
X161382629Y-118754268D01*
X161161077Y-118965249D01*
X160902774Y-119129172D01*
X160617545Y-119239807D01*
X160316263Y-119292930D01*
X160010398Y-119286524D01*
X159711596Y-119220828D01*
X159431256Y-119098350D01*
X159180040Y-118923750D01*
X158967520Y-118703679D01*
X158801796Y-118446526D01*
X158689174Y-118162077D01*
X158633947Y-117861166D01*
X158638219Y-117555266D01*
X158701825Y-117256022D01*
X158822346Y-116974827D01*
X158995187Y-116722399D01*
X159213769Y-116508347D01*
X159469760Y-116340831D01*
X159753416Y-116226226D01*
X160053926Y-116168901D01*
X160359853Y-116171037D01*
X160359853Y-116171037D01*
G37*
G36*
X171036000Y-118924000D02*
X170216000Y-118924000D01*
X170216000Y-117804000D01*
X171036000Y-117804000D01*
X171036000Y-118924000D01*
X171036000Y-118924000D01*
G37*
G36*
X169636000Y-118924000D02*
X168816000Y-118924000D01*
X168816000Y-117804000D01*
X169636000Y-117804000D01*
X169636000Y-118924000D01*
X169636000Y-118924000D01*
G37*
G36*
X191140343Y-116144837D02*
X191382397Y-116194524D01*
X191610186Y-116290277D01*
X191815041Y-116428453D01*
X191989160Y-116603792D01*
X192125898Y-116809601D01*
X192220061Y-117038055D01*
X192267989Y-117280107D01*
X192267989Y-117280122D01*
X192268054Y-117280451D01*
X192264113Y-117562684D01*
X192264037Y-117563018D01*
X192264037Y-117563030D01*
X192209373Y-117803641D01*
X192108867Y-118029379D01*
X191966432Y-118231294D01*
X191787485Y-118401702D01*
X191578857Y-118534102D01*
X191348479Y-118623460D01*
X191105136Y-118666367D01*
X190858091Y-118661193D01*
X190616752Y-118608131D01*
X190390323Y-118509207D01*
X190187413Y-118368181D01*
X190015765Y-118190433D01*
X189881912Y-117982734D01*
X189790948Y-117752986D01*
X189746341Y-117509941D01*
X189749792Y-117262868D01*
X189801165Y-117021172D01*
X189898509Y-116794052D01*
X190038112Y-116590168D01*
X190214659Y-116417279D01*
X190421421Y-116281978D01*
X190650528Y-116189413D01*
X190893247Y-116143112D01*
X191140343Y-116144837D01*
X191140343Y-116144837D01*
G37*
G36*
X182678000Y-117950000D02*
X181558000Y-117950000D01*
X181558000Y-117130000D01*
X182678000Y-117130000D01*
X182678000Y-117950000D01*
X182678000Y-117950000D01*
G37*
G36*
X184456000Y-117950000D02*
X183336000Y-117950000D01*
X183336000Y-117130000D01*
X184456000Y-117130000D01*
X184456000Y-117950000D01*
X184456000Y-117950000D01*
G37*
G36*
X169636000Y-117146000D02*
X168816000Y-117146000D01*
X168816000Y-116026000D01*
X169636000Y-116026000D01*
X169636000Y-117146000D01*
X169636000Y-117146000D01*
G37*
G36*
X171036000Y-117146000D02*
X170216000Y-117146000D01*
X170216000Y-116026000D01*
X171036000Y-116026000D01*
X171036000Y-117146000D01*
X171036000Y-117146000D01*
G37*
G36*
X202540343Y-114394837D02*
X202782397Y-114444524D01*
X203010186Y-114540277D01*
X203215041Y-114678453D01*
X203389160Y-114853792D01*
X203525898Y-115059601D01*
X203620061Y-115288055D01*
X203667989Y-115530107D01*
X203667989Y-115530122D01*
X203668054Y-115530451D01*
X203664113Y-115812684D01*
X203664037Y-115813018D01*
X203664037Y-115813030D01*
X203609373Y-116053641D01*
X203508867Y-116279379D01*
X203366432Y-116481294D01*
X203187485Y-116651702D01*
X202978857Y-116784102D01*
X202748479Y-116873460D01*
X202505136Y-116916367D01*
X202258091Y-116911193D01*
X202016752Y-116858131D01*
X201790323Y-116759207D01*
X201587413Y-116618181D01*
X201415765Y-116440433D01*
X201281912Y-116232734D01*
X201190948Y-116002986D01*
X201146341Y-115759941D01*
X201149792Y-115512868D01*
X201201165Y-115271172D01*
X201298509Y-115044052D01*
X201438112Y-114840168D01*
X201614659Y-114667279D01*
X201821421Y-114531978D01*
X202050528Y-114439413D01*
X202293247Y-114393112D01*
X202540343Y-114394837D01*
X202540343Y-114394837D01*
G37*
G36*
X187720730Y-114748058D02*
X187727458Y-114748105D01*
X187936148Y-114771513D01*
X188136316Y-114835010D01*
X188320339Y-114936178D01*
X188481208Y-115071162D01*
X188612793Y-115234822D01*
X188710085Y-115420923D01*
X188769376Y-115622378D01*
X188769379Y-115622412D01*
X188769383Y-115622425D01*
X188788412Y-115831510D01*
X188766466Y-116040311D01*
X188766462Y-116040325D01*
X188766458Y-116040360D01*
X188704360Y-116240967D01*
X188604479Y-116425692D01*
X188470621Y-116587498D01*
X188307884Y-116720223D01*
X188122467Y-116818812D01*
X187921431Y-116879508D01*
X187712435Y-116900000D01*
X187191530Y-116900000D01*
X187183270Y-116899942D01*
X187176542Y-116899895D01*
X186967852Y-116876487D01*
X186767684Y-116812990D01*
X186583661Y-116711822D01*
X186422792Y-116576838D01*
X186291207Y-116413178D01*
X186193915Y-116227077D01*
X186134624Y-116025622D01*
X186134621Y-116025588D01*
X186134617Y-116025575D01*
X186115588Y-115816490D01*
X186137534Y-115607689D01*
X186137538Y-115607675D01*
X186137542Y-115607640D01*
X186199640Y-115407033D01*
X186299521Y-115222308D01*
X186433379Y-115060502D01*
X186596116Y-114927777D01*
X186781533Y-114829188D01*
X186982569Y-114768492D01*
X187191565Y-114748000D01*
X187712470Y-114748000D01*
X187720730Y-114748058D01*
X187720730Y-114748058D01*
G37*
G36*
X184456000Y-116550000D02*
X183336000Y-116550000D01*
X183336000Y-115730000D01*
X184456000Y-115730000D01*
X184456000Y-116550000D01*
X184456000Y-116550000D01*
G37*
G36*
X182678000Y-116550000D02*
X181558000Y-116550000D01*
X181558000Y-115730000D01*
X182678000Y-115730000D01*
X182678000Y-116550000D01*
X182678000Y-116550000D01*
G37*
G36*
X191140343Y-112644837D02*
X191382397Y-112694524D01*
X191610186Y-112790277D01*
X191815041Y-112928453D01*
X191989160Y-113103792D01*
X192125898Y-113309601D01*
X192220061Y-113538055D01*
X192267989Y-113780107D01*
X192267989Y-113780122D01*
X192268054Y-113780451D01*
X192264113Y-114062684D01*
X192264037Y-114063018D01*
X192264037Y-114063030D01*
X192209373Y-114303641D01*
X192108867Y-114529379D01*
X191966432Y-114731294D01*
X191787485Y-114901702D01*
X191578857Y-115034102D01*
X191348479Y-115123460D01*
X191105136Y-115166367D01*
X190858091Y-115161193D01*
X190616752Y-115108131D01*
X190390323Y-115009207D01*
X190187413Y-114868181D01*
X190015765Y-114690433D01*
X189881912Y-114482734D01*
X189790948Y-114252986D01*
X189746341Y-114009941D01*
X189749792Y-113762868D01*
X189801165Y-113521172D01*
X189898509Y-113294052D01*
X190038112Y-113090168D01*
X190214659Y-112917279D01*
X190421421Y-112781978D01*
X190650528Y-112689413D01*
X190893247Y-112643112D01*
X191140343Y-112644837D01*
X191140343Y-112644837D01*
G37*
G36*
X187720730Y-112208058D02*
X187727458Y-112208105D01*
X187936148Y-112231513D01*
X188136316Y-112295010D01*
X188320339Y-112396178D01*
X188481208Y-112531162D01*
X188612793Y-112694822D01*
X188710085Y-112880923D01*
X188769376Y-113082378D01*
X188769379Y-113082412D01*
X188769383Y-113082425D01*
X188788412Y-113291510D01*
X188766466Y-113500311D01*
X188766462Y-113500325D01*
X188766458Y-113500360D01*
X188704360Y-113700967D01*
X188604479Y-113885692D01*
X188470621Y-114047498D01*
X188307884Y-114180223D01*
X188122467Y-114278812D01*
X187921431Y-114339508D01*
X187712435Y-114360000D01*
X187191530Y-114360000D01*
X187183270Y-114359942D01*
X187176542Y-114359895D01*
X186967852Y-114336487D01*
X186767684Y-114272990D01*
X186583661Y-114171822D01*
X186422792Y-114036838D01*
X186291207Y-113873178D01*
X186193915Y-113687077D01*
X186134624Y-113485622D01*
X186134621Y-113485588D01*
X186134617Y-113485575D01*
X186115588Y-113276490D01*
X186137534Y-113067689D01*
X186137538Y-113067675D01*
X186137542Y-113067640D01*
X186199640Y-112867033D01*
X186299521Y-112682308D01*
X186433379Y-112520502D01*
X186596116Y-112387777D01*
X186781533Y-112289188D01*
X186982569Y-112228492D01*
X187191565Y-112208000D01*
X187712470Y-112208000D01*
X187720730Y-112208058D01*
X187720730Y-112208058D01*
G37*
G36*
X167125000Y-111653000D02*
X167126980Y-111666930D01*
X167132761Y-111679756D01*
X167141888Y-111690464D01*
X167153636Y-111698206D01*
X167167076Y-111702368D01*
X167175000Y-111703000D01*
X167390000Y-111703000D01*
X167390000Y-113523000D01*
X166620000Y-113523000D01*
X166620000Y-112423000D01*
X166618020Y-112409070D01*
X166612239Y-112396244D01*
X166603112Y-112385536D01*
X166591364Y-112377794D01*
X166577924Y-112373632D01*
X166570000Y-112373000D01*
X166170000Y-112373000D01*
X166156070Y-112374980D01*
X166143244Y-112380761D01*
X166132536Y-112389888D01*
X166124794Y-112401636D01*
X166120632Y-112415076D01*
X166120000Y-112423000D01*
X166120000Y-113523000D01*
X165350000Y-113523000D01*
X165350000Y-111674677D01*
X165350206Y-111674364D01*
X165354368Y-111660924D01*
X165355000Y-111653000D01*
X165355000Y-108443000D01*
X167125000Y-108443000D01*
X167125000Y-111653000D01*
X167125000Y-111653000D01*
G37*
G36*
X164855000Y-112401323D02*
X164854794Y-112401636D01*
X164850632Y-112415076D01*
X164850000Y-112423000D01*
X164850000Y-113523000D01*
X164080000Y-113523000D01*
X164080000Y-112423000D01*
X164078020Y-112409070D01*
X164072239Y-112396244D01*
X164063112Y-112385536D01*
X164051364Y-112377794D01*
X164037924Y-112373632D01*
X164030000Y-112373000D01*
X163630000Y-112373000D01*
X163616070Y-112374980D01*
X163603244Y-112380761D01*
X163592536Y-112389888D01*
X163584794Y-112401636D01*
X163580632Y-112415076D01*
X163580000Y-112423000D01*
X163580000Y-113523000D01*
X162810000Y-113523000D01*
X162810000Y-111703000D01*
X163035000Y-111703000D01*
X163048930Y-111701020D01*
X163061756Y-111695239D01*
X163072464Y-111686112D01*
X163080206Y-111674364D01*
X163084368Y-111660924D01*
X163085000Y-111653000D01*
X163085000Y-108443000D01*
X164855000Y-108443000D01*
X164855000Y-112401323D01*
X164855000Y-112401323D01*
G37*
G36*
X202540343Y-110894837D02*
X202782397Y-110944524D01*
X203010186Y-111040277D01*
X203215041Y-111178453D01*
X203389160Y-111353792D01*
X203525898Y-111559601D01*
X203620061Y-111788055D01*
X203667989Y-112030107D01*
X203667989Y-112030122D01*
X203668054Y-112030451D01*
X203664113Y-112312684D01*
X203664037Y-112313018D01*
X203664037Y-112313030D01*
X203609373Y-112553641D01*
X203508867Y-112779379D01*
X203366432Y-112981294D01*
X203187485Y-113151702D01*
X202978857Y-113284102D01*
X202748479Y-113373460D01*
X202505136Y-113416367D01*
X202258091Y-113411193D01*
X202016752Y-113358131D01*
X201790323Y-113259207D01*
X201587413Y-113118181D01*
X201415765Y-112940433D01*
X201281912Y-112732734D01*
X201190948Y-112502986D01*
X201146341Y-112259941D01*
X201149792Y-112012868D01*
X201201165Y-111771172D01*
X201298509Y-111544052D01*
X201438112Y-111340168D01*
X201614659Y-111167279D01*
X201821421Y-111031978D01*
X202050528Y-110939413D01*
X202293247Y-110893112D01*
X202540343Y-110894837D01*
X202540343Y-110894837D01*
G37*
G36*
X160359853Y-109311037D02*
X160659539Y-109372554D01*
X160941563Y-109491106D01*
X161195193Y-109662181D01*
X161410765Y-109879264D01*
X161580066Y-110134081D01*
X161696646Y-110416926D01*
X161756001Y-110716690D01*
X161756001Y-110716700D01*
X161756067Y-110717034D01*
X161751187Y-111066466D01*
X161751111Y-111066800D01*
X161751111Y-111066812D01*
X161683412Y-111364794D01*
X161558977Y-111644278D01*
X161382629Y-111894268D01*
X161161077Y-112105249D01*
X160902774Y-112269172D01*
X160617545Y-112379807D01*
X160316263Y-112432930D01*
X160010398Y-112426524D01*
X159711596Y-112360828D01*
X159431256Y-112238350D01*
X159180040Y-112063750D01*
X158967520Y-111843679D01*
X158801796Y-111586526D01*
X158689174Y-111302077D01*
X158633947Y-111001166D01*
X158638219Y-110695266D01*
X158701825Y-110396022D01*
X158822346Y-110114827D01*
X158995187Y-109862399D01*
X159213769Y-109648347D01*
X159469760Y-109480831D01*
X159753416Y-109366226D01*
X160053926Y-109308901D01*
X160359853Y-109311037D01*
X160359853Y-109311037D01*
G37*
G36*
X156959853Y-109311037D02*
X157259539Y-109372554D01*
X157541563Y-109491106D01*
X157795193Y-109662181D01*
X158010765Y-109879264D01*
X158180066Y-110134081D01*
X158296646Y-110416926D01*
X158356001Y-110716690D01*
X158356001Y-110716700D01*
X158356067Y-110717034D01*
X158351187Y-111066466D01*
X158351111Y-111066800D01*
X158351111Y-111066812D01*
X158283412Y-111364794D01*
X158158977Y-111644278D01*
X157982629Y-111894268D01*
X157761077Y-112105249D01*
X157502774Y-112269172D01*
X157217545Y-112379807D01*
X156916263Y-112432930D01*
X156610398Y-112426524D01*
X156311596Y-112360828D01*
X156031256Y-112238350D01*
X155780040Y-112063750D01*
X155567520Y-111843679D01*
X155401796Y-111586526D01*
X155289174Y-111302077D01*
X155233947Y-111001166D01*
X155238219Y-110695266D01*
X155301825Y-110396022D01*
X155422346Y-110114827D01*
X155595187Y-109862399D01*
X155813769Y-109648347D01*
X156069760Y-109480831D01*
X156353416Y-109366226D01*
X156653926Y-109308901D01*
X156959853Y-109311037D01*
X156959853Y-109311037D01*
G37*
G36*
X187720730Y-109668058D02*
X187727458Y-109668105D01*
X187936148Y-109691513D01*
X188136316Y-109755010D01*
X188320339Y-109856178D01*
X188481208Y-109991162D01*
X188612793Y-110154822D01*
X188710085Y-110340923D01*
X188769376Y-110542378D01*
X188769379Y-110542412D01*
X188769383Y-110542425D01*
X188788412Y-110751510D01*
X188766466Y-110960311D01*
X188766462Y-110960325D01*
X188766458Y-110960360D01*
X188704360Y-111160967D01*
X188604479Y-111345692D01*
X188470621Y-111507498D01*
X188307884Y-111640223D01*
X188122467Y-111738812D01*
X187921431Y-111799508D01*
X187712435Y-111820000D01*
X187191530Y-111820000D01*
X187183270Y-111819942D01*
X187176542Y-111819895D01*
X186967852Y-111796487D01*
X186767684Y-111732990D01*
X186583661Y-111631822D01*
X186422792Y-111496838D01*
X186291207Y-111333178D01*
X186193915Y-111147077D01*
X186134624Y-110945622D01*
X186134621Y-110945588D01*
X186134617Y-110945575D01*
X186115588Y-110736490D01*
X186137534Y-110527689D01*
X186137538Y-110527675D01*
X186137542Y-110527640D01*
X186199640Y-110327033D01*
X186299521Y-110142308D01*
X186433379Y-109980502D01*
X186596116Y-109847777D01*
X186781533Y-109749188D01*
X186982569Y-109688492D01*
X187191565Y-109668000D01*
X187712470Y-109668000D01*
X187720730Y-109668058D01*
X187720730Y-109668058D01*
G37*
G36*
X184806000Y-111172000D02*
X182986000Y-111172000D01*
X182986000Y-109752000D01*
X184806000Y-109752000D01*
X184806000Y-111172000D01*
X184806000Y-111172000D01*
G37*
G36*
X192268000Y-109972000D02*
X189748000Y-109972000D01*
X189748000Y-107452000D01*
X192268000Y-107452000D01*
X192268000Y-109972000D01*
X192268000Y-109972000D01*
G37*
G36*
X187720730Y-107128058D02*
X187727458Y-107128105D01*
X187936148Y-107151513D01*
X188136316Y-107215010D01*
X188320339Y-107316178D01*
X188481208Y-107451162D01*
X188612793Y-107614822D01*
X188710085Y-107800923D01*
X188769376Y-108002378D01*
X188769379Y-108002412D01*
X188769383Y-108002425D01*
X188788412Y-108211510D01*
X188766466Y-108420311D01*
X188766462Y-108420325D01*
X188766458Y-108420360D01*
X188704360Y-108620967D01*
X188604479Y-108805692D01*
X188470621Y-108967498D01*
X188307884Y-109100223D01*
X188122467Y-109198812D01*
X187921431Y-109259508D01*
X187712435Y-109280000D01*
X187191530Y-109280000D01*
X187183270Y-109279942D01*
X187176542Y-109279895D01*
X186967852Y-109256487D01*
X186767684Y-109192990D01*
X186583661Y-109091822D01*
X186422792Y-108956838D01*
X186291207Y-108793178D01*
X186193915Y-108607077D01*
X186134624Y-108405622D01*
X186134621Y-108405588D01*
X186134617Y-108405575D01*
X186115588Y-108196490D01*
X186137534Y-107987689D01*
X186137538Y-107987675D01*
X186137542Y-107987640D01*
X186199640Y-107787033D01*
X186299521Y-107602308D01*
X186433379Y-107440502D01*
X186596116Y-107307777D01*
X186781533Y-107209188D01*
X186982569Y-107148492D01*
X187191565Y-107128000D01*
X187712470Y-107128000D01*
X187720730Y-107128058D01*
X187720730Y-107128058D01*
G37*
G36*
X202540343Y-105702837D02*
X202782397Y-105752524D01*
X203010186Y-105848277D01*
X203215041Y-105986453D01*
X203389160Y-106161792D01*
X203525898Y-106367601D01*
X203620061Y-106596055D01*
X203667989Y-106838107D01*
X203667989Y-106838122D01*
X203668054Y-106838451D01*
X203664113Y-107120684D01*
X203664037Y-107121018D01*
X203664037Y-107121030D01*
X203609373Y-107361641D01*
X203508867Y-107587379D01*
X203366432Y-107789294D01*
X203187485Y-107959702D01*
X202978857Y-108092102D01*
X202748479Y-108181460D01*
X202505136Y-108224367D01*
X202258091Y-108219193D01*
X202016752Y-108166131D01*
X201790323Y-108067207D01*
X201587413Y-107926181D01*
X201415765Y-107748433D01*
X201281912Y-107540734D01*
X201190948Y-107310986D01*
X201146341Y-107067941D01*
X201149792Y-106820868D01*
X201201165Y-106579172D01*
X201298509Y-106352052D01*
X201438112Y-106148168D01*
X201614659Y-105975279D01*
X201821421Y-105839978D01*
X202050528Y-105747413D01*
X202293247Y-105701112D01*
X202540343Y-105702837D01*
X202540343Y-105702837D01*
G37*
G36*
X167390000Y-107753000D02*
X166620000Y-107753000D01*
X166620000Y-105933000D01*
X167390000Y-105933000D01*
X167390000Y-107753000D01*
X167390000Y-107753000D01*
G37*
G36*
X166120000Y-107753000D02*
X165350000Y-107753000D01*
X165350000Y-105933000D01*
X166120000Y-105933000D01*
X166120000Y-107753000D01*
X166120000Y-107753000D01*
G37*
G36*
X163580000Y-107753000D02*
X162810000Y-107753000D01*
X162810000Y-105933000D01*
X163580000Y-105933000D01*
X163580000Y-107753000D01*
X163580000Y-107753000D01*
G37*
G36*
X164850000Y-107753000D02*
X164080000Y-107753000D01*
X164080000Y-105933000D01*
X164850000Y-105933000D01*
X164850000Y-107753000D01*
X164850000Y-107753000D01*
G37*
G36*
X184806000Y-107672000D02*
X182986000Y-107672000D01*
X182986000Y-106252000D01*
X184806000Y-106252000D01*
X184806000Y-107672000D01*
X184806000Y-107672000D01*
G37*
G36*
X187720730Y-104588058D02*
X187727458Y-104588105D01*
X187936148Y-104611513D01*
X188136316Y-104675010D01*
X188320339Y-104776178D01*
X188481208Y-104911162D01*
X188612793Y-105074822D01*
X188710085Y-105260923D01*
X188769376Y-105462378D01*
X188769379Y-105462412D01*
X188769383Y-105462425D01*
X188788412Y-105671510D01*
X188766466Y-105880311D01*
X188766462Y-105880325D01*
X188766458Y-105880360D01*
X188704360Y-106080967D01*
X188604479Y-106265692D01*
X188470621Y-106427498D01*
X188307884Y-106560223D01*
X188122467Y-106658812D01*
X187921431Y-106719508D01*
X187712435Y-106740000D01*
X187191530Y-106740000D01*
X187183270Y-106739942D01*
X187176542Y-106739895D01*
X186967852Y-106716487D01*
X186767684Y-106652990D01*
X186583661Y-106551822D01*
X186422792Y-106416838D01*
X186291207Y-106253178D01*
X186193915Y-106067077D01*
X186134624Y-105865622D01*
X186134621Y-105865588D01*
X186134617Y-105865575D01*
X186115588Y-105656490D01*
X186137534Y-105447689D01*
X186137538Y-105447675D01*
X186137542Y-105447640D01*
X186199640Y-105247033D01*
X186299521Y-105062308D01*
X186433379Y-104900502D01*
X186596116Y-104767777D01*
X186781533Y-104669188D01*
X186982569Y-104608492D01*
X187191565Y-104588000D01*
X187712470Y-104588000D01*
X187720730Y-104588058D01*
X187720730Y-104588058D01*
G37*
G36*
X191140343Y-103952837D02*
X191382397Y-104002524D01*
X191610186Y-104098277D01*
X191815041Y-104236453D01*
X191989160Y-104411792D01*
X192125898Y-104617601D01*
X192220061Y-104846055D01*
X192267989Y-105088107D01*
X192267989Y-105088122D01*
X192268054Y-105088451D01*
X192264113Y-105370684D01*
X192264037Y-105371018D01*
X192264037Y-105371030D01*
X192209373Y-105611641D01*
X192108867Y-105837379D01*
X191966432Y-106039294D01*
X191787485Y-106209702D01*
X191578857Y-106342102D01*
X191348479Y-106431460D01*
X191105136Y-106474367D01*
X190858091Y-106469193D01*
X190616752Y-106416131D01*
X190390323Y-106317207D01*
X190187413Y-106176181D01*
X190015765Y-105998433D01*
X189881912Y-105790734D01*
X189790948Y-105560986D01*
X189746341Y-105317941D01*
X189749792Y-105070868D01*
X189801165Y-104829172D01*
X189898509Y-104602052D01*
X190038112Y-104398168D01*
X190214659Y-104225279D01*
X190421421Y-104089978D01*
X190650528Y-103997413D01*
X190893247Y-103951112D01*
X191140343Y-103952837D01*
X191140343Y-103952837D01*
G37*
G36*
X172878329Y-103123571D02*
X173043541Y-103157485D01*
X173199015Y-103222840D01*
X173338837Y-103317150D01*
X173457680Y-103436826D01*
X173551012Y-103577301D01*
X173615280Y-103733227D01*
X173647971Y-103898329D01*
X173647971Y-103898339D01*
X173648037Y-103898673D01*
X173645347Y-104091308D01*
X173645271Y-104091642D01*
X173645271Y-104091653D01*
X173607984Y-104255771D01*
X173539386Y-104409846D01*
X173442169Y-104547661D01*
X173320029Y-104663972D01*
X173177633Y-104754339D01*
X173020390Y-104815331D01*
X172854300Y-104844616D01*
X172685682Y-104841085D01*
X172520955Y-104804867D01*
X172366410Y-104737348D01*
X172227919Y-104641094D01*
X172110759Y-104519771D01*
X172019400Y-104378010D01*
X171957313Y-104221198D01*
X171926867Y-104055308D01*
X171929223Y-103886671D01*
X171964287Y-103721705D01*
X172030729Y-103566686D01*
X172126013Y-103427527D01*
X172246514Y-103309523D01*
X172387635Y-103217176D01*
X172544013Y-103153995D01*
X172709675Y-103122393D01*
X172878329Y-103123571D01*
X172878329Y-103123571D01*
G37*
G36*
X177148000Y-104843000D02*
X175428000Y-104843000D01*
X175428000Y-103123000D01*
X177148000Y-103123000D01*
X177148000Y-104843000D01*
X177148000Y-104843000D01*
G37*
G36*
X202540343Y-102202837D02*
X202782397Y-102252524D01*
X203010186Y-102348277D01*
X203215041Y-102486453D01*
X203389160Y-102661792D01*
X203525898Y-102867601D01*
X203620061Y-103096055D01*
X203667989Y-103338107D01*
X203667989Y-103338122D01*
X203668054Y-103338451D01*
X203664113Y-103620684D01*
X203664037Y-103621018D01*
X203664037Y-103621030D01*
X203609373Y-103861641D01*
X203508867Y-104087379D01*
X203366432Y-104289294D01*
X203187485Y-104459702D01*
X202978857Y-104592102D01*
X202748479Y-104681460D01*
X202505136Y-104724367D01*
X202258091Y-104719193D01*
X202016752Y-104666131D01*
X201790323Y-104567207D01*
X201587413Y-104426181D01*
X201415765Y-104248433D01*
X201281912Y-104040734D01*
X201190948Y-103810986D01*
X201146341Y-103567941D01*
X201149792Y-103320868D01*
X201201165Y-103079172D01*
X201298509Y-102852052D01*
X201438112Y-102648168D01*
X201614659Y-102475279D01*
X201821421Y-102339978D01*
X202050528Y-102247413D01*
X202293247Y-102201112D01*
X202540343Y-102202837D01*
X202540343Y-102202837D01*
G37*
G36*
X187720730Y-102048058D02*
X187727458Y-102048105D01*
X187936148Y-102071513D01*
X188136316Y-102135010D01*
X188320339Y-102236178D01*
X188481208Y-102371162D01*
X188612793Y-102534822D01*
X188710085Y-102720923D01*
X188769376Y-102922378D01*
X188769379Y-102922412D01*
X188769383Y-102922425D01*
X188788412Y-103131510D01*
X188766466Y-103340311D01*
X188766462Y-103340325D01*
X188766458Y-103340360D01*
X188704360Y-103540967D01*
X188604479Y-103725692D01*
X188470621Y-103887498D01*
X188307884Y-104020223D01*
X188122467Y-104118812D01*
X187921431Y-104179508D01*
X187712435Y-104200000D01*
X187191530Y-104200000D01*
X187183270Y-104199942D01*
X187176542Y-104199895D01*
X186967852Y-104176487D01*
X186767684Y-104112990D01*
X186583661Y-104011822D01*
X186422792Y-103876838D01*
X186291207Y-103713178D01*
X186193915Y-103527077D01*
X186134624Y-103325622D01*
X186134621Y-103325588D01*
X186134617Y-103325575D01*
X186115588Y-103116490D01*
X186137534Y-102907689D01*
X186137538Y-102907675D01*
X186137542Y-102907640D01*
X186199640Y-102707033D01*
X186299521Y-102522308D01*
X186433379Y-102360502D01*
X186596116Y-102227777D01*
X186781533Y-102129188D01*
X186982569Y-102068492D01*
X187191565Y-102048000D01*
X187712470Y-102048000D01*
X187720730Y-102048058D01*
X187720730Y-102048058D01*
G37*
G36*
X191140343Y-100452837D02*
X191382397Y-100502524D01*
X191610186Y-100598277D01*
X191815041Y-100736453D01*
X191989160Y-100911792D01*
X192125898Y-101117601D01*
X192220061Y-101346055D01*
X192267989Y-101588107D01*
X192267989Y-101588122D01*
X192268054Y-101588451D01*
X192264113Y-101870684D01*
X192264037Y-101871018D01*
X192264037Y-101871030D01*
X192209373Y-102111641D01*
X192108867Y-102337379D01*
X191966432Y-102539294D01*
X191787485Y-102709702D01*
X191578857Y-102842102D01*
X191348479Y-102931460D01*
X191105136Y-102974367D01*
X190858091Y-102969193D01*
X190616752Y-102916131D01*
X190390323Y-102817207D01*
X190187413Y-102676181D01*
X190015765Y-102498433D01*
X189881912Y-102290734D01*
X189790948Y-102060986D01*
X189746341Y-101817941D01*
X189749792Y-101570868D01*
X189801165Y-101329172D01*
X189898509Y-101102052D01*
X190038112Y-100898168D01*
X190214659Y-100725279D01*
X190421421Y-100589978D01*
X190650528Y-100497413D01*
X190893247Y-100451112D01*
X191140343Y-100452837D01*
X191140343Y-100452837D01*
G37*
G36*
X187720730Y-99508058D02*
X187727458Y-99508105D01*
X187936148Y-99531513D01*
X188136316Y-99595010D01*
X188320339Y-99696178D01*
X188481208Y-99831162D01*
X188612793Y-99994822D01*
X188710085Y-100180923D01*
X188769376Y-100382378D01*
X188769379Y-100382412D01*
X188769383Y-100382425D01*
X188788412Y-100591510D01*
X188766466Y-100800311D01*
X188766462Y-100800325D01*
X188766458Y-100800360D01*
X188704360Y-101000967D01*
X188604479Y-101185692D01*
X188470621Y-101347498D01*
X188307884Y-101480223D01*
X188122467Y-101578812D01*
X187921431Y-101639508D01*
X187712435Y-101660000D01*
X187191530Y-101660000D01*
X187183270Y-101659942D01*
X187176542Y-101659895D01*
X186967852Y-101636487D01*
X186767684Y-101572990D01*
X186583661Y-101471822D01*
X186422792Y-101336838D01*
X186291207Y-101173178D01*
X186193915Y-100987077D01*
X186134624Y-100785622D01*
X186134621Y-100785588D01*
X186134617Y-100785575D01*
X186115588Y-100576490D01*
X186137534Y-100367689D01*
X186137538Y-100367675D01*
X186137542Y-100367640D01*
X186199640Y-100167033D01*
X186299521Y-99982308D01*
X186433379Y-99820502D01*
X186596116Y-99687777D01*
X186781533Y-99589188D01*
X186982569Y-99528492D01*
X187191565Y-99508000D01*
X187712470Y-99508000D01*
X187720730Y-99508058D01*
X187720730Y-99508058D01*
G37*
G36*
X202540343Y-98702837D02*
X202782397Y-98752524D01*
X203010186Y-98848277D01*
X203215041Y-98986453D01*
X203389160Y-99161792D01*
X203525898Y-99367601D01*
X203620061Y-99596055D01*
X203667989Y-99838107D01*
X203667989Y-99838122D01*
X203668054Y-99838451D01*
X203664113Y-100120684D01*
X203664037Y-100121018D01*
X203664037Y-100121030D01*
X203609373Y-100361641D01*
X203508867Y-100587379D01*
X203366432Y-100789294D01*
X203187485Y-100959702D01*
X202978857Y-101092102D01*
X202748479Y-101181460D01*
X202505136Y-101224367D01*
X202258091Y-101219193D01*
X202016752Y-101166131D01*
X201790323Y-101067207D01*
X201587413Y-100926181D01*
X201415765Y-100748433D01*
X201281912Y-100540734D01*
X201190948Y-100310986D01*
X201146341Y-100067941D01*
X201149792Y-99820868D01*
X201201165Y-99579172D01*
X201298509Y-99352052D01*
X201438112Y-99148168D01*
X201614659Y-98975279D01*
X201821421Y-98839978D01*
X202050528Y-98747413D01*
X202293247Y-98701112D01*
X202540343Y-98702837D01*
X202540343Y-98702837D01*
G37*
G36*
X187720730Y-96968058D02*
X187727458Y-96968105D01*
X187936148Y-96991513D01*
X188136316Y-97055010D01*
X188320339Y-97156178D01*
X188481208Y-97291162D01*
X188612793Y-97454822D01*
X188710085Y-97640923D01*
X188769376Y-97842378D01*
X188769379Y-97842412D01*
X188769383Y-97842425D01*
X188788412Y-98051510D01*
X188766466Y-98260311D01*
X188766462Y-98260325D01*
X188766458Y-98260360D01*
X188704360Y-98460967D01*
X188604479Y-98645692D01*
X188470621Y-98807498D01*
X188307884Y-98940223D01*
X188122467Y-99038812D01*
X187921431Y-99099508D01*
X187712435Y-99120000D01*
X187191530Y-99120000D01*
X187183270Y-99119942D01*
X187176542Y-99119895D01*
X186967852Y-99096487D01*
X186767684Y-99032990D01*
X186583661Y-98931822D01*
X186422792Y-98796838D01*
X186291207Y-98633178D01*
X186193915Y-98447077D01*
X186134624Y-98245622D01*
X186134621Y-98245588D01*
X186134617Y-98245575D01*
X186115588Y-98036490D01*
X186137534Y-97827689D01*
X186137538Y-97827675D01*
X186137542Y-97827640D01*
X186199640Y-97627033D01*
X186299521Y-97442308D01*
X186433379Y-97280502D01*
X186596116Y-97147777D01*
X186781533Y-97049188D01*
X186982569Y-96988492D01*
X187191565Y-96968000D01*
X187712470Y-96968000D01*
X187720730Y-96968058D01*
X187720730Y-96968058D01*
G37*
G36*
X160359853Y-95911037D02*
X160659539Y-95972554D01*
X160941563Y-96091106D01*
X161195193Y-96262181D01*
X161410765Y-96479264D01*
X161580066Y-96734081D01*
X161696646Y-97016926D01*
X161756001Y-97316690D01*
X161756001Y-97316700D01*
X161756067Y-97317034D01*
X161751187Y-97666466D01*
X161751111Y-97666800D01*
X161751111Y-97666812D01*
X161683412Y-97964794D01*
X161558977Y-98244278D01*
X161382629Y-98494268D01*
X161161077Y-98705249D01*
X160902774Y-98869172D01*
X160617545Y-98979807D01*
X160316263Y-99032930D01*
X160010398Y-99026524D01*
X159711596Y-98960828D01*
X159431256Y-98838350D01*
X159180040Y-98663750D01*
X158967520Y-98443679D01*
X158801796Y-98186526D01*
X158689174Y-97902077D01*
X158633947Y-97601166D01*
X158638219Y-97295266D01*
X158701825Y-96996022D01*
X158822346Y-96714827D01*
X158995187Y-96462399D01*
X159213769Y-96248347D01*
X159469760Y-96080831D01*
X159753416Y-95966226D01*
X160053926Y-95908901D01*
X160359853Y-95911037D01*
X160359853Y-95911037D01*
G37*
G36*
X156959853Y-95841037D02*
X157259539Y-95902554D01*
X157541563Y-96021106D01*
X157795193Y-96192181D01*
X158010765Y-96409264D01*
X158180066Y-96664081D01*
X158296646Y-96946926D01*
X158356001Y-97246690D01*
X158356001Y-97246700D01*
X158356067Y-97247034D01*
X158351187Y-97596466D01*
X158351111Y-97596800D01*
X158351111Y-97596812D01*
X158283412Y-97894794D01*
X158158977Y-98174278D01*
X157982629Y-98424268D01*
X157761077Y-98635249D01*
X157502774Y-98799172D01*
X157217545Y-98909807D01*
X156916263Y-98962930D01*
X156610398Y-98956524D01*
X156311596Y-98890828D01*
X156031256Y-98768350D01*
X155780040Y-98593750D01*
X155567520Y-98373679D01*
X155401796Y-98116526D01*
X155289174Y-97832077D01*
X155233947Y-97531166D01*
X155238219Y-97225266D01*
X155301825Y-96926022D01*
X155422346Y-96644827D01*
X155595187Y-96392399D01*
X155813769Y-96178347D01*
X156069760Y-96010831D01*
X156353416Y-95896226D01*
X156653926Y-95838901D01*
X156959853Y-95841037D01*
X156959853Y-95841037D01*
G37*
G36*
X170078329Y-96520571D02*
X170243541Y-96554485D01*
X170399015Y-96619840D01*
X170538837Y-96714150D01*
X170657680Y-96833826D01*
X170751012Y-96974301D01*
X170815280Y-97130227D01*
X170847971Y-97295329D01*
X170847971Y-97295339D01*
X170848037Y-97295673D01*
X170845347Y-97488308D01*
X170845271Y-97488642D01*
X170845271Y-97488653D01*
X170807984Y-97652771D01*
X170739386Y-97806846D01*
X170642169Y-97944661D01*
X170520029Y-98060972D01*
X170377633Y-98151339D01*
X170220390Y-98212331D01*
X170054300Y-98241616D01*
X169885682Y-98238085D01*
X169720955Y-98201867D01*
X169566410Y-98134348D01*
X169427919Y-98038094D01*
X169310759Y-97916771D01*
X169219400Y-97775010D01*
X169157313Y-97618198D01*
X169126867Y-97452308D01*
X169129223Y-97283671D01*
X169164287Y-97118705D01*
X169230729Y-96963686D01*
X169326013Y-96824527D01*
X169446514Y-96706523D01*
X169587635Y-96614176D01*
X169744013Y-96550995D01*
X169909675Y-96519393D01*
X170078329Y-96520571D01*
X170078329Y-96520571D01*
G37*
G36*
X187720730Y-94428058D02*
X187727458Y-94428105D01*
X187936148Y-94451513D01*
X188136316Y-94515010D01*
X188320339Y-94616178D01*
X188481208Y-94751162D01*
X188612793Y-94914822D01*
X188710085Y-95100923D01*
X188769376Y-95302378D01*
X188769379Y-95302412D01*
X188769383Y-95302425D01*
X188788412Y-95511510D01*
X188766466Y-95720311D01*
X188766462Y-95720325D01*
X188766458Y-95720360D01*
X188704360Y-95920967D01*
X188604479Y-96105692D01*
X188470621Y-96267498D01*
X188307884Y-96400223D01*
X188122467Y-96498812D01*
X187921431Y-96559508D01*
X187712435Y-96580000D01*
X187191530Y-96580000D01*
X187183270Y-96579942D01*
X187176542Y-96579895D01*
X186967852Y-96556487D01*
X186767684Y-96492990D01*
X186583661Y-96391822D01*
X186422792Y-96256838D01*
X186291207Y-96093178D01*
X186193915Y-95907077D01*
X186134624Y-95705622D01*
X186134621Y-95705588D01*
X186134617Y-95705575D01*
X186115588Y-95496490D01*
X186137534Y-95287689D01*
X186137538Y-95287675D01*
X186137542Y-95287640D01*
X186199640Y-95087033D01*
X186299521Y-94902308D01*
X186433379Y-94740502D01*
X186596116Y-94607777D01*
X186781533Y-94509188D01*
X186982569Y-94448492D01*
X187191565Y-94428000D01*
X187712470Y-94428000D01*
X187720730Y-94428058D01*
X187720730Y-94428058D01*
G37*
G36*
X195590329Y-94640571D02*
X195755541Y-94674485D01*
X195911015Y-94739840D01*
X196050837Y-94834150D01*
X196169680Y-94953826D01*
X196263012Y-95094301D01*
X196327280Y-95250227D01*
X196359971Y-95415329D01*
X196359971Y-95415339D01*
X196360037Y-95415673D01*
X196357347Y-95608308D01*
X196357271Y-95608642D01*
X196357271Y-95608653D01*
X196319984Y-95772771D01*
X196251386Y-95926846D01*
X196154169Y-96064661D01*
X196032029Y-96180972D01*
X195889633Y-96271339D01*
X195732390Y-96332331D01*
X195566300Y-96361616D01*
X195397682Y-96358085D01*
X195232955Y-96321867D01*
X195078410Y-96254348D01*
X194939919Y-96158094D01*
X194822759Y-96036771D01*
X194731400Y-95895010D01*
X194669313Y-95738198D01*
X194638867Y-95572308D01*
X194641223Y-95403671D01*
X194676287Y-95238705D01*
X194742729Y-95083686D01*
X194838013Y-94944527D01*
X194958514Y-94826523D01*
X195099635Y-94734176D01*
X195256013Y-94670995D01*
X195421675Y-94639393D01*
X195590329Y-94640571D01*
X195590329Y-94640571D01*
G37*
G36*
X192860000Y-96360000D02*
X191140000Y-96360000D01*
X191140000Y-94640000D01*
X192860000Y-94640000D01*
X192860000Y-96360000D01*
X192860000Y-96360000D01*
G37*
G36*
X201639695Y-91420944D02*
X201895197Y-91473391D01*
X202135640Y-91574465D01*
X202351876Y-91720317D01*
X202535666Y-91905395D01*
X202680005Y-92122642D01*
X202779397Y-92363785D01*
X202829991Y-92619303D01*
X202829991Y-92619313D01*
X202830057Y-92619647D01*
X202825897Y-92917560D01*
X202825821Y-92917894D01*
X202825821Y-92917906D01*
X202768115Y-93171903D01*
X202662026Y-93410182D01*
X202511678Y-93623314D01*
X202322790Y-93803189D01*
X202102571Y-93942944D01*
X201859394Y-94037267D01*
X201602533Y-94082558D01*
X201341763Y-94077096D01*
X201087014Y-94021086D01*
X200848006Y-93916666D01*
X200633829Y-93767809D01*
X200452641Y-93580183D01*
X200311352Y-93360945D01*
X200215335Y-93118434D01*
X200168249Y-92861887D01*
X200171892Y-92601087D01*
X200226119Y-92345965D01*
X200328872Y-92106226D01*
X200476230Y-91891015D01*
X200662585Y-91708522D01*
X200880834Y-91565704D01*
X201122669Y-91467996D01*
X201378872Y-91419123D01*
X201639695Y-91420944D01*
X201639695Y-91420944D01*
G37*
G36*
X174731000Y-93748000D02*
X173911000Y-93748000D01*
X173911000Y-92628000D01*
X174731000Y-92628000D01*
X174731000Y-93748000D01*
X174731000Y-93748000D01*
G37*
G36*
X173331000Y-93748000D02*
X172511000Y-93748000D01*
X172511000Y-92628000D01*
X173331000Y-92628000D01*
X173331000Y-93748000D01*
X173331000Y-93748000D01*
G37*
G36*
X160818000Y-93360060D02*
X158158000Y-93360060D01*
X158158000Y-90700060D01*
X160818000Y-90700060D01*
X160818000Y-93360060D01*
X160818000Y-93360060D01*
G37*
G36*
X176709000Y-92740500D02*
X175589000Y-92740500D01*
X175589000Y-91920500D01*
X176709000Y-91920500D01*
X176709000Y-92740500D01*
X176709000Y-92740500D01*
G37*
G36*
X178741000Y-92740500D02*
X177621000Y-92740500D01*
X177621000Y-91920500D01*
X178741000Y-91920500D01*
X178741000Y-92740500D01*
X178741000Y-92740500D01*
G37*
G36*
X183445000Y-92714000D02*
X181625000Y-92714000D01*
X181625000Y-91944000D01*
X183445000Y-91944000D01*
X183445000Y-92714000D01*
X183445000Y-92714000D01*
G37*
G36*
X188093636Y-90669206D02*
X188107076Y-90673368D01*
X188115000Y-90674000D01*
X189215000Y-90674000D01*
X189215000Y-91444000D01*
X188115000Y-91444000D01*
X188101070Y-91445980D01*
X188088244Y-91451761D01*
X188077536Y-91460888D01*
X188069794Y-91472636D01*
X188065632Y-91486076D01*
X188065000Y-91494000D01*
X188065000Y-91894000D01*
X188066980Y-91907930D01*
X188072761Y-91920756D01*
X188081888Y-91931464D01*
X188093636Y-91939206D01*
X188107076Y-91943368D01*
X188115000Y-91944000D01*
X189215000Y-91944000D01*
X189215000Y-92714000D01*
X187395000Y-92714000D01*
X187395000Y-92489000D01*
X187393020Y-92475070D01*
X187387239Y-92462244D01*
X187378112Y-92451536D01*
X187366364Y-92443794D01*
X187352924Y-92439632D01*
X187345000Y-92439000D01*
X184135000Y-92439000D01*
X184135000Y-90669000D01*
X188093323Y-90669000D01*
X188093636Y-90669206D01*
X188093636Y-90669206D01*
G37*
G36*
X173331000Y-91779500D02*
X172511000Y-91779500D01*
X172511000Y-90659500D01*
X173331000Y-90659500D01*
X173331000Y-91779500D01*
X173331000Y-91779500D01*
G37*
G36*
X174731000Y-91779500D02*
X173911000Y-91779500D01*
X173911000Y-90659500D01*
X174731000Y-90659500D01*
X174731000Y-91779500D01*
X174731000Y-91779500D01*
G37*
G36*
X183445000Y-91444000D02*
X181625000Y-91444000D01*
X181625000Y-90674000D01*
X183445000Y-90674000D01*
X183445000Y-91444000D01*
X183445000Y-91444000D01*
G37*
G36*
X178741000Y-91340500D02*
X177621000Y-91340500D01*
X177621000Y-90520500D01*
X178741000Y-90520500D01*
X178741000Y-91340500D01*
X178741000Y-91340500D01*
G37*
G36*
X176709000Y-91340500D02*
X175589000Y-91340500D01*
X175589000Y-90520500D01*
X176709000Y-90520500D01*
X176709000Y-91340500D01*
X176709000Y-91340500D01*
G37*
G36*
X170078329Y-88920571D02*
X170243541Y-88954485D01*
X170399015Y-89019840D01*
X170538837Y-89114150D01*
X170657680Y-89233826D01*
X170751012Y-89374301D01*
X170815280Y-89530227D01*
X170847971Y-89695329D01*
X170847971Y-89695339D01*
X170848037Y-89695673D01*
X170845347Y-89888308D01*
X170845271Y-89888642D01*
X170845271Y-89888653D01*
X170807984Y-90052771D01*
X170739386Y-90206846D01*
X170642169Y-90344661D01*
X170520029Y-90460972D01*
X170377633Y-90551339D01*
X170220390Y-90612331D01*
X170054300Y-90641616D01*
X169885682Y-90638085D01*
X169720955Y-90601867D01*
X169566410Y-90534348D01*
X169427919Y-90438094D01*
X169310759Y-90316771D01*
X169219400Y-90175010D01*
X169157313Y-90018198D01*
X169126867Y-89852308D01*
X169129223Y-89683671D01*
X169164287Y-89518705D01*
X169230729Y-89363686D01*
X169326013Y-89224527D01*
X169446514Y-89106523D01*
X169587635Y-89014176D01*
X169744013Y-88950995D01*
X169909675Y-88919393D01*
X170078329Y-88920571D01*
X170078329Y-88920571D01*
G37*
G36*
X202830000Y-90579940D02*
X200170000Y-90579940D01*
X200170000Y-87919940D01*
X202830000Y-87919940D01*
X202830000Y-90579940D01*
X202830000Y-90579940D01*
G37*
G36*
X189215000Y-88904000D02*
X188115000Y-88904000D01*
X188101070Y-88905980D01*
X188088244Y-88911761D01*
X188077536Y-88920888D01*
X188069794Y-88932636D01*
X188065632Y-88946076D01*
X188065000Y-88954000D01*
X188065000Y-89354000D01*
X188066980Y-89367930D01*
X188072761Y-89380756D01*
X188081888Y-89391464D01*
X188093636Y-89399206D01*
X188107076Y-89403368D01*
X188115000Y-89404000D01*
X189215000Y-89404000D01*
X189215000Y-90174000D01*
X187366677Y-90174000D01*
X187366364Y-90173794D01*
X187352924Y-90169632D01*
X187345000Y-90169000D01*
X184135000Y-90169000D01*
X184135000Y-88399000D01*
X187345000Y-88399000D01*
X187358930Y-88397020D01*
X187371756Y-88391239D01*
X187382464Y-88382112D01*
X187390206Y-88370364D01*
X187394368Y-88356924D01*
X187395000Y-88349000D01*
X187395000Y-88134000D01*
X189215000Y-88134000D01*
X189215000Y-88904000D01*
X189215000Y-88904000D01*
G37*
G36*
X183445000Y-90174000D02*
X181625000Y-90174000D01*
X181625000Y-89404000D01*
X183445000Y-89404000D01*
X183445000Y-90174000D01*
X183445000Y-90174000D01*
G37*
G36*
X176709000Y-89946500D02*
X175589000Y-89946500D01*
X175589000Y-89126500D01*
X176709000Y-89126500D01*
X176709000Y-89946500D01*
X176709000Y-89946500D01*
G37*
G36*
X178741000Y-89946500D02*
X177621000Y-89946500D01*
X177621000Y-89126500D01*
X178741000Y-89126500D01*
X178741000Y-89946500D01*
X178741000Y-89946500D01*
G37*
G36*
X174667500Y-89874500D02*
X173847500Y-89874500D01*
X173847500Y-88754500D01*
X174667500Y-88754500D01*
X174667500Y-89874500D01*
X174667500Y-89874500D01*
G37*
G36*
X173267500Y-89874500D02*
X172447500Y-89874500D01*
X172447500Y-88754500D01*
X173267500Y-88754500D01*
X173267500Y-89874500D01*
X173267500Y-89874500D01*
G37*
G36*
X159627695Y-87200824D02*
X159883197Y-87253271D01*
X160123640Y-87354345D01*
X160339876Y-87500197D01*
X160523666Y-87685275D01*
X160668005Y-87902522D01*
X160767397Y-88143665D01*
X160817991Y-88399183D01*
X160817991Y-88399193D01*
X160818057Y-88399527D01*
X160813897Y-88697440D01*
X160813821Y-88697774D01*
X160813821Y-88697786D01*
X160756115Y-88951783D01*
X160650026Y-89190062D01*
X160499678Y-89403194D01*
X160310790Y-89583069D01*
X160090571Y-89722824D01*
X159847394Y-89817147D01*
X159590533Y-89862438D01*
X159329763Y-89856976D01*
X159075014Y-89800966D01*
X158836006Y-89696546D01*
X158621829Y-89547689D01*
X158440641Y-89360063D01*
X158299352Y-89140825D01*
X158203335Y-88898314D01*
X158156249Y-88641767D01*
X158159892Y-88380967D01*
X158214119Y-88125845D01*
X158316872Y-87886106D01*
X158464230Y-87670895D01*
X158650585Y-87488402D01*
X158868834Y-87345584D01*
X159110669Y-87247876D01*
X159366872Y-87199003D01*
X159627695Y-87200824D01*
X159627695Y-87200824D01*
G37*
G36*
X194360000Y-89110000D02*
X192640000Y-89110000D01*
X192640000Y-87390000D01*
X194360000Y-87390000D01*
X194360000Y-89110000D01*
X194360000Y-89110000D01*
G37*
G36*
X183445000Y-88904000D02*
X181625000Y-88904000D01*
X181625000Y-88134000D01*
X183445000Y-88134000D01*
X183445000Y-88904000D01*
X183445000Y-88904000D01*
G37*
G36*
X176709000Y-88546500D02*
X175589000Y-88546500D01*
X175589000Y-87726500D01*
X176709000Y-87726500D01*
X176709000Y-88546500D01*
X176709000Y-88546500D01*
G37*
G36*
X178741000Y-88546500D02*
X177621000Y-88546500D01*
X177621000Y-87726500D01*
X178741000Y-87726500D01*
X178741000Y-88546500D01*
X178741000Y-88546500D01*
G37*
G36*
X174667500Y-87906000D02*
X173847500Y-87906000D01*
X173847500Y-86786000D01*
X174667500Y-86786000D01*
X174667500Y-87906000D01*
X174667500Y-87906000D01*
G37*
G36*
X173267500Y-87906000D02*
X172447500Y-87906000D01*
X172447500Y-86786000D01*
X173267500Y-86786000D01*
X173267500Y-87906000D01*
X173267500Y-87906000D01*
G37*
G36*
X158289894Y-80991837D02*
X158820105Y-81100674D01*
X159319074Y-81310421D01*
X159767803Y-81613092D01*
X160149198Y-81997160D01*
X160448729Y-82447989D01*
X160654988Y-82948410D01*
X160760052Y-83479024D01*
X160760052Y-83479034D01*
X160760118Y-83479368D01*
X160751485Y-84097593D01*
X160751409Y-84097927D01*
X160751409Y-84097939D01*
X160631573Y-84625405D01*
X160411419Y-85119876D01*
X160099418Y-85562167D01*
X159707445Y-85935437D01*
X159250445Y-86225458D01*
X158745810Y-86421194D01*
X158212772Y-86515182D01*
X157671626Y-86503847D01*
X157142982Y-86387617D01*
X156646991Y-86170924D01*
X156202533Y-85862018D01*
X155826537Y-85472662D01*
X155533332Y-85017698D01*
X155334079Y-84514443D01*
X155236370Y-83982065D01*
X155243928Y-83440856D01*
X155356462Y-82911423D01*
X155569690Y-82413925D01*
X155875486Y-81967321D01*
X156262206Y-81588616D01*
X156715115Y-81292241D01*
X157216967Y-81089480D01*
X157748640Y-80988058D01*
X158289894Y-80991837D01*
X158289894Y-80991837D01*
G37*
G36*
X203289894Y-80991837D02*
X203820105Y-81100674D01*
X204319074Y-81310421D01*
X204767803Y-81613092D01*
X205149198Y-81997160D01*
X205448729Y-82447989D01*
X205654988Y-82948410D01*
X205760052Y-83479024D01*
X205760052Y-83479034D01*
X205760118Y-83479368D01*
X205751485Y-84097593D01*
X205751409Y-84097927D01*
X205751409Y-84097939D01*
X205631573Y-84625405D01*
X205411419Y-85119876D01*
X205099418Y-85562167D01*
X204707445Y-85935437D01*
X204250445Y-86225458D01*
X203745810Y-86421194D01*
X203212772Y-86515182D01*
X202671626Y-86503847D01*
X202142982Y-86387617D01*
X201646991Y-86170924D01*
X201202533Y-85862018D01*
X200826537Y-85472662D01*
X200533332Y-85017698D01*
X200334079Y-84514443D01*
X200236370Y-83982065D01*
X200243928Y-83440856D01*
X200356462Y-82911423D01*
X200569690Y-82413925D01*
X200875486Y-81967321D01*
X201262206Y-81588616D01*
X201715115Y-81292241D01*
X202216967Y-81089480D01*
X202748640Y-80988058D01*
X203289894Y-80991837D01*
X203289894Y-80991837D01*
G37*
G36*
X193590329Y-83890571D02*
X193755541Y-83924485D01*
X193911015Y-83989840D01*
X194050837Y-84084150D01*
X194169680Y-84203826D01*
X194263012Y-84344301D01*
X194327280Y-84500227D01*
X194359971Y-84665329D01*
X194359971Y-84665339D01*
X194360037Y-84665673D01*
X194357347Y-84858308D01*
X194357271Y-84858642D01*
X194357271Y-84858653D01*
X194319984Y-85022771D01*
X194251386Y-85176846D01*
X194154169Y-85314661D01*
X194032029Y-85430972D01*
X193889633Y-85521339D01*
X193732390Y-85582331D01*
X193566300Y-85611616D01*
X193397682Y-85608085D01*
X193232955Y-85571867D01*
X193078410Y-85504348D01*
X192939919Y-85408094D01*
X192822759Y-85286771D01*
X192731400Y-85145010D01*
X192669313Y-84988198D01*
X192638867Y-84822308D01*
X192641223Y-84653671D01*
X192676287Y-84488705D01*
X192742729Y-84333686D01*
X192838013Y-84194527D01*
X192958514Y-84076523D01*
X193099635Y-83984176D01*
X193256013Y-83920995D01*
X193421675Y-83889393D01*
X193590329Y-83890571D01*
X193590329Y-83890571D01*
G37*
G36*
X162693393Y-82550844D02*
X162937368Y-82600925D01*
X163166965Y-82697439D01*
X163373446Y-82836711D01*
X163548944Y-83013440D01*
X163686772Y-83220886D01*
X163781680Y-83451151D01*
X163829989Y-83695126D01*
X163829989Y-83695141D01*
X163830054Y-83695470D01*
X163826082Y-83979943D01*
X163826006Y-83980277D01*
X163826006Y-83980289D01*
X163770907Y-84222813D01*
X163669604Y-84450342D01*
X163526038Y-84653860D01*
X163345671Y-84825620D01*
X163135387Y-84959070D01*
X162903181Y-85049138D01*
X162657907Y-85092386D01*
X162408902Y-85087171D01*
X162165647Y-85033687D01*
X161937421Y-84933978D01*
X161732901Y-84791833D01*
X161559890Y-84612674D01*
X161424975Y-84403327D01*
X161333289Y-84171756D01*
X161288328Y-83926782D01*
X161291806Y-83677748D01*
X161343587Y-83434134D01*
X161441704Y-83205211D01*
X161582415Y-82999709D01*
X161760363Y-82825448D01*
X161968766Y-82689073D01*
X162199691Y-82595773D01*
X162444336Y-82549105D01*
X162693393Y-82550844D01*
X162693393Y-82550844D01*
G37*
G36*
X167414315Y-83360304D02*
X167502686Y-83378444D01*
X167585845Y-83413400D01*
X167660637Y-83463849D01*
X167724202Y-83527859D01*
X167774123Y-83602996D01*
X167808500Y-83686400D01*
X167825954Y-83774550D01*
X167825954Y-83774561D01*
X167826020Y-83774895D01*
X167824581Y-83877932D01*
X167824505Y-83878266D01*
X167824505Y-83878274D01*
X167804597Y-83965905D01*
X167767904Y-84048315D01*
X167715908Y-84122026D01*
X167650573Y-84184243D01*
X167574409Y-84232578D01*
X167490302Y-84265201D01*
X167401463Y-84280866D01*
X167311273Y-84278977D01*
X167223160Y-84259604D01*
X167140498Y-84223490D01*
X167066421Y-84172005D01*
X167003753Y-84107110D01*
X166954888Y-84031286D01*
X166921678Y-83947409D01*
X166905393Y-83858675D01*
X166906653Y-83768474D01*
X166925407Y-83680239D01*
X166960947Y-83597320D01*
X167011913Y-83522886D01*
X167076368Y-83459766D01*
X167151850Y-83410372D01*
X167235496Y-83376577D01*
X167324104Y-83359674D01*
X167414315Y-83360304D01*
X167414315Y-83360304D01*
G37*
G36*
X168664315Y-83360304D02*
X168752686Y-83378444D01*
X168835845Y-83413400D01*
X168910637Y-83463849D01*
X168974202Y-83527859D01*
X169024123Y-83602996D01*
X169058500Y-83686400D01*
X169075954Y-83774550D01*
X169075954Y-83774561D01*
X169076020Y-83774895D01*
X169074581Y-83877932D01*
X169074505Y-83878266D01*
X169074505Y-83878274D01*
X169054597Y-83965905D01*
X169017904Y-84048315D01*
X168965908Y-84122026D01*
X168900573Y-84184243D01*
X168824409Y-84232578D01*
X168740302Y-84265201D01*
X168651463Y-84280866D01*
X168561273Y-84278977D01*
X168473160Y-84259604D01*
X168390498Y-84223490D01*
X168316421Y-84172005D01*
X168253753Y-84107110D01*
X168204888Y-84031286D01*
X168171678Y-83947409D01*
X168155393Y-83858675D01*
X168156653Y-83768474D01*
X168175407Y-83680239D01*
X168210947Y-83597320D01*
X168261913Y-83522886D01*
X168326368Y-83459766D01*
X168401850Y-83410372D01*
X168485496Y-83376577D01*
X168574104Y-83359674D01*
X168664315Y-83360304D01*
X168664315Y-83360304D01*
G37*
G36*
X174914315Y-83360304D02*
X175002686Y-83378444D01*
X175085845Y-83413400D01*
X175160637Y-83463849D01*
X175224202Y-83527859D01*
X175274123Y-83602996D01*
X175308500Y-83686400D01*
X175325954Y-83774550D01*
X175325954Y-83774561D01*
X175326020Y-83774895D01*
X175324581Y-83877932D01*
X175324505Y-83878266D01*
X175324505Y-83878274D01*
X175304597Y-83965905D01*
X175267904Y-84048315D01*
X175215908Y-84122026D01*
X175150573Y-84184243D01*
X175074409Y-84232578D01*
X174990302Y-84265201D01*
X174901463Y-84280866D01*
X174811273Y-84278977D01*
X174723160Y-84259604D01*
X174640498Y-84223490D01*
X174566421Y-84172005D01*
X174503753Y-84107110D01*
X174454888Y-84031286D01*
X174421678Y-83947409D01*
X174405393Y-83858675D01*
X174406653Y-83768474D01*
X174425407Y-83680239D01*
X174460947Y-83597320D01*
X174511913Y-83522886D01*
X174576368Y-83459766D01*
X174651850Y-83410372D01*
X174735496Y-83376577D01*
X174824104Y-83359674D01*
X174914315Y-83360304D01*
X174914315Y-83360304D01*
G37*
G36*
X169914315Y-83360304D02*
X170002686Y-83378444D01*
X170085845Y-83413400D01*
X170160637Y-83463849D01*
X170224202Y-83527859D01*
X170274123Y-83602996D01*
X170308500Y-83686400D01*
X170325954Y-83774550D01*
X170325954Y-83774561D01*
X170326020Y-83774895D01*
X170324581Y-83877932D01*
X170324505Y-83878266D01*
X170324505Y-83878274D01*
X170304597Y-83965905D01*
X170267904Y-84048315D01*
X170215908Y-84122026D01*
X170150573Y-84184243D01*
X170074409Y-84232578D01*
X169990302Y-84265201D01*
X169901463Y-84280866D01*
X169811273Y-84278977D01*
X169723160Y-84259604D01*
X169640498Y-84223490D01*
X169566421Y-84172005D01*
X169503753Y-84107110D01*
X169454888Y-84031286D01*
X169421678Y-83947409D01*
X169405393Y-83858675D01*
X169406653Y-83768474D01*
X169425407Y-83680239D01*
X169460947Y-83597320D01*
X169511913Y-83522886D01*
X169576368Y-83459766D01*
X169651850Y-83410372D01*
X169735496Y-83376577D01*
X169824104Y-83359674D01*
X169914315Y-83360304D01*
X169914315Y-83360304D01*
G37*
G36*
X171164315Y-83360304D02*
X171252686Y-83378444D01*
X171335845Y-83413400D01*
X171410637Y-83463849D01*
X171474202Y-83527859D01*
X171524123Y-83602996D01*
X171558500Y-83686400D01*
X171575954Y-83774550D01*
X171575954Y-83774561D01*
X171576020Y-83774895D01*
X171574581Y-83877932D01*
X171574505Y-83878266D01*
X171574505Y-83878274D01*
X171554597Y-83965905D01*
X171517904Y-84048315D01*
X171465908Y-84122026D01*
X171400573Y-84184243D01*
X171324409Y-84232578D01*
X171240302Y-84265201D01*
X171151463Y-84280866D01*
X171061273Y-84278977D01*
X170973160Y-84259604D01*
X170890498Y-84223490D01*
X170816421Y-84172005D01*
X170753753Y-84107110D01*
X170704888Y-84031286D01*
X170671678Y-83947409D01*
X170655393Y-83858675D01*
X170656653Y-83768474D01*
X170675407Y-83680239D01*
X170710947Y-83597320D01*
X170761913Y-83522886D01*
X170826368Y-83459766D01*
X170901850Y-83410372D01*
X170985496Y-83376577D01*
X171074104Y-83359674D01*
X171164315Y-83360304D01*
X171164315Y-83360304D01*
G37*
G36*
X172414315Y-83360304D02*
X172502686Y-83378444D01*
X172585845Y-83413400D01*
X172660637Y-83463849D01*
X172724202Y-83527859D01*
X172774123Y-83602996D01*
X172808500Y-83686400D01*
X172825954Y-83774550D01*
X172825954Y-83774561D01*
X172826020Y-83774895D01*
X172824581Y-83877932D01*
X172824505Y-83878266D01*
X172824505Y-83878274D01*
X172804597Y-83965905D01*
X172767904Y-84048315D01*
X172715908Y-84122026D01*
X172650573Y-84184243D01*
X172574409Y-84232578D01*
X172490302Y-84265201D01*
X172401463Y-84280866D01*
X172311273Y-84278977D01*
X172223160Y-84259604D01*
X172140498Y-84223490D01*
X172066421Y-84172005D01*
X172003753Y-84107110D01*
X171954888Y-84031286D01*
X171921678Y-83947409D01*
X171905393Y-83858675D01*
X171906653Y-83768474D01*
X171925407Y-83680239D01*
X171960947Y-83597320D01*
X172011913Y-83522886D01*
X172076368Y-83459766D01*
X172151850Y-83410372D01*
X172235496Y-83376577D01*
X172324104Y-83359674D01*
X172414315Y-83360304D01*
X172414315Y-83360304D01*
G37*
G36*
X173664315Y-83360304D02*
X173752686Y-83378444D01*
X173835845Y-83413400D01*
X173910637Y-83463849D01*
X173974202Y-83527859D01*
X174024123Y-83602996D01*
X174058500Y-83686400D01*
X174075954Y-83774550D01*
X174075954Y-83774561D01*
X174076020Y-83774895D01*
X174074581Y-83877932D01*
X174074505Y-83878266D01*
X174074505Y-83878274D01*
X174054597Y-83965905D01*
X174017904Y-84048315D01*
X173965908Y-84122026D01*
X173900573Y-84184243D01*
X173824409Y-84232578D01*
X173740302Y-84265201D01*
X173651463Y-84280866D01*
X173561273Y-84278977D01*
X173473160Y-84259604D01*
X173390498Y-84223490D01*
X173316421Y-84172005D01*
X173253753Y-84107110D01*
X173204888Y-84031286D01*
X173171678Y-83947409D01*
X173155393Y-83858675D01*
X173156653Y-83768474D01*
X173175407Y-83680239D01*
X173210947Y-83597320D01*
X173261913Y-83522886D01*
X173326368Y-83459766D01*
X173401850Y-83410372D01*
X173485496Y-83376577D01*
X173574104Y-83359674D01*
X173664315Y-83360304D01*
X173664315Y-83360304D01*
G37*
G36*
X166576000Y-84280000D02*
X165656000Y-84280000D01*
X165656000Y-83360000D01*
X166576000Y-83360000D01*
X166576000Y-84280000D01*
X166576000Y-84280000D01*
G37*
M02*
