G04 #@! TF.FileFunction,Legend,Top*
%FSLAX46Y46*%
G04 Gerber Fmt 4.6, Leading zero omitted, Abs format (unit mm)*
G04 Created by KiCad (PCBNEW 4.0.5) date 03/05/17 20:07:58*
%MOMM*%
%LPD*%
G01*
G04 APERTURE LIST*
%ADD10C,0.100000*%
%ADD11C,0.300000*%
%ADD12C,0.120000*%
%ADD13C,0.150000*%
%ADD14C,0.127000*%
%ADD15C,0.010000*%
G04 APERTURE END LIST*
D10*
D11*
X180749229Y-144559971D02*
X180749229Y-143059971D01*
X181320657Y-143059971D01*
X181463515Y-143131400D01*
X181534943Y-143202829D01*
X181606372Y-143345686D01*
X181606372Y-143559971D01*
X181534943Y-143702829D01*
X181463515Y-143774257D01*
X181320657Y-143845686D01*
X180749229Y-143845686D01*
X182463515Y-144559971D02*
X182320657Y-144488543D01*
X182249229Y-144417114D01*
X182177800Y-144274257D01*
X182177800Y-143845686D01*
X182249229Y-143702829D01*
X182320657Y-143631400D01*
X182463515Y-143559971D01*
X182677800Y-143559971D01*
X182820657Y-143631400D01*
X182892086Y-143702829D01*
X182963515Y-143845686D01*
X182963515Y-144274257D01*
X182892086Y-144417114D01*
X182820657Y-144488543D01*
X182677800Y-144559971D01*
X182463515Y-144559971D01*
X183463515Y-143559971D02*
X183749229Y-144559971D01*
X184034943Y-143845686D01*
X184320658Y-144559971D01*
X184606372Y-143559971D01*
X185749229Y-144488543D02*
X185606372Y-144559971D01*
X185320658Y-144559971D01*
X185177801Y-144488543D01*
X185106372Y-144345686D01*
X185106372Y-143774257D01*
X185177801Y-143631400D01*
X185320658Y-143559971D01*
X185606372Y-143559971D01*
X185749229Y-143631400D01*
X185820658Y-143774257D01*
X185820658Y-143917114D01*
X185106372Y-144059971D01*
X186463515Y-144559971D02*
X186463515Y-143559971D01*
X186463515Y-143845686D02*
X186534943Y-143702829D01*
X186606372Y-143631400D01*
X186749229Y-143559971D01*
X186892086Y-143559971D01*
X188534943Y-144559971D02*
X188534943Y-143059971D01*
X189034943Y-144131400D01*
X189534943Y-143059971D01*
X189534943Y-144559971D01*
X190892086Y-143559971D02*
X190892086Y-144774257D01*
X190820657Y-144917114D01*
X190749229Y-144988543D01*
X190606372Y-145059971D01*
X190392086Y-145059971D01*
X190249229Y-144988543D01*
X190892086Y-144488543D02*
X190749229Y-144559971D01*
X190463515Y-144559971D01*
X190320657Y-144488543D01*
X190249229Y-144417114D01*
X190177800Y-144274257D01*
X190177800Y-143845686D01*
X190249229Y-143702829D01*
X190320657Y-143631400D01*
X190463515Y-143559971D01*
X190749229Y-143559971D01*
X190892086Y-143631400D01*
X191606372Y-143559971D02*
X191606372Y-144559971D01*
X191606372Y-143702829D02*
X191677800Y-143631400D01*
X191820658Y-143559971D01*
X192034943Y-143559971D01*
X192177800Y-143631400D01*
X192249229Y-143774257D01*
X192249229Y-144559971D01*
X192749229Y-143559971D02*
X193320658Y-143559971D01*
X192963515Y-143059971D02*
X192963515Y-144345686D01*
X193034943Y-144488543D01*
X193177801Y-144559971D01*
X193320658Y-144559971D01*
X194749229Y-143059971D02*
X195249229Y-144559971D01*
X195749229Y-143059971D01*
X197034943Y-144559971D02*
X196177800Y-144559971D01*
X196606372Y-144559971D02*
X196606372Y-143059971D01*
X196463515Y-143274257D01*
X196320657Y-143417114D01*
X196177800Y-143488543D01*
X197677800Y-144417114D02*
X197749228Y-144488543D01*
X197677800Y-144559971D01*
X197606371Y-144488543D01*
X197677800Y-144417114D01*
X197677800Y-144559971D01*
X198677800Y-143059971D02*
X198820657Y-143059971D01*
X198963514Y-143131400D01*
X199034943Y-143202829D01*
X199106372Y-143345686D01*
X199177800Y-143631400D01*
X199177800Y-143988543D01*
X199106372Y-144274257D01*
X199034943Y-144417114D01*
X198963514Y-144488543D01*
X198820657Y-144559971D01*
X198677800Y-144559971D01*
X198534943Y-144488543D01*
X198463514Y-144417114D01*
X198392086Y-144274257D01*
X198320657Y-143988543D01*
X198320657Y-143631400D01*
X198392086Y-143345686D01*
X198463514Y-143202829D01*
X198534943Y-143131400D01*
X198677800Y-143059971D01*
X184927802Y-146967114D02*
X184856373Y-147038543D01*
X184642087Y-147109971D01*
X184499230Y-147109971D01*
X184284945Y-147038543D01*
X184142087Y-146895686D01*
X184070659Y-146752829D01*
X183999230Y-146467114D01*
X183999230Y-146252829D01*
X184070659Y-145967114D01*
X184142087Y-145824257D01*
X184284945Y-145681400D01*
X184499230Y-145609971D01*
X184642087Y-145609971D01*
X184856373Y-145681400D01*
X184927802Y-145752829D01*
X185356373Y-145609971D02*
X185856373Y-147109971D01*
X186356373Y-145609971D01*
X187713516Y-147109971D02*
X187213516Y-146395686D01*
X186856373Y-147109971D02*
X186856373Y-145609971D01*
X187427801Y-145609971D01*
X187570659Y-145681400D01*
X187642087Y-145752829D01*
X187713516Y-145895686D01*
X187713516Y-146109971D01*
X187642087Y-146252829D01*
X187570659Y-146324257D01*
X187427801Y-146395686D01*
X186856373Y-146395686D01*
X188284944Y-146681400D02*
X188999230Y-146681400D01*
X188142087Y-147109971D02*
X188642087Y-145609971D01*
X189142087Y-147109971D01*
X190713515Y-145752829D02*
X190784944Y-145681400D01*
X190927801Y-145609971D01*
X191284944Y-145609971D01*
X191427801Y-145681400D01*
X191499230Y-145752829D01*
X191570658Y-145895686D01*
X191570658Y-146038543D01*
X191499230Y-146252829D01*
X190642087Y-147109971D01*
X191570658Y-147109971D01*
X192499229Y-145609971D02*
X192642086Y-145609971D01*
X192784943Y-145681400D01*
X192856372Y-145752829D01*
X192927801Y-145895686D01*
X192999229Y-146181400D01*
X192999229Y-146538543D01*
X192927801Y-146824257D01*
X192856372Y-146967114D01*
X192784943Y-147038543D01*
X192642086Y-147109971D01*
X192499229Y-147109971D01*
X192356372Y-147038543D01*
X192284943Y-146967114D01*
X192213515Y-146824257D01*
X192142086Y-146538543D01*
X192142086Y-146181400D01*
X192213515Y-145895686D01*
X192284943Y-145752829D01*
X192356372Y-145681400D01*
X192499229Y-145609971D01*
X194427800Y-147109971D02*
X193570657Y-147109971D01*
X193999229Y-147109971D02*
X193999229Y-145609971D01*
X193856372Y-145824257D01*
X193713514Y-145967114D01*
X193570657Y-146038543D01*
X194927800Y-145609971D02*
X195927800Y-145609971D01*
X195284943Y-147109971D01*
D12*
X197840000Y-95500000D02*
G75*
G03X197840000Y-95500000I-4090000J0D01*
G01*
X193750000Y-91450000D02*
X193750000Y-99550000D01*
X193790000Y-91450000D02*
X193790000Y-99550000D01*
X193830000Y-91450000D02*
X193830000Y-99550000D01*
X193870000Y-91451000D02*
X193870000Y-99549000D01*
X193910000Y-91453000D02*
X193910000Y-99547000D01*
X193950000Y-91454000D02*
X193950000Y-99546000D01*
X193990000Y-91457000D02*
X193990000Y-99543000D01*
X194030000Y-91459000D02*
X194030000Y-99541000D01*
X194070000Y-91462000D02*
X194070000Y-99538000D01*
X194110000Y-91465000D02*
X194110000Y-99535000D01*
X194150000Y-91469000D02*
X194150000Y-99531000D01*
X194190000Y-91473000D02*
X194190000Y-99527000D01*
X194230000Y-91478000D02*
X194230000Y-99522000D01*
X194270000Y-91483000D02*
X194270000Y-99517000D01*
X194310000Y-91488000D02*
X194310000Y-99512000D01*
X194350000Y-91494000D02*
X194350000Y-99506000D01*
X194390000Y-91500000D02*
X194390000Y-99500000D01*
X194430000Y-91506000D02*
X194430000Y-99494000D01*
X194471000Y-91513000D02*
X194471000Y-99487000D01*
X194511000Y-91521000D02*
X194511000Y-99479000D01*
X194551000Y-91529000D02*
X194551000Y-94520000D01*
X194551000Y-96480000D02*
X194551000Y-99471000D01*
X194591000Y-91537000D02*
X194591000Y-94520000D01*
X194591000Y-96480000D02*
X194591000Y-99463000D01*
X194631000Y-91545000D02*
X194631000Y-94520000D01*
X194631000Y-96480000D02*
X194631000Y-99455000D01*
X194671000Y-91554000D02*
X194671000Y-94520000D01*
X194671000Y-96480000D02*
X194671000Y-99446000D01*
X194711000Y-91564000D02*
X194711000Y-94520000D01*
X194711000Y-96480000D02*
X194711000Y-99436000D01*
X194751000Y-91574000D02*
X194751000Y-94520000D01*
X194751000Y-96480000D02*
X194751000Y-99426000D01*
X194791000Y-91584000D02*
X194791000Y-94520000D01*
X194791000Y-96480000D02*
X194791000Y-99416000D01*
X194831000Y-91595000D02*
X194831000Y-94520000D01*
X194831000Y-96480000D02*
X194831000Y-99405000D01*
X194871000Y-91606000D02*
X194871000Y-94520000D01*
X194871000Y-96480000D02*
X194871000Y-99394000D01*
X194911000Y-91617000D02*
X194911000Y-94520000D01*
X194911000Y-96480000D02*
X194911000Y-99383000D01*
X194951000Y-91630000D02*
X194951000Y-94520000D01*
X194951000Y-96480000D02*
X194951000Y-99370000D01*
X194991000Y-91642000D02*
X194991000Y-94520000D01*
X194991000Y-96480000D02*
X194991000Y-99358000D01*
X195031000Y-91655000D02*
X195031000Y-94520000D01*
X195031000Y-96480000D02*
X195031000Y-99345000D01*
X195071000Y-91668000D02*
X195071000Y-94520000D01*
X195071000Y-96480000D02*
X195071000Y-99332000D01*
X195111000Y-91682000D02*
X195111000Y-94520000D01*
X195111000Y-96480000D02*
X195111000Y-99318000D01*
X195151000Y-91697000D02*
X195151000Y-94520000D01*
X195151000Y-96480000D02*
X195151000Y-99303000D01*
X195191000Y-91711000D02*
X195191000Y-94520000D01*
X195191000Y-96480000D02*
X195191000Y-99289000D01*
X195231000Y-91727000D02*
X195231000Y-94520000D01*
X195231000Y-96480000D02*
X195231000Y-99273000D01*
X195271000Y-91742000D02*
X195271000Y-94520000D01*
X195271000Y-96480000D02*
X195271000Y-99258000D01*
X195311000Y-91759000D02*
X195311000Y-94520000D01*
X195311000Y-96480000D02*
X195311000Y-99241000D01*
X195351000Y-91775000D02*
X195351000Y-94520000D01*
X195351000Y-96480000D02*
X195351000Y-99225000D01*
X195391000Y-91793000D02*
X195391000Y-94520000D01*
X195391000Y-96480000D02*
X195391000Y-99207000D01*
X195431000Y-91810000D02*
X195431000Y-94520000D01*
X195431000Y-96480000D02*
X195431000Y-99190000D01*
X195471000Y-91829000D02*
X195471000Y-94520000D01*
X195471000Y-96480000D02*
X195471000Y-99171000D01*
X195511000Y-91848000D02*
X195511000Y-94520000D01*
X195511000Y-96480000D02*
X195511000Y-99152000D01*
X195551000Y-91867000D02*
X195551000Y-94520000D01*
X195551000Y-96480000D02*
X195551000Y-99133000D01*
X195591000Y-91887000D02*
X195591000Y-94520000D01*
X195591000Y-96480000D02*
X195591000Y-99113000D01*
X195631000Y-91907000D02*
X195631000Y-94520000D01*
X195631000Y-96480000D02*
X195631000Y-99093000D01*
X195671000Y-91928000D02*
X195671000Y-94520000D01*
X195671000Y-96480000D02*
X195671000Y-99072000D01*
X195711000Y-91950000D02*
X195711000Y-94520000D01*
X195711000Y-96480000D02*
X195711000Y-99050000D01*
X195751000Y-91972000D02*
X195751000Y-94520000D01*
X195751000Y-96480000D02*
X195751000Y-99028000D01*
X195791000Y-91995000D02*
X195791000Y-94520000D01*
X195791000Y-96480000D02*
X195791000Y-99005000D01*
X195831000Y-92018000D02*
X195831000Y-94520000D01*
X195831000Y-96480000D02*
X195831000Y-98982000D01*
X195871000Y-92042000D02*
X195871000Y-94520000D01*
X195871000Y-96480000D02*
X195871000Y-98958000D01*
X195911000Y-92066000D02*
X195911000Y-94520000D01*
X195911000Y-96480000D02*
X195911000Y-98934000D01*
X195951000Y-92092000D02*
X195951000Y-94520000D01*
X195951000Y-96480000D02*
X195951000Y-98908000D01*
X195991000Y-92117000D02*
X195991000Y-94520000D01*
X195991000Y-96480000D02*
X195991000Y-98883000D01*
X196031000Y-92144000D02*
X196031000Y-94520000D01*
X196031000Y-96480000D02*
X196031000Y-98856000D01*
X196071000Y-92171000D02*
X196071000Y-94520000D01*
X196071000Y-96480000D02*
X196071000Y-98829000D01*
X196111000Y-92199000D02*
X196111000Y-94520000D01*
X196111000Y-96480000D02*
X196111000Y-98801000D01*
X196151000Y-92228000D02*
X196151000Y-94520000D01*
X196151000Y-96480000D02*
X196151000Y-98772000D01*
X196191000Y-92257000D02*
X196191000Y-94520000D01*
X196191000Y-96480000D02*
X196191000Y-98743000D01*
X196231000Y-92287000D02*
X196231000Y-94520000D01*
X196231000Y-96480000D02*
X196231000Y-98713000D01*
X196271000Y-92318000D02*
X196271000Y-94520000D01*
X196271000Y-96480000D02*
X196271000Y-98682000D01*
X196311000Y-92350000D02*
X196311000Y-94520000D01*
X196311000Y-96480000D02*
X196311000Y-98650000D01*
X196351000Y-92382000D02*
X196351000Y-94520000D01*
X196351000Y-96480000D02*
X196351000Y-98618000D01*
X196391000Y-92416000D02*
X196391000Y-94520000D01*
X196391000Y-96480000D02*
X196391000Y-98584000D01*
X196431000Y-92450000D02*
X196431000Y-94520000D01*
X196431000Y-96480000D02*
X196431000Y-98550000D01*
X196471000Y-92485000D02*
X196471000Y-94520000D01*
X196471000Y-96480000D02*
X196471000Y-98515000D01*
X196511000Y-92521000D02*
X196511000Y-98479000D01*
X196551000Y-92558000D02*
X196551000Y-98442000D01*
X196591000Y-92596000D02*
X196591000Y-98404000D01*
X196631000Y-92635000D02*
X196631000Y-98365000D01*
X196671000Y-92676000D02*
X196671000Y-98324000D01*
X196711000Y-92717000D02*
X196711000Y-98283000D01*
X196751000Y-92760000D02*
X196751000Y-98240000D01*
X196791000Y-92803000D02*
X196791000Y-98197000D01*
X196831000Y-92848000D02*
X196831000Y-98152000D01*
X196871000Y-92895000D02*
X196871000Y-98105000D01*
X196911000Y-92943000D02*
X196911000Y-98057000D01*
X196951000Y-92992000D02*
X196951000Y-98008000D01*
X196991000Y-93043000D02*
X196991000Y-97957000D01*
X197031000Y-93096000D02*
X197031000Y-97904000D01*
X197071000Y-93151000D02*
X197071000Y-97849000D01*
X197111000Y-93207000D02*
X197111000Y-97793000D01*
X197151000Y-93266000D02*
X197151000Y-97734000D01*
X197191000Y-93327000D02*
X197191000Y-97673000D01*
X197231000Y-93391000D02*
X197231000Y-97609000D01*
X197271000Y-93457000D02*
X197271000Y-97543000D01*
X197311000Y-93526000D02*
X197311000Y-97474000D01*
X197351000Y-93598000D02*
X197351000Y-97402000D01*
X197391000Y-93674000D02*
X197391000Y-97326000D01*
X197431000Y-93755000D02*
X197431000Y-97245000D01*
X197471000Y-93840000D02*
X197471000Y-97160000D01*
X197511000Y-93930000D02*
X197511000Y-97070000D01*
X197551000Y-94027000D02*
X197551000Y-96973000D01*
X197591000Y-94131000D02*
X197591000Y-96869000D01*
X197631000Y-94246000D02*
X197631000Y-96754000D01*
X197671000Y-94373000D02*
X197671000Y-96627000D01*
X197711000Y-94517000D02*
X197711000Y-96483000D01*
X197751000Y-94686000D02*
X197751000Y-96314000D01*
X197791000Y-94902000D02*
X197791000Y-96098000D01*
X197831000Y-95254000D02*
X197831000Y-95746000D01*
X189800000Y-95500000D02*
X191000000Y-95500000D01*
X190400000Y-94850000D02*
X190400000Y-96150000D01*
X178628000Y-103983000D02*
G75*
G03X178628000Y-103983000I-4090000J0D01*
G01*
X174538000Y-108033000D02*
X174538000Y-99933000D01*
X174498000Y-108033000D02*
X174498000Y-99933000D01*
X174458000Y-108033000D02*
X174458000Y-99933000D01*
X174418000Y-108032000D02*
X174418000Y-99934000D01*
X174378000Y-108030000D02*
X174378000Y-99936000D01*
X174338000Y-108029000D02*
X174338000Y-99937000D01*
X174298000Y-108026000D02*
X174298000Y-99940000D01*
X174258000Y-108024000D02*
X174258000Y-99942000D01*
X174218000Y-108021000D02*
X174218000Y-99945000D01*
X174178000Y-108018000D02*
X174178000Y-99948000D01*
X174138000Y-108014000D02*
X174138000Y-99952000D01*
X174098000Y-108010000D02*
X174098000Y-99956000D01*
X174058000Y-108005000D02*
X174058000Y-99961000D01*
X174018000Y-108000000D02*
X174018000Y-99966000D01*
X173978000Y-107995000D02*
X173978000Y-99971000D01*
X173938000Y-107989000D02*
X173938000Y-99977000D01*
X173898000Y-107983000D02*
X173898000Y-99983000D01*
X173858000Y-107977000D02*
X173858000Y-99989000D01*
X173817000Y-107970000D02*
X173817000Y-99996000D01*
X173777000Y-107962000D02*
X173777000Y-100004000D01*
X173737000Y-107954000D02*
X173737000Y-104963000D01*
X173737000Y-103003000D02*
X173737000Y-100012000D01*
X173697000Y-107946000D02*
X173697000Y-104963000D01*
X173697000Y-103003000D02*
X173697000Y-100020000D01*
X173657000Y-107938000D02*
X173657000Y-104963000D01*
X173657000Y-103003000D02*
X173657000Y-100028000D01*
X173617000Y-107929000D02*
X173617000Y-104963000D01*
X173617000Y-103003000D02*
X173617000Y-100037000D01*
X173577000Y-107919000D02*
X173577000Y-104963000D01*
X173577000Y-103003000D02*
X173577000Y-100047000D01*
X173537000Y-107909000D02*
X173537000Y-104963000D01*
X173537000Y-103003000D02*
X173537000Y-100057000D01*
X173497000Y-107899000D02*
X173497000Y-104963000D01*
X173497000Y-103003000D02*
X173497000Y-100067000D01*
X173457000Y-107888000D02*
X173457000Y-104963000D01*
X173457000Y-103003000D02*
X173457000Y-100078000D01*
X173417000Y-107877000D02*
X173417000Y-104963000D01*
X173417000Y-103003000D02*
X173417000Y-100089000D01*
X173377000Y-107866000D02*
X173377000Y-104963000D01*
X173377000Y-103003000D02*
X173377000Y-100100000D01*
X173337000Y-107853000D02*
X173337000Y-104963000D01*
X173337000Y-103003000D02*
X173337000Y-100113000D01*
X173297000Y-107841000D02*
X173297000Y-104963000D01*
X173297000Y-103003000D02*
X173297000Y-100125000D01*
X173257000Y-107828000D02*
X173257000Y-104963000D01*
X173257000Y-103003000D02*
X173257000Y-100138000D01*
X173217000Y-107815000D02*
X173217000Y-104963000D01*
X173217000Y-103003000D02*
X173217000Y-100151000D01*
X173177000Y-107801000D02*
X173177000Y-104963000D01*
X173177000Y-103003000D02*
X173177000Y-100165000D01*
X173137000Y-107786000D02*
X173137000Y-104963000D01*
X173137000Y-103003000D02*
X173137000Y-100180000D01*
X173097000Y-107772000D02*
X173097000Y-104963000D01*
X173097000Y-103003000D02*
X173097000Y-100194000D01*
X173057000Y-107756000D02*
X173057000Y-104963000D01*
X173057000Y-103003000D02*
X173057000Y-100210000D01*
X173017000Y-107741000D02*
X173017000Y-104963000D01*
X173017000Y-103003000D02*
X173017000Y-100225000D01*
X172977000Y-107724000D02*
X172977000Y-104963000D01*
X172977000Y-103003000D02*
X172977000Y-100242000D01*
X172937000Y-107708000D02*
X172937000Y-104963000D01*
X172937000Y-103003000D02*
X172937000Y-100258000D01*
X172897000Y-107690000D02*
X172897000Y-104963000D01*
X172897000Y-103003000D02*
X172897000Y-100276000D01*
X172857000Y-107673000D02*
X172857000Y-104963000D01*
X172857000Y-103003000D02*
X172857000Y-100293000D01*
X172817000Y-107654000D02*
X172817000Y-104963000D01*
X172817000Y-103003000D02*
X172817000Y-100312000D01*
X172777000Y-107635000D02*
X172777000Y-104963000D01*
X172777000Y-103003000D02*
X172777000Y-100331000D01*
X172737000Y-107616000D02*
X172737000Y-104963000D01*
X172737000Y-103003000D02*
X172737000Y-100350000D01*
X172697000Y-107596000D02*
X172697000Y-104963000D01*
X172697000Y-103003000D02*
X172697000Y-100370000D01*
X172657000Y-107576000D02*
X172657000Y-104963000D01*
X172657000Y-103003000D02*
X172657000Y-100390000D01*
X172617000Y-107555000D02*
X172617000Y-104963000D01*
X172617000Y-103003000D02*
X172617000Y-100411000D01*
X172577000Y-107533000D02*
X172577000Y-104963000D01*
X172577000Y-103003000D02*
X172577000Y-100433000D01*
X172537000Y-107511000D02*
X172537000Y-104963000D01*
X172537000Y-103003000D02*
X172537000Y-100455000D01*
X172497000Y-107488000D02*
X172497000Y-104963000D01*
X172497000Y-103003000D02*
X172497000Y-100478000D01*
X172457000Y-107465000D02*
X172457000Y-104963000D01*
X172457000Y-103003000D02*
X172457000Y-100501000D01*
X172417000Y-107441000D02*
X172417000Y-104963000D01*
X172417000Y-103003000D02*
X172417000Y-100525000D01*
X172377000Y-107417000D02*
X172377000Y-104963000D01*
X172377000Y-103003000D02*
X172377000Y-100549000D01*
X172337000Y-107391000D02*
X172337000Y-104963000D01*
X172337000Y-103003000D02*
X172337000Y-100575000D01*
X172297000Y-107366000D02*
X172297000Y-104963000D01*
X172297000Y-103003000D02*
X172297000Y-100600000D01*
X172257000Y-107339000D02*
X172257000Y-104963000D01*
X172257000Y-103003000D02*
X172257000Y-100627000D01*
X172217000Y-107312000D02*
X172217000Y-104963000D01*
X172217000Y-103003000D02*
X172217000Y-100654000D01*
X172177000Y-107284000D02*
X172177000Y-104963000D01*
X172177000Y-103003000D02*
X172177000Y-100682000D01*
X172137000Y-107255000D02*
X172137000Y-104963000D01*
X172137000Y-103003000D02*
X172137000Y-100711000D01*
X172097000Y-107226000D02*
X172097000Y-104963000D01*
X172097000Y-103003000D02*
X172097000Y-100740000D01*
X172057000Y-107196000D02*
X172057000Y-104963000D01*
X172057000Y-103003000D02*
X172057000Y-100770000D01*
X172017000Y-107165000D02*
X172017000Y-104963000D01*
X172017000Y-103003000D02*
X172017000Y-100801000D01*
X171977000Y-107133000D02*
X171977000Y-104963000D01*
X171977000Y-103003000D02*
X171977000Y-100833000D01*
X171937000Y-107101000D02*
X171937000Y-104963000D01*
X171937000Y-103003000D02*
X171937000Y-100865000D01*
X171897000Y-107067000D02*
X171897000Y-104963000D01*
X171897000Y-103003000D02*
X171897000Y-100899000D01*
X171857000Y-107033000D02*
X171857000Y-104963000D01*
X171857000Y-103003000D02*
X171857000Y-100933000D01*
X171817000Y-106998000D02*
X171817000Y-104963000D01*
X171817000Y-103003000D02*
X171817000Y-100968000D01*
X171777000Y-106962000D02*
X171777000Y-101004000D01*
X171737000Y-106925000D02*
X171737000Y-101041000D01*
X171697000Y-106887000D02*
X171697000Y-101079000D01*
X171657000Y-106848000D02*
X171657000Y-101118000D01*
X171617000Y-106807000D02*
X171617000Y-101159000D01*
X171577000Y-106766000D02*
X171577000Y-101200000D01*
X171537000Y-106723000D02*
X171537000Y-101243000D01*
X171497000Y-106680000D02*
X171497000Y-101286000D01*
X171457000Y-106635000D02*
X171457000Y-101331000D01*
X171417000Y-106588000D02*
X171417000Y-101378000D01*
X171377000Y-106540000D02*
X171377000Y-101426000D01*
X171337000Y-106491000D02*
X171337000Y-101475000D01*
X171297000Y-106440000D02*
X171297000Y-101526000D01*
X171257000Y-106387000D02*
X171257000Y-101579000D01*
X171217000Y-106332000D02*
X171217000Y-101634000D01*
X171177000Y-106276000D02*
X171177000Y-101690000D01*
X171137000Y-106217000D02*
X171137000Y-101749000D01*
X171097000Y-106156000D02*
X171097000Y-101810000D01*
X171057000Y-106092000D02*
X171057000Y-101874000D01*
X171017000Y-106026000D02*
X171017000Y-101940000D01*
X170977000Y-105957000D02*
X170977000Y-102009000D01*
X170937000Y-105885000D02*
X170937000Y-102081000D01*
X170897000Y-105809000D02*
X170897000Y-102157000D01*
X170857000Y-105728000D02*
X170857000Y-102238000D01*
X170817000Y-105643000D02*
X170817000Y-102323000D01*
X170777000Y-105553000D02*
X170777000Y-102413000D01*
X170737000Y-105456000D02*
X170737000Y-102510000D01*
X170697000Y-105352000D02*
X170697000Y-102614000D01*
X170657000Y-105237000D02*
X170657000Y-102729000D01*
X170617000Y-105110000D02*
X170617000Y-102856000D01*
X170577000Y-104966000D02*
X170577000Y-103000000D01*
X170537000Y-104797000D02*
X170537000Y-103169000D01*
X170497000Y-104581000D02*
X170497000Y-103385000D01*
X170457000Y-104229000D02*
X170457000Y-103737000D01*
X178488000Y-103983000D02*
X177288000Y-103983000D01*
X177888000Y-104633000D02*
X177888000Y-103333000D01*
D13*
X163882000Y-140990000D02*
X165382000Y-140990000D01*
X164632000Y-141740000D02*
X164632000Y-140240000D01*
X167132000Y-139740000D02*
X167132000Y-140990000D01*
X174632000Y-139740000D02*
X174632000Y-140990000D01*
X162882000Y-139740000D02*
X178882000Y-139740000D01*
X178882000Y-139740000D02*
X178882000Y-108240000D01*
X178882000Y-108240000D02*
X162882000Y-108240000D01*
X162882000Y-108240000D02*
X162882000Y-139740000D01*
D12*
X197590000Y-86500000D02*
G75*
G03X197590000Y-86500000I-4090000J0D01*
G01*
X189450000Y-86500000D02*
X197550000Y-86500000D01*
X189450000Y-86460000D02*
X197550000Y-86460000D01*
X189450000Y-86420000D02*
X197550000Y-86420000D01*
X189451000Y-86380000D02*
X197549000Y-86380000D01*
X189453000Y-86340000D02*
X197547000Y-86340000D01*
X189454000Y-86300000D02*
X197546000Y-86300000D01*
X189457000Y-86260000D02*
X197543000Y-86260000D01*
X189459000Y-86220000D02*
X197541000Y-86220000D01*
X189462000Y-86180000D02*
X197538000Y-86180000D01*
X189465000Y-86140000D02*
X197535000Y-86140000D01*
X189469000Y-86100000D02*
X197531000Y-86100000D01*
X189473000Y-86060000D02*
X197527000Y-86060000D01*
X189478000Y-86020000D02*
X197522000Y-86020000D01*
X189483000Y-85980000D02*
X197517000Y-85980000D01*
X189488000Y-85940000D02*
X197512000Y-85940000D01*
X189494000Y-85900000D02*
X197506000Y-85900000D01*
X189500000Y-85860000D02*
X197500000Y-85860000D01*
X189506000Y-85820000D02*
X197494000Y-85820000D01*
X189513000Y-85779000D02*
X197487000Y-85779000D01*
X189521000Y-85739000D02*
X197479000Y-85739000D01*
X189529000Y-85699000D02*
X192520000Y-85699000D01*
X194480000Y-85699000D02*
X197471000Y-85699000D01*
X189537000Y-85659000D02*
X192520000Y-85659000D01*
X194480000Y-85659000D02*
X197463000Y-85659000D01*
X189545000Y-85619000D02*
X192520000Y-85619000D01*
X194480000Y-85619000D02*
X197455000Y-85619000D01*
X189554000Y-85579000D02*
X192520000Y-85579000D01*
X194480000Y-85579000D02*
X197446000Y-85579000D01*
X189564000Y-85539000D02*
X192520000Y-85539000D01*
X194480000Y-85539000D02*
X197436000Y-85539000D01*
X189574000Y-85499000D02*
X192520000Y-85499000D01*
X194480000Y-85499000D02*
X197426000Y-85499000D01*
X189584000Y-85459000D02*
X192520000Y-85459000D01*
X194480000Y-85459000D02*
X197416000Y-85459000D01*
X189595000Y-85419000D02*
X192520000Y-85419000D01*
X194480000Y-85419000D02*
X197405000Y-85419000D01*
X189606000Y-85379000D02*
X192520000Y-85379000D01*
X194480000Y-85379000D02*
X197394000Y-85379000D01*
X189617000Y-85339000D02*
X192520000Y-85339000D01*
X194480000Y-85339000D02*
X197383000Y-85339000D01*
X189630000Y-85299000D02*
X192520000Y-85299000D01*
X194480000Y-85299000D02*
X197370000Y-85299000D01*
X189642000Y-85259000D02*
X192520000Y-85259000D01*
X194480000Y-85259000D02*
X197358000Y-85259000D01*
X189655000Y-85219000D02*
X192520000Y-85219000D01*
X194480000Y-85219000D02*
X197345000Y-85219000D01*
X189668000Y-85179000D02*
X192520000Y-85179000D01*
X194480000Y-85179000D02*
X197332000Y-85179000D01*
X189682000Y-85139000D02*
X192520000Y-85139000D01*
X194480000Y-85139000D02*
X197318000Y-85139000D01*
X189697000Y-85099000D02*
X192520000Y-85099000D01*
X194480000Y-85099000D02*
X197303000Y-85099000D01*
X189711000Y-85059000D02*
X192520000Y-85059000D01*
X194480000Y-85059000D02*
X197289000Y-85059000D01*
X189727000Y-85019000D02*
X192520000Y-85019000D01*
X194480000Y-85019000D02*
X197273000Y-85019000D01*
X189742000Y-84979000D02*
X192520000Y-84979000D01*
X194480000Y-84979000D02*
X197258000Y-84979000D01*
X189759000Y-84939000D02*
X192520000Y-84939000D01*
X194480000Y-84939000D02*
X197241000Y-84939000D01*
X189775000Y-84899000D02*
X192520000Y-84899000D01*
X194480000Y-84899000D02*
X197225000Y-84899000D01*
X189793000Y-84859000D02*
X192520000Y-84859000D01*
X194480000Y-84859000D02*
X197207000Y-84859000D01*
X189810000Y-84819000D02*
X192520000Y-84819000D01*
X194480000Y-84819000D02*
X197190000Y-84819000D01*
X189829000Y-84779000D02*
X192520000Y-84779000D01*
X194480000Y-84779000D02*
X197171000Y-84779000D01*
X189848000Y-84739000D02*
X192520000Y-84739000D01*
X194480000Y-84739000D02*
X197152000Y-84739000D01*
X189867000Y-84699000D02*
X192520000Y-84699000D01*
X194480000Y-84699000D02*
X197133000Y-84699000D01*
X189887000Y-84659000D02*
X192520000Y-84659000D01*
X194480000Y-84659000D02*
X197113000Y-84659000D01*
X189907000Y-84619000D02*
X192520000Y-84619000D01*
X194480000Y-84619000D02*
X197093000Y-84619000D01*
X189928000Y-84579000D02*
X192520000Y-84579000D01*
X194480000Y-84579000D02*
X197072000Y-84579000D01*
X189950000Y-84539000D02*
X192520000Y-84539000D01*
X194480000Y-84539000D02*
X197050000Y-84539000D01*
X189972000Y-84499000D02*
X192520000Y-84499000D01*
X194480000Y-84499000D02*
X197028000Y-84499000D01*
X189995000Y-84459000D02*
X192520000Y-84459000D01*
X194480000Y-84459000D02*
X197005000Y-84459000D01*
X190018000Y-84419000D02*
X192520000Y-84419000D01*
X194480000Y-84419000D02*
X196982000Y-84419000D01*
X190042000Y-84379000D02*
X192520000Y-84379000D01*
X194480000Y-84379000D02*
X196958000Y-84379000D01*
X190066000Y-84339000D02*
X192520000Y-84339000D01*
X194480000Y-84339000D02*
X196934000Y-84339000D01*
X190092000Y-84299000D02*
X192520000Y-84299000D01*
X194480000Y-84299000D02*
X196908000Y-84299000D01*
X190117000Y-84259000D02*
X192520000Y-84259000D01*
X194480000Y-84259000D02*
X196883000Y-84259000D01*
X190144000Y-84219000D02*
X192520000Y-84219000D01*
X194480000Y-84219000D02*
X196856000Y-84219000D01*
X190171000Y-84179000D02*
X192520000Y-84179000D01*
X194480000Y-84179000D02*
X196829000Y-84179000D01*
X190199000Y-84139000D02*
X192520000Y-84139000D01*
X194480000Y-84139000D02*
X196801000Y-84139000D01*
X190228000Y-84099000D02*
X192520000Y-84099000D01*
X194480000Y-84099000D02*
X196772000Y-84099000D01*
X190257000Y-84059000D02*
X192520000Y-84059000D01*
X194480000Y-84059000D02*
X196743000Y-84059000D01*
X190287000Y-84019000D02*
X192520000Y-84019000D01*
X194480000Y-84019000D02*
X196713000Y-84019000D01*
X190318000Y-83979000D02*
X192520000Y-83979000D01*
X194480000Y-83979000D02*
X196682000Y-83979000D01*
X190350000Y-83939000D02*
X192520000Y-83939000D01*
X194480000Y-83939000D02*
X196650000Y-83939000D01*
X190382000Y-83899000D02*
X192520000Y-83899000D01*
X194480000Y-83899000D02*
X196618000Y-83899000D01*
X190416000Y-83859000D02*
X192520000Y-83859000D01*
X194480000Y-83859000D02*
X196584000Y-83859000D01*
X190450000Y-83819000D02*
X192520000Y-83819000D01*
X194480000Y-83819000D02*
X196550000Y-83819000D01*
X190485000Y-83779000D02*
X192520000Y-83779000D01*
X194480000Y-83779000D02*
X196515000Y-83779000D01*
X190521000Y-83739000D02*
X196479000Y-83739000D01*
X190558000Y-83699000D02*
X196442000Y-83699000D01*
X190596000Y-83659000D02*
X196404000Y-83659000D01*
X190635000Y-83619000D02*
X196365000Y-83619000D01*
X190676000Y-83579000D02*
X196324000Y-83579000D01*
X190717000Y-83539000D02*
X196283000Y-83539000D01*
X190760000Y-83499000D02*
X196240000Y-83499000D01*
X190803000Y-83459000D02*
X196197000Y-83459000D01*
X190848000Y-83419000D02*
X196152000Y-83419000D01*
X190895000Y-83379000D02*
X196105000Y-83379000D01*
X190943000Y-83339000D02*
X196057000Y-83339000D01*
X190992000Y-83299000D02*
X196008000Y-83299000D01*
X191043000Y-83259000D02*
X195957000Y-83259000D01*
X191096000Y-83219000D02*
X195904000Y-83219000D01*
X191151000Y-83179000D02*
X195849000Y-83179000D01*
X191207000Y-83139000D02*
X195793000Y-83139000D01*
X191266000Y-83099000D02*
X195734000Y-83099000D01*
X191327000Y-83059000D02*
X195673000Y-83059000D01*
X191391000Y-83019000D02*
X195609000Y-83019000D01*
X191457000Y-82979000D02*
X195543000Y-82979000D01*
X191526000Y-82939000D02*
X195474000Y-82939000D01*
X191598000Y-82899000D02*
X195402000Y-82899000D01*
X191674000Y-82859000D02*
X195326000Y-82859000D01*
X191755000Y-82819000D02*
X195245000Y-82819000D01*
X191840000Y-82779000D02*
X195160000Y-82779000D01*
X191930000Y-82739000D02*
X195070000Y-82739000D01*
X192027000Y-82699000D02*
X194973000Y-82699000D01*
X192131000Y-82659000D02*
X194869000Y-82659000D01*
X192246000Y-82619000D02*
X194754000Y-82619000D01*
X192373000Y-82579000D02*
X194627000Y-82579000D01*
X192517000Y-82539000D02*
X194483000Y-82539000D01*
X192686000Y-82499000D02*
X194314000Y-82499000D01*
X192902000Y-82459000D02*
X194098000Y-82459000D01*
X193254000Y-82419000D02*
X193746000Y-82419000D01*
X193500000Y-90450000D02*
X193500000Y-89250000D01*
X192850000Y-89850000D02*
X194150000Y-89850000D01*
X187986000Y-130274000D02*
G75*
G03X187986000Y-130274000I-4090000J0D01*
G01*
X187946000Y-130274000D02*
X179846000Y-130274000D01*
X187946000Y-130314000D02*
X179846000Y-130314000D01*
X187946000Y-130354000D02*
X179846000Y-130354000D01*
X187945000Y-130394000D02*
X179847000Y-130394000D01*
X187943000Y-130434000D02*
X179849000Y-130434000D01*
X187942000Y-130474000D02*
X179850000Y-130474000D01*
X187939000Y-130514000D02*
X179853000Y-130514000D01*
X187937000Y-130554000D02*
X179855000Y-130554000D01*
X187934000Y-130594000D02*
X179858000Y-130594000D01*
X187931000Y-130634000D02*
X179861000Y-130634000D01*
X187927000Y-130674000D02*
X179865000Y-130674000D01*
X187923000Y-130714000D02*
X179869000Y-130714000D01*
X187918000Y-130754000D02*
X179874000Y-130754000D01*
X187913000Y-130794000D02*
X179879000Y-130794000D01*
X187908000Y-130834000D02*
X179884000Y-130834000D01*
X187902000Y-130874000D02*
X179890000Y-130874000D01*
X187896000Y-130914000D02*
X179896000Y-130914000D01*
X187890000Y-130954000D02*
X179902000Y-130954000D01*
X187883000Y-130995000D02*
X179909000Y-130995000D01*
X187875000Y-131035000D02*
X179917000Y-131035000D01*
X187867000Y-131075000D02*
X184876000Y-131075000D01*
X182916000Y-131075000D02*
X179925000Y-131075000D01*
X187859000Y-131115000D02*
X184876000Y-131115000D01*
X182916000Y-131115000D02*
X179933000Y-131115000D01*
X187851000Y-131155000D02*
X184876000Y-131155000D01*
X182916000Y-131155000D02*
X179941000Y-131155000D01*
X187842000Y-131195000D02*
X184876000Y-131195000D01*
X182916000Y-131195000D02*
X179950000Y-131195000D01*
X187832000Y-131235000D02*
X184876000Y-131235000D01*
X182916000Y-131235000D02*
X179960000Y-131235000D01*
X187822000Y-131275000D02*
X184876000Y-131275000D01*
X182916000Y-131275000D02*
X179970000Y-131275000D01*
X187812000Y-131315000D02*
X184876000Y-131315000D01*
X182916000Y-131315000D02*
X179980000Y-131315000D01*
X187801000Y-131355000D02*
X184876000Y-131355000D01*
X182916000Y-131355000D02*
X179991000Y-131355000D01*
X187790000Y-131395000D02*
X184876000Y-131395000D01*
X182916000Y-131395000D02*
X180002000Y-131395000D01*
X187779000Y-131435000D02*
X184876000Y-131435000D01*
X182916000Y-131435000D02*
X180013000Y-131435000D01*
X187766000Y-131475000D02*
X184876000Y-131475000D01*
X182916000Y-131475000D02*
X180026000Y-131475000D01*
X187754000Y-131515000D02*
X184876000Y-131515000D01*
X182916000Y-131515000D02*
X180038000Y-131515000D01*
X187741000Y-131555000D02*
X184876000Y-131555000D01*
X182916000Y-131555000D02*
X180051000Y-131555000D01*
X187728000Y-131595000D02*
X184876000Y-131595000D01*
X182916000Y-131595000D02*
X180064000Y-131595000D01*
X187714000Y-131635000D02*
X184876000Y-131635000D01*
X182916000Y-131635000D02*
X180078000Y-131635000D01*
X187699000Y-131675000D02*
X184876000Y-131675000D01*
X182916000Y-131675000D02*
X180093000Y-131675000D01*
X187685000Y-131715000D02*
X184876000Y-131715000D01*
X182916000Y-131715000D02*
X180107000Y-131715000D01*
X187669000Y-131755000D02*
X184876000Y-131755000D01*
X182916000Y-131755000D02*
X180123000Y-131755000D01*
X187654000Y-131795000D02*
X184876000Y-131795000D01*
X182916000Y-131795000D02*
X180138000Y-131795000D01*
X187637000Y-131835000D02*
X184876000Y-131835000D01*
X182916000Y-131835000D02*
X180155000Y-131835000D01*
X187621000Y-131875000D02*
X184876000Y-131875000D01*
X182916000Y-131875000D02*
X180171000Y-131875000D01*
X187603000Y-131915000D02*
X184876000Y-131915000D01*
X182916000Y-131915000D02*
X180189000Y-131915000D01*
X187586000Y-131955000D02*
X184876000Y-131955000D01*
X182916000Y-131955000D02*
X180206000Y-131955000D01*
X187567000Y-131995000D02*
X184876000Y-131995000D01*
X182916000Y-131995000D02*
X180225000Y-131995000D01*
X187548000Y-132035000D02*
X184876000Y-132035000D01*
X182916000Y-132035000D02*
X180244000Y-132035000D01*
X187529000Y-132075000D02*
X184876000Y-132075000D01*
X182916000Y-132075000D02*
X180263000Y-132075000D01*
X187509000Y-132115000D02*
X184876000Y-132115000D01*
X182916000Y-132115000D02*
X180283000Y-132115000D01*
X187489000Y-132155000D02*
X184876000Y-132155000D01*
X182916000Y-132155000D02*
X180303000Y-132155000D01*
X187468000Y-132195000D02*
X184876000Y-132195000D01*
X182916000Y-132195000D02*
X180324000Y-132195000D01*
X187446000Y-132235000D02*
X184876000Y-132235000D01*
X182916000Y-132235000D02*
X180346000Y-132235000D01*
X187424000Y-132275000D02*
X184876000Y-132275000D01*
X182916000Y-132275000D02*
X180368000Y-132275000D01*
X187401000Y-132315000D02*
X184876000Y-132315000D01*
X182916000Y-132315000D02*
X180391000Y-132315000D01*
X187378000Y-132355000D02*
X184876000Y-132355000D01*
X182916000Y-132355000D02*
X180414000Y-132355000D01*
X187354000Y-132395000D02*
X184876000Y-132395000D01*
X182916000Y-132395000D02*
X180438000Y-132395000D01*
X187330000Y-132435000D02*
X184876000Y-132435000D01*
X182916000Y-132435000D02*
X180462000Y-132435000D01*
X187304000Y-132475000D02*
X184876000Y-132475000D01*
X182916000Y-132475000D02*
X180488000Y-132475000D01*
X187279000Y-132515000D02*
X184876000Y-132515000D01*
X182916000Y-132515000D02*
X180513000Y-132515000D01*
X187252000Y-132555000D02*
X184876000Y-132555000D01*
X182916000Y-132555000D02*
X180540000Y-132555000D01*
X187225000Y-132595000D02*
X184876000Y-132595000D01*
X182916000Y-132595000D02*
X180567000Y-132595000D01*
X187197000Y-132635000D02*
X184876000Y-132635000D01*
X182916000Y-132635000D02*
X180595000Y-132635000D01*
X187168000Y-132675000D02*
X184876000Y-132675000D01*
X182916000Y-132675000D02*
X180624000Y-132675000D01*
X187139000Y-132715000D02*
X184876000Y-132715000D01*
X182916000Y-132715000D02*
X180653000Y-132715000D01*
X187109000Y-132755000D02*
X184876000Y-132755000D01*
X182916000Y-132755000D02*
X180683000Y-132755000D01*
X187078000Y-132795000D02*
X184876000Y-132795000D01*
X182916000Y-132795000D02*
X180714000Y-132795000D01*
X187046000Y-132835000D02*
X184876000Y-132835000D01*
X182916000Y-132835000D02*
X180746000Y-132835000D01*
X187014000Y-132875000D02*
X184876000Y-132875000D01*
X182916000Y-132875000D02*
X180778000Y-132875000D01*
X186980000Y-132915000D02*
X184876000Y-132915000D01*
X182916000Y-132915000D02*
X180812000Y-132915000D01*
X186946000Y-132955000D02*
X184876000Y-132955000D01*
X182916000Y-132955000D02*
X180846000Y-132955000D01*
X186911000Y-132995000D02*
X184876000Y-132995000D01*
X182916000Y-132995000D02*
X180881000Y-132995000D01*
X186875000Y-133035000D02*
X180917000Y-133035000D01*
X186838000Y-133075000D02*
X180954000Y-133075000D01*
X186800000Y-133115000D02*
X180992000Y-133115000D01*
X186761000Y-133155000D02*
X181031000Y-133155000D01*
X186720000Y-133195000D02*
X181072000Y-133195000D01*
X186679000Y-133235000D02*
X181113000Y-133235000D01*
X186636000Y-133275000D02*
X181156000Y-133275000D01*
X186593000Y-133315000D02*
X181199000Y-133315000D01*
X186548000Y-133355000D02*
X181244000Y-133355000D01*
X186501000Y-133395000D02*
X181291000Y-133395000D01*
X186453000Y-133435000D02*
X181339000Y-133435000D01*
X186404000Y-133475000D02*
X181388000Y-133475000D01*
X186353000Y-133515000D02*
X181439000Y-133515000D01*
X186300000Y-133555000D02*
X181492000Y-133555000D01*
X186245000Y-133595000D02*
X181547000Y-133595000D01*
X186189000Y-133635000D02*
X181603000Y-133635000D01*
X186130000Y-133675000D02*
X181662000Y-133675000D01*
X186069000Y-133715000D02*
X181723000Y-133715000D01*
X186005000Y-133755000D02*
X181787000Y-133755000D01*
X185939000Y-133795000D02*
X181853000Y-133795000D01*
X185870000Y-133835000D02*
X181922000Y-133835000D01*
X185798000Y-133875000D02*
X181994000Y-133875000D01*
X185722000Y-133915000D02*
X182070000Y-133915000D01*
X185641000Y-133955000D02*
X182151000Y-133955000D01*
X185556000Y-133995000D02*
X182236000Y-133995000D01*
X185466000Y-134035000D02*
X182326000Y-134035000D01*
X185369000Y-134075000D02*
X182423000Y-134075000D01*
X185265000Y-134115000D02*
X182527000Y-134115000D01*
X185150000Y-134155000D02*
X182642000Y-134155000D01*
X185023000Y-134195000D02*
X182769000Y-134195000D01*
X184879000Y-134235000D02*
X182913000Y-134235000D01*
X184710000Y-134275000D02*
X183082000Y-134275000D01*
X184494000Y-134315000D02*
X183298000Y-134315000D01*
X184142000Y-134355000D02*
X183650000Y-134355000D01*
X183896000Y-126324000D02*
X183896000Y-127524000D01*
X184546000Y-126924000D02*
X183246000Y-126924000D01*
D13*
X161866000Y-114550000D02*
X155126000Y-114550000D01*
X155126000Y-114550000D02*
X155126000Y-134370000D01*
X155126000Y-134370000D02*
X161866000Y-134370000D01*
X161866000Y-114550000D02*
X161866000Y-134370000D01*
X155126000Y-114050000D02*
X161866000Y-114050000D01*
X161866000Y-114050000D02*
X161866000Y-94230000D01*
X161866000Y-94230000D02*
X155126000Y-94230000D01*
X155126000Y-114050000D02*
X155126000Y-94230000D01*
X166116000Y-84570000D02*
X166491000Y-84945000D01*
X166116000Y-84570000D02*
X165741000Y-84945000D01*
X176366000Y-84945000D02*
X164616000Y-84945000D01*
X176366000Y-84945000D02*
X176366000Y-81745000D01*
X164616000Y-81745000D02*
X176366000Y-81745000D01*
X164616000Y-81745000D02*
X164616000Y-84945000D01*
D14*
X162586800Y-141780120D02*
X162586800Y-134779880D01*
X162586800Y-134779880D02*
X154987120Y-134779880D01*
X154987120Y-134779880D02*
X154987120Y-141780120D01*
X154987120Y-141780120D02*
X162586800Y-141780120D01*
X154987120Y-139280760D02*
X155987880Y-140030060D01*
X155987880Y-140030060D02*
X154987120Y-140779360D01*
X162586800Y-93780120D02*
X162586800Y-86779880D01*
X162586800Y-86779880D02*
X154987120Y-86779880D01*
X154987120Y-86779880D02*
X154987120Y-93780120D01*
X154987120Y-93780120D02*
X162586800Y-93780120D01*
X154987120Y-91280760D02*
X155987880Y-92030060D01*
X155987880Y-92030060D02*
X154987120Y-92779360D01*
D13*
X197858000Y-108712000D02*
X197858000Y-97712000D01*
X197858000Y-99712000D02*
X189708000Y-99712000D01*
X206008000Y-97712000D02*
X197858000Y-97712000D01*
X197858000Y-110712000D02*
X189708000Y-110712000D01*
X206008000Y-108712000D02*
X197858000Y-108712000D01*
X197858000Y-108712000D02*
X197858000Y-110712000D01*
X206008000Y-97712000D02*
X206008000Y-108712000D01*
X197858000Y-140208000D02*
X197858000Y-124208000D01*
X197858000Y-124208000D02*
X189708000Y-124208000D01*
X206008000Y-122208000D02*
X197858000Y-122208000D01*
X197858000Y-122208000D02*
X197858000Y-124208000D01*
X197858000Y-142208000D02*
X189708000Y-142208000D01*
X206008000Y-140208000D02*
X197858000Y-140208000D01*
X197858000Y-140208000D02*
X197858000Y-142208000D01*
X206008000Y-122208000D02*
X206008000Y-140208000D01*
D14*
X198401200Y-87499880D02*
X198401200Y-94500120D01*
X198401200Y-94500120D02*
X206000880Y-94500120D01*
X206000880Y-94500120D02*
X206000880Y-87499880D01*
X206000880Y-87499880D02*
X198401200Y-87499880D01*
X206000880Y-89999240D02*
X205000120Y-89249940D01*
X205000120Y-89249940D02*
X206000880Y-88500640D01*
D13*
X197858000Y-120904000D02*
X197858000Y-109904000D01*
X197858000Y-111904000D02*
X189708000Y-111904000D01*
X206008000Y-109904000D02*
X197858000Y-109904000D01*
X197858000Y-122904000D02*
X189708000Y-122904000D01*
X206008000Y-120904000D02*
X197858000Y-120904000D01*
X197858000Y-120904000D02*
X197858000Y-122904000D01*
X206008000Y-109904000D02*
X206008000Y-120904000D01*
X188152000Y-125574000D02*
X188152000Y-124644000D01*
X188152000Y-93374000D02*
X188152000Y-94304000D01*
X179052000Y-93374000D02*
X179072000Y-125574000D01*
X179072000Y-125574000D02*
X188152000Y-125574000D01*
X179052000Y-93374000D02*
X188152000Y-93374000D01*
D15*
G36*
X175095623Y-143954952D02*
X175111086Y-143963611D01*
X175135478Y-143977454D01*
X175167769Y-143995892D01*
X175206930Y-144018335D01*
X175251929Y-144044193D01*
X175301737Y-144072876D01*
X175355322Y-144103794D01*
X175373600Y-144114353D01*
X175438044Y-144151587D01*
X175507125Y-144191488D01*
X175578477Y-144232690D01*
X175649730Y-144273826D01*
X175718516Y-144313529D01*
X175782469Y-144350432D01*
X175839219Y-144383167D01*
X175868900Y-144400281D01*
X175916155Y-144427538D01*
X175959857Y-144452771D01*
X175998807Y-144475287D01*
X176031807Y-144494392D01*
X176057657Y-144509392D01*
X176075159Y-144519592D01*
X176083115Y-144524299D01*
X176083464Y-144524527D01*
X176082549Y-144530881D01*
X176078649Y-144546845D01*
X176072423Y-144569865D01*
X176066095Y-144592031D01*
X176051776Y-144644799D01*
X176040937Y-144694121D01*
X176033071Y-144743549D01*
X176027669Y-144796634D01*
X176024222Y-144856930D01*
X176023015Y-144893018D01*
X176022732Y-144982698D01*
X176027400Y-145064245D01*
X176037527Y-145141423D01*
X176053620Y-145217997D01*
X176076189Y-145297730D01*
X176078695Y-145305625D01*
X176121545Y-145419217D01*
X176175298Y-145527423D01*
X176239184Y-145629530D01*
X176312431Y-145724829D01*
X176394269Y-145812606D01*
X176483928Y-145892153D01*
X176580637Y-145962756D01*
X176683627Y-146023705D01*
X176792125Y-146074289D01*
X176905363Y-146113796D01*
X176973320Y-146131448D01*
X177018250Y-146141667D01*
X177018250Y-147290000D01*
X176581687Y-147289495D01*
X176491912Y-147289342D01*
X176413976Y-147289096D01*
X176347017Y-147288739D01*
X176290174Y-147288254D01*
X176242585Y-147287625D01*
X176203391Y-147286834D01*
X176171729Y-147285866D01*
X176146738Y-147284703D01*
X176127557Y-147283328D01*
X176113324Y-147281725D01*
X176104567Y-147280191D01*
X176020644Y-147256036D01*
X175944040Y-147221653D01*
X175875027Y-147177224D01*
X175813880Y-147122930D01*
X175760873Y-147058951D01*
X175753183Y-147047853D01*
X175746203Y-147036705D01*
X175733365Y-147015320D01*
X175715083Y-146984414D01*
X175691765Y-146944700D01*
X175663825Y-146896893D01*
X175631673Y-146841705D01*
X175595720Y-146779852D01*
X175556377Y-146712048D01*
X175514056Y-146639006D01*
X175469167Y-146561440D01*
X175422123Y-146480065D01*
X175373334Y-146395594D01*
X175323211Y-146308742D01*
X175272166Y-146220223D01*
X175220609Y-146130750D01*
X175168953Y-146041038D01*
X175117607Y-145951802D01*
X175066984Y-145863754D01*
X175017495Y-145777609D01*
X174969551Y-145694081D01*
X174923562Y-145613884D01*
X174879940Y-145537732D01*
X174839097Y-145466339D01*
X174801444Y-145400420D01*
X174767391Y-145340688D01*
X174737350Y-145287857D01*
X174711732Y-145242642D01*
X174690949Y-145205756D01*
X174675411Y-145177913D01*
X174665530Y-145159829D01*
X174662137Y-145153225D01*
X174642394Y-145106481D01*
X174628678Y-145062771D01*
X174620175Y-145018056D01*
X174616069Y-144968297D01*
X174615410Y-144921450D01*
X174616051Y-144883186D01*
X174617640Y-144853767D01*
X174620653Y-144829346D01*
X174625566Y-144806078D01*
X174632855Y-144780114D01*
X174632930Y-144779866D01*
X174643220Y-144748900D01*
X174655304Y-144717073D01*
X174666911Y-144690287D01*
X174669234Y-144685539D01*
X174674423Y-144675996D01*
X174685126Y-144656898D01*
X174700701Y-144629362D01*
X174720508Y-144594507D01*
X174743905Y-144553450D01*
X174770250Y-144507310D01*
X174798903Y-144457202D01*
X174829221Y-144404247D01*
X174860564Y-144349560D01*
X174892290Y-144294261D01*
X174923758Y-144239465D01*
X174954326Y-144186293D01*
X174983353Y-144135860D01*
X175010197Y-144089285D01*
X175034218Y-144047685D01*
X175054774Y-144012179D01*
X175071222Y-143983884D01*
X175082923Y-143963917D01*
X175089235Y-143953397D01*
X175090121Y-143952068D01*
X175095623Y-143954952D01*
X175095623Y-143954952D01*
G37*
X175095623Y-143954952D02*
X175111086Y-143963611D01*
X175135478Y-143977454D01*
X175167769Y-143995892D01*
X175206930Y-144018335D01*
X175251929Y-144044193D01*
X175301737Y-144072876D01*
X175355322Y-144103794D01*
X175373600Y-144114353D01*
X175438044Y-144151587D01*
X175507125Y-144191488D01*
X175578477Y-144232690D01*
X175649730Y-144273826D01*
X175718516Y-144313529D01*
X175782469Y-144350432D01*
X175839219Y-144383167D01*
X175868900Y-144400281D01*
X175916155Y-144427538D01*
X175959857Y-144452771D01*
X175998807Y-144475287D01*
X176031807Y-144494392D01*
X176057657Y-144509392D01*
X176075159Y-144519592D01*
X176083115Y-144524299D01*
X176083464Y-144524527D01*
X176082549Y-144530881D01*
X176078649Y-144546845D01*
X176072423Y-144569865D01*
X176066095Y-144592031D01*
X176051776Y-144644799D01*
X176040937Y-144694121D01*
X176033071Y-144743549D01*
X176027669Y-144796634D01*
X176024222Y-144856930D01*
X176023015Y-144893018D01*
X176022732Y-144982698D01*
X176027400Y-145064245D01*
X176037527Y-145141423D01*
X176053620Y-145217997D01*
X176076189Y-145297730D01*
X176078695Y-145305625D01*
X176121545Y-145419217D01*
X176175298Y-145527423D01*
X176239184Y-145629530D01*
X176312431Y-145724829D01*
X176394269Y-145812606D01*
X176483928Y-145892153D01*
X176580637Y-145962756D01*
X176683627Y-146023705D01*
X176792125Y-146074289D01*
X176905363Y-146113796D01*
X176973320Y-146131448D01*
X177018250Y-146141667D01*
X177018250Y-147290000D01*
X176581687Y-147289495D01*
X176491912Y-147289342D01*
X176413976Y-147289096D01*
X176347017Y-147288739D01*
X176290174Y-147288254D01*
X176242585Y-147287625D01*
X176203391Y-147286834D01*
X176171729Y-147285866D01*
X176146738Y-147284703D01*
X176127557Y-147283328D01*
X176113324Y-147281725D01*
X176104567Y-147280191D01*
X176020644Y-147256036D01*
X175944040Y-147221653D01*
X175875027Y-147177224D01*
X175813880Y-147122930D01*
X175760873Y-147058951D01*
X175753183Y-147047853D01*
X175746203Y-147036705D01*
X175733365Y-147015320D01*
X175715083Y-146984414D01*
X175691765Y-146944700D01*
X175663825Y-146896893D01*
X175631673Y-146841705D01*
X175595720Y-146779852D01*
X175556377Y-146712048D01*
X175514056Y-146639006D01*
X175469167Y-146561440D01*
X175422123Y-146480065D01*
X175373334Y-146395594D01*
X175323211Y-146308742D01*
X175272166Y-146220223D01*
X175220609Y-146130750D01*
X175168953Y-146041038D01*
X175117607Y-145951802D01*
X175066984Y-145863754D01*
X175017495Y-145777609D01*
X174969551Y-145694081D01*
X174923562Y-145613884D01*
X174879940Y-145537732D01*
X174839097Y-145466339D01*
X174801444Y-145400420D01*
X174767391Y-145340688D01*
X174737350Y-145287857D01*
X174711732Y-145242642D01*
X174690949Y-145205756D01*
X174675411Y-145177913D01*
X174665530Y-145159829D01*
X174662137Y-145153225D01*
X174642394Y-145106481D01*
X174628678Y-145062771D01*
X174620175Y-145018056D01*
X174616069Y-144968297D01*
X174615410Y-144921450D01*
X174616051Y-144883186D01*
X174617640Y-144853767D01*
X174620653Y-144829346D01*
X174625566Y-144806078D01*
X174632855Y-144780114D01*
X174632930Y-144779866D01*
X174643220Y-144748900D01*
X174655304Y-144717073D01*
X174666911Y-144690287D01*
X174669234Y-144685539D01*
X174674423Y-144675996D01*
X174685126Y-144656898D01*
X174700701Y-144629362D01*
X174720508Y-144594507D01*
X174743905Y-144553450D01*
X174770250Y-144507310D01*
X174798903Y-144457202D01*
X174829221Y-144404247D01*
X174860564Y-144349560D01*
X174892290Y-144294261D01*
X174923758Y-144239465D01*
X174954326Y-144186293D01*
X174983353Y-144135860D01*
X175010197Y-144089285D01*
X175034218Y-144047685D01*
X175054774Y-144012179D01*
X175071222Y-143983884D01*
X175082923Y-143963917D01*
X175089235Y-143953397D01*
X175090121Y-143952068D01*
X175095623Y-143954952D01*
G36*
X179420509Y-143961675D02*
X179430399Y-143977016D01*
X179445275Y-144001247D01*
X179464512Y-144033281D01*
X179487484Y-144072032D01*
X179513567Y-144116413D01*
X179542135Y-144165336D01*
X179572562Y-144217716D01*
X179604225Y-144272466D01*
X179636497Y-144328498D01*
X179668754Y-144384727D01*
X179700369Y-144440065D01*
X179730719Y-144493426D01*
X179759177Y-144543723D01*
X179785119Y-144589870D01*
X179807920Y-144630779D01*
X179826953Y-144665364D01*
X179841594Y-144692538D01*
X179851218Y-144711215D01*
X179854168Y-144717523D01*
X179878204Y-144788944D01*
X179891811Y-144865012D01*
X179894989Y-144943146D01*
X179887737Y-145020765D01*
X179870057Y-145095286D01*
X179854234Y-145137925D01*
X179848913Y-145148436D01*
X179837625Y-145169224D01*
X179820779Y-145199580D01*
X179798783Y-145238795D01*
X179772043Y-145286162D01*
X179740969Y-145340973D01*
X179705968Y-145402518D01*
X179667447Y-145470089D01*
X179625815Y-145542979D01*
X179581479Y-145620480D01*
X179534848Y-145701882D01*
X179486329Y-145786477D01*
X179436329Y-145873558D01*
X179385258Y-145962416D01*
X179333523Y-146052342D01*
X179281530Y-146142630D01*
X179229690Y-146232569D01*
X179178408Y-146321452D01*
X179128094Y-146408571D01*
X179079155Y-146493217D01*
X179031998Y-146574683D01*
X178987032Y-146652259D01*
X178944665Y-146725238D01*
X178905303Y-146792911D01*
X178869356Y-146854570D01*
X178837232Y-146909507D01*
X178809337Y-146957013D01*
X178786079Y-146996381D01*
X178767867Y-147026902D01*
X178755109Y-147047867D01*
X178748437Y-147058252D01*
X178709309Y-147106122D01*
X178661496Y-147152164D01*
X178608366Y-147193688D01*
X178553286Y-147228006D01*
X178510500Y-147248297D01*
X178492943Y-147255406D01*
X178477564Y-147261571D01*
X178463362Y-147266863D01*
X178449334Y-147271354D01*
X178434479Y-147275113D01*
X178417797Y-147278212D01*
X178398285Y-147280723D01*
X178374943Y-147282715D01*
X178346769Y-147284260D01*
X178312762Y-147285429D01*
X178271921Y-147286293D01*
X178223244Y-147286923D01*
X178165729Y-147287389D01*
X178098376Y-147287764D01*
X178020184Y-147288116D01*
X177943762Y-147288455D01*
X177488150Y-147290550D01*
X177488150Y-146142436D01*
X177554575Y-146125865D01*
X177672922Y-146089918D01*
X177786042Y-146042715D01*
X177893261Y-145984856D01*
X177993907Y-145916943D01*
X178087307Y-145839575D01*
X178172785Y-145753351D01*
X178249670Y-145658874D01*
X178317288Y-145556741D01*
X178374965Y-145447555D01*
X178410772Y-145362775D01*
X178440929Y-145274175D01*
X178463040Y-145187202D01*
X178477713Y-145098408D01*
X178485553Y-145004346D01*
X178487315Y-144927800D01*
X178486616Y-144864455D01*
X178484057Y-144809835D01*
X178479149Y-144760037D01*
X178471400Y-144711159D01*
X178460319Y-144659299D01*
X178446829Y-144605856D01*
X178439361Y-144577225D01*
X178433288Y-144552997D01*
X178429268Y-144535862D01*
X178427950Y-144528675D01*
X178433049Y-144522560D01*
X178446292Y-144512825D01*
X178461287Y-144503639D01*
X178479327Y-144493315D01*
X178505170Y-144478448D01*
X178535635Y-144460874D01*
X178567540Y-144442425D01*
X178574000Y-144438683D01*
X178608141Y-144418921D01*
X178651048Y-144394111D01*
X178701212Y-144365125D01*
X178757122Y-144332833D01*
X178817266Y-144298109D01*
X178880135Y-144261822D01*
X178944217Y-144224845D01*
X179008003Y-144188049D01*
X179069981Y-144152305D01*
X179128641Y-144118486D01*
X179182472Y-144087463D01*
X179229964Y-144060107D01*
X179269606Y-144037290D01*
X179299888Y-144019883D01*
X179301930Y-144018711D01*
X179335590Y-143999543D01*
X179365579Y-143982762D01*
X179390131Y-143969331D01*
X179407482Y-143960213D01*
X179415867Y-143956372D01*
X179416230Y-143956310D01*
X179420509Y-143961675D01*
X179420509Y-143961675D01*
G37*
X179420509Y-143961675D02*
X179430399Y-143977016D01*
X179445275Y-144001247D01*
X179464512Y-144033281D01*
X179487484Y-144072032D01*
X179513567Y-144116413D01*
X179542135Y-144165336D01*
X179572562Y-144217716D01*
X179604225Y-144272466D01*
X179636497Y-144328498D01*
X179668754Y-144384727D01*
X179700369Y-144440065D01*
X179730719Y-144493426D01*
X179759177Y-144543723D01*
X179785119Y-144589870D01*
X179807920Y-144630779D01*
X179826953Y-144665364D01*
X179841594Y-144692538D01*
X179851218Y-144711215D01*
X179854168Y-144717523D01*
X179878204Y-144788944D01*
X179891811Y-144865012D01*
X179894989Y-144943146D01*
X179887737Y-145020765D01*
X179870057Y-145095286D01*
X179854234Y-145137925D01*
X179848913Y-145148436D01*
X179837625Y-145169224D01*
X179820779Y-145199580D01*
X179798783Y-145238795D01*
X179772043Y-145286162D01*
X179740969Y-145340973D01*
X179705968Y-145402518D01*
X179667447Y-145470089D01*
X179625815Y-145542979D01*
X179581479Y-145620480D01*
X179534848Y-145701882D01*
X179486329Y-145786477D01*
X179436329Y-145873558D01*
X179385258Y-145962416D01*
X179333523Y-146052342D01*
X179281530Y-146142630D01*
X179229690Y-146232569D01*
X179178408Y-146321452D01*
X179128094Y-146408571D01*
X179079155Y-146493217D01*
X179031998Y-146574683D01*
X178987032Y-146652259D01*
X178944665Y-146725238D01*
X178905303Y-146792911D01*
X178869356Y-146854570D01*
X178837232Y-146909507D01*
X178809337Y-146957013D01*
X178786079Y-146996381D01*
X178767867Y-147026902D01*
X178755109Y-147047867D01*
X178748437Y-147058252D01*
X178709309Y-147106122D01*
X178661496Y-147152164D01*
X178608366Y-147193688D01*
X178553286Y-147228006D01*
X178510500Y-147248297D01*
X178492943Y-147255406D01*
X178477564Y-147261571D01*
X178463362Y-147266863D01*
X178449334Y-147271354D01*
X178434479Y-147275113D01*
X178417797Y-147278212D01*
X178398285Y-147280723D01*
X178374943Y-147282715D01*
X178346769Y-147284260D01*
X178312762Y-147285429D01*
X178271921Y-147286293D01*
X178223244Y-147286923D01*
X178165729Y-147287389D01*
X178098376Y-147287764D01*
X178020184Y-147288116D01*
X177943762Y-147288455D01*
X177488150Y-147290550D01*
X177488150Y-146142436D01*
X177554575Y-146125865D01*
X177672922Y-146089918D01*
X177786042Y-146042715D01*
X177893261Y-145984856D01*
X177993907Y-145916943D01*
X178087307Y-145839575D01*
X178172785Y-145753351D01*
X178249670Y-145658874D01*
X178317288Y-145556741D01*
X178374965Y-145447555D01*
X178410772Y-145362775D01*
X178440929Y-145274175D01*
X178463040Y-145187202D01*
X178477713Y-145098408D01*
X178485553Y-145004346D01*
X178487315Y-144927800D01*
X178486616Y-144864455D01*
X178484057Y-144809835D01*
X178479149Y-144760037D01*
X178471400Y-144711159D01*
X178460319Y-144659299D01*
X178446829Y-144605856D01*
X178439361Y-144577225D01*
X178433288Y-144552997D01*
X178429268Y-144535862D01*
X178427950Y-144528675D01*
X178433049Y-144522560D01*
X178446292Y-144512825D01*
X178461287Y-144503639D01*
X178479327Y-144493315D01*
X178505170Y-144478448D01*
X178535635Y-144460874D01*
X178567540Y-144442425D01*
X178574000Y-144438683D01*
X178608141Y-144418921D01*
X178651048Y-144394111D01*
X178701212Y-144365125D01*
X178757122Y-144332833D01*
X178817266Y-144298109D01*
X178880135Y-144261822D01*
X178944217Y-144224845D01*
X179008003Y-144188049D01*
X179069981Y-144152305D01*
X179128641Y-144118486D01*
X179182472Y-144087463D01*
X179229964Y-144060107D01*
X179269606Y-144037290D01*
X179299888Y-144019883D01*
X179301930Y-144018711D01*
X179335590Y-143999543D01*
X179365579Y-143982762D01*
X179390131Y-143969331D01*
X179407482Y-143960213D01*
X179415867Y-143956372D01*
X179416230Y-143956310D01*
X179420509Y-143961675D01*
G36*
X177350934Y-144110547D02*
X177410886Y-144119252D01*
X177416608Y-144120430D01*
X177516088Y-144147793D01*
X177609860Y-144186036D01*
X177697210Y-144234516D01*
X177777425Y-144292592D01*
X177849788Y-144359621D01*
X177913588Y-144434961D01*
X177968108Y-144517969D01*
X178012634Y-144608004D01*
X178039166Y-144680150D01*
X178053571Y-144729386D01*
X178063793Y-144774373D01*
X178070403Y-144819156D01*
X178073974Y-144867783D01*
X178075077Y-144924299D01*
X178075063Y-144934150D01*
X178073662Y-144993864D01*
X178069474Y-145045381D01*
X178061814Y-145093028D01*
X178049996Y-145141131D01*
X178034401Y-145190878D01*
X177996260Y-145284354D01*
X177947579Y-145371433D01*
X177889179Y-145451390D01*
X177821882Y-145523503D01*
X177746511Y-145587048D01*
X177663885Y-145641302D01*
X177574827Y-145685541D01*
X177480159Y-145719042D01*
X177416939Y-145734527D01*
X177364961Y-145742826D01*
X177307087Y-145748246D01*
X177248133Y-145750566D01*
X177192913Y-145749563D01*
X177156967Y-145746511D01*
X177057775Y-145728035D01*
X176962743Y-145698079D01*
X176872739Y-145657344D01*
X176788631Y-145606530D01*
X176711288Y-145546338D01*
X176641579Y-145477468D01*
X176580372Y-145400622D01*
X176528535Y-145316500D01*
X176486938Y-145225803D01*
X176476674Y-145197675D01*
X176454533Y-145123423D01*
X176440428Y-145050958D01*
X176433534Y-144975228D01*
X176432513Y-144927800D01*
X176438030Y-144830528D01*
X176454231Y-144735191D01*
X176480589Y-144644093D01*
X176516578Y-144559543D01*
X176516615Y-144559470D01*
X176546995Y-144506083D01*
X176584796Y-144450264D01*
X176626766Y-144396462D01*
X176669654Y-144349129D01*
X176672002Y-144346775D01*
X176749542Y-144278183D01*
X176833537Y-144220444D01*
X176923527Y-144173808D01*
X177019051Y-144138526D01*
X177088521Y-144120811D01*
X177148386Y-144111493D01*
X177215120Y-144106672D01*
X177284157Y-144106355D01*
X177350934Y-144110547D01*
X177350934Y-144110547D01*
G37*
X177350934Y-144110547D02*
X177410886Y-144119252D01*
X177416608Y-144120430D01*
X177516088Y-144147793D01*
X177609860Y-144186036D01*
X177697210Y-144234516D01*
X177777425Y-144292592D01*
X177849788Y-144359621D01*
X177913588Y-144434961D01*
X177968108Y-144517969D01*
X178012634Y-144608004D01*
X178039166Y-144680150D01*
X178053571Y-144729386D01*
X178063793Y-144774373D01*
X178070403Y-144819156D01*
X178073974Y-144867783D01*
X178075077Y-144924299D01*
X178075063Y-144934150D01*
X178073662Y-144993864D01*
X178069474Y-145045381D01*
X178061814Y-145093028D01*
X178049996Y-145141131D01*
X178034401Y-145190878D01*
X177996260Y-145284354D01*
X177947579Y-145371433D01*
X177889179Y-145451390D01*
X177821882Y-145523503D01*
X177746511Y-145587048D01*
X177663885Y-145641302D01*
X177574827Y-145685541D01*
X177480159Y-145719042D01*
X177416939Y-145734527D01*
X177364961Y-145742826D01*
X177307087Y-145748246D01*
X177248133Y-145750566D01*
X177192913Y-145749563D01*
X177156967Y-145746511D01*
X177057775Y-145728035D01*
X176962743Y-145698079D01*
X176872739Y-145657344D01*
X176788631Y-145606530D01*
X176711288Y-145546338D01*
X176641579Y-145477468D01*
X176580372Y-145400622D01*
X176528535Y-145316500D01*
X176486938Y-145225803D01*
X176476674Y-145197675D01*
X176454533Y-145123423D01*
X176440428Y-145050958D01*
X176433534Y-144975228D01*
X176432513Y-144927800D01*
X176438030Y-144830528D01*
X176454231Y-144735191D01*
X176480589Y-144644093D01*
X176516578Y-144559543D01*
X176516615Y-144559470D01*
X176546995Y-144506083D01*
X176584796Y-144450264D01*
X176626766Y-144396462D01*
X176669654Y-144349129D01*
X176672002Y-144346775D01*
X176749542Y-144278183D01*
X176833537Y-144220444D01*
X176923527Y-144173808D01*
X177019051Y-144138526D01*
X177088521Y-144120811D01*
X177148386Y-144111493D01*
X177215120Y-144106672D01*
X177284157Y-144106355D01*
X177350934Y-144110547D01*
G36*
X177397186Y-142568779D02*
X177525866Y-142568796D01*
X177642985Y-142568831D01*
X177749110Y-142568890D01*
X177844811Y-142568979D01*
X177930658Y-142569102D01*
X178007218Y-142569267D01*
X178075061Y-142569478D01*
X178134756Y-142569741D01*
X178186872Y-142570062D01*
X178231977Y-142570446D01*
X178270642Y-142570899D01*
X178303434Y-142571427D01*
X178330924Y-142572035D01*
X178353679Y-142572730D01*
X178372268Y-142573515D01*
X178387262Y-142574399D01*
X178399228Y-142575385D01*
X178408736Y-142576479D01*
X178416355Y-142577688D01*
X178422654Y-142579016D01*
X178427950Y-142580399D01*
X178498566Y-142603537D01*
X178559589Y-142630957D01*
X178613820Y-142664182D01*
X178664062Y-142704733D01*
X178674003Y-142713974D01*
X178690982Y-142730444D01*
X178706350Y-142746359D01*
X178720931Y-142762943D01*
X178735549Y-142781418D01*
X178751029Y-142803008D01*
X178768195Y-142828936D01*
X178787871Y-142860427D01*
X178810883Y-142898702D01*
X178838053Y-142944986D01*
X178870208Y-143000501D01*
X178888539Y-143032325D01*
X178920108Y-143087182D01*
X178954392Y-143146740D01*
X178989687Y-143208038D01*
X179024287Y-143268113D01*
X179056485Y-143324003D01*
X179084577Y-143372748D01*
X179092053Y-143385717D01*
X179182307Y-143542259D01*
X178689241Y-143826485D01*
X178616507Y-143868409D01*
X178546906Y-143908523D01*
X178481226Y-143946372D01*
X178420256Y-143981503D01*
X178364782Y-144013461D01*
X178315593Y-144041793D01*
X178273476Y-144066045D01*
X178239219Y-144085764D01*
X178213611Y-144100496D01*
X178197438Y-144109786D01*
X178191496Y-144113177D01*
X178185402Y-144109947D01*
X178172991Y-144099228D01*
X178156437Y-144082975D01*
X178147449Y-144073559D01*
X178072960Y-144001846D01*
X177988482Y-143934632D01*
X177896376Y-143873467D01*
X177799005Y-143819896D01*
X177698731Y-143775470D01*
X177683737Y-143769747D01*
X177567215Y-143732906D01*
X177447847Y-143708090D01*
X177326714Y-143695247D01*
X177204899Y-143694324D01*
X177083486Y-143705269D01*
X176963555Y-143728030D01*
X176846192Y-143762554D01*
X176732476Y-143808791D01*
X176716625Y-143816334D01*
X176617447Y-143869718D01*
X176526349Y-143930229D01*
X176440525Y-143999882D01*
X176376900Y-144060376D01*
X176355829Y-144081411D01*
X176338063Y-144098633D01*
X176325438Y-144110299D01*
X176319789Y-144114665D01*
X176319750Y-144114665D01*
X176313906Y-144111516D01*
X176297858Y-144102457D01*
X176272392Y-144087942D01*
X176238294Y-144068423D01*
X176196352Y-144044351D01*
X176147352Y-144016180D01*
X176092082Y-143984362D01*
X176031327Y-143949349D01*
X175965876Y-143911594D01*
X175896515Y-143871548D01*
X175827625Y-143831743D01*
X175755197Y-143789855D01*
X175685898Y-143749730D01*
X175620517Y-143711831D01*
X175559848Y-143676618D01*
X175504682Y-143644553D01*
X175455810Y-143616095D01*
X175414025Y-143591707D01*
X175380118Y-143571849D01*
X175354881Y-143556982D01*
X175339105Y-143547567D01*
X175333609Y-143544099D01*
X175335665Y-143537744D01*
X175343591Y-143521544D01*
X175356768Y-143496569D01*
X175374576Y-143463890D01*
X175396394Y-143424578D01*
X175421604Y-143379705D01*
X175449586Y-143330340D01*
X175479720Y-143277555D01*
X175511385Y-143222421D01*
X175543963Y-143166009D01*
X175576834Y-143109389D01*
X175609378Y-143053633D01*
X175640975Y-142999811D01*
X175671006Y-142948994D01*
X175698850Y-142902254D01*
X175723889Y-142860660D01*
X175745501Y-142825285D01*
X175763069Y-142797199D01*
X175775971Y-142777472D01*
X175782412Y-142768560D01*
X175836490Y-142711340D01*
X175899513Y-142661828D01*
X175969469Y-142621312D01*
X176044343Y-142591084D01*
X176072100Y-142582972D01*
X176126075Y-142568775D01*
X177256375Y-142568775D01*
X177397186Y-142568779D01*
X177397186Y-142568779D01*
G37*
X177397186Y-142568779D02*
X177525866Y-142568796D01*
X177642985Y-142568831D01*
X177749110Y-142568890D01*
X177844811Y-142568979D01*
X177930658Y-142569102D01*
X178007218Y-142569267D01*
X178075061Y-142569478D01*
X178134756Y-142569741D01*
X178186872Y-142570062D01*
X178231977Y-142570446D01*
X178270642Y-142570899D01*
X178303434Y-142571427D01*
X178330924Y-142572035D01*
X178353679Y-142572730D01*
X178372268Y-142573515D01*
X178387262Y-142574399D01*
X178399228Y-142575385D01*
X178408736Y-142576479D01*
X178416355Y-142577688D01*
X178422654Y-142579016D01*
X178427950Y-142580399D01*
X178498566Y-142603537D01*
X178559589Y-142630957D01*
X178613820Y-142664182D01*
X178664062Y-142704733D01*
X178674003Y-142713974D01*
X178690982Y-142730444D01*
X178706350Y-142746359D01*
X178720931Y-142762943D01*
X178735549Y-142781418D01*
X178751029Y-142803008D01*
X178768195Y-142828936D01*
X178787871Y-142860427D01*
X178810883Y-142898702D01*
X178838053Y-142944986D01*
X178870208Y-143000501D01*
X178888539Y-143032325D01*
X178920108Y-143087182D01*
X178954392Y-143146740D01*
X178989687Y-143208038D01*
X179024287Y-143268113D01*
X179056485Y-143324003D01*
X179084577Y-143372748D01*
X179092053Y-143385717D01*
X179182307Y-143542259D01*
X178689241Y-143826485D01*
X178616507Y-143868409D01*
X178546906Y-143908523D01*
X178481226Y-143946372D01*
X178420256Y-143981503D01*
X178364782Y-144013461D01*
X178315593Y-144041793D01*
X178273476Y-144066045D01*
X178239219Y-144085764D01*
X178213611Y-144100496D01*
X178197438Y-144109786D01*
X178191496Y-144113177D01*
X178185402Y-144109947D01*
X178172991Y-144099228D01*
X178156437Y-144082975D01*
X178147449Y-144073559D01*
X178072960Y-144001846D01*
X177988482Y-143934632D01*
X177896376Y-143873467D01*
X177799005Y-143819896D01*
X177698731Y-143775470D01*
X177683737Y-143769747D01*
X177567215Y-143732906D01*
X177447847Y-143708090D01*
X177326714Y-143695247D01*
X177204899Y-143694324D01*
X177083486Y-143705269D01*
X176963555Y-143728030D01*
X176846192Y-143762554D01*
X176732476Y-143808791D01*
X176716625Y-143816334D01*
X176617447Y-143869718D01*
X176526349Y-143930229D01*
X176440525Y-143999882D01*
X176376900Y-144060376D01*
X176355829Y-144081411D01*
X176338063Y-144098633D01*
X176325438Y-144110299D01*
X176319789Y-144114665D01*
X176319750Y-144114665D01*
X176313906Y-144111516D01*
X176297858Y-144102457D01*
X176272392Y-144087942D01*
X176238294Y-144068423D01*
X176196352Y-144044351D01*
X176147352Y-144016180D01*
X176092082Y-143984362D01*
X176031327Y-143949349D01*
X175965876Y-143911594D01*
X175896515Y-143871548D01*
X175827625Y-143831743D01*
X175755197Y-143789855D01*
X175685898Y-143749730D01*
X175620517Y-143711831D01*
X175559848Y-143676618D01*
X175504682Y-143644553D01*
X175455810Y-143616095D01*
X175414025Y-143591707D01*
X175380118Y-143571849D01*
X175354881Y-143556982D01*
X175339105Y-143547567D01*
X175333609Y-143544099D01*
X175335665Y-143537744D01*
X175343591Y-143521544D01*
X175356768Y-143496569D01*
X175374576Y-143463890D01*
X175396394Y-143424578D01*
X175421604Y-143379705D01*
X175449586Y-143330340D01*
X175479720Y-143277555D01*
X175511385Y-143222421D01*
X175543963Y-143166009D01*
X175576834Y-143109389D01*
X175609378Y-143053633D01*
X175640975Y-142999811D01*
X175671006Y-142948994D01*
X175698850Y-142902254D01*
X175723889Y-142860660D01*
X175745501Y-142825285D01*
X175763069Y-142797199D01*
X175775971Y-142777472D01*
X175782412Y-142768560D01*
X175836490Y-142711340D01*
X175899513Y-142661828D01*
X175969469Y-142621312D01*
X176044343Y-142591084D01*
X176072100Y-142582972D01*
X176126075Y-142568775D01*
X177256375Y-142568775D01*
X177397186Y-142568779D01*
D13*
X170938000Y-93580000D02*
G75*
G03X170938000Y-93580000I-950000J0D01*
G01*
X176888000Y-93580000D02*
G75*
G03X176888000Y-93580000I-6900000J0D01*
G01*
X190433334Y-91707143D02*
X190385715Y-91754762D01*
X190242858Y-91802381D01*
X190147620Y-91802381D01*
X190004762Y-91754762D01*
X189909524Y-91659524D01*
X189861905Y-91564286D01*
X189814286Y-91373810D01*
X189814286Y-91230952D01*
X189861905Y-91040476D01*
X189909524Y-90945238D01*
X190004762Y-90850000D01*
X190147620Y-90802381D01*
X190242858Y-90802381D01*
X190385715Y-90850000D01*
X190433334Y-90897619D01*
X191290477Y-90802381D02*
X191100000Y-90802381D01*
X191004762Y-90850000D01*
X190957143Y-90897619D01*
X190861905Y-91040476D01*
X190814286Y-91230952D01*
X190814286Y-91611905D01*
X190861905Y-91707143D01*
X190909524Y-91754762D01*
X191004762Y-91802381D01*
X191195239Y-91802381D01*
X191290477Y-91754762D01*
X191338096Y-91707143D01*
X191385715Y-91611905D01*
X191385715Y-91373810D01*
X191338096Y-91278571D01*
X191290477Y-91230952D01*
X191195239Y-91183333D01*
X191004762Y-91183333D01*
X190909524Y-91230952D01*
X190861905Y-91278571D01*
X190814286Y-91373810D01*
X168844234Y-103794043D02*
X168796615Y-103841662D01*
X168653758Y-103889281D01*
X168558520Y-103889281D01*
X168415662Y-103841662D01*
X168320424Y-103746424D01*
X168272805Y-103651186D01*
X168225186Y-103460710D01*
X168225186Y-103317852D01*
X168272805Y-103127376D01*
X168320424Y-103032138D01*
X168415662Y-102936900D01*
X168558520Y-102889281D01*
X168653758Y-102889281D01*
X168796615Y-102936900D01*
X168844234Y-102984519D01*
X169177567Y-102889281D02*
X169844234Y-102889281D01*
X169415662Y-103889281D01*
X170273043Y-142414743D02*
X170225424Y-142462362D01*
X170082567Y-142509981D01*
X169987329Y-142509981D01*
X169844471Y-142462362D01*
X169749233Y-142367124D01*
X169701614Y-142271886D01*
X169653995Y-142081410D01*
X169653995Y-141938552D01*
X169701614Y-141748076D01*
X169749233Y-141652838D01*
X169844471Y-141557600D01*
X169987329Y-141509981D01*
X170082567Y-141509981D01*
X170225424Y-141557600D01*
X170273043Y-141605219D01*
X171225424Y-142509981D02*
X170653995Y-142509981D01*
X170939709Y-142509981D02*
X170939709Y-141509981D01*
X170844471Y-141652838D01*
X170749233Y-141748076D01*
X170653995Y-141795695D01*
X171606376Y-141605219D02*
X171653995Y-141557600D01*
X171749233Y-141509981D01*
X171987329Y-141509981D01*
X172082567Y-141557600D01*
X172130186Y-141605219D01*
X172177805Y-141700457D01*
X172177805Y-141795695D01*
X172130186Y-141938552D01*
X171558757Y-142509981D01*
X172177805Y-142509981D01*
X188002243Y-83728043D02*
X187954624Y-83775662D01*
X187811767Y-83823281D01*
X187716529Y-83823281D01*
X187573671Y-83775662D01*
X187478433Y-83680424D01*
X187430814Y-83585186D01*
X187383195Y-83394710D01*
X187383195Y-83251852D01*
X187430814Y-83061376D01*
X187478433Y-82966138D01*
X187573671Y-82870900D01*
X187716529Y-82823281D01*
X187811767Y-82823281D01*
X187954624Y-82870900D01*
X188002243Y-82918519D01*
X188954624Y-83823281D02*
X188383195Y-83823281D01*
X188668909Y-83823281D02*
X188668909Y-82823281D01*
X188573671Y-82966138D01*
X188478433Y-83061376D01*
X188383195Y-83108995D01*
X189287957Y-82823281D02*
X189907005Y-82823281D01*
X189573671Y-83204233D01*
X189716529Y-83204233D01*
X189811767Y-83251852D01*
X189859386Y-83299471D01*
X189907005Y-83394710D01*
X189907005Y-83632805D01*
X189859386Y-83728043D01*
X189811767Y-83775662D01*
X189716529Y-83823281D01*
X189430814Y-83823281D01*
X189335576Y-83775662D01*
X189287957Y-83728043D01*
X183341343Y-135645643D02*
X183293724Y-135693262D01*
X183150867Y-135740881D01*
X183055629Y-135740881D01*
X182912771Y-135693262D01*
X182817533Y-135598024D01*
X182769914Y-135502786D01*
X182722295Y-135312310D01*
X182722295Y-135169452D01*
X182769914Y-134978976D01*
X182817533Y-134883738D01*
X182912771Y-134788500D01*
X183055629Y-134740881D01*
X183150867Y-134740881D01*
X183293724Y-134788500D01*
X183341343Y-134836119D01*
X184293724Y-135740881D02*
X183722295Y-135740881D01*
X184008009Y-135740881D02*
X184008009Y-134740881D01*
X183912771Y-134883738D01*
X183817533Y-134978976D01*
X183722295Y-135026595D01*
X185150867Y-135074214D02*
X185150867Y-135740881D01*
X184912771Y-134693262D02*
X184674676Y-135407548D01*
X185293724Y-135407548D01*
X162538671Y-125792033D02*
X162538671Y-126125367D01*
X163062481Y-126125367D02*
X162062481Y-126125367D01*
X162062481Y-125649176D01*
X163062481Y-124744414D02*
X163062481Y-125315843D01*
X163062481Y-125030129D02*
X162062481Y-125030129D01*
X162205338Y-125125367D01*
X162300576Y-125220605D01*
X162348195Y-125315843D01*
X162767271Y-102436733D02*
X162767271Y-102770067D01*
X163291081Y-102770067D02*
X162291081Y-102770067D01*
X162291081Y-102293876D01*
X162386319Y-101960543D02*
X162338700Y-101912924D01*
X162291081Y-101817686D01*
X162291081Y-101579590D01*
X162338700Y-101484352D01*
X162386319Y-101436733D01*
X162481557Y-101389114D01*
X162576795Y-101389114D01*
X162719652Y-101436733D01*
X163291081Y-102008162D01*
X163291081Y-101389114D01*
X165377905Y-86272381D02*
X165377905Y-85272381D01*
X165758858Y-85272381D01*
X165854096Y-85320000D01*
X165901715Y-85367619D01*
X165949334Y-85462857D01*
X165949334Y-85605714D01*
X165901715Y-85700952D01*
X165854096Y-85748571D01*
X165758858Y-85796190D01*
X165377905Y-85796190D01*
X166901715Y-86272381D02*
X166330286Y-86272381D01*
X166616000Y-86272381D02*
X166616000Y-85272381D01*
X166520762Y-85415238D01*
X166425524Y-85510476D01*
X166330286Y-85558095D01*
X160868705Y-143056081D02*
X160868705Y-142056081D01*
X161249658Y-142056081D01*
X161344896Y-142103700D01*
X161392515Y-142151319D01*
X161440134Y-142246557D01*
X161440134Y-142389414D01*
X161392515Y-142484652D01*
X161344896Y-142532271D01*
X161249658Y-142579890D01*
X160868705Y-142579890D01*
X161821086Y-142151319D02*
X161868705Y-142103700D01*
X161963943Y-142056081D01*
X162202039Y-142056081D01*
X162297277Y-142103700D01*
X162344896Y-142151319D01*
X162392515Y-142246557D01*
X162392515Y-142341795D01*
X162344896Y-142484652D01*
X161773467Y-143056081D01*
X162392515Y-143056081D01*
X163061905Y-88202381D02*
X163061905Y-87202381D01*
X163442858Y-87202381D01*
X163538096Y-87250000D01*
X163585715Y-87297619D01*
X163633334Y-87392857D01*
X163633334Y-87535714D01*
X163585715Y-87630952D01*
X163538096Y-87678571D01*
X163442858Y-87726190D01*
X163061905Y-87726190D01*
X163966667Y-87202381D02*
X164585715Y-87202381D01*
X164252381Y-87583333D01*
X164395239Y-87583333D01*
X164490477Y-87630952D01*
X164538096Y-87678571D01*
X164585715Y-87773810D01*
X164585715Y-88011905D01*
X164538096Y-88107143D01*
X164490477Y-88154762D01*
X164395239Y-88202381D01*
X164109524Y-88202381D01*
X164014286Y-88154762D01*
X163966667Y-88107143D01*
X199652381Y-97288095D02*
X198652381Y-97288095D01*
X198652381Y-96907142D01*
X198700000Y-96811904D01*
X198747619Y-96764285D01*
X198842857Y-96716666D01*
X198985714Y-96716666D01*
X199080952Y-96764285D01*
X199128571Y-96811904D01*
X199176190Y-96907142D01*
X199176190Y-97288095D01*
X198985714Y-95859523D02*
X199652381Y-95859523D01*
X198604762Y-96097619D02*
X199319048Y-96335714D01*
X199319048Y-95716666D01*
X188208481Y-141195495D02*
X187208481Y-141195495D01*
X187208481Y-140814542D01*
X187256100Y-140719304D01*
X187303719Y-140671685D01*
X187398957Y-140624066D01*
X187541814Y-140624066D01*
X187637052Y-140671685D01*
X187684671Y-140719304D01*
X187732290Y-140814542D01*
X187732290Y-141195495D01*
X187208481Y-139719304D02*
X187208481Y-140195495D01*
X187684671Y-140243114D01*
X187637052Y-140195495D01*
X187589433Y-140100257D01*
X187589433Y-139862161D01*
X187637052Y-139766923D01*
X187684671Y-139719304D01*
X187779910Y-139671685D01*
X188018005Y-139671685D01*
X188113243Y-139719304D01*
X188160862Y-139766923D01*
X188208481Y-139862161D01*
X188208481Y-140100257D01*
X188160862Y-140195495D01*
X188113243Y-140243114D01*
X199652381Y-86888095D02*
X198652381Y-86888095D01*
X198652381Y-86507142D01*
X198700000Y-86411904D01*
X198747619Y-86364285D01*
X198842857Y-86316666D01*
X198985714Y-86316666D01*
X199080952Y-86364285D01*
X199128571Y-86411904D01*
X199176190Y-86507142D01*
X199176190Y-86888095D01*
X198652381Y-85459523D02*
X198652381Y-85650000D01*
X198700000Y-85745238D01*
X198747619Y-85792857D01*
X198890476Y-85888095D01*
X199080952Y-85935714D01*
X199461905Y-85935714D01*
X199557143Y-85888095D01*
X199604762Y-85840476D01*
X199652381Y-85745238D01*
X199652381Y-85554761D01*
X199604762Y-85459523D01*
X199557143Y-85411904D01*
X199461905Y-85364285D01*
X199223810Y-85364285D01*
X199128571Y-85411904D01*
X199080952Y-85459523D01*
X199033333Y-85554761D01*
X199033333Y-85745238D01*
X199080952Y-85840476D01*
X199128571Y-85888095D01*
X199223810Y-85935714D01*
X188652981Y-127581095D02*
X187652981Y-127581095D01*
X187652981Y-127200142D01*
X187700600Y-127104904D01*
X187748219Y-127057285D01*
X187843457Y-127009666D01*
X187986314Y-127009666D01*
X188081552Y-127057285D01*
X188129171Y-127104904D01*
X188176790Y-127200142D01*
X188176790Y-127581095D01*
X187652981Y-126676333D02*
X187652981Y-126009666D01*
X188652981Y-126438238D01*
X183539795Y-91929181D02*
X183539795Y-92738705D01*
X183587414Y-92833943D01*
X183635033Y-92881562D01*
X183730271Y-92929181D01*
X183920748Y-92929181D01*
X184015986Y-92881562D01*
X184063605Y-92833943D01*
X184111224Y-92738705D01*
X184111224Y-91929181D01*
X184539795Y-92024419D02*
X184587414Y-91976800D01*
X184682652Y-91929181D01*
X184920748Y-91929181D01*
X185015986Y-91976800D01*
X185063605Y-92024419D01*
X185111224Y-92119657D01*
X185111224Y-92214895D01*
X185063605Y-92357752D01*
X184492176Y-92929181D01*
X185111224Y-92929181D01*
X175719048Y-87878571D02*
X175861905Y-87926190D01*
X175909524Y-87973810D01*
X175957143Y-88069048D01*
X175957143Y-88211905D01*
X175909524Y-88307143D01*
X175861905Y-88354762D01*
X175766667Y-88402381D01*
X175385714Y-88402381D01*
X175385714Y-87402381D01*
X175719048Y-87402381D01*
X175814286Y-87450000D01*
X175861905Y-87497619D01*
X175909524Y-87592857D01*
X175909524Y-87688095D01*
X175861905Y-87783333D01*
X175814286Y-87830952D01*
X175719048Y-87878571D01*
X175385714Y-87878571D01*
X176290476Y-87402381D02*
X176957143Y-87402381D01*
X176290476Y-88402381D01*
X176957143Y-88402381D01*
X177861905Y-88402381D02*
X177290476Y-88402381D01*
X177576190Y-88402381D02*
X177576190Y-87402381D01*
X177480952Y-87545238D01*
X177385714Y-87640476D01*
X177290476Y-87688095D01*
X171958409Y-90171452D02*
X171958409Y-89409547D01*
X172339361Y-89790499D02*
X171577456Y-89790499D01*
M02*
