M48
;DRILL file {KiCad 4.0.5} date 03/05/17 20:04:51
;FORMAT={-:-/ absolute / inch / decimal}
FMAT,2
INCH,TZ
T1C0.016
T2C0.020
T3C0.031
T4C0.039
T5C0.043
T6C0.047
T7C0.063
T8C0.106
%
G90
G05
M72
T1
X6.4255Y-4.8438
X6.4764Y-4.1535
X6.4764Y-4.498
X6.5255Y-4.8438
X6.5748Y-4.1535
X6.624Y-4.5965
X6.624Y-4.6654
X6.6299Y-4.7303
X6.7005Y-4.8988
X6.7155Y-4.3863
X6.7605Y-4.7238
X6.7618Y-4.5866
X6.8805Y-4.6638
X6.8855Y-4.3313
X6.8898Y-5.1181
X6.948Y-4.3188
X6.998Y-5.1181
X7.103Y-4.7388
X7.103Y-4.7888
X7.1705Y-4.7788
T2
X6.1403Y-5.7
X6.1407Y-3.2972
X6.1636Y-5.6436
X6.1636Y-5.7564
X6.1641Y-3.2409
X6.1641Y-3.3536
X6.22Y-5.6203
X6.22Y-5.7797
X6.2205Y-3.2175
X6.2205Y-3.377
X6.2764Y-5.6436
X6.2764Y-5.7564
X6.2768Y-3.2409
X6.2768Y-3.3536
X6.2997Y-5.7
X6.3002Y-3.2972
X6.54Y-3.3
X6.5892Y-3.3
X6.6384Y-3.3
X6.6876Y-3.3
X6.7369Y-3.3
X6.7861Y-3.3
X6.8353Y-3.3
X6.8845Y-3.3
X7.9124Y-3.2972
X7.9124Y-5.6988
X7.9358Y-3.2409
X7.9358Y-3.3536
X7.9358Y-5.6424
X7.9358Y-5.7552
X7.9921Y-3.2175
X7.9921Y-3.377
X7.9921Y-5.6191
X7.9921Y-5.7785
X8.0485Y-3.2409
X8.0485Y-3.3536
X8.0485Y-5.6424
X8.0485Y-5.7552
X8.0719Y-3.2972
X8.0719Y-5.6988
T3
X6.8027Y-4.0938
X6.8799Y-4.498
X6.939Y-4.498
X6.9405Y-4.0938
X7.098Y-3.5263
X7.098Y-3.6513
X7.1063Y-3.7697
X7.1063Y-3.8563
X7.24Y-5.06
X7.24Y-5.1978
X7.5591Y-3.7598
X7.6181Y-3.3366
X7.6181Y-3.4744
X7.6969Y-3.7598
T4
X6.6924Y-3.5346
X6.6924Y-3.8339
X7.38Y-3.76
X7.38Y-3.86
X7.38Y-3.96
X7.38Y-4.06
X7.38Y-4.16
X7.38Y-4.26
X7.38Y-4.36
X7.38Y-4.46
X7.38Y-4.56
X7.38Y-4.66
X7.38Y-4.76
X7.38Y-4.86
T5
X6.58Y-5.6
X6.8753Y-5.6
T6
X6.2791Y-3.4854
X6.2791Y-3.6232
X6.2791Y-5.3752
X6.2791Y-5.513
X7.52Y-4.0044
X7.52Y-4.1422
X7.52Y-4.28
X7.52Y-4.4844
X7.52Y-4.6222
X7.52Y-4.76
X7.52Y-4.9688
X7.52Y-5.1066
X7.52Y-5.2444
X7.52Y-5.3822
X7.52Y-5.52
X7.9331Y-3.5138
X7.9331Y-3.6516
X7.9688Y-3.9355
X7.9688Y-4.0733
X7.9688Y-4.2111
X7.9688Y-4.4155
X7.9688Y-4.5533
X7.9688Y-4.6911
X7.9688Y-4.8999
X7.9688Y-5.0377
X7.9688Y-5.1755
X7.9688Y-5.3133
X7.9688Y-5.4511
T7
X6.1731Y-3.8346
X6.1731Y-4.365
X6.1731Y-4.635
X6.1731Y-5.1626
X6.3069Y-3.8374
X6.3069Y-4.365
X6.3069Y-4.635
X6.3069Y-5.1654
T8
X6.22Y-5.7
X6.2205Y-3.2972
X7.9921Y-3.2972
X7.9921Y-5.6988
T0
M30
